
<svg version="1.1" id="campania" width="100%" height="100%" viewBox="0 0 800 600" preserveAspectRatio="none">
<path id="salerno"  fill="red" d="M551.214,537.165c-0.849,0-1.875-0.369-3.051-1.096
	c-0.145-0.09-0.297-0.166-0.455-0.23l-1.114-0.449c-0.357-0.145-0.738-0.217-1.122-0.217c-0.102,0-0.203,0.004-0.305,0.016
	l-0.324,0.033c-1.047-0.465-2.083-0.709-3.023-0.93c-1.02-0.24-1.903-0.449-2.493-0.867c-1-0.816-2.191-1.248-3.455-1.248
	c-0.054,0-0.107,0.002-0.161,0.002c-0.566-0.244-1.091-0.66-1.635-1.297c-0.168-0.291-0.388-0.559-0.658-0.787l-0.136-0.115
	c-0.108-0.094-0.223-0.176-0.34-0.25c-0.281-0.227-0.576-0.498-0.885-0.783c-0.573-0.529-1.215-1.119-2.002-1.645
	c-1.125-1.361-2.643-1.93-3.692-2.32c-0.298-0.111-0.707-0.266-0.962-0.395c-0.037-1.143-0.424-2.238-1.138-3.18
	c-0.074-0.098-0.154-0.191-0.24-0.279c-0.166-0.17-0.33-0.836-0.462-1.373c-0.31-1.258-0.764-3.104-2.389-4.498
	c-0.452-0.604-0.936-1.127-1.366-1.594c-0.323-0.35-0.633-0.686-0.886-1.008c-0.132-0.262-0.304-0.51-0.516-0.73l-0.147-0.154
	c-0.235-0.246-0.503-0.445-0.791-0.594c-0.576-0.451-1.047-0.924-1.422-1.424c-0.152-0.379-0.385-0.73-0.694-1.031l-0.186-0.18
	c-0.279-0.27-0.599-0.477-0.939-0.617c-0.498-0.365-0.938-0.807-1.33-1.334c-0.14-0.307-0.333-0.594-0.58-0.848l-0.168-0.174
	c-0.292-0.301-0.634-0.527-1-0.68c-0.562-0.428-1.103-1.002-1.708-1.645l-0.188-0.199c-0.061-0.078-0.125-0.154-0.194-0.227
	c-1.375-1.465-3.097-1.961-4.354-2.324c-0.603-0.174-1.178-0.34-1.495-0.547c-0.092-0.121-0.193-0.236-0.306-0.344
	c-1.377-1.332-2.979-1.785-4.267-2.15c-0.762-0.217-1.425-0.404-1.727-0.686c-0.017-0.018-0.133-0.143-0.133-0.143
	c-0.138-0.148-0.286-0.277-0.444-0.391c-0.769-0.688-1.227-1.256-1.471-1.84c0.091-1.396-0.384-2.711-1.381-3.785
	c-0.774-0.895-1.473-1.744-2.123-2.588c-0.133-0.238-0.3-0.461-0.501-0.662l-0.159-0.16c-0.271-0.271-0.583-0.48-0.915-0.627
	c-0.64-0.48-1.2-1.088-1.688-1.676c-0.195-0.328-0.459-0.623-0.786-0.865l-0.096-0.07c-0.268-0.195-0.56-0.342-0.861-0.439
	c-3.496-1.566-6.965-1.752-9.304-1.752c-1.738,0-3.467,0.117-5.139,0.232c-1.644,0.111-3.196,0.217-4.729,0.217
	c-3.291,0-5.696-0.527-7.8-1.709c-0.06-0.033-0.119-0.064-0.179-0.092c-0.435-0.307-0.803-0.654-1.11-1.047
	c-0.104-0.35-0.272-0.686-0.508-0.988c-3.426-4.41-7.641-8.664-12.885-13.002c-0.384-0.316-0.826-0.523-1.286-0.623
	c-0.577-0.424-1.14-1.027-1.763-1.695c-0.569-0.613-1.366-0.957-2.195-0.957c-0.073,0-0.146,0.004-0.22,0.008
	c-0.934,0.068-1.867,0.145-2.801,0.219l-0.331,0.027c-0.552,0.043-1.08,0.238-1.526,0.564c-0.454,0.33-0.873,0.52-1.148,0.52
	c-0.291,0-0.643-0.254-0.889-0.467c-1.025-1.361-0.986-1.748,2.123-4.299l0.403-0.332c0.068-0.047,0.134-0.096,0.191-0.145
	c0.431-0.361,0.837-0.748,1.242-1.139c0.454-0.438,0.86-0.828,1.256-1.113c0.443-0.174,0.851-0.459,1.18-0.852l0.097-0.115
	c0.189-0.227,0.341-0.473,0.454-0.734c1.922-3.412,1.681-6.994,1.467-10.168c-0.215-3.197-0.287-5.334,0.911-7.156
	c0.076-0.086,0.148-0.18,0.216-0.277l0.124-0.178c0.222-0.25,0.883-0.445,1.581-0.652c1.233-0.365,2.769-0.82,4.074-2.117
	c0.182-0.18,0.336-0.377,0.462-0.588c0.592-0.697,1.085-1.219,1.615-1.561c0.422-0.143,0.816-0.385,1.147-0.723l0.102-0.104
	c0.452-0.459,0.729-1.033,0.822-1.633c1.891-5.32,1.909-10.883,0.056-16.955c0.19-1.355-0.149-2.693-0.995-3.855
	c-0.072-0.1-0.149-0.193-0.232-0.281c-0.527-0.566-0.743-1.422-1.051-2.77c-0.189-0.83-0.397-1.74-0.756-2.668
	c0.065-1.311-0.354-2.57-1.229-3.633c-0.059-0.072-0.121-0.141-0.187-0.207c-0.298-0.301-0.474-0.996-0.677-1.803
	c-0.335-1.322-0.751-2.971-2.089-4.408c-0.121-0.129-0.251-0.246-0.389-0.35c-0.307-0.426-0.49-1.092-0.735-2.047
	c-0.231-0.902-0.487-1.896-0.978-2.893c-0.05-1.275-0.479-2.482-1.265-3.543l-0.405-0.527c-0.548-0.707-1.035-1.336-1.311-1.947
	c0.073-1.369-0.369-2.678-1.286-3.762c-0.025-0.029-0.051-0.059-0.077-0.088c-0.252-0.275-0.42-0.949-0.599-1.664
	c-0.335-1.338-0.793-3.172-2.373-4.639c-0.008-0.008-0.017-0.016-0.024-0.021c-0.396-0.508-0.599-1.266-0.88-2.396
	c-0.215-0.863-0.451-1.814-0.873-2.775c0.018-1.279-0.383-2.496-1.185-3.568c-0.058-0.078-0.119-0.152-0.184-0.223
	c-0.815-0.898-1.473-1.666-1.769-2.486c-0.087-1.367-0.621-2.59-1.564-3.582c-0.707-1.154-1.616-2.162-2.712-3.002
	c-0.547-0.742-1.145-1.375-1.679-1.939c-0.31-0.328-0.604-0.641-0.864-0.945c-0.072-0.102-0.152-0.199-0.239-0.295l-0.089-0.096
	c-0.159-0.174-0.334-0.324-0.521-0.451c-0.647-0.555-1.287-1.146-1.771-1.795c-0.122-0.266-0.284-0.52-0.488-0.748l-0.166-0.186
	c-0.286-0.322-0.628-0.568-0.998-0.736c-0.573-0.467-0.939-0.969-1.145-1.566c-0.085-1.359-0.619-2.576-1.564-3.562
	c-0.737-1.158-1.645-2.213-2.702-3.141c-0.288-0.318-0.588-0.629-0.888-0.938c-0.443-0.455-0.842-0.865-1.151-1.27
	c-0.151-0.375-0.382-0.727-0.689-1.025l-0.179-0.174c-0.262-0.254-0.56-0.451-0.877-0.592c-0.477-0.354-0.851-0.727-1.141-1.137
	c-0.141-0.449-0.389-0.869-0.74-1.221l-0.186-0.186c-0.351-0.352-0.771-0.598-1.219-0.74c-0.397-0.279-0.749-0.631-1.068-1.072
	c-0.146-0.369-0.369-0.715-0.667-1.012l-0.179-0.18c-0.242-0.242-0.517-0.436-0.811-0.578c-0.855-0.623-1.694-1.297-2.501-2.006
	c-0.212-0.188-0.448-0.342-0.704-0.463l-1.146-0.539c-0.399-0.188-0.836-0.285-1.276-0.285c-0.03,0-0.87,0.025-0.87,0.025
	c-3.559-1.055-6.785-1.568-9.851-1.568c-3.54,0-6.94,0.709-10.106,2.107c-0.326,0.143-0.624,0.346-0.88,0.594
	c-1.111,1.08-1.733,2.441-1.813,3.92c-0.576,0.873-1.707,2.57-2.212,2.684c-0.006,0-0.355-0.008-1.125-0.566
	c-0.134-0.16-0.287-0.309-0.458-0.441c-1.156-0.902-2.424-1.359-3.769-1.359c-0.983,0-1.97,0.252-2.941,0.75
	c-1.271,0.064-2.449,0.496-3.509,1.283l-0.605,0.457c-0.727,0.555-1.369,1.047-1.991,1.312c0,0-0.663-0.004-0.669-0.004
	c-0.483,0-0.96,0.115-1.388,0.34l-1.031,0.537c-0.236,0.123-0.454,0.277-0.649,0.457c-0.215,0.199-0.889,0.365-1.484,0.512
	c-1.271,0.312-2.963,0.729-4.351,2.146c-1.016,0.533-1.553,0.609-1.74,0.617c-0.143-0.215-0.532-0.979-0.666-3.09
	c-0.09-1.404-0.085-2.824-0.08-4.326c0.008-2.418,0.016-4.918-0.388-7.479c-0.068-0.438-0.234-0.855-0.483-1.221
	c-7.251-10.645-10.321-15.803-9.297-20.527c1.167-5.388,8.117-11.598,20.532-21.173c0.254-0.196,0.476-0.432,0.655-0.698
	c4.04-5.991,9.549-6.886,12.473-6.886c3.692,0,7.404,1.347,9.688,3.515c10.134,9.607,21.267,9.962,32.033,10.305
	c4.704,0.149,9.149,0.291,13.476,1.186c8.294,2.487,16.876,4.211,25.178,5.879c14.888,2.99,30.281,6.082,43.969,13.673
	c3.048,1.69,5.875,2.548,8.403,2.548c2.78,0,9.235-1.172,9.331-11.988c0.381-3.917,1.195-6.681,2.634-8.949
	c1.987-2.927,3.3-5.591,4.075-8.301c0.616-1.733,1.312-2.801,2.287-3.498c0.296-0.104,0.563-0.155,0.798-0.155
	c0.8,0,1.641,0.673,2.931,1.78c0.925,0.794,1.973,1.693,3.244,2.339c0.151,0.076,0.309,0.141,0.471,0.19
	c4.628,1.433,6.436,4.359,6.043,9.787c-1.136,15.776,5.515,27.613,19.766,35.184c5.25,2.791,5.345,5.254,3.795,8.324
	c-3.895,7.719-0.377,14.58,2.449,20.092c5.437,10.611,10.85,18.373,17.035,24.428c5.151,5.039,10.99,10.75,14.25,18.092l0.135,0.301
	c0.723,1.623,1.621,3.643,3.468,4.805c11.94,7.479,18.987,16.953,22.185,29.824c1.581,6.367,7.776,10.713,16.998,11.924
	c3.994,0.525,5.715,2.678,6.349,7.943c0.354,2.953-0.162,8.16-4.348,8.939c-16.742,3.121-19.367,15.459-20.514,26.777
	c-0.162,1.578-0.582,3.211-1.027,4.939c-0.646,2.506-1.311,5.09-1.316,7.914c-1.029,1.865-1.13,3.824-1.214,5.447
	c-0.085,1.635-0.161,2.592-0.748,3.234c-0.136,0.15-0.256,0.312-0.359,0.486c-0.622,1.043-0.906,2.164-0.847,3.303
	c-0.931,1.738-0.998,3.621-1.055,5.197c-0.072,2.029-0.208,2.398-0.529,2.572c-0.217-0.242-0.577-0.779-0.928-1.736
	c-0.123-1.371-0.708-2.604-1.692-3.564c-1.254-2-3.321-2.49-4.48-2.766c-0.282-0.066-0.692-0.164-0.874-0.24
	c-0.306-0.381-0.7-0.682-1.149-0.877l-1.083-0.469c-0.377-0.162-0.783-0.246-1.191-0.246c-0.119,0-0.238,0.006-0.357,0.021
	l-0.392,0.047c-2.11-0.844-4.056-1.254-5.926-1.254c-1.97,0-3.86,0.465-5.634,1.383c-0.012,0-0.023,0-0.035,0
	c-1.277,0-2.486,0.355-3.594,1.053c-0.131,0.082-0.256,0.176-0.372,0.277c-0.338,0.295-1.081,0.332-2.267,0.355
	c-1.88,0.041-4.681,0.1-6.778,2.535c-1.174,0.934-2.215,1.992-3.116,3.168c-1.168,0.871-2.149,1.934-2.926,3.166
	c-1.177,0.686-2.123,1.639-2.824,2.848c-0.971,0.936-1.543,2.131-1.674,3.502c-0.159,0.607-0.467,1.078-0.979,1.488
	c-0.479,0.172-0.919,0.469-1.269,0.881l-0.18,0.211c-0.223,0.264-0.393,0.555-0.511,0.861c-0.323,0.457-0.729,0.867-1.229,1.238
	c-0.317,0.141-0.616,0.336-0.878,0.59l-0.187,0.18c-0.301,0.289-0.528,0.627-0.683,0.99c-0.377,0.5-0.827,0.951-1.358,1.365
	c-0.253,0.121-0.491,0.281-0.709,0.48C552.553,537.05,551.733,537.165,551.214,537.165z"/>
<path id="avellino"  fill="blue" d="M506.398,302.222c0.641-0.696,1.66-2.562,1.279-7.232
	c-0.215-2.606,0.279-5.114,0.73-7.008c0.043-0.179,0.104-0.354,0.178-0.521c0.648-1.458,1.268-3.005,1.867-4.501
	c3.107-7.76,6.623-16.535,17.072-19.906c0.752-0.606,1.518-1.188,2.26-1.754c1.883-1.434,3.66-2.787,5.062-4.366
	c4.363-4.92,9.359-9.474,16.295-9.474c2.68,0,5.5,0.714,8.389,2.124c0.703,0.344,1.537,0.532,2.348,0.532
	c1.141,0,2.109-0.367,2.654-1.005c1.869-2.192,3.945-4.152,5.953-6.048c3.762-3.552,7.314-6.906,9.328-11.494
	c5.434-12.379,0.699-26.666-10.777-32.527c-7.275-3.718-13.352-5.376-19.707-5.376c-2.82,0-5.639,0.33-8.619,1.008
	c-3.662,0.834-7.201,1.257-10.518,1.257c-8.773,0-16.113-2.948-21.229-8.525c-5.945-6.484-8.553-16.055-7.543-27.675
	c0.174-2.016,0.656-3.913,1.123-5.748c0.174-0.68,0.346-1.359,0.5-2.039c1.793-7.924,1.66-13.244-0.393-15.814
	c-1.293-1.616-3.607-2.402-7.078-2.402c-2.514,0-5.639,0.432-9.301,1.284c-0.988,0.228-2.055,0.755-3.184,1.312
	c-0.627,0.309-1.252,0.617-1.885,0.892c-0.379,0.165-0.785,0.249-1.195,0.249c-0.162,0-0.324-0.014-0.486-0.04
	c-0.637-0.104-1.312-0.155-2.066-0.155c-1.318,0-2.682,0.155-4.125,0.318l-0.566,0.063c-0.697,0.077-1.412,0.115-2.186,0.115l0,0
	c-1.775,0-3.504-0.202-5.178-0.398c-1.566-0.183-3.047-0.356-4.465-0.356c-2.037,0-3.568,0.361-4.967,1.171
	c-3.141,1.816-2.861,3.376-1.592,7.619c0.762,2.553,1.627,5.446,0.828,8.415c-0.395,1.473-1.166,2.613-1.846,3.62
	c-0.236,0.35-0.473,0.696-0.68,1.056c-0.031,0.054-0.062,0.105-0.096,0.156c-2.004,3.042-3.756,6.234-3.012,8.972
	c4.082,15.021-5.904,21.529-15.061,25.522c-1.266,0.551-2.51,1.146-3.83,1.774c-4.975,2.374-10.119,4.828-16.205,4.828
	c-1.092,0-2.191-0.082-3.271-0.243c-0.767-0.115-1.477-0.174-2.112-0.174c-2.792,0-4.433,0.85-4.56,5.189
	c-0.253,8.627-4.797,9.915-7.482,9.915c-2.02,0-4.315-0.739-7.022-2.262c-0.494-0.278-0.983-0.575-1.474-0.872
	c-1.65-1.001-3.076-1.865-4.447-1.865c-0.244,0-0.49,0.027-0.741,0.082c-1.227,1.627-1.484,3.822-1.777,6.324l-0.047,0.399
	c-0.008,0.066-0.018,0.133-0.03,0.198l-0.074,0.427c-0.246,1.457-0.705,4.169-3.746,5.379c-0.362,0.144-0.737,0.213-1.107,0.213
	c-1.038,0-2.037-0.542-2.59-1.484c-1.799-3.07-1.554-6.216-1.336-8.991c0.167-2.141,0.312-3.996-0.479-5.492
	c-2.899-4.279-5.735-6.448-8.431-6.448c-2.022,0-4.297,1.178-6.759,3.5c-3.738,3.529-6.061,9.52-6.211,16.023
	c-0.136,5.876,1.55,11.073,4.627,14.259c0.769,0.798,1.652,1.569,2.508,2.316c2.671,2.333,5.433,4.746,5.183,8.393
	c-0.2,2.915-2.276,5.52-6.73,8.442c-0.537,0.353-0.577,0.615-0.602,0.772c-0.071,0.468-0.039,2.29,3.267,6.414
	c4.315,3.067,9.737,4.237,15.471,5.474c8.748,1.888,18.633,4.021,24.7,13.92c0.018,0,0.035,0,0.054,0c0.638,0,1.482-0.082,2.3-0.161
	c0.941-0.091,1.916-0.186,2.813-0.186c0.01,0,0.091,0,0.101,0c1.277,0.013,2.554,0.017,3.831,0.017c1.592,0,3.186-0.007,4.777-0.014
	c1.6-0.006,3.199-0.013,4.801-0.013c3.814,0,6.74,0.039,9.484,0.127c0.252,0.008,0.504,0.048,0.746,0.119
	c7.461,2.183,15.299,3.744,22.881,5.255c15.99,3.187,32.527,6.481,47.393,15.799c2.205,1.382,4.291,2.143,5.873,2.143
	C505.502,303.038,506.074,302.573,506.398,302.222z"/>
<path id="caserta"  fill="yellow" d="M273.809,224.099c6.093-5.707,12.999-12.177,22.688-12.177
	c2.214,0,4.516,0.346,6.842,1.026c0.231,0.067,0.454,0.163,0.663,0.284c5.37,3.115,11.385,4.63,18.388,4.63
	c2.147,0,4.45-0.146,6.843-0.433c6.729-1.221,7.176-4.569,6.652-8.009c-0.484-3.186-2.542-4.801-6.116-4.801
	c-0.233,0-0.469,0.008-0.708,0.022l-0.771,0.048c-1.833,0.114-3.564,0.223-5.234,0.223c-3.395,0-7.583-0.419-9.856-3.688
	c-2.018-2.902-1.901-7.113,0.375-13.28c-0.505-0.896-3.454-2.272-4.736-2.871l-0.688-0.323c-1.327-0.629-2.769-1.129-4.294-1.657
	c-3.854-1.336-8.223-2.85-11.365-6.938c-0.173-0.226-0.313-0.475-0.417-0.739c-1.455-3.737-1.399-6.795,0.167-9.086
	c1.026-1.5,3.183-3.288,7.634-3.288c0.372,0,0.758,0.012,1.157,0.037c1.311,0.081,2.533,0.319,3.715,0.551
	c1.235,0.24,2.401,0.468,3.471,0.468c0.587,0,1.115-0.069,1.607-0.213c7.339-4.117,6.004-9.705,3.229-18.43l-0.09-0.284
	c-2.586-8.145-6.127-19.299,6.674-27.129c0.934-0.572,2.084-1.517,2.257-2.77c0.162-1.167-0.507-2.628-1.883-4.117
	c-2.305-2.496-3.66-5.36-4.971-8.131c-0.686-1.448-1.333-2.816-2.093-4.086c-0.111-0.185-0.202-0.382-0.271-0.586
	c-0.201-0.6-0.336-1.21-0.454-1.748c-0.09-0.409-0.222-1.009-0.333-1.272c-5.368-4.685-11.668-7.908-18.335-11.32
	c-8.1-4.145-16.475-8.43-23.128-15.587c-0.311-0.168-1.206-0.349-1.75-0.458c-0.365-0.074-0.725-0.147-1.063-0.229l-2.396-0.572
	c-5.493-1.313-11.173-2.671-16.774-3.849c-1.523-0.32-2.896-0.482-4.078-0.482c-2.053,0-3.492,0.467-4.4,1.426
	c-1.237,1.308-1.788,3.876-1.592,7.429c0.161,2.973,1.323,5.624,3.016,8.685c0.151,0.272,0.309,0.543,0.466,0.814
	c1.18,2.034,2.795,4.819,1.944,8.383c-1.688,7.075-12.649,12.955-21.323,13.486c-1.016,0.062-1.986,0.093-2.887,0.093
	c-9.449,0-14.523-3.468-16.967-11.593c-0.737-2.442-1.153-4.921-1.556-7.318c-0.36-2.14-0.699-4.16-1.244-6.1
	c-0.28-0.999-0.777-1.517-0.963-1.66c-0.068,0.06-0.176,0.169-0.31,0.359c-1.456,2.069-3.146,4.004-4.779,5.875
	c-5.043,5.776-9.398,10.766-7.213,18.829c0.562,2.068,0.473,4.177,0.394,6.037c-0.054,1.245-0.104,2.42,0.031,3.455
	c2.164,16.434-5.229,27.891-22.597,35.004c-1.328,1.319-3.173,1.632-4.468,1.851c-0.264,0.045-0.604,0.103-0.889,0.164
	c0.695,0.782,1.334,1.631,1.906,2.535c0.919,1.006,1.432,2.225,1.507,3.571c0.26,0.634,0.735,1.24,1.517,1.938
	c0.174,0.117,0.338,0.256,0.488,0.413c0.974,1.021,1.867,2.098,2.658,3.204c0.955,1.005,1.476,2.272,1.504,3.646
	c0.217,0.602,0.638,1.152,1.339,1.752c0.262,0.154,0.504,0.352,0.717,0.59c0.965,1.082,1.89,2.247,2.751,3.466
	c1.64,1.234,2.169,2.979,2.534,4.183c0.102,0.334,0.247,0.811,0.353,1.035c0.173,0.122,0.335,0.264,0.483,0.426l0.147,0.161
	c0.086,0.095,0.166,0.193,0.237,0.296c0.768,0.928,1.518,1.905,2.234,2.909c0.869,1.054,1.337,2.287,1.378,3.612
	c0.296,0.56,0.749,1.131,1.257,1.77c0.212,0.268,0.424,0.535,0.63,0.807c1.479,1.205,2.004,2.843,2.364,3.97
	c0.107,0.337,0.262,0.818,0.373,1.043c0.125,0.074,0.246,0.158,0.362,0.252l0.253,0.205c0.501,0.406,0.84,0.944,1.001,1.527
	c0.272,0.354,0.608,0.682,1.021,0.994c0.474,0.188,0.904,0.498,1.242,0.924c1.103,1.392,1.483,2.928,1.789,4.162
	c0.216,0.871,0.402,1.624,0.752,1.973c0.54,0.541,0.854,1.268,0.877,2.032c0.078,2.607,0.159,5.215,0.24,7.822
	c0.569,1.031,0.852,2.086,1.089,2.973c0.228,0.851,0.396,1.442,0.65,1.783c0.146,0.1,0.286,0.214,0.417,0.343l0.221,0.217
	c0.313,0.308,0.546,0.669,0.696,1.056c0.37,0.486,0.845,0.958,1.449,1.443c0.241,0.138,0.467,0.312,0.669,0.521l0.134,0.138
	c0.19,0.196,0.349,0.412,0.475,0.642c0.418,0.526,0.935,1.046,1.477,1.591c0.269,0.271,0.536,0.541,0.799,0.816
	c1.069,0.992,2.063,2.109,2.96,3.325c0.82,0.572,1.553,1.252,2.191,2.032c0.23,0.083,0.452,0.194,0.66,0.333
	c1.869,1.254,3.683,1.838,5.706,1.838c2.801,0,5.69-1.132,8.75-2.33c2.5-0.979,5.085-1.991,7.838-2.467
	c0.922-0.159,1.877-0.483,2.887-0.825c1.655-0.562,3.532-1.197,5.644-1.197c2.725,0,5.253,1.049,7.725,3.207
	c6.209,5.409,10.443,7.717,14.161,7.717C263.358,232.426,267.492,230.014,273.809,224.099z"/>
<path id="benevento"  fill="purpe" d="M397.639,211.721c2.442-1.165,2.912-2.365,1.935-4.936
	c-1.57-4.12-1.561-7.518,0.029-9.825c0.878-1.274,2.632-2.793,6.001-2.793c0.958,0,2.02,0.125,3.157,0.373
	c1.464,0.318,2.876,0.474,4.319,0.474c6.093,0,11.395-2.855,17.007-5.879c2.567-1.383,5.223-2.812,7.999-3.98
	c4.322-1.817,6.814-3.904,7.408-6.2c0.583-2.254-0.531-5.228-3.31-8.844c-0.664-0.447-1.504-0.769-2.458-1.133
	c-0.709-0.271-1.442-0.551-2.192-0.917c-1.748-0.854-5.909-3.263-6.786-7.166c-0.436-1.938,0.028-3.829,1.34-5.472
	c1.312-1.641,2.834-2.474,4.523-2.474c2.333,0,3.978,1.591,5.3,2.869c0.488,0.473,1.307,1.264,1.614,1.368
	c0.134,0.022,0.267,0.055,0.397,0.096c0.521,0.164,1.017,0.247,1.471,0.247c0.618,0,1.183-0.147,1.75-0.461
	c0.76-0.965,1.65-1.756,2.451-2.467c2.16-1.918,2.577-2.48,2.069-4.127c-2.651-8.584-3.862-12.502-1.648-15.502
	c1.701-2.306,4.724-2.617,7.455-2.617c2.407,0,5.593,0.273,9.626,0.62l0.306,0.025c0.507,0.044,1.031,0.099,1.562,0.154
	c1.088,0.115,2.213,0.233,3.162,0.233c1.014,0,1.44-0.136,1.583-0.199c0.058-0.228,0.181-1.122-0.559-3.354
	c-1.53-2.038-2.442-4.238-3.326-6.37c-1.128-2.721-2.103-5.071-4.197-6.88c-8.753-7.564-10.121-17.448-3.753-27.115
	c2.041-3.101,1.688-5.117-1.451-8.295c-8.904-8.986-15.137-14.189-20.647-14.189c-4.462,0-9.186,3.523-15.318,11.427
	c-3.694,4.756-8.693,7.483-13.717,7.483c-3.322,0-6.544-1.182-9.318-3.417c-1.982-1.599-3.629-2.409-4.893-2.409
	c-1.696,0-3.375,1.57-5.88,4.466c-11.273,13.04-23.475,19.379-37.3,19.379c-5.082,0-10.429-0.898-15.888-2.671
	c-2.188-0.709-4.721-0.807-7.402-0.909c-1.316-0.051-2.679-0.104-4.038-0.232c-0.433-0.041-0.851-0.176-1.227-0.395
	c-0.572-0.334-1.079-0.518-1.429-0.518c-0.104,0-0.354,0-0.77,0.359c-1.115,1.405-1.575,2.742-1.366,3.975
	c0.212,1.248,1.134,2.441,2.597,3.36c5.252,3.299,6.181,6.645,6.034,8.871c-0.14,2.138-1.358,5.167-6.366,7.463
	c-7.497,3.436-9.989,7.159-4.938,20.142l0.262,0.67c2.976,7.611,6.679,17.084-3.734,24.608c-0.055,0.039-0.11,0.077-0.167,0.112
	c-1.676,1.048-3.463,1.557-5.464,1.557c-1.79,0-3.435-0.404-5.025-0.795c-0.585-0.144-1.174-0.289-1.771-0.41
	c-1.055-0.213-1.992-0.321-2.788-0.321c-0.654,0-1.816,0.078-2.245,0.602c-0.164,0.198-0.637,1.006-0.248,3.351
	c2.567,4.154,7.205,5.34,12.106,6.592l1.233,0.317c4.969,1.297,9.931,2.912,11.247,7.091c1.265,4.014-1.604,8.02-3.868,10.681
	c-0.404,0.478-1.198,1.413-1.381,1.897l32.825,5.012c1.078-1.624,2.286-3.326,3.713-4.892c2.838-3.124,5.791-4.708,8.775-4.708
	c2.216,0,4.268,0.873,6.099,2.595c2.646,2.493,6.291,3.458,10.149,4.479c5.179,1.37,11.049,2.924,14.994,8.583
	c0.356,0.512,1.353,1.704,2.883,1.704C396.631,212.085,397.132,211.962,397.639,211.721z"/>
<path id="napoli"  fill="#ff6600" d="M286.856,352.478c1.023-0.658,2.146-0.992,3.34-0.992
	c0.016,0,0.03,0,0.046,0c0.449-0.264,0.913-0.619,1.427-1.01c0.313-0.24,0.629-0.479,0.95-0.709
	c1.039-0.883,2.289-1.357,3.634-1.379c0.77-0.35,1.523-0.982,2.376-1.697c0,0,0.157-0.131,0.198-0.162
	c1.067-0.805,2.317-1.23,3.613-1.23c0.001,0,0.003,0,0.005,0c1.089-0.508,2.171-0.764,3.151-0.994
	c1.008-0.238,1.879-0.445,2.507-0.896c1.052-0.721,2.266-1.104,3.51-1.104c0.002,0,0.004,0,0.006,0
	c0.503-0.305,1.015-0.711,1.582-1.158c0.3-0.238,0.6-0.475,0.879-0.684c0.839-1.131,1.879-2.084,3.101-2.844
	c0.821-1.408,2.022-2.482,3.511-3.135c2.011-0.988,4.228-1.49,6.589-1.49c1.47,0,3.016,0.186,4.664,0.557
	c1.176,0.236,2.217,0.357,3.095,0.357c3.228,0,3.766-1.086,3.839-7.742c0.007-0.654,0.015-1.322,0.034-1.992
	c-13.928-19.368-14.946-21.172-5.433-35.503l0.675-1.017c2.497-3.769,6.166-5.043,9.114-6.067c2.623-0.911,4.323-1.566,5.341-3.14
	c1.658-5.151,2.204-8.921,0.209-12.618c-2.876-3.319-4.103-6.321-3.751-9.169c0.505-4.073,3.972-6.439,7.03-8.526
	c0.932-0.636,1.878-1.281,2.682-1.937c-6.903-2.861-12.676-7.224-13.246-16.334c-0.421-6.721-2.85-6.721-4.456-6.721
	c-2.08,0-4.785,0.806-7.157,1.594c-0.064,0.021-0.129,0.04-0.194,0.058c-4.062,1.051-7.729,1.562-11.213,1.562
	c-7.634,0-14.317-2.592-19.881-7.708c-1.158-0.176-2.296-0.265-3.392-0.265c-10.188,0-16.945,7.781-23.479,15.307
	c-5.43,6.255-11.347,7.567-15.354,7.567c-5.414,0-10.817-2.452-14.454-6.56c-3.568-4.028-6.186-5.748-8.751-5.748
	c-1.538,0-3.335,0.604-5.495,1.847c-2.453,1.412-5.208,1.993-7.872,2.555c-5.612,1.183-8.596,2.045-9.396,7.203
	c-0.043,0.82,0.17,1.511,0.625,2.112c0.84,1.049,1.264,2.289,1.24,3.58c0.364,0.89,0.579,1.767,0.774,2.564
	c0.27,1.104,0.462,1.832,0.822,2.322c0.173,0.128,0.334,0.277,0.479,0.445c1.22,1.41,1.653,3.004,2.001,4.284
	c0.229,0.842,0.427,1.571,0.763,1.947c1.62,1.458,2.062,3.292,2.388,4.647c0.151,0.631,0.309,1.284,0.52,1.542
	c0.041,0.05,0.081,0.102,0.118,0.154c0.771,1.079,1.166,2.296,1.167,3.57c0.429,0.693,1.037,1.37,1.872,2.088
	c0.006,0.005,0.012,0.01,0.018,0.016c0.74,0.611,1.635,0.852,3.139,0.852c0.644,0,1.325-0.044,2.047-0.09
	c0.785-0.05,1.596-0.103,2.432-0.103c1.901,0,4.674,0.252,7.118,2.363c0.004,0.002,0.008,0.005,0.012,0.007
	c0.777,0.483,1.398,1.039,1.946,1.529c0.265,0.237,0.51,0.457,0.74,0.639c0.429,0.155,0.827,0.41,1.159,0.762l0.205,0.218
	c0.117,0.124,0.223,0.256,0.314,0.395c0.271,0.189,0.774,0.347,1.495,0.559c1.223,0.36,2.744,0.808,4.05,2.062
	c0.002,0.002,0.004,0.004,0.006,0.005c0.763,0.559,1.163,0.606,1.276,0.606c0.647,0,1.864-1.431,2.754-2.475
	c0.184-0.217,0.367-0.433,0.553-0.646c0.025-0.035,0.051-0.069,0.078-0.104c0.522-0.66,1.064-1.229,1.588-1.78
	c0.35-0.366,0.685-0.719,0.981-1.065c0.136-0.23,0.304-0.446,0.504-0.64c1.458-1.409,3.147-1.831,4.506-2.17
	c0.755-0.188,1.468-0.366,1.773-0.648c0.554-0.51,1.279-0.792,2.032-0.792h6.232c0.759,0,1.489,0.287,2.045,0.804
	c0.417,0.389,1.229,0.436,2.521,0.48c1.858,0.063,4.361,0.149,6.432,2.116c0.714,0.363,1.515,0.682,2.355,1.016
	c2.668,1.061,5.989,2.381,7.954,5.98c0.076,0.14,0.14,0.282,0.191,0.428c0.256,0.318,0.57,0.649,0.915,1.011
	c0.354,0.371,0.718,0.754,1.081,1.188c1.438,1.271,1.936,2.893,2.306,4.099c0.14,0.454,0.307,0.998,0.464,1.256
	c0.127,0.087,0.249,0.184,0.365,0.292l0.205,0.192c0.338,0.316,0.587,0.693,0.745,1.099c0.243,0.308,0.544,0.629,0.874,0.98
	c0.36,0.385,0.762,0.813,1.148,1.295c1.444,1.25,1.944,2.857,2.318,4.058c0.13,0.419,0.299,0.962,0.448,1.209
	c0.066,0.047,0.133,0.097,0.196,0.149l0.153,0.128c1.141,0.904,2.946,1.025,5.036,1.165c3.601,0.24,8.533,0.569,11.189,6.052
	c0.056,0.115,0.104,0.233,0.144,0.352c0.327,0.421,0.762,0.848,1.241,1.317c0.259,0.254,0.518,0.509,0.77,0.769l0.384,0.491l0,0
	c3.835,6.122,2.487,11.993-3.795,16.532c-0.116,0.084-0.237,0.158-0.361,0.225c-0.341,0.273-0.689,0.6-1.053,0.939
	c-0.448,0.418-0.95,0.887-1.514,1.328c-0.941,1.104-1.938,2.156-2.964,3.131c-0.001,0-0.002,0.002-0.003,0.004
	c-0.898,0.881-1.514,1.576-1.846,2.309c-0.048,1.336-0.546,2.59-1.442,3.613c-0.825,1.189-1.743,2.295-2.732,3.289
	c-0.108,0.109-0.223,0.207-0.343,0.297c-0.5,0.457-0.983,0.934-1.467,1.41c-0.454,0.445-0.908,0.893-1.36,1.314
	c-2.364,2.23-5.122,2.49-6.99,2.49c-0.87,0-1.713-0.062-2.527-0.121c-0.741-0.055-1.44-0.105-2.091-0.105
	c-1.186,0-1.958,0.168-2.571,0.604c-0.09,0.979-0.416,1.922-0.969,2.787c-0.022,0.035-0.045,0.068-0.068,0.102
	c-0.452,0.646-0.663,1.594-0.908,2.689c-0.197,0.883-0.413,1.854-0.798,2.838C286.065,352.841,286.393,352.714,286.856,352.478z
	 M258.919,358.811c-1.887-0.054-3.779-0.109-5.666-0.166c-1.041,0.557-1.896,1.342-2.739,2.146l-0.019,0.019
	c-1.688,3.031-1.457,6.096-0.16,9.181l0.131,0.188c0.846,0.586,1.579,1.291,2.198,2.111l0.127,0.086
	c6.631,2.807,12.252-1.117,18.226-2.729l-0.209,0.217c2.387-2.901,1.602-5.979,0.49-9.073l-0.144-0.177
	c-0.948-0.614-1.739-1.447-2.745-1.979c-0.474,0.225-0.951,0.244-1.444,0.059C264.306,360.262,261.615,359.812,258.919,358.811z
	 M184.286,292.09c0.077,1.096-0.188,2.107-0.81,3.018c-0.938,3.77-2.947,7.734,1.89,10.467c2.053,0.198,4.1,0.403,6.155,0.605
	c1.433,1.239,2.867,2.473,4.757,2.976l1.486-0.022c2.598-1.499,6.079-1.019,8.181-3.646l-0.218,0.215
	c1.553-0.993,2.809-2.287,3.865-3.786l-0.198,0.16c0.308,0,0.612-0.381,0.916-1.13c0.313-0.759,0.025-1.531-0.855-2.313l0.16,0.139
	c-1.028-1.4-2.367-2.534-3.401-3.924l-0.118-0.119c-1.416-1.158-2.755-2.421-4.386-3.303c-1.123,0.091-2.174-0.137-3.147-0.697
	C193.643,289.482,188.649,287.478,184.286,292.09z"/>
</svg>
