<svg version="1.1" id="emilia" width="100%" height="100%" viewBox="0 0 800 600" preserveAspectRatio="none">
<path id="bologna"  fill="red" d="M393.746,386.205c-3.304,0-6.977-1.576-10.92-4.686
	c-0.074-0.207-0.167-0.554-0.232-0.8c-0.12-0.449-0.256-0.959-0.455-1.471c-4.732-11.595-3.69-17.492,4.543-24.801
	c0.267-0.039,0.538-0.059,0.811-0.059c0.193,0,0.389,0.01,0.586,0.029c3.004,1.507,5.714,2.24,8.271,2.24
	c7.619,0,11.41-6.322,14.755-11.9c0.631-1.053,1.229-2.051,1.851-3.01c2.393-2.839,3.528-6.064,4.628-9.186
	c0.214-0.608,0.429-1.218,0.652-1.822c0.015-0.038,0.027-0.076,0.04-0.114c3.732-11.456,2.897-21.103-2.553-29.49
	c-2.317-3.565-2.342-6.168-0.103-10.71c5.495-11.136,10.593-19.872,21.85-22.616c0.438-0.107,0.847-0.312,1.195-0.599
	c3.892-3.203,5.861-6.471,6.023-9.99c0.259-5.609-4.208-10.034-8.148-13.938c-0.069-0.069-0.143-0.136-0.219-0.197l-0.265-0.215
	c-5.111-4.151-6.695-5.944-4.183-9.684c9.267-4.662,7.377-12.209,5.987-17.758c-0.362-1.446-0.707-2.82-0.878-4.104
	c1.619-8.29,7.699-12.493,18.078-12.493c3.161,0,6.678,0.4,10.457,1.189c1.452,0.881,1.407,1.452,0.216,4.536
	c-0.281,0.729-0.572,1.481-0.808,2.272c-0.223,0.747-0.601,1.561-1.002,2.422c-1.29,2.773-3.24,6.964,0.138,11.471
	c0.186,0.249,0.409,0.467,0.662,0.646c1.621,1.152,3.314,1.737,5.034,1.737c2.774,0,5.359-1.492,7.683-4.434
	c4.32-5.479,9.191-8.142,14.893-8.142c4.125,0,8.92,1.361,14.659,4.162c2.447,1.283,4.831,2.803,7.354,4.411
	c2.767,1.764,5.627,3.587,8.684,5.122c3.243,1.681,5.492,4.634,7.874,7.76c1.613,2.118,3.282,4.308,5.357,6.226
	c0.045,0.042,0.092,0.082,0.139,0.12c0.46,0.376,0.908,0.763,1.356,1.149c0.376,0.324,0.752,0.648,1.133,0.966
	c2.078,1.854,4.492,2.827,7.101,2.827c3.024,0,5.733-1.258,8.473-2.66c1.586-0.812,3.385-1.643,4.696-1.643
	c0.48,0,1.465,0,2.69,1.964c0.707,1.831,0.767,3.802,0.181,6.007c-3.042,4.995-2.424,10.181-1.877,14.77
	c0.117,0.985,0.235,1.971,0.315,2.953c0.075,2.22,0.065,4.804-0.518,7.354c-4.174,7.138-1.487,12.963,1.347,17.262
	c9.451,14.33,9.053,21.231-2.025,35.165c-2.154,2.709-3.9,4.389-5.947,4.389c-0.39,0-0.808-0.059-1.242-0.175
	c-1.197-0.318-2.28-0.473-3.312-0.473c-4.108,0-6.949,2.441-8.447,7.258c-0.308,0.749-0.71,1.533-1.255,2.451
	c-1.485,2.062-2.868,4.201-4.206,6.271c-2.553,3.95-4.964,7.682-8.02,10.905c-0.51,0.538-1.01,1.117-1.513,1.703
	c-1.923,2.238-3.193,3.61-5.009,3.61c-0.397,0-0.836-0.063-1.304-0.188c-0.255-0.068-0.515-0.102-0.773-0.102
	c-0.649,0-1.288,0.211-1.816,0.612c-0.382,0.291-0.774,0.571-1.167,0.852c-0.949,0.679-1.931,1.381-2.86,2.255
	c-2.635,2.479-3.635,2.998-4.011,2.998c-0.222,0-0.999-0.291-3.428-2.994c-1.199-1.335-2.282-2.801-3.428-4.353
	c-1.061-1.437-2.157-2.922-3.381-4.334c-2.984-3.442-6.197-5.188-9.552-5.188c-2.646,0-5.187,1.101-7.55,3.271
	c-2.033,1.865-3.53,2.435-6.406,2.435c-0.334,0-0.681-0.009-1.043-0.023c-0.229-0.01-0.461-0.015-0.692-0.015
	c-11.615,0-26.606,12.362-29.705,24.495c-0.098,0.382-0.179,0.797-0.258,1.215c-0.036,0.192-0.082,0.432-0.13,0.648
	c-2.456,0.257-4.929,0.359-7.531,0.468c-2.03,0.085-4.129,0.172-6.215,0.34c-0.485,0.039-0.955,0.06-1.408,0.06
	c-3.011,0-5.422-0.785-8.135-4.69c-3.655-5.262-7.587-6.366-10.242-6.366c-2.829,0-7.12,1.256-11.489,7.239
	c-0.947,1.298-1.519,2.831-2.023,4.184c-0.872,2.339-1.251,2.982-1.765,2.996L393.746,386.205z"/>
<path id="parma"  fill="yellow" d="M231.44,308.326c5.203-0.754,9.364-3.385,11.724-7.412
	c3.739-6.384,8.731-11.583,13.559-16.612c3.947-4.111,7.676-7.995,10.767-12.468c0.02-0.028,0.04-0.058,0.061-0.085
	c0.608-0.817,1.247-1.702,1.793-2.63c0.096-0.164,0.208-0.318,0.333-0.461c8.819-10.013,15.461-18.645,14.146-30.886
	c-0.004-0.039-0.007-0.077-0.01-0.115c-0.061-0.895-0.159-1.791-0.255-2.688c-0.407-3.774-0.867-8.048,1.221-12.296
	c1.599-3.814,0.927-8,0.217-12.43c-0.824-5.137-1.756-10.951,1.042-16.665c2.046-5.976,2.728-12.169,3.448-18.723
	c0.417-3.798,0.847-7.712,1.57-11.586c-2.92-4.258-7.183-6.7-13.317-7.655c-8.143-1.269-17.372-2.706-24.317-8.863
	c-11.265-9.991-25.332-12.104-37.822-13.126c-1.933,1.766-3.226,4.183-4.586,6.724c-1.449,2.708-2.947,5.508-5.356,7.902
	c-4.344,4.317-5.248,9.397-2.688,15.106c2.784,3.46,3.956,6.836,3.484,10.04c-0.506,3.437-2.782,6.45-6.957,9.214
	c-2.675,1.771-5.442,3.422-8.118,5.018c-2.838,1.693-5.773,3.444-8.526,5.301c-0.583,0.395-1.182,0.783-1.784,1.175
	c-3.589,2.333-6.979,4.536-7.559,8.116c-2.007,12.386-10.557,18.466-18.707,22.761c-0.798,0.562-1.429,1.077-1.964,1.602
	c-1.803,2.275-4.099,3.429-6.828,3.429h0c-1.849-0.001-3.62-0.534-5.183-1.005c-0.388-0.116-0.775-0.233-1.16-0.34
	c-1.015-0.282-1.996-0.425-2.918-0.425c-2.182,0-4.039,0.771-5.678,2.354c-9.249,8.941-16.533,16.922-21.792,26.48
	c4.612,12.824,2.035,24.478-7.671,34.653c-0.312,0.327-0.566,0.604-0.767,0.848c0.924-0.326,1.848-0.654,2.774-0.983
	c4.718-1.676,9.598-3.409,14.533-4.856c2.645-0.775,5.164-1.169,7.487-1.169c9.542,0,15.708,6.416,17.013,17.643
	c0.958-0.944,1.379-2.584,1.916-5.337c0.826-4.255,2.377-9.529,7.085-12.568c11.162-7.204,21.875-11.738,32.75-13.862
	c1.367-0.268,2.676-0.403,3.891-0.403c5.726,0,10.023,3.022,12.43,8.74c0.955,2.27,2.525,4.343,4.188,6.538
	c2.789,3.682,5.949,7.854,6.419,13.647c0.083,1.02,1.377,2.379,2.612,2.743c2.344,0.69,4.523,1.688,6.63,2.654
	c3.363,1.541,6.54,2.997,9.941,2.997C230.819,308.362,231.128,308.351,231.44,308.326z"/>
<path id="modena"  fill="green" d="M334.526,374.68c6.417-4.327,11.468-7.01,16.812-7.01
	c5.395,0,10.554,2.779,17.064,7.287c0.873,0.23,1.458,0.313,1.837,0.334c-0.019-0.612-0.152-1.518-0.242-2.125
	c-0.143-0.965-0.29-1.962-0.302-2.954c-0.093-8.02,1.361-13.271,4.577-16.523c2.307-2.334,5.39-3.544,9.407-3.688
	c0.235-0.058,0.477-0.087,0.719-0.087c0.58,0,1.166,0.168,1.682,0.518l0.078,0.053c1.665,1.123,3.217,1.669,4.745,1.669
	c2.148,0,4.399-1.099,6.88-3.357c2.671-2.431,3.09-4.698,1.467-8.244c-0.912-0.986-1.548-2.186-1.897-3.576
	c-1.72-3.709-1.42-7.141,0.84-9.457c0.577-0.592,1.356-0.905,2.148-0.905c0.417,0,0.837,0.087,1.235,0.267
	c1.149,0.52,1.852,1.703,1.755,2.962c-0.036,0.472-0.082,0.95-0.129,1.431c-0.127,1.322-0.259,2.684-0.123,3.737
	c0.053,0.096,0.107,0.19,0.163,0.283c0.322,0.543,0.611,1.058,0.874,1.561c0.538,0.34,1.329,0.604,2.329,0.773
	c2.21-0.288,2.295-0.893,2.269-4.348c-0.009-1.078-0.018-2.191,0.135-3.321c0.161-2.038,0.433-4.082,0.695-6.061
	c1.102-8.295,2.053-15.459-4.313-21.633c-5.584-5.404-2.544-9.534-1.479-10.67c2.493-2.664,4.264-6.196,6.138-9.937
	c3.936-7.853,8.376-16.716,20.659-17.822c3.342-3.979,4.719-6.001,4.543-7.609c-0.23-2.104-3.075-5.456-7.421-10.293
	c-4.108-1.849-6.604-4.29-7.422-7.264c-0.802-2.917,0.046-6.089,2.519-9.425c2.455-3.315,2.974-7.315,3.522-11.55
	c0.193-1.493,0.394-3.034,0.683-4.575c-0.231-9.22,4.633-15.688,13.388-17.773c4.969-1.183,9.097-1.734,12.991-1.734
	c1.134,0,2.258,0.05,3.344,0.146c8.437-0.446,13.332-1.849,15.396-4.408c1.555-1.928,1.949-5.077,1.229-9.88
	c-0.405-0.598-0.848-1.114-1.34-1.567c-1.895-1.272-4.032-2.302-6.293-3.39c-5.146-2.477-10.915-5.252-14.059-11.546
	c-1.997,0.188-4.024,0.586-6.141,1.001c-3.076,0.604-6.259,1.229-9.585,1.229c-2.177,0-4.178-0.265-6.12-0.81
	c-4.729-1.329-8.91-1.975-12.779-1.975c-8.548,0-15.563,3.295-21.446,10.073c-1.834,2.114-4.517,3.125-6.883,4.017
	c-0.963,0.363-1.874,0.706-2.667,1.094c-0.339,0.165-0.707,0.266-1.083,0.295c-3.76,0.292-6.519,1.487-8.199,3.553
	c-2.127,2.615-2.177,6.26-1.845,8.856c2.56,19.966-1.051,39.399-11.037,59.403c-0.338,0.948-0.583,1.774-0.758,2.566
	c-0.244,9.344-4.232,17.357-12.185,24.485c-0.709,0.878-1.215,1.575-1.628,2.24c-0.1,0.16-0.213,0.31-0.341,0.448
	c-8.3,9.021-14.491,18.372-18.926,28.583c-1.828,4.217-4.889,7.124-7.643,9.412c-10.723,8.912-17.131,19.822-19.06,32.442
	c3.822,6.629,9.059,12.062,14.591,17.8c1.908,1.979,3.88,4.024,5.77,6.106c2.883,3.178,4.198,3.606,5.103,3.606
	C329.982,377.396,331.704,376.583,334.526,374.68z"/>
<path id="piacenza"  fill="purple" d="M93.3,253.454c0.173-0.032,0.346-0.064,0.517-0.092
	c6.231-2.832,10.208-8.105,14.413-13.682c2.536-3.361,5.157-6.838,8.353-9.833c0.584-0.546,1.154-1.114,1.72-1.678
	c2.867-2.856,6.117-6.094,10.751-6.094c2.58,0,5.174,1,7.933,3.057c0.662,0.494,1.071,0.497,1.209,0.497c0.001,0,0.002,0,0.002,0
	c1.284,0,3.17-1.825,4.187-2.862c0.108-0.133,0.229-0.258,0.362-0.374c0,0,0.188-0.162,0.229-0.194
	c2.077-1.737,4.426-3.157,6.698-4.532c5.29-3.198,9.858-5.961,10.363-11.885c0.784-9.168,6.296-13.358,11.402-16.567
	c1.493-0.938,2.984-1.886,4.475-2.833c4.379-2.783,8.909-5.661,13.483-8.284c2.215-1.27,4.912-3.209,5.187-5.235
	c0.219-1.618-1.008-3.79-3.647-6.454c-0.258-0.26-0.466-0.565-0.614-0.9c-3.601-8.166-2.201-15.115,4.278-21.242
	c4.762-4.508,6.774-7.518,4.918-11.828c-4.474-2.923-9.517-7.397-11.039-15.87c-0.627-3.499-3.222-5.851-6.457-5.851
	c-1.629,0-3.236,0.618-4.645,1.787c-1.769,1.468-3.648,2.651-5.466,3.795c-2.592,1.632-5.041,3.173-6.949,5.387
	c-2.298,2.667-5.227,4.136-8.246,4.136c-2.048,0-5.118-0.687-8.116-3.957c-0.137-0.148-0.278-0.313-0.424-0.488
	c-2.12,3.337-5.083,5.025-8.83,5.025c-2.251,0-4.447-0.603-6.485-1.254c-0.445-0.143-0.894-0.281-1.345-0.42
	c-4.354-1.341-9.773-3.009-12.449-9.101c-0.241-0.548-0.445-1.126-0.643-1.685c-0.253-0.717-0.713-2.02-1.068-2.386
	c-0.112,0.008-0.381,0.052-0.85,0.255c-1.112,0.482-2.383,0.717-3.885,0.717c-0.921,0-1.816-0.086-2.605-0.161
	c-0.618-0.06-1.201-0.115-1.649-0.115c-0.03,0-0.059,0-0.085,0.001c-3.676,5.878-8.707,6.573-12.212,6.573
	c-1.475,0-2.935-0.133-4.347-0.262c-1.173-0.107-2.281-0.209-3.353-0.233c-0.174-0.004-0.346-0.006-0.518-0.006
	c-5.021,0-7.942,1.685-9.765,5.63c-0.69,1.497-1.481,2.94-2.246,4.336c-1.396,2.548-2.713,4.955-3.299,7.407
	c-2.305,9.622-6.195,17.988-11.894,25.579c-0.697,0.928-1.499,2.227-1.364,3.143c0.134,0.912,1.21,2.103,3.291,3.638
	c10.603,7.824,11.799,15.403,4.127,26.162c-3.987,5.589-4.534,9.066-2.343,14.884c2.569,6.824,2.751,11.774,0.575,15.578
	c-2.338,4.087-7.212,6.571-15.804,8.058c-5.259,0.91-7.218,1.249-7.403,8.807c1.055-0.269,2.1-0.403,3.128-0.403
	c5.647,0,9.775,3.907,13.199,7.567c1.59,1.698,2.462,2.393,2.931,2.67c3.549-2.136,7.226-3.177,11.216-3.177
	c5.046,0,9.747,1.671,14.292,3.286c2.171,0.771,4.226,1.501,6.294,2.052C92.922,253.525,93.144,253.483,93.3,253.454z"/>
<path id="ferrara"  fill="black" d="M580.62,263.456c1.68-0.24,3.415-0.487,5.135-0.507
	c2.071-0.68,3.93-2.008,6.108-4.339c0.88-0.975,1.546-1.796,2.096-2.586c0.164-0.235,0.361-0.446,0.585-0.626
	c6.2-4.971,13.521-10.274,21.963-10.274c5.25,0,10.271,1.993,15.349,6.095c1.682,1.358,3.799,2.138,5.81,2.138
	c1.626,0,3.051-0.49,4.234-1.458c2.419-1.977,4.989-3.78,7.476-5.524c5.43-3.81,10.572-7.418,14.175-12.646
	c-0.039-1.295,0.021-2.559,0.077-3.79c0.121-2.586,0.235-5.033-0.631-7.191l-0.014-0.022c-0.118-0.194-0.214-0.401-0.285-0.617
	c-2.756-8.334-1.832-16.628-0.507-23.692c-0.073-1.29,0.281-2.528,1.056-3.634c0.325-0.451,0.371-1.309,0.424-2.301
	c0.063-1.187,0.144-2.706,0.812-4.206c-0.025-0.307-0.017-0.615,0.027-0.92c-1.381-3.444-1.209-6.591,0.516-9.377
	c1.622-5.968,1.721-12.157,0.299-18.861c-1.028-0.328-2.218-0.475-3.751-0.475c-0.894,0-1.805,0.047-2.77,0.097
	c-0.999,0.052-2.032,0.105-3.081,0.105c-1.696,0-3.866-0.118-6.136-0.952c-0.112,0.009-0.226,0.014-0.339,0.014
	c-0.274,0-0.548-0.028-0.815-0.083c-2.156,0.637-4.44,1.165-6.77,1.165c-2.69,0-5.088-0.68-7.329-2.078
	c-0.271-0.17-0.514-0.382-0.718-0.628l-0.026-0.03c-0.452-0.446-0.86-0.897-1.257-1.335c-1.045-1.154-1.76-1.908-2.635-2.215
	l-6.584-0.291c-0.062-0.003-0.124-0.008-0.186-0.015c-8.551-0.912-16.282-1.355-23.638-1.355c-7.707,0-14.858,0.481-21.832,1.471
	c-0.916,0.59-1.864,0.874-2.604,1.096c-0.365,0.109-0.977,0.293-1.103,0.41c-0.129,0.184-0.278,0.353-0.445,0.504l-0.658,0.594
	c-8.144,7.359-16.565,14.969-27.874,18.402c-4.286,1.301-7.71,1.907-10.775,1.907c-7.243,0-12.626-3.42-17.999-11.435
	c-1.53-2.283-2.069-2.283-2.753-2.283c-0.478,0-1.108,0.093-1.875,0.274c-2.271,0.537-4.958,1.087-7.678,1.087
	c-3.769,0-6.9-1.089-9.308-3.237c-4.219-3.77-9.095-5.45-15.811-5.45c-2.448,0-5.001,0.218-7.451,0.479
	c-1.564,1.965-1.431,2.765-1.407,2.858c0.092,0.363,0.887,1.21,3.291,2.079c4.814,1.739,9.212,4.098,13.076,7.011
	c0.112,0.073,0.221,0.155,0.325,0.245l0.089,0.078c3.239,2.84,4.844,5.688,4.906,8.706c0.098,4.788-3.713,8.415-7.075,11.616
	c-8.481,8.066-12.186,17.042-10.055,23.975c3.367-0.786,5.741-3.316,8.423-6.175c1.126-1.2,2.29-2.44,3.566-3.58
	c0.399-0.356,0.802-0.746,1.209-1.141c2.001-1.935,4.491-4.343,7.853-4.343c1.366,0,2.704,0.407,3.977,1.207
	c2.251,1.415,4.92,1.884,7.746,2.38c3.223,0.566,6.554,1.151,9.685,3.143c2.334,1.296,4.393,2.878,6.385,4.409
	c2.33,1.79,4.533,3.483,7.009,4.614c6.676,2.358,9.944,7.715,12.83,12.445c1.02,1.671,1.987,3.258,3.071,4.697
	c1.83,1.143,3.695,1.721,5.553,1.721c2.143,0,4.346-0.76,6.547-2.259c2.235-1.522,4.64-3.009,7.292-3.009
	c2.758,0,5.109,1.574,6.988,4.681c0.233,0.386,0.377,0.82,0.419,1.27c0.291,3.067,0.299,6.288,0.023,9.574
	c-0.062,0.737-0.394,1.426-0.932,1.933c-1.956,1.844-1.741,3.802-1.153,7.39c0.419,2.564,0.89,5.437-0.09,8.332
	c1.006,4.782,3.064,5.188,5.442,5.188C577.482,263.904,579.007,263.687,580.62,263.456z"/>
<path id="forli"  fill="blue" d="M634.415,465.266c1.466-13.47,5.8-28.931,26.486-28.931
	c0.889,0,1.813,0.029,2.757,0.086c3.324-1.024,5.447-2.838,6.66-5.679c0.022-0.054,0.047-0.106,0.073-0.159
	c1.165-2.34,3.206-3.885,5.902-4.468c0.101-0.022,0.203-0.039,0.306-0.05c4.711-0.521,7.3-2.537,9.232-7.19
	c5.565-13.419,9.912-25.944,13.277-38.269c-0.03-0.245-0.06-0.49-0.09-0.735c-0.315-2.578-0.613-5.018-1.655-7.11
	c-0.588-0.895-0.857-1.898-0.795-2.926c-0.215-0.384-0.539-0.803-0.897-1.266l-0.264-0.343c-0.772-0.914-1.197-2.019-1.237-3.187
	c-0.253-0.483-0.714-0.999-1.23-1.578l-0.138-0.155c-1.288-1.154-1.729-2.62-2.028-3.617c-0.077-0.257-0.187-0.622-0.235-0.78
	c-0.14-0.111-0.272-0.235-0.395-0.374l-0.129-0.146c-0.086-0.088-0.18-0.145-0.547-0.145c-0.312,0-0.698,0.052-1.067,0.113
	c-2.219,0.838-4.462,1.246-6.846,1.246c-4.587,0-8.772-1.533-12.82-3.015c-3.157-1.156-6.14-2.248-9.149-2.576
	c-10.444-1.139-18.748-4.962-24.681-11.364c-5.222-5.641-8.471-8.697-10.686-8.697c-2.335,0-5.925,3.491-11.134,8.817
	c-4.58,4.688-7.412,8.707-9.181,13.028c-1.233,3.015-3.299,8.06-9.006,9.694c-0.209,0.061-0.425,0.097-0.642,0.11
	c-1.968,0.121-3.913,0.339-5.972,0.57c-3.074,0.344-6.252,0.7-9.477,0.7c-1.869,0-3.587-0.117-5.239-0.359
	c-5.306,0.562-8.56,1.787-10.225,3.846c-1.456,1.799-2.003,4.616-1.693,8.8c4.207,2.69,6.525,6.916,6.42,11.817
	c-0.164,7.648-1.375,18.61-9.954,25.468c-3.422,2.735-3.907,4.835-3.587,7.539c0.17,1.438,0.312,2.885,0.453,4.331
	c0.947,9.675,1.766,18.031,10.324,23.75c3.756,2.511,6.856,5.819,9.855,9.019c1.023,1.092,2.045,2.183,3.09,3.235l0.075,0.077
	c2.063,2.081,3.429,3.345,4.988,3.345c0.21,0,0.431-0.022,0.659-0.067c2.001-0.395,4.005-0.595,5.956-0.595
	c9.979,0,17.865,5.245,23.621,9.814c3.539,2.811,8.088,3.877,12.961,4.808C631.019,476.15,633.875,470.232,634.415,465.266z"/>
<path id="reggio"  fill="pink" d="M303.338,326.548c4.958-8.825,10.083-17.946,19.798-23.795
	c0.069-0.16,0.151-0.383,0.211-0.548l0.081-0.218c4.815-12.879,13.518-23.044,22.018-32.353c0.032-0.035,0.065-0.069,0.099-0.103
	c6.252-7.164,9.995-14.47,11.418-22.296c-0.022-0.324,0.007-0.656,0.096-0.984c1.761-6.562,3.718-11.783,6.159-16.433
	c4.364-8.311,6.141-16.032,5.283-22.95c-1.549-12.491-2.431-25.642,4.428-37.871c-0.696-0.21-1.471-0.511-2.212-1.024
	c-1.613-0.689-3.282-1.302-5.042-1.948c-7.232-2.655-15.292-5.614-18.806-14.48c-18.435,16.149-22.539,19.171-33.916,19.171
	c-2.129,0-4.524-0.107-7.297-0.232c-0.607-0.027-1.192-0.238-1.676-0.604c-0.273-0.207-0.642-0.398-1.483-0.398
	c-0.265,0-0.564,0.019-0.925,0.058c-0.573,0.225-1.098,0.524-1.564,0.895c-0.436,0.535-0.766,1.101-1.003,1.719
	c-0.358,1.503-0.374,3.146-0.391,4.884l-0.016,1.185c-0.035,0.88-0.021,1.785-0.006,2.742c0.058,3.748,0.123,7.987-2.872,11.831
	c-0.314,0.59-0.587,1.265-0.875,1.974c-0.351,0.864-0.713,1.758-1.207,2.664c-0.063,0.116-0.134,0.228-0.211,0.334
	c-1.651,2.263-1.132,4.647-0.147,8.351l0.234,0.888c1.979,7.643,1.625,15.361-1.05,22.952c-0.071,1.486-0.063,2.979-0.055,4.553
	c0.004,0.719,0.007,1.438,0.003,2.158c2.664,16.554-6.808,27.367-16.841,36.996c-4.531,6.915-9.999,13.096-15.289,19.076
	c-4.065,4.596-8.27,9.348-11.931,14.32c-0.823,1.118-1.798,2.026-2.742,2.905c-2.214,2.062-2.89,2.892-2.466,4.354
	c3.16,1.803,5.658,4.213,8.081,6.552c1.551,1.496,3.016,2.91,4.607,4.127c0.27,0.207,0.542,0.423,0.819,0.642
	c1.235,0.976,2.634,2.081,3.597,2.081c0.182-0.001,0.478-0.035,0.944-0.338c2.699-1.749,5.454-2.636,8.188-2.636
	c5.22,0,9.467,3.17,13.215,5.967l0.833,0.62c1.527,1.133,2.949,2.365,4.323,3.557c2.294,1.988,4.487,3.889,6.985,5.182
	C298.018,336.017,300.611,331.399,303.338,326.548z"/>
<path id="ravenna"  fill="orange" d="M550.218,372.768c0.19-0.188,0.405-0.351,0.639-0.481
	c2.867-1.616,4.741-4.475,6.726-7.501c2.246-3.427,4.793-7.31,9.144-9.634c0.441-0.235,0.927-0.354,1.413-0.354
	c0.461,0,0.922,0.106,1.345,0.318c4.425,2.22,9.222,3.298,14.665,3.298c2.322,0,4.729-0.192,7.346-0.587
	c0.188-0.074,0.377-0.147,0.569-0.222c0.807-0.312,2.949-1.143,3.046-1.639c1.734-8.845,7.357-14.397,12.795-19.767
	c2.022-1.997,3.933-3.884,5.65-5.933c1.99-2.373,5.112-5.528,9.229-5.528c3.879,0,7.108,2.76,9.755,5.46
	c1.14,1.162,2.219,2.374,3.263,3.547c4.625,5.195,8.619,9.683,16.977,9.682l0.667-0.004c5.168,0,13.479,1.345,20.394,4.35
	l0.33,0.144c3.159,1.373,5.941,2.582,7.347,2.861c0.327-1.431,0.348-4.91,0.37-8.577c0.012-1.837,0.009-3.674,0.006-5.51
	l-0.003-1.682c-0.084-0.859-0.046-1.677-0.013-2.403c0.061-1.299,0.04-1.825-0.16-2.161c-0.22-0.162-0.421-0.356-0.596-0.582
	c-0.954-1.236-1.272-2.552-1.529-3.609c-0.141-0.579-0.285-1.179-0.47-1.384c-0.155-0.175-0.291-0.366-0.402-0.572
	c-0.461-0.853-0.701-1.772-0.713-2.712c-0.16-0.206-0.345-0.394-0.555-0.565c-0.912-0.046-1.793-0.295-2.62-0.741
	c-0.19-0.104-0.369-0.227-0.533-0.367c-2.659-2.293-2.913-5.243-0.755-8.77c0.009-0.014,0.018-0.028,0.026-0.042
	c1.447-2.658,1.474-5.451,0.082-8.962c-1.821-2.229-1.743-4.785-1.686-6.687c0.045-1.487,0.026-2.234-0.333-2.703
	c-1.307-1.243-1.726-2.741-2.034-3.843c-0.098-0.351-0.28-1.003-0.393-1.112c-0.003-0.004-0.007-0.007-0.01-0.011
	c-1.428-1.299-1.827-2.939-2.095-4.038c-0.088-0.359-0.22-0.903-0.316-1.034c-0.087-0.103-0.168-0.21-0.24-0.323
	c-0.695-1.076-1.012-2.285-0.934-3.535c-1.711-6.786-1.732-13.866-0.064-21.063c-0.146-1.121,0.069-2.243,0.63-3.252
	c1.097-2.597,1.314-4.125,0.651-5.42c-0.575-0.073-1.142-0.23-1.689-0.47c-0.238-0.104-0.462-0.238-0.665-0.4
	c-0.035-0.027-0.062-0.045-0.072-0.056c-0.023,0.006-0.06,0.017-0.107,0.036c-6.939,3.637-12.464,7.64-16.887,12.235
	c-3.644,3.789-7.577,5.71-11.693,5.71c-3.14,0-6.388-1.128-9.654-3.354c-4.437-3.023-8.889-4.557-13.232-4.557
	c-6.349,0-12.636,3.245-18.688,9.645c-0.343,0.446-0.681,0.978-1.035,1.535c-1.42,2.232-3.566,5.606-8.347,5.605
	c-0.356,0.006-0.713,0.008-1.07,0.008c-0.764,0-1.528-0.01-2.293-0.02c-0.74-0.009-1.48-0.019-2.22-0.019
	c-3.918,0-7.148,0.3-10.083,1.729c-1.962,1.765-2.463,3.283-0.317,6.624c1.929,3.005,3.673,6.151,5.358,9.195
	c0.878,1.584,1.755,3.167,2.657,4.731c3.118,5.394-1.427,16.473-3.525,20.985c-1.654,3.556-7.537,15.245-13.802,16.358l-0.265,0.05
	c-0.468,0.091-1.05,0.202-1.696,0.202c-1.5,0-2.468-0.621-3.013-1.14c-2.109-2.002-3.225-2.543-3.657-2.688
	c-0.401,0.611-0.869,2.154-1.161,3.121c-0.568,1.877-1.154,3.814-2.338,5.279c-5.087,8.852-11.23,18.761-20.264,26.354
	c0.647,0.51,1.435,0.991,2.28,1.507c2.849,1.742,6.706,4.101,7.024,9.545c0.433,0.091,1.022,0.163,1.428,0.212
	c0.293,0.035,0.579,0.07,0.851,0.11c0.643,0.093,1.28,0.14,1.893,0.14C543.999,377.332,547.073,375.882,550.218,372.768z"/>
<path id="rimini"  fill="#ACA49A" d="M758.112,439.95c0.174-0.505,0.187-0.841,0.123-1.005
	c-0.04-0.104-0.304-0.612-1.758-1.263c-1.16-0.084-2.234-0.523-3.139-1.285c-0.988-0.682-1.907-1.435-2.735-2.241
	c-0.119-0.116-0.227-0.239-0.321-0.368c-0.406-0.453-0.777-0.86-1.144-1.161c-0.463-0.174-0.887-0.463-1.228-0.862l-0.158-0.186
	c-0.045-0.053-0.087-0.106-0.128-0.161c-0.149-0.056-0.354-0.121-0.505-0.169c-0.916-0.293-2.498-0.797-3.549-2.298
	c-1.081-0.624-1.973-1.446-2.66-2.453c-0.963-0.675-1.801-1.496-2.5-2.448c-0.958-0.703-1.785-1.546-2.467-2.515
	c-1.019-0.709-1.843-1.592-2.458-2.635c-1.501-1.079-1.998-2.68-2.284-3.603c-0.046-0.147-0.106-0.342-0.16-0.494
	c-0.271-0.196-0.514-0.441-0.713-0.731l-0.101-0.146c-0.194-0.283-0.335-0.59-0.421-0.906c-0.624-1.217-1.782-2.173-3.509-3.356
	c-0.191-0.132-0.363-0.281-0.515-0.446c-0.165-0.083-0.57-0.196-0.848-0.274c-1.085-0.305-2.676-0.751-3.867-2.242
	c-1.41-1.104-1.876-2.596-2.195-3.616c-0.065-0.211-0.157-0.503-0.23-0.681c-0.079-0.06-0.156-0.123-0.23-0.191l-0.169-0.155
	c-0.329-0.303-0.577-0.664-0.739-1.055c-0.147-0.181-0.325-0.375-0.508-0.576c-0.329-0.361-0.695-0.763-1.046-1.24
	c-1.251-1.077-1.692-2.466-1.998-3.425c-0.069-0.219-0.168-0.528-0.243-0.701l-0.196-0.138c-0.522-0.367-0.894-0.872-1.096-1.433
	c-0.204-0.208-0.409-0.323-0.611-0.396c-1.207-0.056-2.32-0.536-3.193-1.376c-0.894-0.63-1.749-1.345-2.547-2.129
	c-0.249-0.217-0.493-0.323-0.853-0.346c-0.047,0.014-0.087,0.03-0.124,0.052c-0.117,1.012-0.28,2.029-0.485,3.033
	c-0.045,0.219-0.113,0.431-0.205,0.634c-4.103,9.089-7.023,18.837-9.763,28.381c0,0.002-0.001,0.003-0.002,0.005
	c-0.446,1.547-1.126,3.862-1.371,4.694c-0.033,0.105-0.064,0.216-0.1,0.32l-14.073,12.9l-2.342,1.326
	c-0.1,0.011-0.195,0.024-0.296,0.033c-0.046,0.064-0.089,0.144-0.134,0.211l-0.013,0.007c0,0,0.001,0.01,0.001,0.012
	c-0.39,0.58-0.765,1.244-1.15,1.946c-1.473,2.68-3.679,6.695-8.99,6.896c-2.225,2.061-4.853,3.066-7.992,3.066
	c-2.098,0-4.111-0.439-6.059-0.864c-0.835-0.182-1.669-0.365-2.501-0.505c-0.766-0.129-1.46-0.194-2.062-0.194
	c-2.019,0-2.944,0.46-3.089,3.185c-0.754,14.219-4.045,24.639-10.672,33.785c-0.354,0.489-0.523,0.854-0.604,1.09
	c0.112,0.016,0.253,0.027,0.423,0.027c0.537,0,1.199-0.112,1.914-0.323c0.276-0.082,0.563-0.123,0.851-0.123
	c0.049,0,0.097,0.001,0.146,0.004c0.15,0.007,0.299,0.011,0.444,0.011c3.842,0,6.321-2.661,9.192-5.742
	c0.417-0.448,0.835-0.896,1.257-1.337c2.566-2.678,5.775-5.416,10.114-5.416c1.747,0,3.544,0.462,5.34,1.371
	c1.031,0.521,1.952,0.786,2.739,0.786c1.057,0,2.565-0.416,4.875-3.656c0.504-0.707,1.005-1.428,1.509-2.151
	c2.96-4.251,6.021-8.646,10.28-11.671c3.507-2.492,5.407-5.248,5.949-8.866h0.002c0,0,3.081-8.011,5.88-12.146
	s7.764-9.025,7.764-9.025l-0.003-0.006c1.274-0.856,2.539-1.762,3.824-2.688c1.638-1.182,3.332-2.404,5.099-3.541
	c1.265-0.812,2.954-1.261,4.757-1.261c2.522,0,4.624,0.884,5.769,2.424c0.918,1.236,1.164,2.777,0.693,4.339
	c-1.692,5.604,0.488,7.584,5.583,11.531l1.07,0.832c3.391,2.664,2.694,6.896,2.187,9.987c-0.056,0.338-0.111,0.673-0.16,1.001
	c-0.271,1.815,0.688,4.252,2.502,6.358c1.844,2.139,4.301,3.576,6.115,3.576c0.449,0,0.838-0.086,1.188-0.261
	c2.782-1.397,5.693-2.363,8.51-3.298c2.622-0.869,5.134-1.703,7.561-2.854c-0.162-0.357-0.331-0.721-0.504-1.091
	C754.043,451.721,751.034,445.255,758.112,439.95z"/>
</svg>
