<svg version="1.1" id="friuli" width="100%" height="100%" viewBox="0 0 800 600" preserveAspectRatio="none">
<path id="trieste" fill-rule="evenodd" clip-rule="evenodd" fill="red" d="M603.703,468.609c-0.068,1.036,0.24,1.94,0.92,2.721
	c0.889,1.292,1.846,2.535,2.855,3.733l-0.174-0.195c2.428,1.839,1.801,5.245,3.762,7.325l-0.092-0.144
	c2.336,1.65,1.418,5.241,4.01,6.737l0.219,0.207c2.418,3.878,7.875,0.306,10.287,4.198l-0.242-0.264
	c1.801,1.1,2.924,2.724,3.617,4.672l0.016,1.036c-0.98,3.437-5.02,2.676-6.82,4.974l-0.021,0.026
	c-6.414,11.045-10.988,11.994-17.516,3.621l-0.225,0.287c0.971-1.432,0.873-2.826-0.145-4.19l0.084,0.14
	c-1.387-1.014-2.51-2.329-3.875-3.365l-0.119-0.063c-1.719-2.374-5.23-1.571-6.971-3.923l0.18,0.192
	c-4.348-3.81,0.461-10.242-4.016-14.014l-0.182-0.249c-0.949-1.342-2.027-2.569-3.264-3.655l-0.021-0.022
	c-1.139-1.273-2.383-2.449-3.535-3.715l0.068,0.067c-1.273-1.168-2.51-2.389-3.656-3.685l0.076,0.079
	c-1.297-1.157-2.525-2.382-3.678-3.682l0.08,0.079c-1.301-1.149-2.529-2.378-3.682-3.678l0.078,0.079
	c-1.299-1.153-2.521-2.382-3.682-3.67l0.072,0.075c-1.285-1.16-2.502-2.389-3.682-3.655l0.061,0.061
	c-1.266-1.172-2.48-2.396-3.662-3.647l0.049,0.053c-1.248-1.184-2.461-2.404-3.66-3.64l0.047,0.045
	c-1.236-1.194-2.449-2.412-3.648-3.64l0.045,0.037c-1.236-1.206-2.475-2.404-3.617-3.7l0.076,0.083
	c-1.35-1.16-2.555-2.449-3.523-3.949l0.328,0.046c-2.432-1.003-2.404-1.93,0.078-2.785l-0.441,0.049
	c4.613-3.753,9.398-2.818,14.244-0.542l0.016,0.007c1.789,2.254,5.449,1.409,6.926,4.183l-0.242-0.278
	c1.711,0.825,2.977,2.095,3.807,3.806l-0.203-0.207c1.711,0.825,2.977,2.099,3.805,3.806l-0.203-0.207
	c1.703,0.821,2.951,2.117,3.896,3.723l-0.191-0.204c1.555,0.807,2.633,2.216,4.035,3.219l0.143,0.075
	c1.727,2.403,5.109,1.639,7.008,3.685l0.016,0.008c1.861,2.23,5.336,1.492,7.115,3.874l-0.182-0.166
	c1.439,1.04,2.652,2.313,3.799,3.658l-0.098-0.108C601.758,465.285,603.039,466.714,603.703,468.609z"/>
<path id="udine" fill-rule="evenodd" clip-rule="evenodd" fill="yellow" d="M379.107,457.271c0.703-0.133,0.996-0.426,1.223-0.824
	c0.324-0.573,0.809-0.999,1.367-1.253c0.133-0.278,0.27-0.687,0.449-1.252c0.432-1.353,1.006-3.156,2.654-4.485
	c0.602-0.868,1.281-1.6,1.889-2.253c0.354-0.381,0.693-0.746,0.986-1.104c0.113-0.187,0.246-0.363,0.402-0.526l0.135-0.143
	c0.193-0.202,0.408-0.372,0.637-0.509c0.748-0.607,1.346-1.161,1.797-1.752c0.16-0.621,0.518-1.193,1.059-1.615l0.293-0.229
	c0.113-0.088,0.229-0.166,0.348-0.234c0.184-0.279,0.367-0.87,0.531-1.404c0.457-1.491,1.086-3.533,3.203-4.861
	c0.285-0.18,0.6-0.31,0.928-0.384c3.828-0.872,7.646-1.314,11.35-1.314c3.992,0,7.971,0.514,11.824,1.526
	c0.322,0.084,0.627,0.222,0.904,0.406c1.424,0.951,2.779,2.035,4.029,3.221c0.164,0.156,0.307,0.327,0.428,0.508
	c0.686,0.79,1.357,1.527,2.092,2.067c0.168,0.062,0.334,0.141,0.492,0.236c2.416,1.437,4.795,2.135,7.273,2.134
	c1.973,0,4.041-0.465,6.166-1.385c0.273-0.466,0.672-0.853,1.156-1.114c1.197-0.647,2.5-0.975,3.873-0.975
	c1.486,0,2.814,0.372,3.986,0.7c0.824,0.231,1.602,0.449,2.234,0.473c2.908,0.11,5.826,0.77,8.648,1.406
	c2.922,0.659,5.682,1.282,8.234,1.282c2.934,0,6.346-0.694,9.42-5.841c6.287-10.529,5.693-19.941-1.988-31.474
	c-12.076-18.152-10.613-38.298,4.119-56.726c3.162-3.955,5.512-7.681,7.23-11.479c0.541-1.103,1.025-2.237,1.537-3.438
	c0.551-1.295,1.123-2.634,1.783-3.955c0.301-0.601,0.777-1.06,1.342-1.342c0.543-0.87,0.57-2.077,0.496-4.201
	c-0.094-2.675-0.223-6.333,2.684-9.184c1.23-1.274,2.557-2.444,3.945-3.478c1.375-1.781,3.277-2.358,4.701-2.791
	c0.617-0.187,1.205-0.365,1.527-0.577c0.137-0.204,0.299-0.396,0.49-0.567l0.195-0.178c0.102-0.094,0.211-0.178,0.322-0.255
	c1.109-0.908,2.23-1.782,3.334-2.603c1.143-1.033,2.543-1.578,4.064-1.578c0.004,0,0.008,0,0.012,0
	c0.955-0.379,1.82-1.123,2.9-2.227c1.428-1.666,3.326-2.246,4.715-2.67c0.846-0.26,1.436-0.449,1.771-0.707
	c0.094-0.154,0.203-0.303,0.326-0.442l0.246-0.274c0.381-0.43,0.861-0.724,1.377-0.878c0.684-0.518,1.312-1.214,1.992-1.997
	c0.127-0.186,0.277-0.359,0.451-0.518l0.113-0.104c0.088-0.081,0.18-0.155,0.275-0.224c0.471-0.401,0.939-0.847,1.432-1.316
	c0.613-0.586,1.248-1.19,1.957-1.772c1.09-1.25,2.271-2.437,3.516-3.532c0.498-0.601,1.01-1.14,1.506-1.662
	c0.488-0.512,0.953-1.001,1.346-1.491c0.105-0.183,0.232-0.356,0.381-0.518l0.158-0.173c0.131-0.144,0.273-0.272,0.424-0.384
	c0.357-0.44,0.566-1.155,0.855-2.198c0.312-1.136,0.693-2.515,1.547-3.797c-0.012-0.016-0.023-0.032-0.035-0.048
	c-1.266-0.738-2.762-1.052-4.857-1.052c-1.068,0-2.174,0.079-3.346,0.162c-1.223,0.087-2.488,0.177-3.771,0.177
	c-1.957,0-4.756-0.188-7.51-1.667c-0.246,0.026-0.492,0.039-0.736,0.039c-1.105,0-2.189-0.261-3.252-0.792
	c-2.879-1.482-4.893-3.636-6.842-5.718c-0.531-0.568-1.061-1.136-1.609-1.685c-0.189-0.19-0.35-0.4-0.479-0.624
	c-0.65-0.42-1.59-0.514-3.283-0.599c-1.879-0.095-4.158-0.209-6.227-1.542l-5.627-0.408c-0.484-0.035-0.951-0.187-1.363-0.441
	c-0.105,0.091-0.219,0.175-0.34,0.252c-0.055,0.035-0.111,0.068-0.168,0.1c-2.676,1.583-5.555,2.385-8.555,2.385
	c-2.619,0-5.328-0.591-8.27-1.805c-0.301-0.078-0.592-0.204-0.863-0.378l-0.158-0.102c-0.596-0.382-1.012-0.942-1.223-1.568
	c-0.393-0.554-0.895-1.105-1.42-1.681c-0.352-0.386-0.701-0.773-1.039-1.173c-0.205-0.244-0.371-0.52-0.49-0.817
	c-1.311-3.274-1.609-6.789-0.904-10.71c-0.576-1.231-0.871-2.469-1.139-3.592c-0.275-1.159-0.516-2.168-0.994-2.91
	c-1.037-1.229-1.537-2.736-1.439-4.32c-1.729-7.222-3.145-15.581,0.637-24.062c0.064-0.151,0.143-0.298,0.234-0.44
	c0.156-0.244,0.344-0.458,0.551-0.64l0.377-0.375c0.936-0.931,1.869-1.861,2.781-2.815c0.039-0.05,0.08-0.099,0.123-0.147
	c1.434-1.614,3.236-2.162,4.686-2.602c0.871-0.264,1.477-0.458,1.82-0.729c0.059-0.091,0.121-0.179,0.191-0.264l0.303-0.371
	c0.191-0.236,0.412-0.436,0.652-0.597c0.668-0.891,0.705-2.112,0.623-4.418c-0.098-2.82-0.221-6.331,2.662-9.191
	c0,0,0.1-0.096,0.123-0.118c2.475-2.275,5.398-2.569,7.674-2.569c0.551,0,1.105,0.018,1.66,0.035c0.49,0.016,0.98,0.032,1.467,0.032
	c1.859,0,2.842-0.27,3.559-0.933c0,0,3.697-3.646,3.729-3.674c0.377-0.344,0.584-1.142,0.824-2.065
	c0.383-1.469,0.898-3.459,2.607-5.006c1.547-1.73,3.551-2.253,5.027-2.639c0.928-0.242,1.729-0.452,2.066-0.834
	c0.299-0.337,0.67-0.602,1.084-0.776l1.256-0.527c0.369-0.155,0.764-0.234,1.162-0.234c0.105,0,0.213,0.006,0.318,0.017l0.49,0.052
	c1.064-0.463,2.129-0.727,3.094-0.966c1.414-0.35,2.359-0.606,2.992-1.165c0.076-0.095,0.158-0.187,0.248-0.274l0.211-0.208
	c0.223-0.219,0.471-0.396,0.734-0.532c0.738-0.6,1.307-1.277,1.719-2.05c-0.055-1.385,0.334-2.72,1.146-3.914
	c0.068-0.1,0.143-0.196,0.223-0.287c0.893-1.018,1.762-2.117,2.592-3.27c0.115-0.216,0.26-0.42,0.432-0.607l0.121-0.132
	c0.416-0.452,0.939-0.749,1.496-0.885c3.268-1.482,6.465-1.683,8.932-1.683c1.5,0,2.99,0.088,4.43,0.173
	c1.418,0.084,2.756,0.163,4.078,0.163c2.854,0,4.977-0.407,6.799-1.312c0.318-0.471,0.521-1.205,0.754-2.034
	c0.381-1.366,0.844-3.028,2.092-4.482c-1.15-1.388-1.607-2.964-1.98-4.252c-0.275-0.95-0.482-1.62-0.797-2.038
	c-0.213-0.144-0.412-0.318-0.588-0.521l-0.189-0.217c-0.086-0.099-0.164-0.203-0.236-0.31c-0.912-1.147-1.746-2.239-2.539-3.325
	c-0.951-1.072-1.467-2.346-1.516-3.737c-0.33-0.459-0.926-0.59-2.867-0.691c-2.039-0.106-4.803-0.25-6.859-2.489
	c-1.35-0.84-2.971-1.189-5.43-1.189c-0.785,0-1.574,0.031-2.361,0.061c-0.865,0.033-1.73,0.065-2.59,0.065
	c-2.045,0-4.658-0.165-7.23-1.354c-1.408,0-2.713-0.511-3.785-1.479c-0.766-0.54-1.838-0.794-3.072-1.086
	c-1.066-0.252-2.24-0.53-3.414-1.047c-0.213,0.023-0.426,0.035-0.639,0.035c-1.17,0-2.283-0.343-3.312-1.019
	c-0.055-0.037-0.109-0.075-0.162-0.116c-1.08-0.817-2.16-1.198-3.398-1.198c-1.182,0-2.57,0.351-4.242,1.074
	c-0.053,0.023-0.107,0.044-0.16,0.064c-2.461,0.899-4.943,1.354-7.379,1.354c-1.805,0-3.621-0.25-5.398-0.745
	c-0.51-0.142-0.973-0.416-1.344-0.795c-0.611-0.627-1.553-0.875-3.039-1.226c-1.123-0.265-2.367-0.559-3.594-1.169
	c-1.279-0.037-2.471-0.408-3.553-1.107c-2.014-0.63-4.121-1.181-6.072-1.181c-1.73,0-3.205,0.428-4.605,1.342
	c-2.361,2.244-5.275,2.358-7.41,2.441c-1.771,0.069-2.807,0.14-3.496,0.781c-0.506,0.47-1.156,0.752-1.846,0.798l-5.869,0.39
	c-1.783,0.962-3.545,1.45-5.244,1.45c-1.623,0-3.184-0.432-4.656-1.286c-0.23,0.023-0.459,0.035-0.688,0.035
	c-1.102,0-2.18-0.27-3.203-0.803c-0.279-0.146-0.535-0.335-0.758-0.562c-0.652-0.666-1.684-0.737-3.451-0.805
	c-2.182-0.083-5.168-0.198-7.527-2.622c-0.104-0.105-0.197-0.217-0.281-0.333c-0.461-0.356-1.18-0.573-2.217-0.864
	c-1.385-0.389-3.107-0.873-4.598-2.163c-0.223-0.192-0.41-0.411-0.562-0.646c-0.408-0.297-1.059-0.499-1.975-0.766
	c-1.439-0.42-3.23-0.943-4.715-2.433c-0.111-0.111-0.211-0.229-0.301-0.354c-0.377-0.275-0.996-0.466-1.887-0.724
	c-1.418-0.412-3.342-0.971-4.832-2.613c-0.719-0.603-1.816-0.879-3.078-1.197c-1.133-0.285-2.391-0.602-3.629-1.221l-8.217-0.059
	c-6.854,1.354-13.074,2.013-19.005,2.013c-6.581,0-12.676-0.801-18.633-2.448c-0.409-0.113-0.789-0.312-1.115-0.583l-0.086-0.071
	c-0.293-0.241-0.583-0.485-0.873-0.73c-0.808-0.681-1.579-1.332-2.37-1.84l-4.614,0.018c-3.881,1.296-7.863,1.954-11.845,1.954
	c-3.816,0-7.724-0.604-11.628-1.795c-0.357,0.062-0.715,0.093-1.07,0.093c-1.156,0-2.27-0.32-3.31-0.953
	c-0.215-0.13-0.412-0.287-0.588-0.467c-0.841-0.86-1.833-1.835-2.946-2.704c-0.299-0.155-0.577-0.364-0.818-0.625l-0.151-0.164
	c-0.096-0.104-0.183-0.212-0.261-0.324c-0.909-1.095-1.787-2.205-2.617-3.306c-1.086-1.093-1.654-2.486-1.638-4.003
	c-0.318-0.967-0.873-1.548-1.809-1.89c-0.153,0.013-0.306,0.02-0.458,0.02c-0.674,0-1.323-0.126-1.932-0.371
	c-1.02,0.452-1.99,1.062-2.345,1.828c-0.618,1.337,0.383,3.823,1.352,6.228c0.215,0.535,0.43,1.069,0.633,1.601
	c1.046,1.416,1.475,2.975,1.827,4.253c0.277,1.007,0.518,1.885,0.963,2.398c0.072,0.067,0.142,0.138,0.208,0.213
	c3.23,3.638,3.213,7.729-0.02,11.002c-0.021,0.026-0.042,0.052-0.062,0.078c-1.164,1.4-2.467,2.685-3.875,3.819
	c-1.482,1.76-3.446,2.315-4.909,2.729c-0.804,0.227-1.507,0.426-1.855,0.724c-0.018,0.021-0.036,0.042-0.055,0.063
	c-1.65,1.858-3.788,2.377-5.349,2.756c-0.908,0.221-1.692,0.411-2.122,0.76c-0.089,0.072-0.183,0.14-0.28,0.202
	c-1.199,0.764-2.505,1.156-3.882,1.166c-2.083,1.295-4.353,1.414-6.233,1.513c-1.744,0.092-2.837,0.179-3.598,0.772
	c-0.04,0.047-0.083,0.094-0.126,0.139c-0.783,0.812-1.292,1.587-0.157,3.488l0.023,0.032c5.088,5.532,2.118,11.392,0.836,13.673
	c-0.077,0.176-0.173,0.346-0.287,0.508l-0.091,0.13c-0.29,0.415-0.667,0.734-1.09,0.951c-0.821,0.659-1.596,1.434-2.351,2.349
	c-0.134,0.22-0.299,0.425-0.493,0.611l-0.133,0.126c-0.15,0.142-0.31,0.266-0.478,0.371c-0.57,0.467-1.13,1.007-1.718,1.575
	c-0.489,0.473-0.979,0.945-1.489,1.395c-1.152,1.305-2.468,2.441-3.917,3.381c-1.304,1.864-3.26,2.485-4.603,2.912
	c-0.493,0.156-1.081,0.343-1.366,0.523c-0.133,0.244-0.303,0.473-0.508,0.678l-0.173,0.173c-0.45,0.451-1.011,0.731-1.6,0.836
	c-2.576,1.08-5.226,1.626-7.891,1.626c-2.48,0-5.01-0.475-7.538-1.413c-0.001,0-0.001,0-0.002,0c-0.569,0-1.127-0.162-1.606-0.466
	c-0.312,0.565-0.312,1.399,0.027,3.091c1.989,4.116,2.914,8.494,3.81,12.731c1.216,5.754,2.365,11.193,6.029,15.54
	c1.071,0.919,2.185,1.604,3.396,2.09c7.397,2.138,15.312,4.24,23.631,4.549c0.679,0.025,1.357,0.038,2.037,0.038
	c6.673,0,13.292-1.132,20.3-2.33c6.954-1.188,14.145-2.417,21.341-2.417c8.312,0,15.623,1.687,22.305,5.15
	c0.275-0.06,0.568-0.101,0.881-0.124c1.553-0.259,3.117-0.391,4.653-0.391c8.459,0,16.131,3.901,21.049,10.704
	c5.235,7.242,6.504,16.649,3.479,25.809c-2.26,6.85-4.186,13.992-6.049,20.899c-4.155,15.405-8.451,31.335-16.832,45.784
	c-2.95,5.084-3.965,9.458-3.103,13.369c2.528,11.39,0.381,22.26-1.696,32.772l-0.39,1.981c-0.03,0.973-0.064,1.946-0.099,2.919
	c-0.258,7.225-0.501,14.053,1.195,20.771c3.635,8.15,8.652,12.627,15.774,14.08c0.896,0.183,1.661,0.766,2.075,1.582
	c0.206,0.404,0.314,0.845,0.324,1.287c0.396,0.46,0.824,0.844,1.291,1.156c0.547,0.146,1.056,0.448,1.457,0.896l0.192,0.215
	c0.306,0.342,0.521,0.737,0.644,1.155c0.602,0.952,1.456,1.763,2.306,2.503c0.661,0.576,1.037,1.413,1.029,2.29
	c-0.022,2.388-0.045,4.78-0.075,7.169c-0.005,0.37-0.078,0.736-0.216,1.079c-2.418,6.025-2.481,12.345-0.192,19.312
	c0.521,1.122,0.755,2.314,0.694,3.519c1.321,2.14,1.423,4.451,1.507,6.37c0.079,1.791,0.159,2.93,0.794,3.729
	c0.087,0.11,0.167,0.226,0.238,0.347c0.688,1.173,1.031,2.466,1.016,3.791c0.476,0.781,1.054,1.443,1.747,2.002
	c0.326,0.156,0.629,0.373,0.891,0.651l0.188,0.2c0.203,0.215,0.368,0.454,0.496,0.706c0.504,0.66,1.035,1.209,1.604,1.655
	c0.674,0.174,1.289,0.581,1.715,1.194c0.424,0.609,0.949,0.993,1.652,1.205c0.26,0.079,0.509,0.192,0.738,0.338
	c0.733,0.466,1.369,0.975,1.983,1.468c1.221,0.979,2.012,1.579,2.837,1.579C378.919,457.291,379.045,457.28,379.107,457.271z"/>
<path id="pordenone" fill-rule="evenodd" clip-rule="evenodd" fill="green" d="M257.16,423.713c0.156-0.311,0.369-0.598,0.637-0.847l0.207-0.192
	c0.12-0.112,0.247-0.212,0.38-0.301c0.147-0.268,0.33-0.887,0.436-1.25c0.419-1.423,1.041-3.537,3.211-4.828
	c1.234-1.013,2.705-1.546,4.274-1.546c0.025,0,0.05,0,0.075,0c3.103-1.282,6.313-1.906,9.789-1.906
	c3.227,0,6.676,0.555,10.526,1.695l0.756-0.07c0.093-0.009,0.186-0.013,0.278-0.013c0.414,0,0.825,0.086,1.207,0.253l1.236,0.543
	c0.364,0.16,0.692,0.391,0.966,0.679c0.583,0.612,1.467,0.706,3.346,0.774c2.218,0.08,5.256,0.19,7.599,2.77
	c0.02,0.021,0.038,0.043,0.057,0.064c0.815,0.645,1.959,0.736,3.794,0.834c1.723,0.091,3.779,0.2,5.733,1.182
	c0.49-0.611,0.972-1.263,1.471-1.936c2.436-3.285,5.179-6.984,10.371-8.109c1.568-1.268,3.42-1.646,4.832-1.936
	c1.472-0.302,2.07-0.476,2.404-0.867c0.672-3.481-1.118-5.322-4.499-8.427c-2.496-2.292-5.318-4.883-6.257-8.786
	c-2.391-6.366-1.454-12.462-0.549-18.358c0.613-3.993,1.193-7.765,0.719-11.443c-0.062-0.471-0.01-0.948,0.15-1.396
	c1.986-5.555,1.398-11.558,0.777-17.914c-0.748-7.634-1.521-15.527,2.443-22.796c7.302-13.386,11.343-28.197,15.25-42.521
	c2.699-9.888,5.488-20.112,9.34-29.906c2.406-6.124,1.422-13.107-2.701-19.16c-4.336-6.362-11.314-10.341-18.258-10.425
	c-4.043,1.612-8.32,3.125-12.549,3.125c-5.835,0-10.487-2.815-14.22-8.607c-0.796-1.236-1.817-1.812-3.215-1.812
	c-1.216,0-2.631,0.433-4.092,1.253c-9.451,5.301-19.352,7.878-30.267,7.878c-10.236,0-21.128-2.21-35.201-7.155
	c-0.462-0.035-0.923-0.177-1.342-0.434c-5.18-3.175-5.922-8.785-6.519-13.293c-0.725-5.479-1.319-8.479-5.598-9.795
	c-0.768,0.093-1.401,0.368-1.954,0.848c-0.142,0.167-0.304,0.321-0.487,0.458l-0.105,0.079c-0.162,0.122-0.332,0.224-0.507,0.308
	c-2.644,1.607-4.533,3.236-5.168,5.745c-0.054,1.622-0.716,3.062-1.902,4.144c-1.299,1.977-3.306,2.564-4.674,2.965
	c-0.328,0.096-0.941,0.276-1.219,0.419c-0.117,0.18-0.255,0.349-0.415,0.505l-0.188,0.185c-0.229,0.224-0.485,0.405-0.758,0.541
	c-0.499,0.394-0.997,0.869-1.517,1.364c-0.478,0.456-0.971,0.925-1.458,1.336c-0.928,1.09-1.914,2.064-2.869,3.009l-0.596,0.589
	c-0.305,0.318-0.618,0.628-0.931,0.938c-0.619,0.612-1.176,1.163-1.612,1.73c-0.158,0.444-0.422,0.855-0.79,1.195l-0.249,0.229
	c-0.134,0.124-0.276,0.233-0.425,0.328c-0.249,0.327-0.44,0.912-0.696,1.75c-0.418,1.369-0.983,3.218-2.59,4.636
	c-0.358,0.406-0.735,0.797-1.113,1.186c-0.503,0.519-0.958,0.988-1.318,1.457c-0.155,0.448-0.419,0.865-0.787,1.208l-0.249,0.232
	c-0.143,0.133-0.295,0.25-0.455,0.35c-0.245,0.326-0.435,0.907-0.688,1.735c-0.421,1.373-0.99,3.229-2.611,4.644
	c-1.101,1.155-1.893,2.036-2.295,3c0.057,1.286-0.284,2.499-1.002,3.573c-1.981,7.552-1.881,13.292,0.324,18.472
	c0.806,0.896,1.553,1.503,2.335,1.896l0.536-0.066c0.122-0.015,0.245-0.022,0.367-0.022c0.354,0,0.706,0.062,1.039,0.186
	l1.255,0.463c0.437,0.162,0.83,0.422,1.148,0.762c0.584,0.622,1.474,0.718,3.365,0.787c2.211,0.082,5.24,0.193,7.579,2.745
	c0.088,0.096,0.168,0.196,0.241,0.299c0.779,0.867,1.531,1.683,2.346,2.287c0.333,0.14,0.645,0.342,0.919,0.605l0.2,0.192
	c0.309,0.298,0.542,0.648,0.696,1.025c0.509,0.687,1.155,1.333,1.982,1.981c0.277,0.147,0.536,0.341,0.764,0.58l0.155,0.162
	c0.188,0.197,0.345,0.414,0.469,0.643c0.317,0.399,0.691,0.804,1.082,1.227c0.551,0.597,1.17,1.267,1.731,2.038
	c1.691,1.424,2.251,3.311,2.67,4.722c0.232,0.783,0.408,1.336,0.626,1.657c0.175,0.119,0.34,0.257,0.492,0.416
	c1.517,1.591,1.993,3.471,2.375,4.981c0.257,1.015,0.479,1.891,0.926,2.339c0.142,0.142,0.269,0.297,0.379,0.464
	c0.848,1.283,1.197,2.698,1.035,4.153c2.067,4.82,1.945,9.283-0.367,13.287c-0.081,0.175-0.18,0.346-0.297,0.507l-0.128,0.177
	c-0.228,0.314-0.505,0.572-0.815,0.77c-0.285,0.389-0.482,1.021-0.745,1.912c-0.433,1.469-0.973,3.297-2.56,4.779
	c-0.108,0.101-0.222,0.191-0.341,0.273c-0.921,0.849-1.61,1.646-1.952,2.565c0.09,1.558-0.439,3.02-1.49,4.138
	c-0.884,1.027-1.666,1.938-2.055,2.899c0.214,1.486-0.206,2.965-1.236,4.206c-1.05,1.219-1.06,2.822-0.988,5.338
	c0.071,2.488,0.157,5.507-1.577,8.261c0.061,1.37-0.251,2.715-0.927,3.953c-0.07,0.129-0.15,0.253-0.238,0.37
	c-0.613,0.812-0.884,1.962-1.197,3.293c-0.251,1.068-0.529,2.248-1.036,3.427c0.099,1.418-0.297,2.777-1.173,3.987
	c-0.061,0.083-0.125,0.163-0.194,0.24c-0.62,0.693-0.879,1.798-1.18,3.076c-0.257,1.094-0.541,2.302-1.104,3.502
	c0.061,1.331-0.288,2.616-1.033,3.78c-1.938,3.646-1.369,5.396,0.178,7.028c0.12,0.126,0.226,0.259,0.319,0.398
	c0.333,0.234,0.898,0.416,1.687,0.656c1.372,0.418,3.216,0.98,4.628,2.593c0.531,0.441,1.006,0.893,1.466,1.33
	c0.51,0.483,0.999,0.947,1.485,1.317c0.321,0.142,0.623,0.343,0.887,0.602l0.188,0.185c0.262,0.257,0.468,0.552,0.616,0.867
	c0.551,0.725,1.14,1.312,1.781,1.776c0.422,0.151,0.815,0.399,1.145,0.741l0.211,0.219c0.294,0.306,0.513,0.659,0.653,1.036
	c0.452,0.638,0.996,1.185,1.645,1.653c0.38,0.146,0.736,0.373,1.041,0.678l0.211,0.211c0.323,0.323,0.559,0.704,0.704,1.111
	c0.548,0.755,1.298,1.442,2.063,2.106c0.181,0.114,0.353,0.25,0.511,0.406c1.49,1.475,2.014,3.259,2.435,4.691
	c0.27,0.92,0.464,1.545,0.75,1.94c0.278,0.171,0.534,0.391,0.752,0.657c1.243,1.516,1.715,3.245,2.095,4.635
	c0.321,1.174,0.55,1.952,0.98,2.452c0.012,0.011,0.024,0.021,0.036,0.032c1.665,1.512,2.211,3.393,2.65,4.904
	c0.279,0.961,0.482,1.616,0.796,2.003c0.132,0.102,0.258,0.216,0.375,0.343l0.132,0.143c0.111,0.12,0.211,0.247,0.299,0.38
	c0.747,0.9,1.645,1.807,2.796,2.819c0.059,0.046,0.115,0.095,0.171,0.146l0.099,0.091c0.161,0.148,0.302,0.311,0.423,0.482
	c0.943,1.062,1.728,1.669,2.57,1.979l0.673-0.059c0.087-0.008,0.175-0.012,0.262-0.012c0.446,0,0.887,0.1,1.292,0.292
	c0,0,1.197,0.572,1.23,0.59c1.975,1.034,4.261,1.495,7.411,1.495c1.329,0,2.671-0.074,4.091-0.153
	c1.44-0.079,2.929-0.162,4.425-0.162c2.392,0,5.447,0.179,8.594,1.443c0.271-0.078,0.55-0.117,0.829-0.117
	c0.292,0,0.584,0.043,0.867,0.128C256.025,424.874,256.606,424.384,257.16,423.713z"/>
<path id="gorizia" fill-rule="evenodd" clip-rule="evenodd" fill="blue" d="M490.592,477.464c0.832,0,2.348-0.273,4.893-1.545
	c1.342-1.119,2.869-1.569,4.117-1.938c0.918-0.271,1.562-0.473,1.941-0.771c0.104-0.181,0.229-0.353,0.375-0.512l0.26-0.286
	c0.389-0.425,0.871-0.715,1.391-0.863c0.512-0.377,0.949-0.825,1.322-1.354c0.145-0.442,0.393-0.856,0.744-1.203l0.225-0.223
	c0.338-0.333,0.738-0.571,1.164-0.712c0.588-0.412,1.084-0.911,1.496-1.505c0.186-0.628,0.576-1.199,1.15-1.604
	c1.504-1.06,3.096-1.442,4.5-1.779c1.334-0.321,2.178-0.544,2.711-1.067c0.299-0.293,0.654-0.52,1.045-0.667l1.264-0.475
	c0.338-0.127,0.695-0.191,1.055-0.191c0.127,0,0.254,0.008,0.381,0.024c0.549-0.581,0.854-1.14,0.912-1.668
	c0.105-0.96-0.551-2.133-1.26-3.092c-0.289-0.25-0.535-0.561-0.717-0.923l-0.121-0.241c-0.068-0.135-0.125-0.272-0.17-0.411
	c-1.27-2.917-3.482-8.511,1.178-13.462l0.043-0.062c1.07-1.531,2.307-2.875,3.68-4c1.072-1.359,2.4-2.51,3.949-3.423
	c0.375-0.222,0.795-0.359,1.23-0.401l7.365-0.724c0.098-0.01,0.195-0.015,0.293-0.015c0.691,0,1.363,0.238,1.902,0.68
	c0.576,0.473,0.945,0.681,1.135,0.771c0.006-0.006,0.012-0.013,0.018-0.021c0.066-0.428,0.182-0.839,0.344-1.229
	c-0.285-0.834-0.477-1.653-0.654-2.413c-0.33-1.419-0.576-2.382-1.115-3.053c-0.254-0.198-0.479-0.441-0.664-0.725l-0.086-0.132
	c-0.27-0.415-0.426-0.874-0.473-1.338c-2.645-9.513-2.686-19.562-0.123-29.893c-0.223-1.577,0.111-3.124,0.984-4.517
	c0.096-0.153,0.205-0.298,0.328-0.431c0.457-0.5,0.68-1.398,0.938-2.438c0.365-1.479,0.822-3.319,2.217-4.916
	c0.17-0.193,0.357-0.36,0.561-0.5c0.475-0.593,0.711-1.456,1.041-2.771c0.256-1.016,0.539-2.139,1.064-3.254
	c0.02-1.449,0.51-2.816,1.449-4.012l0.311-0.389c0.758-0.941,1.428-1.775,1.773-2.637c-0.168-1.468,0.254-2.886,1.225-4.082
	c0.611-0.849,0.785-1.429,0.744-1.672c-0.018-0.109-0.109-0.272-0.299-0.476l-7.533,0.036c-0.564,0.337-1.135,0.769-1.732,1.218
	c-0.445,0.336-0.891,0.672-1.352,0.988c-1.162,1.021-2.572,1.565-4.098,1.577c-2.332,0.991-4.666,1.493-6.949,1.493
	c-2.275,0-4.525-0.496-6.705-1.477c-0.102,0.005-0.205,0.008-0.307,0.008c-1.408,0-2.756-0.486-3.916-1.418
	c-1.254-1.021-2.467-2.099-3.609-3.204c-0.1-0.086-0.197-0.18-0.289-0.281c-0.451-0.504-0.926-0.987-1.396-1.472
	c-0.688-0.704-1.396-1.431-2.029-2.179c-0.984-0.846-1.869-1.791-2.645-2.821c-0.316-0.124-0.615-0.302-0.879-0.532
	c-1.438-1.25-2.439-3.251-3.318-5.069c-2.279,2.582-5.018,4.814-7.686,6.992c-5.951,4.854-11.09,9.047-10.164,15.779l0.371,2.74
	c1.475,10.978,3,22.328,8.844,31.961c11.361,18.724,8.881,32.065-8.553,46.04c-0.84,0.682-1.311,1.485-1.477,2.52
	c0.008,0.892,0.279,1.6,0.863,2.245c0.133,0.111,0.258,0.237,0.373,0.375l0.098,0.117c0.09,0.108,0.17,0.221,0.242,0.337
	c2.398,3.381,2.236,7.088,2.105,10.079c-0.043,0.984-0.084,1.914-0.043,2.783c0.27,5.682,2.057,5.702,2.74,5.702
	C490.586,477.464,490.588,477.464,490.592,477.464z"/>
</svg>
