
<svg version="1.1" id="liguria" width="100%" height="100%" viewBox="0 0 800 600" preserveAspectRatio="none">
<path id="savona"  fill="red" d="M245.028,385.443c-6.028-5.949-13.753-7.059-20.618-8.045
	c-2.213-0.316-4.314-0.619-6.361-1.059c-14.234-11.139-14.443-12.865-6.254-32.283c0.155-0.367,0.235-0.76,0.236-1.158
	c0.002-0.873,0.255-1.602,0.795-2.295c0.276-0.354,0.47-0.766,0.565-1.205c0.837-3.842,0.745-7.281-0.284-10.518
	c-0.083-0.26-0.201-0.508-0.35-0.736c-0.577-0.879-0.553-1.297-0.2-1.771c1.258-0.67,2.744-0.959,4.859-0.959
	c0.863,0,1.745,0.045,2.678,0.09c0.965,0.049,1.964,0.098,2.976,0.098c1.879,0,4.297-0.146,6.761-1.219
	c1.295-0.045,2.473-0.541,3.436-1.445c1.146-0.834,2.146-1.838,2.979-2.989c1.709-1.367,2.147-3.228,2.447-4.498
	c0.093-0.396,0.249-1.057,0.368-1.197c0.445-0.523,0.75-1.246,0.767-1.933l0.212-8.979c0.019-0.797-0.279-1.568-0.83-2.145
	c-0.318-0.333-0.494-1.049-0.696-1.879c-0.251-1.026-0.556-2.273-1.308-3.47c-2.572-8.241-2.549-14.199,0.104-19.635
	c10.219-5.038,16.474-13.039,20.809-26.539c1.842-5.736,4.844-11.089,8.022-16.757c2.812-5.014,5.719-10.2,7.825-15.775
	c0.927-2.453,2.406-2.453,2.892-2.453c1.041,0,2.291,0.486,3.519,1.368c2.181,1.566,4.228,3.28,6.395,5.094
	c1.584,1.327,3.223,2.699,4.91,3.999c3.745,2.885,7.252,4.288,10.723,4.288c4.474,0,8.618-2.411,12.317-7.167
	c1.01-1.298,1.819-2.665,2.602-3.986c0.724-1.222,1.407-2.376,2.19-3.38c2.99-3.833,5.86-5.543,9.304-5.543
	c1.551,0,3.299,0.352,5.196,1.044c6.522,2.383,13.351,4.003,19.954,5.571c2.334,0.554,4.733,1.124,7.095,1.722
	c-6.965,6.371-7.145,14.897-7.305,22.505c-0.021,1.024-0.043,2.049-0.081,3.07c-0.019,0.705-0.212,1.143-0.669,1.542
	c-0.342,0.299-0.601,0.659-0.772,1.049c-0.247,0.304-0.542,0.619-0.865,0.963c-0.413,0.44-0.881,0.939-1.319,1.503
	c-0.02,0.025-0.09,0.121-0.109,0.147c-0.118,0.162-0.22,0.336-0.303,0.519c-0.801,1.757-2.036,2.09-5.104,2.533
	c-1.678,0.242-3.552,0.512-5.318,1.382l-4.786,0.239c-0.208,0.01-0.414,0.042-0.615,0.095c-5.221,1.372-5.963,5.832-6.407,8.496
	c-0.246,1.478-0.437,2.395-0.807,2.94c-1.02,0.142-1.971,0.562-2.793,1.238c-1.185,0.842-2.275,1.815-3.243,2.895
	c-4.711,5.524-0.875,9.664,0.968,11.653c0.303,0.328,0.597,0.645,0.853,0.947c-0.452,0.667-0.983,1.349-1.605,2.061
	c-0.541,0.433-1.025,0.887-1.458,1.294c-0.368,0.346-0.721,0.677-1.064,0.955c-0.216,0.124-0.42,0.276-0.606,0.458l-0.122,0.119
	c-0.15,0.147-0.282,0.306-0.396,0.475c-0.761,0.904-1.531,1.8-2.312,2.687c-0.291,0.331-0.506,0.722-0.629,1.145
	c-0.507,1.743-0.587,3.515-0.657,5.077c-0.123,2.758-0.262,4.397-1.643,5.69c-0.857,0.676-1.714,1.35-2.573,2.021
	c-0.156,0.097-0.305,0.208-0.446,0.335l-0.188,0.17c-0.148,0.135-0.281,0.281-0.396,0.437c-0.369,0.275-0.974,0.441-1.896,0.678
	c-0.815,0.209-1.781,0.457-2.744,0.925c0,0-0.439-0.008-0.457-0.008c-0.372,0-0.741,0.069-1.088,0.204l-1.128,0.439
	c-0.283,0.109-0.548,0.263-0.786,0.452c-0.603,0.481-1.547,0.701-2.641,0.955c-0.945,0.22-1.999,0.464-3.062,0.933l-4.658,0.592
	c-0.593,0.076-1.15,0.326-1.599,0.721c-0.157,0.138-0.797,0.289-1.266,0.4c-1.272,0.303-3.146,0.746-4.537,2.451
	c-1.09,0.845-2.115,1.846-3.016,2.951c-1.096,0.893-2.083,1.91-2.941,3.031c-1.533,1.227-2.053,2.902-2.408,4.045
	c-0.102,0.33-0.247,0.795-0.365,1.031c-0.159,0.109-0.309,0.232-0.449,0.375l-0.188,0.189c-0.211,0.213-0.384,0.451-0.518,0.705
	c-0.643,0.85-1.292,1.693-1.95,2.533c-0.022,0.027-0.043,0.055-0.063,0.084c-0.77,1.055-1.18,2.252-1.21,3.514
	c-1.897,3.701-1.534,7.738-1.212,11.33c0.463,5.152,0.554,8.23-2.968,10.656c-0.139,0.074-0.274,0.162-0.403,0.26l-0.148,0.113
	c-0.412,0.314-0.72,0.715-0.918,1.158c-0.311,0.404-0.628,0.73-0.962,0.994c-0.478,0.127-0.929,0.373-1.307,0.738l-0.573,0.551
	c-1.915,1.84-3.894,3.742-5.689,5.877c-0.192,0.229-0.345,0.479-0.458,0.74c-0.578,0.787-1.184,1.58-1.809,2.365
	c-0.39,0.49-0.616,1.09-0.648,1.713l-0.307,6.004c-0.03,0.59,0.114,1.174,0.415,1.682c1.738,2.936,1.038,4.01,0.021,5.016
	c-0.332,0.328-0.571,0.717-0.718,1.129c-0.213,0.285-0.448,0.525-0.709,0.729c-0.554,0.146-1.069,0.455-1.474,0.914l-0.217,0.246
	c-0.12,0.135-0.225,0.279-0.315,0.43c-0.278,0.203-0.79,0.348-1.647,0.561C246.601,384.912,245.821,385.107,245.028,385.443z"/>
<path id="genova"  fill="yellow" d="M581.701,290.688c0.6-0.337,1.104-0.771,1.532-1.315
	c1.56-2.646,2.053-6.16-0.521-7.761c-12.176-7.581-18.096-19.284-23.82-30.603c-0.754-1.491-1.509-2.982-2.277-4.465
	c-7.037-4.021-10.872-8.269-12.044-13.321c-1.173-5.056,0.509-10.724,5.143-17.33c1.185-1.688,2.549-3.184,3.869-4.63
	c1.646-1.804,3.2-3.508,4.222-5.375c1.603-2.927,2.257-5.613,1.708-7.01c-0.094-0.239-0.344-0.875-1.683-1.32
	c-2.102-0.699-4.139-1.606-6.109-2.483c-3.916-1.743-7.616-3.39-11.548-3.39c-1.851,0-3.638,0.363-5.464,1.112
	c-2.321,0.95-4.675,1.432-6.994,1.432c-5.238,0-10.218-2.384-14.8-7.087c-3.353-3.44-5.125-4.72-6.541-4.72
	c-1.729,0-4.365,1.646-8.334,4.489c-4.764,3.413-10.048,5.292-14.879,5.292c-4.208,0-7.909-1.426-10.703-4.123
	c-0.744-0.718-1.483-1.438-2.221-2.154c-6.825-6.641-13.272-12.913-21.937-16.37c-1.373-0.543-1.894-1.753-2.116-2.271l-0.02-0.044
	c-0.258-0.328-0.516-0.663-0.772-1c-1.655-2.162-2.833-3.579-4.063-3.579c-0.51,0-1.139,0.204-1.87,0.606l-1.053,0.572
	c-5.023,2.711-7.156,4.299-6.494,8.126c2.021,11.659-3.664,19.584-16.897,23.555c-5.396,1.62-8.972,3.548-11.273,8.608
	c-1.668,3.667-5.457,7.366-10.162,7.366c-1.131,0-2.246-0.22-3.313-0.653c-1.541-0.625-2.958-0.93-4.333-0.93
	c-3.731,0-6.768,2.291-10.284,4.943c-1.134,0.855-2.306,1.739-3.576,2.588c-0.652,0.419-1.177,0.93-1.6,1.559l-0.191,0.473
	c-0.71,1.776-1.514,3.79-3.368,5.423c-0.258,0.227-0.553,0.408-0.872,0.536c-6.131,2.445-7.062,4.49-7.177,5.255
	c-0.208,1.384,1.227,3.48,3.961,5.812c0.193,0.024,0.386,0.049,0.579,0.074c0.819,0.107,1.593,0.208,2.274,0.208
	c0.818,0,1.364-0.139,1.85-0.495c0.08-0.097,0.167-0.19,0.261-0.278c1.26-1.184,2.71-1.608,3.876-1.95
	c0.546-0.16,1.107-0.325,1.378-0.508c0.074-0.115,0.157-0.227,0.248-0.333l0.204-0.238c0.393-0.458,0.896-0.771,1.439-0.929
	c0.413-0.326,0.815-0.768,1.267-1.303c0.14-0.221,0.312-0.426,0.515-0.61c1.019-0.925,2.102-1.809,3.282-2.67
	c1.25-1.626,2.991-2.138,4.185-2.489c0.337-0.099,0.819-0.241,1.037-0.346c0.074-0.099,0.154-0.193,0.241-0.284
	c2.095-2.176,4.687-2.275,6.579-2.347c1.385-0.053,2.078-0.118,2.454-0.482c0.406-0.394,0.915-0.664,1.467-0.781
	c1.682-0.355,3.208-0.528,4.667-0.528c2.218,0,4.234,0.395,6.166,1.206c0.164,0.069,0.321,0.152,0.47,0.249
	c0.846,0.548,1.728,1.096,2.629,1.633l2.982-0.072c0.695-0.243,1.405-0.812,2.214-1.458l0.245-0.195
	c0.259-0.206,0.55-0.368,0.86-0.479c0.713-0.254,1.42-0.383,2.101-0.383c1.216,0,3.469,0.423,4.904,3.26
	c0.096,0.189,0.171,0.388,0.225,0.592c0.03,0.113,0.056,0.151,0.056,0.151l0,0c0.136,0.157,0.887,0.405,1.335,0.553
	c1.077,0.356,2.416,0.799,3.562,1.881c0.79,0.569,1.529,0.857,2.2,0.857c0.65,0,1.366-0.27,2.133-0.802
	c0.053-0.052,0.108-0.104,0.167-0.152c1.32-1.121,2.604-1.355,3.447-1.355c0.904,0,2.262,0.268,3.628,1.53
	c1.345,1.15,1.887,2.65,2.285,3.75c0.128,0.356,0.332,0.92,0.529,1.168l10.203,0.506c0.559,0.027,1.099,0.211,1.559,0.529
	c0.687,0.476,1.537,0.652,3.138,0.652c0.355,0,0.712-0.007,1.067-0.015c0.397-0.008,0.795-0.016,1.19-0.016
	c1.826,0,3.911,0.171,5.896,1.305c0,0,0.412-0.021,0.466-0.021c0.272,0,0.544,0.037,0.808,0.111l1.239,0.346
	c0.429,0.12,0.826,0.334,1.163,0.627c0.578,0.504,1.509,0.575,2.979,0.65c1.574,0.08,3.469,0.176,5.279,1.18
	c0,0,0.35-0.02,0.411-0.02c0.317,0,0.633,0.05,0.935,0.149l1.163,0.381c0.491,0.161,0.933,0.446,1.281,0.828
	c0.137,0.15,0.842,0.332,1.309,0.452c1.224,0.315,3.032,0.781,4.393,2.385c1.064,0.885,2.054,1.907,2.946,3.043
	c1.146,0.886,2.144,1.903,2.974,3.03c2.7,2.447,2.577,5.6,2.486,7.917c-0.068,1.738-0.036,2.504,0.318,3.005
	c0.044,0.033,0.087,0.067,0.13,0.104c0.95,0.796,1.507,0.97,1.618,0.975c0.471-0.16,1.37-1.576,1.96-2.538
	c0.02-1.157,0.349-2.278,0.974-3.294c0.076-0.123,0.161-0.241,0.253-0.352c0.718-0.858,1.425-1.735,2.108-2.612
	c0.183-0.331,0.432-0.632,0.743-0.882l0.115-0.093c0.296-0.238,0.623-0.41,0.965-0.517c2.207-1.029,4.529-1.55,6.911-1.55
	c2.276,0,4.579,0.456,7.019,1.392c0.058-0.002,0.115-0.002,0.173-0.002c1.249,0,2.419,0.366,3.479,1.088
	c0.106,0.072,0.207,0.152,0.304,0.237c0.206,0.183,0.852,0.341,1.421,0.48c1.305,0.319,3.067,0.75,4.475,2.312
	c0.001,0.001,0.002,0.002,0.003,0.003c0.904,0.866,1.551,1.454,2.222,1.723c0.076-0.003,0.152-0.005,0.229-0.005
	c1.293,0,2.489,0.48,3.466,1.39c0.729,0.629,1.511,1.255,2.328,1.868c0.307,0.15,0.593,0.356,0.842,0.615l0.191,0.2
	c0.126,0.13,0.237,0.269,0.334,0.415c0.233,0.116,0.69,0.259,1.013,0.36c1.131,0.354,2.78,0.87,3.993,2.375
	c1.127,0.864,2.186,1.844,3.155,2.919c1.022,0.934,1.996,1.949,2.896,3.021c1.496,1.265,2.008,2.951,2.354,4.095
	c0.103,0.338,0.279,0.921,0.415,1.16c0.099,0.073,0.193,0.152,0.284,0.238l0.179,0.17c0.249,0.237,0.448,0.507,0.599,0.797
	c0.502,0.601,1.046,1.006,1.674,1.251l4.76,0.808c0.69,0.117,1.318,0.473,1.774,1.004c1.655,1.93,3.128,3.21,4.691,4.066
	c0,0,0.655-0.03,0.703-0.03c0.395,0,0.785,0.078,1.15,0.229l1.247,0.518c0.279,0.116,0.54,0.274,0.772,0.469
	c0.755,0.63,1.561,1.263,2.4,1.885c0.309,0.149,0.595,0.354,0.846,0.613l0.194,0.201c0.131,0.135,0.246,0.28,0.347,0.431
	c0.235,0.117,0.693,0.26,1.017,0.361c1.132,0.354,2.787,0.873,4.003,2.381c0.663,0.512,1.303,1.005,1.942,1.406
	C580.985,290.765,581.34,290.708,581.701,290.688z"/>
<path id="imperia"  fill="pink" d="M138.112,437.229c0.84-0.363,1.67-0.57,2.423-0.758
	c1.092-0.271,1.597-0.434,1.879-0.662c0.125-1.227,0.656-2.352,1.531-3.232c2.164-2.283,4.807-2.547,6.606-2.547
	c0.525,0,1.057,0.023,1.588,0.049c0.438,0.021,0.875,0.043,1.308,0.043c1.131,0,1.614-0.166,1.961-0.418
	c1.027-0.854,2.256-1.309,3.566-1.32c0.539-0.238,1.034-0.633,1.542-1.229c0.164-0.285,0.378-0.549,0.641-0.777
	c1.033-0.893,2.113-1.768,3.211-2.6c0.514-0.391,1.141-0.604,1.786-0.609c0,0,6.117-0.053,6.125-0.053c0.59,0,1.168,0.174,1.661,0.5
	c0.64,0.426,1.545,0.641,2.593,0.887c0.833,0.197,1.747,0.414,2.677,0.775c0.164-0.027,0.328-0.041,0.493-0.041
	c0.154,0,0.309,0.012,0.461,0.037c0.95-0.424,1.891-0.648,2.7-0.84c0.896-0.215,1.669-0.398,2.098-0.754
	c0.055-0.045,0.112-0.09,0.171-0.131c1.019-0.729,2.197-1.115,3.409-1.117c0.98-0.434,1.949-0.66,2.828-0.863
	c1.168-0.273,1.907-0.461,2.354-0.887c0.256-0.244,0.553-0.439,0.877-0.58l0.959-0.416c0.377-0.162,0.782-0.246,1.191-0.246
	c0.096,0,0.192,0.006,0.289,0.014l0.396,0.039c0.709-0.314,1.42-0.92,2.235-1.615c1.009-0.873,2.227-1.334,3.522-1.334
	c0.035,0,0.071,0,0.106,0c0.523-0.227,1.004-0.611,1.496-1.191c0.157-0.275,0.361-0.531,0.61-0.752l0.139-0.125
	c0.137-0.121,0.281-0.229,0.432-0.32c0.663-0.523,1.261-1.119,1.787-1.779c0.121-0.207,0.269-0.404,0.443-0.584l0.125-0.127
	c0.203-0.209,0.429-0.381,0.671-0.52c0.664-0.533,1.325-1.199,2.091-2.107c0.2-0.256,0.442-0.482,0.725-0.668
	c0.211-0.139,0.434-0.248,0.664-0.326c1.969-0.879,3.987-1.303,5.942-1.713c2.866-0.604,5.366-1.129,7.125-2.973
	c0.108-0.17,0.235-0.332,0.381-0.482c1.999-2.061,4.497-2.176,6.321-2.26c1.238-0.057,1.824-0.121,2.16-0.344
	c0.093-0.125,0.197-0.244,0.312-0.355l0.237-0.232c0.065-0.062,0.132-0.123,0.202-0.18c0.393-0.473,0.588-1.232,0.854-2.357
	c0.145-0.609,0.301-1.271,0.529-1.949c-0.157-0.826-0.093-1.67,0.194-2.488c0.096-2.66-0.36-4.6-1.326-5.625
	c-0.786-0.834-2.063-1.24-3.905-1.24c-0.677,0-1.426,0.059-2.227,0.174c-0.667,0.096-1.335,0.217-2.003,0.336
	c-1.684,0.303-3.425,0.617-5.277,0.617c-1.998,0-3.782-0.371-5.455-1.137c-0.199-0.09-0.388-0.203-0.563-0.334l-0.309-0.234
	c-9.691-7.324-21.698-16.4-12.429-32.846c-0.146-0.129-0.316-0.258-0.495-0.361c-0.56-0.326-0.989-0.818-1.24-1.393
	c-0.252-0.094-0.573-0.191-0.95-0.301c-1.053-0.309-2.459-0.721-3.683-1.766c-1.568-0.805-3.255-1.197-5.148-1.197
	c-2.366,0-4.875,0.625-6.797,1.168c-0.252,0.07-0.513,0.109-0.775,0.113c0,0-6.136,0.082-6.149,0.082
	c-0.709,0-1.395-0.252-1.937-0.709L176,347.99c-0.89-0.754-1.666-1.41-2.452-1.662l-4.812-0.637
	c-0.517-0.07-1.007-0.271-1.422-0.588l-0.471-0.365c-0.762-0.592-1.429-1.111-2.056-1.301l-2.652-0.113
	c-0.232,0.406-0.273,1.107-0.203,2.732c0.093,2.135,0.23,5.305-2.336,7.654c-0.447,0.666-0.94,1.217-1.38,1.707
	c-0.255,0.287-0.488,0.547-0.679,0.791c-0.152,0.361-0.377,0.697-0.674,0.986l-0.165,0.16c-0.252,0.244-0.537,0.436-0.84,0.574
	c-0.427,0.318-0.781,0.66-1.068,1.035c-0.16,0.488-0.447,0.941-0.854,1.305l-0.23,0.205c-0.125,0.111-0.258,0.211-0.396,0.299
	c-0.127,0.244-0.285,0.748-0.387,1.074c-0.364,1.162-0.852,2.719-2.26,3.932l-0.155,0.174c-0.75,0.842-1.404,1.578-1.629,2.316
	l-0.345,4.594c-0.032,0.42-0.151,0.826-0.351,1.197c-2.894,5.361-7.336,8.998-11.633,12.514l-0.693,0.568
	c-0.206,0.168-0.427,0.305-0.659,0.41c-1.054,0.613-2.137,0.908-3.039,1.152c-0.814,0.221-1.378,0.385-1.711,0.623
	c-0.124,0.156-0.265,0.305-0.423,0.438l-0.15,0.127c-0.115,0.098-0.235,0.184-0.36,0.262c-0.292,0.232-0.597,0.514-0.916,0.807
	c-0.475,0.438-1.001,0.922-1.616,1.375c-0.439,0.594-0.907,1.104-1.327,1.561c-0.284,0.311-0.556,0.607-0.784,0.891
	c-0.119,0.221-0.268,0.43-0.445,0.621l-0.15,0.162c-0.12,0.129-0.249,0.244-0.385,0.348c-0.206,0.301-0.372,0.875-0.545,1.477
	c-0.351,1.215-0.787,2.729-2.032,4.041c-0.123,0.129-0.254,0.244-0.394,0.348c-0.159,0.277-0.312,0.799-0.451,1.27
	c-0.356,1.215-0.839,2.859-2.301,4.186c-0.926,1.016-1.955,1.941-3.062,2.758c-1.018,0.889-2.248,1.359-3.573,1.367
	c-0.752,0.336-1.474,0.959-2.29,1.699l-1.097,0.957c0.142,0.498,0.25,0.984,0.352,1.447c0.256,1.152,0.434,1.881,0.85,2.303
	c0.205,0.209,0.378,0.445,0.515,0.703c0.506,0.961,0.747,1.986,0.716,3.027c0.902,1.715,1,3.502,1.083,4.994
	c0.083,1.486,0.167,2.268,0.563,2.777c0.102,0.09,0.198,0.188,0.288,0.295l0.114,0.133c0.069,0.08,0.132,0.164,0.191,0.248
	c0.514,0.629,1.129,1.236,1.776,1.879c0.23,0.227,0.46,0.455,0.688,0.686c0.409,0.357,0.964,0.564,2.367,0.564
	c0.386,0,0.775-0.014,1.164-0.027c0.456-0.016,0.911-0.029,1.363-0.029c1.993,0,4.538,0.275,6.671,2.375
	c0.011,0.01,0.366,0.32,0.366,0.32c0.739,0.65,1.396,1.227,2.07,1.621L138.112,437.229z"/>
<path id="laspezia"  fill="blue" d="M688.415,346.658c0.094-0.1,0.193-0.191,0.297-0.275
	c0.277-0.369,0.351-0.971,0.416-2.357c0.082-1.738,0.193-4.104,1.949-6.092c0.469-0.695,0.684-1.154,0.78-1.422
	c-0.436-0.242-1.221-0.535-1.733-0.727c-1.437-0.537-3.047-1.137-4.229-2.375c-0.862-0.611-1.576-1.299-2.211-1.912
	c-0.314-0.303-0.627-0.605-0.956-0.891l0,0c-0.062-0.053-0.12-0.105-0.178-0.162c-0.094-0.092-0.18-0.189-0.259-0.289
	c-0.344-0.381-0.701-0.75-1.058-1.117c-0.509-0.525-1.033-1.068-1.547-1.662c-1.01-0.91-1.972-1.885-2.863-2.902
	c-0.8-0.656-1.495-1.346-2.17-2.014c-0.275-0.271-0.551-0.545-0.832-0.812c-0.242-0.209-0.636-0.499-0.944-0.499
	c-0.247,0-0.622,0.177-1.03,0.485c-0.299,0.227-0.637,0.395-0.997,0.496c-1.933,0.545-3.695,0.809-5.389,0.809
	c-1.928,0-3.786-0.355-5.524-1.057c-0.268-0.107-0.518-0.254-0.743-0.434c-1.114-0.885-2.184-1.814-3.18-2.762
	c0,0-0.134-0.135-0.158-0.161c-0.952-0.992-1.84-2.06-2.641-3.175c-0.125-0.176-0.231-0.363-0.316-0.561
	c-1.154-2.674-3.218-3.985-6.898-4.387c-0.603-0.065-1.171-0.312-1.631-0.707c-0.303-0.26-0.598-0.53-0.892-0.801
	c-0.494-0.454-0.937-0.861-1.372-1.166c-0.475-0.181-0.907-0.484-1.25-0.901l-0.093-0.113c-0.263-0.321-0.447-0.683-0.555-1.062
	c-1.931-4.407-1.573-9.041-1.257-13.146c0.341-4.41,0.638-8.262-1.486-11.621c-8.294-2.418-14.884-7.857-20.665-17.029
	c-0.425-0.675-0.787-1.335-1.138-1.974c-1.085-1.979-1.869-3.408-3.887-4.239c-14.956-6.158-16.553-7.833-14.38-23.134
	c-5.812,0.173-11.175,2.25-16.838,4.443c-3.531,1.368-7.168,2.775-10.955,3.697c-4.027,10.683-1.819,16.49,9.371,25.984
	c1.02,0.865,2.377,1.705,3.813,2.594c3.711,2.296,7.918,4.899,8.973,9.623c0.691,3.095-0.133,6.443-2.52,10.223
	c-0.586,1.861-0.283,3.3,2.564,4.95l-0.001,0.001c0.039,0.021,0.078,0.043,0.117,0.066c0.404,0.242,0.731,0.564,0.973,0.934
	c0.516,0.583,0.987,1.099,1.475,1.461c0.428,0.146,0.828,0.391,1.164,0.732l0.174,0.176c0.304,0.307,0.528,0.666,0.672,1.049
	c0.299,0.413,0.655,0.769,1.076,1.074c0.351,0.141,0.68,0.348,0.966,0.623l0.177,0.17c0.343,0.33,0.592,0.724,0.743,1.146
	c0.358,0.475,0.859,0.945,1.417,1.471l0.289,0.275c0.068,0.055,0.135,0.115,0.199,0.178c1.013,0.992,1.903,2.064,2.652,3.188
	c0.747,0.844,1.206,1.834,1.356,2.917c0.471,0.569,0.791,0.569,0.98,0.569c0.86,0,2.215-0.618,3.411-1.163
	c0.389-0.178,0.811-0.27,1.238-0.271l3.021-0.004c0.756,0,1.483,0.285,2.038,0.799c0.201,0.187,0.4,0.377,0.599,0.566
	c0.528,0.504,1.002,0.955,1.473,1.289c0.39,0.139,0.755,0.358,1.07,0.66l0.178,0.17c0.333,0.318,0.578,0.697,0.732,1.104
	c0.275,0.376,0.588,0.69,0.941,0.948c0.47,0.152,0.906,0.424,1.264,0.807l0.176,0.188c0.297,0.319,0.513,0.688,0.646,1.08
	c0.193,0.276,0.413,0.512,0.665,0.711c0.681,0.158,1.31,0.555,1.75,1.164c0.783,1.082,2.042,1.836,3.499,2.707
	c1.453,0.869,3.09,1.848,4.464,3.342c1.183,0.877,2.288,1.912,3.241,3.02c1.027,0.902,1.999,1.879,2.894,2.912
	c0.551,0.447,1.035,0.904,1.505,1.348c0.396,0.373,0.773,0.729,1.145,1.031c0.104,0.07,0.203,0.146,0.3,0.23l0.119,0.104
	c0.239,0.207,0.438,0.445,0.595,0.703c0.486,0.562,0.951,0.953,1.438,1.201c0.739-0.213,1.106-0.625,1.289-1.436
	c-0.041-0.105-0.082-0.213-0.123-0.32c-0.648-1.688-2.138-5.568,1.631-8.449c0.059-0.068,0.12-0.133,0.186-0.197
	c1.862-1.814,3.924-2.734,6.126-2.734c2.041,0,4.111,0.814,6.096,2.377c0,0,0.163,0.123,0.197,0.15
	c1.144,0.938,2.217,1.975,3.197,3.088c1.017,0.904,1.998,1.869,2.92,2.871c0.373,0.326,1.09,0.518,1.915,0.738
	c1.198,0.322,2.689,0.721,4.042,1.793c0.399,0.316,0.697,0.715,0.888,1.152c0.387,0.5,0.815,0.928,1.295,1.287
	c0.356,0.154,0.688,0.381,0.974,0.678l0.158,0.164c0.187,0.195,0.343,0.41,0.468,0.639c0.638,0.85,1.297,1.684,1.963,2.484
	c0.847,0.932,1.307,2.061,1.345,3.264c0.174,0.123,0.542,0.266,1.398,0.523c0.759,0.229,1.65,0.496,2.523,0.984
	c0,0,0.42-0.008,0.44-0.008c0.317,0,0.633,0.049,0.934,0.148l1.249,0.41c0.288,0.094,0.56,0.23,0.807,0.406
	c0.638,0.455,0.971,0.49,1.057,0.49C687.79,347.205,688.088,347.004,688.415,346.658z"/>
</svg>
