<svg version="1.1" id="molise" width="100%" height="100%" viewBox="0 0 800 600" preserveAspectRatio="none">
	<path id="isernia" fill="#ACA49A" d="M384.625,364.025c4.461-2.147,8.216-6.933,9.564-12.191c0.978-3.811,1.187-9.691-3.367-16.07
		c-0.113-0.158-0.21-0.326-0.29-0.504c-1.715-3.775-4.457-4.441-9.586-4.441c-0.522,0-1.049,0.006-1.575,0.012
		c-0.549,0.006-1.098,0.012-1.645,0.012c-3.642,0-10.419,0-14.35-6.318c-0.421-0.677-0.556-1.492-0.374-2.268
		c2.062-8.819,8.321-14.127,13.843-18.811c1.227-1.039,2.385-2.021,3.497-3.034c4.78-4.355,7.04-8.194,6.717-11.409
		c-0.327-3.248-3.267-6.547-8.979-10.068c-0.443-0.148-0.857-0.4-1.204-0.756l-0.204-0.211c-0.28-0.288-0.491-0.619-0.634-0.974
		c-2.453-3.666-5.667-6.854-9.562-9.486c-0.477-0.322-0.851-0.774-1.077-1.303c-0.433-1.009-0.905-2.007-1.377-3.005
		c-1.103-2.333-2.243-4.746-2.956-7.365c-1.353-4.952-2.558-10.016-3.724-14.914c-2.107-8.857-4.287-18.016-7.372-26.596
		c-4.936-13.707-7.108-16.296-13.678-16.296c-3.339,0-7.874,0.767-13.656,1.919c-1.286,0.257-2.546,0.387-3.747,0.387
		c-6.089,0-9.96-3.174-13.704-6.244c-0.51-0.418-1.025-0.84-1.55-1.258c-7.325-5.818-13.11-10.413-15.843-10.413
		c-2.384,0-4.999,5.959-8.714,15.05c-4.567,11.179-10.971,16.386-20.153,16.386c-2.577,0-5.333-0.411-8.429-1.257
		c-1.021-0.28-1.958-0.673-2.864-1.053c-1.171-0.491-2.278-0.955-3.098-0.955c-0.296,0-1.006,0-2.097,1.424
		c2.35,10.753,6.968,19.373,14.47,27.041c6.167,6.299,10.513,11.171,10.248,16.515c-0.246,4.968-4.158,9.081-12.288,15.884
		c-3.07,2.569-5.818,5.821-8.727,9.264c-6.684,7.908-14.258,16.873-26.91,16.873c-2.43,0-5-0.336-7.651-1.002
		c-4.734,14.033-15.246,15.238-25.641,15.238c-0.82,0-1.646-0.007-2.474-0.014c-0.818-0.006-1.64-0.012-2.461-0.012
		c-2.546,0-5.187,0.062-7.711,0.406c11.15,28.485,10.386,53.877-2.31,77.518c-3.772,7.022-3.866,15.886-0.25,23.71
		c5.535,11.977,10.956,24.927,11.163,39.94c0.032,2.29,0.665,6.133,4.543,6.133c0.661,0,1.4-0.104,2.195-0.307
		c7.061-1.802,7.59-5.151,7.263-7.867c-0.364-3.021-1.109-5.999-1.897-9.151c-0.75-3.001-1.527-6.104-1.957-9.282
		c-1.862-13.781,1.163-26.007,8.52-34.424c6.567-7.515,15.996-11.487,27.268-11.487c1.844,0,3.754,0.11,5.676,0.326
		c27.541,3.102,58.892,8.494,82.395,33.372c0.049,0.052,0.096,0.105,0.141,0.161c1.612,1.971,2.976,2.98,4.536,3.353
		c0.703,0.088,1.407,0.146,2.104,0.174c4.576-5.174,8.971-10.666,13.23-15.989C349.288,391.668,363.124,374.379,384.625,364.025z"/>
	<path id="campobasso" fill="#ACA49A" d="M641.042,207.526c2.682-7.026,5.295-14.223,7.822-21.182c1.118-3.081,2.237-6.161,3.365-9.238
		c0.013-0.037,0.027-0.073,0.042-0.109c3.054-7.417,4.604-12.406-0.114-17.056c-0.062,0.001-0.126,0.002-0.188,0.002
		c-1.545,0-3.028-0.551-4.291-1.594c-0.049-0.041-0.097-0.083-0.144-0.125c-1.739-1.633-3.479-3.145-5.578-3.72
		c-0.002,0-0.004,0-0.005,0c-2.067,0-3.901-0.781-5.335-2.264c-2.024-1.317-3.763-2.922-5.175-4.779
		c-2.01-1.663-3.906-3.47-5.596-5.326c-1.855-1.657-3.633-3.429-5.426-5.411c-1.896-1.717-3.735-3.554-5.47-5.461
		c-1.229-1.114-2.4-2.273-3.533-3.395c-0.657-0.65-1.314-1.301-1.982-1.942c-0.063-0.061-0.124-0.124-0.181-0.189
		c-0.256-0.26-0.51-0.521-0.765-0.783c-1.286-1.322-2.509-2.578-3.847-3.621c-0.235-0.123-0.458-0.279-0.66-0.468l-0.244-0.228
		c-0.265-0.248-0.476-0.533-0.631-0.84c-1.391-1.711-2.835-2.807-4.479-3.396c-0.148,0.008-0.297,0.013-0.443,0.013
		c-1.832,0-3.548-0.657-4.972-1.9c-0.408-0.312-0.811-0.631-1.214-0.951c-1.335-1.06-2.604-2.068-3.974-2.658
		c-0.204,0.015-0.407,0.022-0.608,0.022c-1.826,0-3.512-0.585-5.048-1.769c-0.987-0.784-2.385-1.125-4.003-1.519
		c-2.33-0.568-4.972-1.211-7.17-3.411c-0.153-0.153-0.287-0.32-0.4-0.496c-1.3-1.138-3.104-1.28-5.785-1.403
		c-3.19-0.146-7.161-0.327-10.211-3.612c-0.063-0.068-0.123-0.138-0.179-0.21c-1.54-1.276-3.57-1.764-5.89-2.32
		c-1.48-0.355-3.003-0.721-4.516-1.322c-0.265,0.029-0.528,0.044-0.789,0.044c-1.646,0-3.212-0.597-4.532-1.725
		c-0.078-0.067-0.153-0.138-0.225-0.213c-0.812-0.854-2.182-1.204-3.769-1.609c-2.118-0.541-4.721-1.206-6.733-3.396
		c-2.461-1.374-3.93-1.67-4.738-1.67c-1.633,0-2.465,1.491-3.991,5.689c-0.854,2.351-1.738,4.782-3.317,6.661
		c-0.171,0.203-0.363,0.378-0.57,0.524c-0.891,1.028-1.288,2.511-1.74,4.197c-0.513,1.917-1.088,4.062-2.519,5.978
		c-0.043,0.261-0.082,0.547-0.122,0.843c-0.221,1.627-0.496,3.653-2.002,5.097c-11.342,10.833-19.304,24.724-27.004,38.158
		c-8.922,15.564-18.146,31.659-32.817,43.77c-3.263,2.695-4.704,9.982-5.246,12.725c-4.747,24.041-18.207,40.101-41.15,49.098
		c-2.908,1.14-5.584,3.22-8.418,5.422c-1.299,1.009-2.64,2.051-4.027,3.015c-1.832,1.743-2.314,3.782-1.595,6.743
		c0.928,1.888,2.039,3.532,3.389,5.013c9.558,8.827,3.686,17.827,0.525,22.669c-6.643,10.184-11.031,16.911-10.093,20.208
		c0.903,3.17,7.506,6.261,18.444,11.382c0.725,0.339,1.283,0.953,1.553,1.706c7.844,21.922-6.43,32.242-20.233,42.224
		c-1.925,1.391-3.893,2.771-5.871,4.156c-18.017,12.624-35.048,24.556-28.911,50.394c21.854,15.634,46.192,23.19,67.17,28.52
		c5.792,1.471,11.275,2.217,16.298,2.217c15.51,0,28.164-7.004,39.825-22.042c6.403-8.257,13.439-16.987,21.486-24.884
		c4.545-4.47,9.393-6.736,14.409-6.736c4.494,0,9.088,1.835,13.652,5.453c6.754,5.353,10.719,8.382,13.669,8.382
		c3.077-0.001,7.138-3.275,14.511-9.222l0.251-0.202c1.775-1.433,3.652-2.814,5.467-4.151c10.484-7.721,18.766-13.818,12.324-28.582
		c-1.337-3.074-0.446-8.275,1.862-10.905c7.542-8.645,7.351-18.86,7.148-29.676c-0.044-2.363-0.09-4.807-0.05-7.223
		c0.017-0.966,0.017-1.94,0.017-2.916c0.001-8.148,0.001-18.29,10.924-23.293c2.565-1.173,5.106-1.768,7.552-1.768
		c7.213,0,12.561,5.027,17.006,9.74c2.311,2.449,5.01,3.969,7.043,3.969c0.597,0,2.413,0,4.132-3.084
		c5.747-10.323,14.781-17.253,23.518-23.955c3.324-2.549,6.739-5.169,9.987-7.98C634.154,263.233,629.295,238.304,641.042,207.526z"
		/>
</svg>
