<svg version="1.1" id="piemonte" width="100%" height="100%" viewBox="0 0 800 600" preserveAspectRatio="none">
<path id="torino" fill-rule="evenodd" clip-rule="evenodd" fill="red" d="M286.279,404.693c-0.125-0.641-0.297-1.426-0.709-2.207
	l-0.292-2.467c-0.06-0.502-0.246-0.982-0.541-1.393c-0.012-0.043-0.086-0.348-0.14-0.568c-0.197-0.814-0.492-2.033-1.468-3.115
	c-0.267-0.383-0.291-0.619,0.017-1.09c0.057-0.066,0.111-0.137,0.162-0.209c0.908-1.287,1.143-2.793,0.697-4.205
	c0.028-0.922-0.219-1.83-0.73-2.646c-0.094-0.148-0.2-0.289-0.319-0.42c-0.128-0.143-0.259-0.281-0.39-0.42
	c-0.188-0.197-0.379-0.4-0.518-0.574c-0.145-0.328-0.35-0.637-0.617-0.906l-0.1-0.1c-0.254-0.258-0.545-0.459-0.856-0.605
	c-0.047-0.039-0.087-0.078-0.121-0.117c-0.146-0.336-0.355-0.65-0.626-0.922l-0.106-0.107c-0.275-0.275-0.593-0.488-0.933-0.637
	c-0.03-0.027-0.058-0.055-0.085-0.086c-0.146-0.322-0.35-0.623-0.613-0.887l-0.104-0.104c-0.264-0.266-0.567-0.471-0.891-0.617
	c-0.104-0.088-0.212-0.199-0.325-0.334c-0.16-0.285-0.371-0.549-0.633-0.777c-0.967-0.846-2.054-1.154-2.773-1.359
	c-0.14-0.041-0.316-0.09-0.442-0.133c-0.157-0.172-0.338-0.326-0.541-0.463c-0.061-0.039-0.184-0.115-0.184-0.115
	c-1.353-0.82-2.761-1.236-4.184-1.236c-1.381,0-2.736,0.391-4.03,1.162c-0.186,0.098-0.364,0.215-0.532,0.354
	c-0.262,0.219-0.479,0.473-0.649,0.752c-0.784,1.182-1.5,1.416-2.463,1.416c-0.949,0-2.097-0.262-3.312-0.539
	c-0.227-0.051-0.454-0.104-0.681-0.154c-0.501-0.27-1.044-0.438-1.609-0.496l-0.347-2.473c-0.063-0.451-0.229-0.881-0.483-1.258
	c-0.528-0.785-1.162-1.488-1.884-2.094c-0.957-1.066-2.145-1.428-2.883-1.652c-0.092-0.029-0.186-0.053-0.277-0.084
	c-0.002-0.002-0.209-0.213-0.252-0.254c-0.046-0.131-0.144-0.539-0.21-0.818c-0.103-0.434-0.224-0.943-0.423-1.48l-0.228-4.104
	c-0.031-0.555-0.216-1.092-0.534-1.549c-0.334-0.479-0.312-1.273-0.25-2.529c0.072-1.463,0.167-3.383-0.741-5.266
	c-0.035-0.82-0.273-1.619-0.71-2.359c-0.07-0.117-0.148-0.23-0.233-0.338c-0.034-0.107-0.08-0.295-0.116-0.439
	c-0.198-0.807-0.523-2.131-1.684-3.209c-0.189-0.203-0.383-0.402-0.577-0.602c-0.23-0.236-0.452-0.463-0.636-0.678
	c-0.126-0.197-0.279-0.385-0.458-0.555c-1.068-1.018-2.294-1.324-3.105-1.527c-0.176-0.043-0.407-0.102-0.525-0.143
	c-0.345-0.293-0.751-0.506-1.19-0.621l-0.765-0.199c-0.123-0.031-0.248-0.055-0.373-0.072c-0.089-0.701-0.333-1.381-0.727-2.014
	c-0.04-0.062-0.081-0.123-0.125-0.184c-0.042-0.172-0.06-0.598-0.071-0.885c-0.045-1.105-0.11-2.732-1.251-4.223
	c0.07-0.072,0.14-0.145,0.21-0.219c0.303-0.312,0.639-0.658,0.969-1.059c0.59-0.486,1.09-1.002,1.539-1.463l0.101-0.104
	c0.126-0.062,0.421-0.096,0.881-0.096c0.2,0,0.401,0.006,0.602,0.01c0.249,0.006,0.497,0.012,0.744,0.012
	c1.282,0,2.952-0.148,4.498-1.305c0.019-0.014,0.171-0.133,0.171-0.133c0.135-0.107,0.259-0.227,0.37-0.352
	c0.124-0.039,0.29-0.086,0.424-0.123c0.453-0.125,1.05-0.289,1.672-0.602l2.949,0.062c0.208,0.137,0.525,0.43,0.77,0.656
	c1.049,1.162,2.353,1.494,3.153,1.697c0.123,0.031,0.279,0.072,0.384,0.104c0.39,0.344,0.864,0.584,1.376,0.689
	c1.078,0.225,2.056,0.334,2.991,0.334c1.423,0,2.776-0.264,4.021-0.779c0.109-0.045,0.215-0.096,0.317-0.154
	c0.915-0.514,1.679-1.199,2.277-2.045c1.086-0.916,1.463-2.111,1.681-2.803c0.018-0.057,0.035-0.115,0.052-0.172
	c0.34-0.275,0.605-0.613,0.791-0.984c0.04-0.035,0.083-0.064,0.128-0.092l2.61-0.371c0.43-0.062,0.841-0.215,1.206-0.451
	c0.785-0.506,1.505-1.129,2.145-1.852c0.633-0.568,1.203-1.191,1.697-1.857c0.624-0.709,0.991-1.562,1.073-2.482
	c0.283-0.141,0.547-0.326,0.781-0.561l0.116-0.115c0.233-0.23,0.42-0.492,0.562-0.773c0.785-0.055,1.523-0.32,2.172-0.775
	c0.493-0.205,1.099-0.295,1.969-0.295c0.487,0,0.977,0.025,1.467,0.049c0.59,0.029,1.179,0.059,1.765,0.059
	c1.192,0,2.953-0.104,4.724-0.959c0.177-0.072,0.35-0.164,0.515-0.273c0.451-0.297,0.799-0.701,1.032-1.156
	c0.111-0.172,0.262-0.336,0.462-0.498c0.234-0.133,0.454-0.297,0.652-0.496l0.091-0.09c0.209-0.211,0.382-0.443,0.518-0.693
	c0.192-0.23,0.46-0.486,0.739-0.756l0.402-0.393c0.142-0.152,0.289-0.301,0.436-0.449c0.372-0.377,0.784-0.795,1.181-1.299
	c0.591-0.5,1.148-1.053,1.663-1.646c0.708-0.594,1.338-1.297,1.875-2.094c0.12-0.178,0.22-0.369,0.299-0.568
	c0.903-2.273,0.96-4.721,0.168-7.273c-0.104-0.337-0.268-0.653-0.482-0.933c-0.015-0.079-0.036-0.571-0.05-0.897
	c-0.049-1.155-0.123-2.901-1.417-4.463c-0.05-0.061-0.103-0.119-0.157-0.175c-0.139-0.18-0.19-0.293-0.208-0.34
	c0.023-0.012,0.104-0.167,0.341-0.419s0.423-0.534,0.557-0.833c0.04-0.043,0.083-0.084,0.13-0.123
	c0.303-0.146,0.585-0.345,0.833-0.597l0.103-0.104c0.236-0.239,0.424-0.51,0.564-0.798c0.053-0.062,0.108-0.119,0.167-0.171
	c0.332-0.15,0.641-0.363,0.909-0.637l0.104-0.107c0.25-0.255,0.445-0.545,0.586-0.855c0.04-0.046,0.083-0.088,0.129-0.128
	c0.291-0.132,0.565-0.313,0.809-0.541l0.106-0.099c0.313-0.293,0.551-0.639,0.71-1.013c0.147-0.163,0.368-0.362,0.579-0.551
	c0.248-0.185,0.47-0.412,0.656-0.678c0.115-0.165,0.212-0.337,0.29-0.516c1.611-3.502,1.674-7.124,0.188-10.771
	c-0.083-0.272-0.207-0.538-0.374-0.787c-0.044-0.066-0.14-0.192-0.14-0.192c-0.509-0.671-0.437-0.802-0.012-1.309
	c0.096-0.115,0.183-0.235,0.259-0.36c0.113-0.136,0.222-0.251,0.329-0.347c0.387-0.173,0.742-0.432,1.037-0.771l0.089-0.103
	c0.06-0.019,0.12-0.036,0.18-0.055c0.671-0.213,1.828-0.579,2.743-1.604c0.477-0.337,0.86-0.696,1.181-0.996
	c0.124-0.116,0.246-0.233,0.375-0.343c0.081-0.058,0.16-0.12,0.236-0.187c0.072-0.063,0.142-0.13,0.207-0.199
	c0.103-0.062,0.576-0.177,0.889-0.254c0.468-0.114,1.021-0.249,1.602-0.479l2.431-0.193c0.411-0.033,0.812-0.15,1.175-0.344
	c0.683-0.364,1.487-0.52,2.688-0.52c0.614,0,1.233,0.038,1.853,0.074c0.735,0.042,1.471,0.083,2.2,0.083
	c1.232,0,3.04-0.101,4.891-0.922c0.389-0.125,0.757-0.334,1.079-0.625c0.243-0.221,0.444-0.475,0.601-0.75
	c0.124-0.193,0.244-0.326,0.351-0.42c0.326-0.145,0.631-0.35,0.896-0.615l0.106-0.106c0.27-0.269,0.479-0.577,0.625-0.908
	c0.054-0.062,0.114-0.119,0.182-0.174c0.249-0.123,0.483-0.282,0.696-0.478l0.106-0.097c0.3-0.275,0.532-0.598,0.694-0.948
	c0.163-0.186,0.395-0.405,0.622-0.619c0,0,0.252-0.235,0.298-0.28c0.605-0.598,1.17-1.253,1.682-1.951
	c1.083-0.899,1.462-2.077,1.684-2.763c0.013-0.041,0.025-0.081,0.038-0.121l0.048-0.038c0.119-0.095,0.229-0.197,0.33-0.305
	c0.202-0.026,0.504-0.041,0.724-0.052c0.774-0.039,1.825-0.09,2.892-0.532c0.441,0.156,0.858,0.26,1.226,0.352
	c0.238,0.059,0.583,0.145,0.743,0.211c0.061,0.063,0.126,0.124,0.194,0.182l0.084,0.073c0.096,0.083,0.195,0.158,0.298,0.227
	c0.111,0.094,0.217,0.195,0.324,0.294c0.396,0.363,0.882,0.811,1.538,1.197l0.033,0.022c0.145,0.097,0.297,0.181,0.456,0.251
	c2.651,1.175,5.224,1.326,7.17,1.326c1.043,0,2.072-0.051,3.066-0.101c0.963-0.048,1.874-0.093,2.768-0.093
	c1.645,0,2.883,0.161,3.975,0.519c0.588,0.298,1.209,0.477,1.856,0.534c1.269,0.629,2.546,0.692,3.457,0.737
	c0.372,0.018,0.934,0.046,1.086,0.118c0.259,0.176,0.531,0.303,0.832,0.391c1.154,0.338,2.332,0.509,3.5,0.509
	c1.152,0,2.318-0.167,3.465-0.495c0.276-0.079,0.54-0.198,0.782-0.352c0.211-0.134,0.691-0.248,1.155-0.357
	c0.502-0.119,1.091-0.258,1.71-0.494c0.949-0.076,1.833-0.444,2.58-1.076l1.529-1.209c0.084-0.058,0.166-0.122,0.245-0.189
	l0.098-0.084c0.27-0.232,0.488-0.501,0.654-0.794c0.053-0.056,0.101-0.097,0.143-0.127c0.14-0.015,0.277-0.035,0.414-0.062
	c0.022,0.129,0.053,0.26,0.09,0.393c0.15,0.524,0.468,1.2,1.136,1.811c0.291,0.366,0.67,0.668,1.124,0.871
	c4.857,2.17,8.924,5.549,13.229,9.126c0.927,0.771,1.854,1.54,2.787,2.296c1.62,1.313,3.643,6.011,4.222,11.597
	c0.437,4.218-0.163,7.083-0.952,8.052c-5.651,6.954-4.928,14.419-4.288,21.005c0.14,1.446,0.272,2.812,0.349,4.188
	c0.045,0.826,0.429,1.596,1.062,2.129c0.44,0.373,0.876,0.754,1.311,1.135c2.465,2.158,5.258,4.604,9.231,5.484
	c1.676,0.373,5.163,1.146,6.084,2.609c0.121,0.191,0.489,0.775,0.14,2.283c-0.956,4.127-4.023,6.691-8.006,6.691
	c-0.284,0-0.573-0.014-0.868-0.039c-1.104-0.094-2.111-0.141-3.078-0.141c-5.562,0-9.841,1.607-13.467,5.059
	c-1.652,1.574-3.322,3.529-3.182,6.105c0.105,1.93,1.196,3.662,3.335,5.293c2.217,1.691,2.403,2.316,2.419,2.426l0,0
	c-0.002,0-0.117,0.693-1.938,2.09c-4.133,3.17-3.891,8.57-3.714,12.514c0.032,0.723,0.064,1.424,0.067,2.08
	c0.005,1.357-0.243,2.857-0.505,4.447c-0.759,4.598-1.703,10.311,3.481,15.217c-0.072,0.277-0.318,0.828-0.867,1.506
	c-0.979,1.211-2.147,1.961-3.053,1.961c-0.274,0-0.528-0.066-0.797-0.209c-3.647-1.939-7.232-2.881-10.958-2.881
	c-3.814,0-7.749,1.01-12.027,3.086c-0.948,0.461-1.97,0.703-2.958,0.703c-1.221,0-2.947-0.375-4.234-2.168
	c-0.699-0.973-2.82-3.922-6.113-3.922c-2.784,0-4.816,2.023-6.502,3.92c-1.235,1.391-2.811,2.568-4.48,3.816
	c-1.007,0.752-2.047,1.529-3.054,2.387c-5.17,3.646-11.678,3.969-17.972,4.281c-2.978,0.146-5.955,0.223-8.833,0.297
	C305.91,401.689,295.999,401.945,286.279,404.693z"/>
<path id="cuneo" fill-rule="evenodd" clip-rule="evenodd" fill="yellow" d="M391.8,522.844c0.595-0.176,1.179-0.307,1.748-0.436
	c2.563-0.58,2.729-0.793,2.814-1.746c0.012-0.59,0.193-1.182,0.548-1.691c0.237-0.34,0.534-0.617,0.87-0.824
	c0.186-0.156,0.331-0.297,0.442-0.428c0.155-0.342,0.376-0.656,0.66-0.928l0.103-0.098c0.262-0.248,0.558-0.443,0.873-0.58
	c0.206-0.162,0.447-0.4,0.698-0.648l0.223-0.219c0.288-0.281,0.63-0.5,1.004-0.646l0.636-0.248c0.349-0.137,0.719-0.205,1.091-0.205
	c0.013,0,0.025,0,0.037,0c1.304-0.574,2.614-0.666,3.857-0.666l0.921,0.006c0.68,0,1.198-0.033,1.502-0.189
	c0.606-0.393,1.277-0.645,1.976-0.742l-0.045-2.652c-0.112-0.188-0.312-0.42-0.615-0.721c-0.238-0.236-0.435-0.512-0.582-0.814
	c-3.544-7.275-2.285-14.877,3.543-21.406c1.002-1.123,2.063-2.156,3.091-3.154c3.763-3.662,6.06-6.123,5.886-10.395
	c-0.071-1.65,1.025-2.713,1.553-3.225c0.064-0.061,0.13-0.121,0.174-0.17c3.705-4.369,5.908-9.582,8.24-15.098
	c1.58-3.74,3.214-7.605,5.369-11.236c0.192-0.324,0.443-0.609,0.741-0.84c0.791-0.613,1.275-1.223,1.296-1.629
	c0.019-0.377-0.245-1.285-2.221-3.164c-5.598-5.326-5.947-11.238-1.039-17.568c0.756-0.975,1.435-2.189,2.134-3.818l0.342-0.783
	c1.616-3.676,1.434-4.209,0.448-4.904c-2.008-1.414-3.726-2.104-5.25-2.104c-1.094,0-2.133,0.369-3.125,1.084
	c-0.066,0.062-0.225,0.271-0.34,0.426c-0.638,0.842-1.966,2.598-4.548,2.598c-0.133,0-0.271-0.006-0.413-0.016
	c-0.823-0.061-1.585-0.457-2.107-1.098c-2.072-2.543-3.189-5.635-3.231-8.941c-0.041-3.264-1.133-3.809-5.784-4.725
	c-3.303-0.65-7.778-1.533-9.778-5.908c-0.14-0.027-0.334-0.051-0.577-0.051c-0.293,0-0.602,0.035-0.875,0.098
	c-0.785,0.182-1.478,0.602-2.062,1.254c-2.574,2.869-5.661,4.387-8.925,4.387c-2.42,0-4.865-0.816-7.268-2.426
	c-1.742-1.166-3.323-1.732-4.835-1.732c-1.593,0-3.28,0.594-5.312,1.871c-1.518,0.955-5.479,3.174-9.477,3.174
	c-3.511,0-5.476-1.68-6.506-3.092c-1.998-2.738-3.11-2.949-3.403-2.949c-0.968,0-2.575,1.512-3.992,2.848
	c-0.519,0.488-1.045,0.984-1.583,1.457c-2.085,1.844-4.376,3.35-5.917,4.32c-0.088,0.057-0.179,0.107-0.272,0.154
	c-9.966,4.92-20.597,5.332-29.78,5.332c-1.482,0-2.967-0.012-4.452-0.023c-1.468-0.014-2.937-0.025-4.404-0.025l-0.988,0.002
	c-11.854,0.053-12.317,0.055-14.281,11.25c-0.159,0.906-0.726,1.689-1.537,2.125c-0.244,0.131-0.501,0.225-0.766,0.283
	c-1.778,0.955-3.522,1.078-4.746,1.078c-0.937,0-1.832-0.084-2.697-0.166c-0.759-0.072-1.477-0.141-2.129-0.141
	c-0.795,0-1.368,0.096-1.845,0.334c-0.153,0.461-0.393,0.896-0.714,1.289c-0.136,0.275-0.12,0.947-0.104,1.598
	c0.031,1.312,0.072,3.066-0.925,4.775c-0.146,0.309-0.348,0.598-0.604,0.852l-0.086,0.086c-0.061,0.059-0.123,0.115-0.186,0.168
	c-0.042,0.131-0.091,0.312-0.13,0.459c-0.129,0.48-0.29,1.078-0.598,1.701l-0.121,2.41c-0.035,0.684-0.291,1.322-0.747,1.832
	c-0.08,0.123-0.189,0.596-0.262,0.91c-0.118,0.508-0.256,1.107-0.513,1.74c-0.111,0.873-0.465,1.689-1.036,2.379
	c-0.512,0.775-1.16,1.43-1.931,1.947c-0.693,0.594-1.536,0.957-2.437,1.051c-0.115,0.08-0.281,0.227-0.51,0.506
	c-0.103,0.131-0.218,0.254-0.344,0.369c-0.075,0.068-0.152,0.133-0.231,0.191c-0.167,0.145-0.309,0.289-0.429,0.438
	c0,0,0.024,6.188,0.025,6.188c0.38,0.189,0.726,0.459,1.007,0.811c0.063,0.02,0.126,0.037,0.189,0.057
	c0.684,0.217,1.87,0.592,2.792,1.656c0.68,0.516,1.295,1.129,1.854,1.857c1.112,0.959,1.484,2.195,1.698,2.904
	c0.025,0.086,0.047,0.172,0.074,0.254c0.173,0.16,0.331,0.34,0.467,0.543c0.061,0.09,0.116,0.184,0.166,0.277
	c1.622,2.785,1.536,5.73-0.247,8.314c-0.138,0.207-0.303,0.398-0.494,0.57c-0.428,0.385-0.938,0.623-1.468,0.719
	c-1.585,0.469-2.314,1.309-2.549,2.916l-0.052,1.533c0.121,0.166,0.263,0.344,0.408,0.527l0.276,0.354
	c0.634,0.734,1,1.611,1.07,2.547c0.082,0.113,0.203,0.244,0.364,0.395c0.093,0.068,0.183,0.143,0.269,0.225
	c1.047,0.979,1.398,2.146,1.63,2.92c0.03,0.1,0.067,0.223,0.1,0.322c0.021,0.02,0.188,0.174,0.188,0.174
	c0.258,0.242,0.464,0.52,0.617,0.818c0.283,0.379,0.588,0.754,0.912,1.121c0.694,0.75,1.078,1.678,1.12,2.656
	c0.013,0.016,0.028,0.031,0.045,0.047c0.282,0.158,0.543,0.365,0.77,0.619l0.092,0.102c0.146,0.164,0.271,0.34,0.375,0.523
	c0.101,0.127,0.193,0.223,0.276,0.295c0.375,0.166,0.722,0.412,1.013,0.734l0.099,0.109c0.209,0.232,0.376,0.49,0.501,0.762
	c0.094,0.111,0.228,0.238,0.428,0.365c0.309,0.174,0.593,0.404,0.833,0.688c0.109,0.129,0.206,0.266,0.29,0.406
	c1.179,1.787,1.14,3.66,1.111,5.045c-0.013,0.598-0.025,1.213,0.077,1.514c0.114,0.096,0.228,0.189,0.34,0.285
	c0.127-0.107,0.265-0.238,0.419-0.396c0.562-0.574,1.331-0.898,2.133-0.9c0,0,1.744-0.012,1.75-0.012
	c0.78,0,1.529,0.305,2.089,0.848l0.265,0.26c0.16,0.158,0.342,0.338,0.5,0.479c0.483,0.172,0.928,0.471,1.281,0.891
	c0.608,0.721,1.538,1.26,2.616,1.887c0.636,0.369,1.292,0.752,1.954,1.211c0.091,0.064,0.177,0.131,0.259,0.201
	c0.283-0.094,0.714-0.297,1.024-0.443c1.009-0.475,2.266-1.064,3.762-1.064c1.433,0,2.775,0.557,3.88,1.611
	c0.188,0.178,0.348,0.377,0.478,0.588c0.224,0.262,0.473,0.51,0.751,0.752c0.181,0.115,0.351,0.252,0.508,0.408
	c0.955,0.957,1.287,2.072,1.506,2.811c0.025,0.082,0.054,0.18,0.081,0.268c0.068,0.059,0.134,0.119,0.197,0.184l0.164,0.166
	c0.057,0.057,0.111,0.115,0.162,0.176c0.114,0.035,0.254,0.072,0.369,0.104c0.67,0.184,1.588,0.434,2.471,1.086
	c0.453,0.334,0.78,0.77,0.976,1.252c0.175,0.201,0.458,0.443,0.711,0.654c0.205,0.162,0.392,0.354,0.555,0.574
	c0.021,0.027,0.041,0.055,0.06,0.084c0.809,1.094,1.667,1.467,3.362,1.467c0.732,0,1.529-0.074,2.373-0.152
	c0.942-0.086,1.916-0.176,2.923-0.176c1.484,0,3.704,0.166,5.831,1.607c0.093,0.062,0.182,0.131,0.267,0.203l0.014,0.012
	c0.709,0.545,1.371,1.16,1.971,1.832c0.293,0.27,0.563,0.516,0.811,0.703l7.949-0.043c0.031-0.025,0.065-0.055,0.102-0.092
	c0.159-0.283,0.367-0.545,0.622-0.771c0.005-0.016,0.01-0.031,0.015-0.049c0.243-0.809,0.748-2.49,2.628-3.348
	c0.192-0.088,0.393-0.154,0.599-0.201l2.498-0.553c1.316-0.682,2.637-0.76,3.634-0.818c0.388-0.023,1.11-0.066,1.238-0.164
	c0.494-0.385,1.095-0.604,1.72-0.629l5.838-0.238c0.101-0.068,0.241-0.193,0.428-0.426c0.227-0.316,0.518-0.592,0.865-0.809
	c0.19-0.117,0.39-0.211,0.594-0.283c1.668-0.715,3.439-1.078,5.271-1.078c1.646,0,3.346,0.283,5.182,0.865
	c1.09,0.049,2.095,0.475,2.919,1.234c0.185,0.17,0.347,0.363,0.483,0.574c1.556,2.4,1.892,5.047,1.005,7.889
	c0.031,0,0.063,0,0.096,0c0.422,0,0.91-0.043,1.427-0.09c0.626-0.057,1.275-0.117,1.969-0.117c2.02,0,3.653,0.553,4.983,1.688
	c0.797,0.539,1.486,1.199,2.053,1.965c0.361,0.236,0.675,0.484,0.955,0.721L391.8,522.844z"/>
<path id="alessandria" fill-rule="evenodd" clip-rule="evenodd" fill="pink" d="M459.613,452.648c3.719-5.654,8.636-8.521,14.613-8.521
	c2.394,0,4.957,0.482,7.617,1.434c0.899,0.322,1.898,0.549,2.955,0.789c1.187,0.27,2.413,0.547,3.654,0.992
	c1.863,0.666,4.283,1.434,6.477,1.434c2.163,0,3.985-0.734,5.733-2.312c1.777-1.602,4.24-2.414,7.321-2.414
	c0.143,0,0.285,0.002,0.43,0.006c0.218,0.004,0.438,0.01,0.659,0.01c1.395,0,1.583-0.234,1.673-0.348
	c3.272-4.086,7.014-6.566,11.437-7.576c0.268-0.062,0.582-0.254,0.78-0.426c-2.244-8.916,4.068-12.779,8.272-15.354
	c0.896-0.549,1.743-1.066,2.506-1.605c2.778-1.959,5.033-2.832,7.312-2.832c3.491,0,6.198,2.117,8.603,4.406
	c0.657,0.625,1.112,1.311,1.515,1.918c0.158,0.238,0.38,0.572,0.535,0.762c7.021,0.654,10.465,6.012,12.535,9.23
	c0.085,0.133,0.161,0.242,0.229,0.33c0.025-0.209,0.046-0.504,0.052-0.924c0.073-5.242,0.722-10.432,1.349-15.449
	c0.15-1.201,0.3-2.404,0.443-3.609c0.767-6.443-2.524-11.045-9.266-12.957c-2.479-0.703-10.021-2.84-9.489-11.17
	c0.149-2.344-0.329-3.273-3.315-3.814c-4.372-0.793-7.373-3.408-7.646-6.662c-0.535-6.387-1.922-10.844-7.175-13.314
	c-0.963-0.453-1.613-1.383-1.71-2.441c-0.28-3.074-0.976-3.074-1.482-3.074c-1.071,0-2.704,0.504-4.283,0.988l-0.621,0.191
	c-1.226,0.373-2.583,0.547-4.273,0.547c-0.756,0-1.522-0.033-2.287-0.068c-0.671-0.031-1.34-0.062-2.005-0.062h-0.345
	c-19.055,0-21.33-1.9-24.345-20.348c-0.709-4.332-1.984-6.197-5.056-7.385c-4.589-1.777-7.227-5.34-7.542-10.117
	c-1.128-0.719-2.649-0.836-4.802-0.943l-0.25-0.014c-0.731-0.037-1.459-0.055-2.187-0.055c-5.26,0-10.397,0.887-15.837,1.826
	c-4.938,0.852-10.046,1.732-15.264,1.893c-7.909,0.24-9.066,1.412-9.531,9.639c-0.04,0.705-0.036,1.441-0.032,2.219
	c0.008,1.611,0.016,3.277-0.35,5.031c-0.703,3.4,0.421,5.426,3.76,6.771c1.187,0.479,2.245,0.721,3.147,0.721
	c1.132,0,2.603-0.326,3.934-2.867c0.147-0.283,0.34-0.539,0.568-0.762c2.614-2.535,5.453-3.877,8.209-3.877
	c1.904,0,5.454,0.691,7.833,5.32c0.554,1.076,1.163,2.168,1.777,3.27c2.385,4.279,4.851,8.701,5.11,13.535
	c0.625,11.752,6.587,20.178,15.346,29.215c0.141,0.145,0.267,0.305,0.376,0.475c5.005,7.855-1.713,12.84-4.243,14.717
	c-0.891,0.66-1.822,1.188-2.724,1.697c-1.864,1.057-3.022,1.771-3.381,2.795c-2.605,7.459-6.422,14.295-10.113,20.904
	c-2.19,3.924-4.455,7.979-6.398,12.061c-0.147,0.361-0.411,1.018-0.475,1.375c0.041,0.031,0.095,0.068,0.167,0.113
	c2.546,1.59,5.001,3.207,7.278,4.719c0.938,0.625,1.363,0.768,1.519,0.801C459.012,453.406,459.256,453.193,459.613,452.648z"/>
<path id="verbano" fill-rule="evenodd" clip-rule="evenodd" fill="brown" d="M454.941,199.161c0.27,0,1.024-0.064,2.205-0.655
	c1.936-0.968,3.979-2.702,6.245-5.298c2.795-3.206,5.745-4.765,9.019-4.765c2.326,0,4.742,0.828,7.359,2.526
	c0.969-0.032,1.685-0.234,1.983-0.566c0.391-0.433,0.533-1.481,0.39-2.878c-0.646-6.336,1.475-11.987,6.674-17.783
	c2.725-3.038,5.375-6.278,7.938-9.412c1.09-1.332,2.179-2.663,3.277-3.985c0.791-1.647,0.598-3.443-0.008-5.736
	c-0.273-0.567-0.441-1.167-0.501-1.782c-0.687-1.214-0.743-2.485-0.781-3.333c-0.007-0.16-0.017-0.372-0.031-0.537
	c-0.065-0.063-0.13-0.13-0.19-0.201l-0.109-0.125c-0.069-0.022-0.142-0.042-0.212-0.064c-0.719-0.226-1.868-0.586-2.795-1.621
	l-0.12-0.104c-0.268-0.232-0.541-0.469-0.761-0.617c-0.879-0.102-1.694-0.448-2.393-1.02c-0.732-0.493-1.39-1.081-1.957-1.75
	c-0.602-0.532-1.177-1.104-1.714-1.704c-0.586-0.52-1.143-1.092-1.683-1.735c-1.08-0.934-1.448-2.111-1.679-2.845
	c-0.021-0.069-0.041-0.139-0.062-0.207c-0.011-0.01-0.16-0.145-0.16-0.145c-0.287-0.26-0.513-0.565-0.676-0.895
	c-0.281-0.385-0.592-0.778-0.951-1.207c-0.602-0.743-0.95-1.62-1.024-2.542c-0.233-0.598-0.364-1.166-0.478-1.65
	c-0.073-0.318-0.185-0.799-0.261-0.913c-0.021-0.026-0.044-0.052-0.065-0.079c-0.574-0.712-0.896-1.557-0.943-2.432
	c-0.371-0.195-0.707-0.471-0.978-0.821c-0.077-0.025-0.156-0.046-0.234-0.071c-0.717-0.224-1.869-0.584-2.802-1.613
	c-0.231-0.197-0.454-0.404-0.675-0.613c-0.163-0.154-0.32-0.303-0.455-0.416c-0.232-0.125-0.451-0.281-0.65-0.471l-0.097-0.092
	c-0.225-0.213-0.409-0.453-0.554-0.711c-0.055-0.058-0.105-0.103-0.155-0.138c-0.876-0.107-1.686-0.456-2.377-1.026
	c-0.745-0.495-1.403-1.094-1.963-1.786c-1.67-1.5-1.746-3.483-1.788-4.579c-0.007-0.169-0.016-0.399-0.03-0.561l-0.344-0.342
	c-0.345-0.346-0.688-0.692-1.05-1.02c-0.093-0.074-0.182-0.154-0.267-0.241c-0.639-0.647-1.229-1.354-1.753-2.102
	c-0.325-0.464-0.513-1.01-0.54-1.576l-0.177-3.518c-0.039-0.782,0.23-1.549,0.75-2.136c0.141-0.158,0.284-0.313,0.429-0.468
	c0.164-0.175,0.341-0.365,0.469-0.522c0.139-0.33,0.34-0.639,0.601-0.911l0.1-0.104c0.271-0.282,0.586-0.5,0.926-0.654
	c0.027-0.025,0.052-0.05,0.073-0.074c0.1-0.234,0.23-0.458,0.392-0.666l0.094-0.121c0.297-0.381,0.668-0.673,1.08-0.868l0.195-9.151
	c0.016-0.79,0.343-1.541,0.909-2.09c0.208-0.202,0.476-0.476,0.607-0.707l0.039-1.116c-0.25-0.37-0.503-0.739-0.759-1.105
	c-0.181-0.259-0.318-0.545-0.41-0.847c-0.231-0.765-0.615-2.038-0.923-2.771c-0.861,0.246-2.338,0.863-3.351,1.29
	c-0.804,0.407-1.587,0.6-2.224,0.757c-0.29,0.072-0.756,0.187-0.935,0.276c-0.169,0.18-0.342,0.358-0.515,0.535
	c-0.259,0.266-0.507,0.52-0.709,0.759c-0.553,0.885-0.726,1.907,0.124,3.866c0.192,0.442,0.274,0.925,0.24,1.406l-0.133,1.825
	c-0.038,0.503-0.175,0.943-0.45,1.367c-0.037,0.079-0.106,0.32-0.157,0.497c-0.24,0.841-0.641,2.238-1.985,3.295
	c-0.72,0.599-1.561,0.967-2.462,1.082c-0.691,0.335-1.358,0.506-1.889,0.642c-0.233,0.059-0.572,0.146-0.69,0.187
	c-0.502,0.562-1.052,1.089-1.643,1.572c-0.522,0.637-1.095,1.231-1.706,1.769c-0.596,0.673-1.25,1.3-1.947,1.865
	c-0.019,0.015-0.098,0.076-0.116,0.091c-0.987,0.762-1.982,1.608-2.579,2.636c-0.115,0.197-0.249,0.376-0.398,0.537
	c-0.015,0.055-0.027,0.111-0.042,0.167c-0.204,0.769-0.616,2.319-2.161,3.308c-0.659,0.509-1.411,0.833-2.214,0.956
	c-1.319,0.716-2.677,0.824-3.771,0.824c-0.242,0-0.485-0.005-0.729-0.011c-0.198-0.004-0.396-0.009-0.594-0.009
	c-0.581,0-0.801,0.05-0.893,0.092c-0.05,0.046-0.102,0.09-0.155,0.133c-0.416,0.334-0.83,0.755-1.306,1.251
	c-0.434,0.703-0.275,0.889,0.052,1.277c0.036,0.042,0.07,0.085,0.104,0.128c0.429,0.524,0.846,1.055,1.257,1.594
	c0.64,0.728,1.012,1.603,1.09,2.542c0.084,0.119,0.213,0.26,0.389,0.425c0.204,0.154,0.393,0.337,0.558,0.547
	c4.358,5.555,3.631,11.615,2.527,15.905c-0.044,0.739-0.361,1.461-0.938,2.004c0,0-0.127,0.119-0.149,0.138
	c-0.027,0.085-0.05,0.172-0.077,0.258c-0.227,0.736-0.594,1.925-1.67,2.876c-0.522,0.602-1.084,1.182-1.672,1.729
	c-0.562,0.615-1.189,1.197-1.871,1.733c-0.969,1.111-2.215,1.48-2.927,1.692c-0.08,0.024-0.161,0.044-0.24,0.069
	c-0.029,0.031-0.06,0.061-0.091,0.09c-0.997,0.946-2.144,1.273-2.901,1.489c-0.14,0.04-0.315,0.09-0.438,0.131
	c-0.027,0.028-0.055,0.056-0.082,0.083c-0.979,0.942-2.109,1.272-2.856,1.49c-0.129,0.038-0.29,0.085-0.407,0.124
	c-0.024,0.027-0.183,0.185-0.183,0.185c-0.213,0.212-0.45,0.386-0.704,0.521c-0.23,0.195-0.479,0.462-0.775,0.83l0,0
	c-0.059,0.075-0.12,0.147-0.186,0.217c-0.023,0.025-0.048,0.05-0.072,0.074c-0.053,0.14-0.122,0.403-0.175,0.604
	c-0.135,0.509-0.303,1.146-0.632,1.808l-0.242,4.184c-0.032,0.568-0.226,1.115-0.558,1.578c-0.087,0.121-0.205,0.618-0.282,0.947
	c-0.126,0.531-0.273,1.154-0.549,1.809c-0.089,0.909-0.437,1.771-1.021,2.504c-0.412,0.543-0.834,1.081-1.264,1.61
	c-0.07,0.099-0.146,0.194-0.23,0.285l-0.077,0.084c-0.218,0.238-0.464,0.432-0.728,0.582c-0.172,0.14-0.32,0.287-0.449,0.441
	c-0.156,0.299-0.365,0.577-0.628,0.818l-0.092,0.084c-0.123,0.113-0.253,0.214-0.389,0.303c-0.528,0.41-1.06,0.812-1.6,1.208
	c-0.394,0.289-0.852,0.476-1.335,0.547l-2.427,0.357c-1.425,0.739-2.839,0.834-3.829,0.834c-0.5,0-1.007-0.029-1.513-0.059
	c-0.386-0.023-0.771-0.049-1.152-0.049c-0.225,0-0.408,0.01-0.56,0.028l-0.001,0.094c0.226,0.269,0.465,0.571,0.69,0.918
	c0.302,0.206,0.562,0.412,0.79,0.592c0.034,0.028,0.07,0.056,0.106,0.084l3.697-0.014c0.497-0.078,0.993-0.163,1.489-0.248
	c1.888-0.323,3.84-0.657,5.874-0.657c2.954,0,5.508,0.729,7.807,2.227c0.608,0.396,1.351,0.633,1.983,0.633
	c0.21,0,0.509-0.027,0.745-0.157c2.148-1.181,4.305-1.779,6.409-1.779c4.327,0,7.623,2.434,10.53,4.582
	c1.424,1.052,2.769,2.045,4.107,2.677c8.259,3.898,11.574,10.675,9.856,20.143c-0.126,0.695-0.104,1.132-0.063,1.347
	C454.838,199.158,454.885,199.161,454.941,199.161z"/>
<path id="novara" fill-rule="evenodd" clip-rule="evenodd" fill="green" d="M504.33,280.72c3.657-2.549,7.676-4.128,12.283-4.828
	c0.912-0.138,1.519-0.264,1.92-0.367c-0.16-0.412-0.435-1.027-0.899-1.942c-1.688-3.32-4.532-5.822-7.542-8.47l-0.221-0.194
	c-2.482-2.186-6.233-5.488-7.284-10.522c-0.94-4.511-2.574-7.939-5.138-10.785c-1.404-1.556-2.917-3.784-2.141-7.241
	c1.453-6.445,0.581-8.671-4.665-11.905c-3.548-2.19-5.639-4.772-6.579-8.126c-0.318-1.136-0.69-2.265-1.084-3.459
	c-1.358-4.119-2.762-8.376-2.062-13.226c-1.239-0.1-4.3-0.4-5.92-3.443c-0.018-0.033-0.034-0.066-0.051-0.1
	c-0.609-1.256-1.143-2.024-1.512-2.456c-1.912,1.999-4.021,3.366-6.063,4.692c-1.335,0.866-2.595,1.684-3.718,2.63
	c-5.104,4.3-4.413,8.746-2.864,15.642c0.934,4.153,1.978,8.801,0.628,13.36c9.102,13.545,7.858,28.431,5.895,41.416
	c0.113,10.494,2.458,11.598,7.737,11.598c0.643,0,1.353-0.027,2.117-0.082c2.686-1.382,5.469-2.083,8.283-2.083
	c5.664,0,10.585,2.717,15.338,5.395C501.326,284.278,502.22,282.19,504.33,280.72z"/>
<path id="biella" fill-rule="evenodd" clip-rule="evenodd" fill="orange" d="M411.368,274.452c0.643,0,1.529-0.137,2.468-0.282
	c0.393-0.061,0.791-0.122,1.192-0.178c1.717-0.238,3.312-0.933,5.002-1.668c0.744-0.324,1.491-0.648,2.26-0.945
	c5.63-2.174,9.115-6.736,12.805-11.566c1.999-2.616,4.065-5.321,6.533-7.703c1.426-1.377,2.173-2.967,2.159-4.6
	c-0.014-1.684-0.857-3.354-2.438-4.83c-2.584-2.415-3.741-4.737-3.539-7.1c0.3-3.489,3.568-5.63,4.641-6.333
	c1.646-1.08,1.412-1.567,1.206-1.996c-1.656-3.439-4.767-5.347-8.368-7.556c-2.749-1.686-5.591-3.429-7.951-6.023
	c-0.242-0.266-0.334-0.266-0.415-0.266c-0.643,0-1.897,0.65-2.906,1.172c-1.054,0.545-2.228,1.153-3.48,1.517
	c-0.51,0.359-0.999,0.727-1.458,1.099c-0.516,0.417-1.155,0.651-1.818,0.666c-1.322,0.03-2.646,0.089-3.971,0.148
	c-1.935,0.085-3.936,0.174-5.932,0.174c-1.323,0-2.521-0.039-3.66-0.118c-0.18-0.012-0.352-0.019-0.517-0.019
	c-1.218,0-1.89,0-2.317,2.632c-0.057,0.35-0.175,0.686-0.35,0.995c-0.416,0.738-0.933,1.4-1.539,1.976
	c0.52,0.759,0.79,1.628,0.793,2.531c0.798,2.754,1.476,6.671-0.386,10.708c-0.079,0.18-0.176,0.354-0.291,0.519
	c-0.115,0.164-0.244,0.313-0.384,0.446c-0.031,0.096-0.066,0.214-0.095,0.312c-0.221,0.745-0.578,1.949-1.644,2.926
	c-0.191,0.225-0.395,0.442-0.599,0.658c-0.146,0.155-0.296,0.313-0.408,0.447c-0.122,0.234-0.276,0.455-0.464,0.657l-0.096,0.103
	c-0.225,0.242-0.481,0.439-0.758,0.59c-0.039,0.039-0.064,0.071-0.083,0.1l-0.349,5.893c-0.023,0.398-0.126,0.787-0.302,1.145
	c-0.651,1.33-0.986,2.55,1.527,4.007c2.136,1.237,3.982,2.726,5.769,4.165c1.364,1.1,2.652,2.139,4.024,3.037
	c2.142,1.404,7.155,4.691,6.198,10.532c-0.173,1.058-0.175,1.683-0.144,2.024C411.311,274.452,411.339,274.452,411.368,274.452z"/>
<path id="asti" fill-rule="evenodd" clip-rule="evenodd" fill="violet" d="M459.106,413.809c1.445-4.629,4.528-7.871,9.166-9.637
	c3.066-1.166,4.332-2.979,4.238-6.164c-0.858-1.145-2.011-2.184-3.574-3.229c-7.044-4.703-11.515-11.307-12.929-19.098
	c-0.226-1.248-0.435-2.496-0.643-3.744c-1.021-6.107-1.986-11.879-4.898-17.16c-0.633-1.148-0.833-2.348-0.993-3.311
	c-0.068-0.408-0.167-1.004-0.271-1.26c-0.082-0.027-0.245-0.068-0.525-0.092c-0.999-0.086-1.92-0.33-2.732-0.547
	c-0.713-0.189-1.385-0.369-1.856-0.369c-0.128,0-0.252,0-0.414,0.094c-1.505,5.273-2.517,7.918-8.09,7.918
	c-0.655,0-1.418-0.025-2.312-0.057c-6.727-0.238-11.218-1.895-12.821-9.408c-0.329-1.541-0.316-3.004-0.305-4.42
	c0.009-1.047,0.018-2.018-0.113-2.938c-2.104,0.594-4.278,1.105-6.575,1.105c-1.908,0-3.663-0.352-5.338-1.072
	c-0.003,0.002-0.007,0.004-0.011,0.004c-0.351,0.125-0.787,0.281-1.26,0.379c-2.955,0.621-4.001,1.494-4.153,1.912
	c-0.146,0.4,0.079,1.68,1.849,3.941c0.109,0.141,0.321,0.338,0.545,0.549c0.381,0.357,0.854,0.801,1.282,1.381
	c0.935,1.271,3.123,4.248,1.798,7.193c-1.288,2.865-4.771,3.184-5.915,3.289c-1.098,0.102-1.552,0.143-1.574,2.289l-0.008,0.738
	c-0.053,4.672-0.102,9.084,1.709,13.074c0.392,0.861,0.354,1.857-0.104,2.686c-1.188,2.16-0.954,2.865-0.951,2.871
	c0.168,0.463,1.987,1.16,2.964,1.535c1.412,0.543,3.013,1.158,4.327,2.186c1.346,1.053,2.246,2.406,3.039,3.6
	c0.382,0.574,0.743,1.117,1.163,1.627c1.113,1.352,1.836,2.172,2.488,2.172c0.199,0,0.553-0.051,1.111-0.291
	c1.26-0.541,2.47-0.814,3.596-0.814c2.969,0,6.313,2.041,6.796,7.773l0.059,0.748c0.137,1.752,0.265,3.102,0.646,4.184
	c1.075-1.26,2.528-2.697,4.788-2.697c0.772,0,1.547,0.182,2.3,0.539c0.963,0.455,2.235,0.686,3.582,0.93
	c3.186,0.578,7.548,1.369,9.75,6.145c2.307,4.998-0.229,8.779-2.079,11.541c-0.479,0.715-0.933,1.391-1.287,2.047
	c-0.188,0.348-0.389,0.613-0.535,0.807l-0.091,0.121c-0.599,0.902-1.265,1.746-1.908,2.562c-1.21,1.533-2.353,2.98-2.604,4.246
	c-0.134,0.672,0.943,1.561,2.479,2.742c0.68,0.521,1.382,1.062,2.021,1.67c1.416,1.342,1.994,2.986,2.378,4.307
	C451.925,431.432,456.128,423.346,459.106,413.809z"/>
<path id="vercelli" fill-rule="evenodd" clip-rule="evenodd" fill="black" d="M470.644,301.152c-1.953-2.366-6.008-7.275-1.442-12.665
	c0.241-0.328,0.265-0.517,0.258-0.547c-0.019-0.07-0.166-0.272-0.489-0.415c-10.426-4.625-8.844-13.225-7.689-19.504
	c0.14-0.76,0.28-1.521,0.396-2.235c1.537-10.443,0.232-20.579-3.879-30.126c-0.394-0.915-0.827-1.629-1.294-2.164l0,0
	c-0.248-0.274-0.082-3.393,0.11-5.063s0.11-4.25,0-5.161s-0.765-3.056-1.356-4.941c-0.002-0.005-0.004-0.013-0.006-0.018
	c-0.061-0.194-0.125-0.398-0.194-0.615c-0.131-0.409-0.265-0.826-0.392-1.252c-0.553-1.84-1.212-3.639-1.911-5.543
	c-2.211-6.028-4.498-12.261-3.211-19.731c0.058-0.342-0.318-1.962-2.73-4.821c-4.903-5.811-13.126-10.981-16.17-10.981
	c-0.098,0-0.16,0.007-0.175,0.007c-0.002,0-0.003,0-0.003,0c-0.029,0.014-0.129,0.065-0.289,0.197
	c-2.046,1.687-4.275,2.542-6.626,2.542c-2.25,0-4.575-0.781-7.109-2.389c-1.021-0.647-2.097-0.948-3.387-0.948
	c-0.88,0-1.848,0.143-2.951,0.436c-0.282,0.205-0.612,0.692-0.96,1.204c-0.122,0.18-0.244,0.36-0.369,0.538
	c-0.187,0.264-0.414,0.497-0.675,0.688c-0.75,0.551-1.622,0.842-2.522,0.842c-0.027,0-0.056,0-0.083-0.001
	c-0.766,0.274-1.673,0.506-2.669,0.506c-0.988,0-1.923-0.225-2.788-0.67l-0.86,0.002c-0.1,0.868-0.469,1.686-1.081,2.362
	c-0.245,0.281-0.554,0.639-0.686,0.881l-0.213,2.524c-0.04,0.466-0.188,0.916-0.434,1.314c-0.389,0.631-0.378,1.524-0.329,2.93
	c0.054,1.53,0.118,3.389-0.687,5.264l-0.039,9.727c0.253,0.57,0.394,1.112,0.508,1.55c0.042,0.165,0.097,0.375,0.143,0.514
	c0.021,0.018,0.195,0.176,0.195,0.176c0.332,0.302,0.581,0.662,0.746,1.051c0.137,0.147,0.321,0.324,0.482,0.477
	c0,0,0.211,0.201,0.221,0.21c1.104,0.969,1.468,2.153,1.708,2.937c0.017,0.054,0.035,0.114,0.054,0.174
	c0.97,0.408,2.082,0.586,3.592,0.586c0.849,0,1.725-0.055,2.651-0.113c0.979-0.061,1.99-0.125,3.026-0.125
	c2.043,0,3.742,0.26,5.292,0.813l1.545,0.042c1.409-0.5,2.758-0.564,3.7-0.564c0.638,0,1.283,0.035,1.93,0.072
	c0.535,0.031,1.07,0.062,1.602,0.062c1.525,0,2.278-0.286,2.981-1.129c0.923-1.108,2.33-1.744,3.862-1.744
	c2.121,0,4.098,1.192,4.917,2.967c1.302,2.82,3.901,4.21,6.911,5.82c1.3,0.695,2.621,1.408,3.888,2.259l1.022,3.453l1.317,5.617
	c0,0-0.151,3.926,0,3.937s-1.575,2.216-1.317,3.805c0.071,0.437,0.205,0.869,0.359,1.271c-0.036,0.106-0.085,0.213-0.102,0.318
	c-0.155,0.982,0.648,2.218,1.35,3.082c4.154,5.117,4.302,10.776,0.405,15.527c-1.214,1.479-2.43,3.052-3.604,4.573
	c-5.261,6.805-10.7,13.842-19.281,17.507c-6.208,2.653-9.083,6.15-12.509,12.081c-2.848,4.928-3.042,9.667-3.247,14.684
	c-0.09,2.195-0.182,4.447-0.502,6.748c9.146,6.332,16.854,9.172,24.801,9.172c1.419,0,2.866-0.094,4.304-0.281
	c3.67-0.475,7.414-1.123,11.035-1.752c7.44-1.289,15.133-2.623,22.99-2.623c0.69,0,1.384,0.012,2.112,0.033
	c0.249,0,0.52-0.082,0.81-0.242C475.93,310.461,474.351,305.645,470.644,301.152z"/>
</svg>
