<svg version="1.1" id="sicilia" width="100%" height="100%" viewBox="0 0 800 600" preserveAspectRatio="none">
<path id="catania"  fill="red" d="M497.268,410.197c-3.605,0-5.207-0.875-6.098-3.512
	c1.532-4.383,2.773-9.82,0.507-14.727c-1.788-3.869-5.45-6.777-11.195-8.887c-2.034-0.746-3.664-3.078-4.475-6.404
	c-1.502-6.164,0.104-13.584,3.82-17.641c0.475-0.52,0.952-1.059,1.435-1.605c3-3.398,5.833-6.607,10.017-6.607
	c0.542,0,1.113,0.053,1.696,0.156c0.854,0.15,1.664,0.229,2.407,0.229c3.816,0,5.151-2.037,5.607-3.25
	c2.585-6.871,8.355-10.455,14.464-14.252c2.682-1.666,5.455-3.389,7.99-5.424c1.842-1.479,4.266-3.793,4.032-6.824
	c-0.251-3.258-3.382-5.059-5.668-6.375c-2.1-1.207-4.287-1.971-6.402-2.709c-1.943-0.678-3.779-1.32-5.391-2.25
	c-2.021-1.166-4.498-3.035-4.824-5.305c-0.334-2.322,1.585-4.896,3.253-6.648c5.011-5.258,12.458-8.273,20.43-8.273
	c6.382,0,12.646,1.97,17.64,5.546c0.517,0.37,1.028,0.77,1.543,1.17c2.383,1.857,5.085,3.962,8.694,3.962
	c1.39,0,2.79-0.328,4.161-0.976c5.791-2.734,5.754-8.38,5.729-12.115c-0.004-0.624-0.009-1.242,0.011-1.843
	c0.354-11.207-2.124-22.079-7.367-32.314c-0.293-0.572-0.762-1.035-1.338-1.32c-8.434-4.18-13.218-7.106-14.343-10.594
	c-1.131-3.505,1.059-9.15,5.228-17.71c0.36-0.65,0.81-1.27,1.341-1.847c5.227-2.554,8.12-4.047,8.971-7.211
	c0.92-3.426-1.069-6.567-5.926-13.8c0.288-3.229,0.865-6.416,1.474-9.77c0.429-2.366,0.87-4.802,1.201-7.264
	c1.292-1.238,2.661-1.887,3.996-1.887c1.878,0,3.347,1.229,4.248,2.26c3.305,3.785,6.899,5.625,10.987,5.625
	c2.352,0,4.837-0.571,8.057-1.85c1.412-0.562,2.788-0.858,3.979-0.858c2.742,0,4.409,1.465,5.245,4.61
	c1.724,6.501,5.261,9.799,10.514,9.799c2.22,0,4.734-0.612,7.891-1.922c2.776-0.464,5.484-0.699,8.057-0.699
	c15.011,0,25.427,7.751,29.378,21.839c-0.017,0.329-0.03,0.658-0.044,0.987c-0.127,3.04-0.274,4.985-1.652,6.59
	c-0.232,0.272-0.409,0.574-0.529,0.891c-0.232,0.283-0.53,0.583-0.856,0.911c-0.262,0.264-0.523,0.528-0.774,0.801
	c-2.491,2.589-2.638,5.891-0.362,9.023c1.394,2.415,1.343,4.482-0.151,6.668c-0.008,0.012-0.016,0.023-0.023,0.035
	c-0.588,0.746-1.221,1.499-1.888,2.245c-0.461,0.516-0.729,1.176-0.76,1.867c0,0-0.202,4.592-0.292,6.547
	c-1.43,2.616-1.297,5.367-1.188,7.618c0.108,2.237,0.134,3.667-0.68,4.802c-0.046,0.064-0.089,0.129-0.13,0.197
	c-0.578,0.958-0.842,1.996-0.786,3.058c-0.382,0.875-0.585,1.733-0.758,2.466c-0.179,0.756-0.334,1.413-0.603,1.779
	c-0.807,0.951-1.21,2.091-1.178,3.291c-0.13,0.27-0.349,0.576-0.747,0.909c-0.292,0.152-0.563,0.355-0.801,0.608l-0.136,0.145
	c-0.198,0.211-0.36,0.443-0.486,0.689c-0.318,0.416-0.688,0.786-1.116,1.12c-0.292,0.149-0.564,0.348-0.804,0.597l-0.129,0.134
	c-0.205,0.213-0.372,0.45-0.502,0.701c-0.327,0.427-0.691,0.793-1.102,1.108c-0.287,0.141-0.556,0.329-0.793,0.565l-0.135,0.134
	c-0.245,0.243-0.44,0.519-0.584,0.814c-0.355,0.456-0.808,0.888-1.352,1.353c-0.172,0.112-0.336,0.244-0.487,0.396
	c-1.199,1.208-1.621,2.649-1.93,3.702c-0.088,0.301-0.237,0.81-0.354,1.045c-0.154,0.112-0.3,0.241-0.434,0.386
	c-1.793,1.933-1.886,4.2-1.953,5.855c-0.043,1.063-0.088,1.729-0.355,2.018c-0.481,0.52-0.763,1.193-0.795,1.902
	c-0.099,2.191-0.192,4.377-0.285,6.566c-1.562,3.375-1.57,6.895-0.028,10.262l0.019,10.406c-0.069,0.141-0.138,0.281-0.206,0.424
	c-0.527,1.088-0.898,1.818-1.418,2.223c-2.225,0.689-4.454,1.039-6.63,1.039c-5.606,0-11.118-2.158-17.872-6.996
	c-3.418-2.451-8.61-2.967-12.365-2.967c-8.85,0-20.043,2.811-24.316,8.184c-2.3,2.891-2.994,5.48-2.066,7.699
	c0.922,2.203,3.218,3.514,6.824,3.9c0.634,0.066,1.263,0.123,1.892,0.182c1.895,0.174,3.685,0.338,5.404,0.723
	c3.921,0.885,6.089,3.229,6.623,7.162c0.342,2.52-0.029,5.373-5.369,7.418c-0.586,0.225-1.407,0.357-2.275,0.5
	c-2.75,0.451-7.867,1.289-8.415,7.727c-0.493,5.828,3.596,8.26,6.301,9.871c0.627,0.373,1.22,0.725,1.754,1.096
	c2.686,1.871,5.856,4.631,5.706,7.158c-0.113,1.885-2.063,5.096-10.716,9.701c-0.122,0.064-0.239,0.139-0.352,0.219
	c-1.721,1.248-3.044,2.732-4.323,4.168c-1.221,1.369-2.374,2.664-3.718,3.541c-1.619,1.057-3.461,1.74-4.691,1.74
	c-0.684,0-0.732-0.135-0.83-0.408c-0.917-2.566-3.707-10.371-10.797-10.371c-3.423,0-6.643,1.828-9.756,3.596
	c-1.33,0.756-2.587,1.469-3.8,2.012c-0.611,0.271-1.212,0.576-1.814,0.883c-0.521,0.264-1.045,0.531-1.586,0.771
	c-0.073,0.033-0.146,0.068-0.216,0.107c-7.744,4.215-13.994,6.309-20.268,6.787l-0.171,0.012
	C499.637,410.104,498.401,410.197,497.268,410.197z"/>
<path id="messina"  fill="yellow" d="M537.412,219.17c0.514-0.153,1.03-0.3,1.548-0.446
	c2.689-0.76,5.032-1.422,6.764-3.052c0.043-0.055,0.089-0.108,0.136-0.16c1.824-2.014,4.317-2.229,6.138-2.385
	c2.253-0.194,2.268-0.265,2.45-1.132c0.502-2.393-0.075-4.429-4.53-6.588c-9.326-4.523-6.066-12.405-4.789-15.437
	c0.446-1.183,0.816-2.409,1.209-3.705c0.223-0.738,0.446-1.476,0.685-2.211c2.232-6.869,6.503-10.97,11.423-10.97
	c2.299,0,5.744,0.919,9.098,5.299c2.894,3.781,4.951,4.266,6.42,4.266c2.051,0,4.504-1.058,7.499-2.441
	c2.218-1.023,4.337-1.542,6.299-1.542c5.062,0,8.592,3.473,9.442,9.289c0.715,4.869,2.696,5.821,5.878,5.821
	c0.966,0,2.073-0.106,3.376-0.323c4.034-1.663,8.316-2.506,12.731-2.506c15.075,0,28.347,9.551,32.428,23.277
	c0.458,0.831,0.68,1.701,0.864,2.424c0.03,0.118,0.065,0.256,0.102,0.393c2.796-1.426,4.149-3.98,5.387-7.807
	c0.093-0.716,0.443-1.4,1.037-1.902c1.151-0.975,2.414-1.335,3.429-1.625c0.354-0.101,0.908-0.259,1.133-0.388
	c0.036-0.048,0.075-0.096,0.114-0.143l0.221-0.259c0.159-0.186,0.335-0.347,0.524-0.484c0.126-0.277,0.15-0.801,0.094-2.04
	c-0.085-1.864-0.224-4.923,2.365-7.104c0.628-1.168,1.531-2.135,2.652-2.84c0.682-1.047,1.474-2.011,2.361-2.871
	c0.008-0.007,0.016-0.015,0.023-0.022c0.246-0.319,0.405-0.941,0.586-1.65c0.186-0.725,0.403-1.578,0.808-2.441
	c0.019-1.098,0.354-2.154,0.994-3.105c0.065-0.098,0.138-0.192,0.214-0.281c0.156-0.182,0.301-0.769,0.428-1.286
	c0.282-1.146,0.668-2.714,1.962-4.047c0.086-0.087,0.175-0.169,0.268-0.244c0.095-0.202,0.214-0.607,0.297-0.891
	c0.305-1.04,0.752-2.563,2.096-3.752c0.381-0.49,0.778-0.917,1.135-1.298c0.277-0.297,0.543-0.583,0.758-0.852
	c0.109-0.195,0.242-0.381,0.398-0.553l0.112-0.124c0.227-0.249,0.486-0.452,0.766-0.607c0.446-0.359,0.797-0.714,1.073-1.085
	c0.121-0.271,0.284-0.529,0.489-0.762l0.152-0.173c0.3-0.34,0.661-0.597,1.054-0.768c0.383-0.324,0.552-0.636,0.641-0.92
	c0.074-1.242,0.579-2.366,1.457-3.244c0.652-0.971,1.413-1.836,2.27-2.579c0.262-0.3,0.538-0.589,0.815-0.876
	c0.281-0.292,0.539-0.559,0.745-0.81c0.173-0.445,0.455-0.855,0.841-1.186l0.188-0.161c0.059-0.051,0.119-0.099,0.181-0.144
	c0.081-0.186,0.185-0.515,0.258-0.748c0.324-1.031,0.797-2.532,2.196-3.648c0.741-0.984,1.579-1.887,2.496-2.691
	c0.346-0.405,0.714-0.792,1.082-1.177c0.361-0.377,0.704-0.735,0.989-1.085c0.048-0.068,0.099-0.135,0.153-0.2l0.085-0.102
	c0.205-0.245,0.44-0.449,0.696-0.611c0.476-0.417,0.783-0.795,0.968-1.188c0.033-1.206,0.48-2.34,1.299-3.271
	c0.554-0.718,1.104-1.437,1.65-2.155c0.112-0.193,0.247-0.376,0.405-0.546l0.155-0.166c0.127-0.136,0.264-0.257,0.408-0.364
	c0.122-0.234,0.271-0.748,0.367-1.081c0.296-1.017,0.7-2.41,1.808-3.6c0.115-0.123,0.237-0.234,0.367-0.334
	c0.079-0.192,0.177-0.518,0.247-0.75c0.293-0.976,0.758-2.524,2.132-3.676c0.422-0.644,0.889-1.163,1.308-1.629
	c0.188-0.208,0.368-0.409,0.52-0.595c0.12-0.222,0.27-0.433,0.449-0.625l0.135-0.145c0.109-0.118,0.227-0.224,0.35-0.32
	c0.108-0.212,0.245-0.674,0.341-0.996c0.319-1.08,0.755-2.549,2.043-3.754c0.294-0.392,0.459-1.019,0.69-1.958
	c0.191-0.779,0.403-1.643,0.791-2.525c0.121-1.302,0.239-2.604,0.355-3.905c0.058-0.646,0.323-1.255,0.757-1.738
	c0.231-0.257,0.383-0.894,0.543-1.569c0.212-0.89,0.473-1.985,1.096-3.057c0.058-0.11,0.123-0.217,0.195-0.32l0.108-0.156
	c0.238-0.342,0.534-0.619,0.866-0.826c0.081-0.201,0.177-0.506,0.247-0.73c0.309-0.983,0.758-2.417,2.021-3.538
	c0.347-0.513,0.289-0.662-0.012-0.994c-0.026-0.026-0.052-0.054-0.077-0.082c-0.636-0.697-1.319-1.421-2.043-2.039
	c-0.183-0.123-0.355-0.268-0.513-0.435l-0.081-0.086c-0.097-0.103-0.186-0.21-0.265-0.322c-0.552-0.657-1.04-1.148-1.533-1.537
	c-0.221-0.124-0.429-0.277-0.618-0.46l-0.123-0.119c-0.223-0.214-0.404-0.455-0.547-0.713c-0.322-0.406-0.651-0.745-0.994-1.023
	c-0.404-0.169-0.777-0.429-1.086-0.778c-0.102-0.114-0.187-0.197-0.255-0.258c-0.079,0.063-0.181,0.154-0.303,0.282
	c-0.242,0.251-0.517,0.452-0.812,0.601c-0.444,0.362-0.89,0.818-1.355,1.295c0,0-0.416,0.427-0.443,0.455
	c-0.842,0.872-1.77,1.701-2.807,2.503c-1.122,1.396-2.624,1.867-3.654,2.189c-0.229,0.072-0.55,0.172-0.738,0.252
	c-0.073,0.1-0.152,0.196-0.239,0.289l-0.167,0.178c-0.307,0.326-0.67,0.569-1.062,0.728c-0.209,0.169-0.436,0.378-0.683,0.605
	c-0.345,0.318-0.73,0.672-1.176,1.016c-1.174,1.321-2.675,1.768-3.702,2.073c-0.272,0.082-0.66,0.197-0.837,0.261
	c-0.095,0.125-0.201,0.244-0.319,0.356c-1.185,1.128-2.581,1.537-3.602,1.835c-0.322,0.095-0.829,0.243-1.056,0.362
	c-0.089,0.122-0.188,0.239-0.298,0.35l-0.17,0.171c-0.225,0.226-0.477,0.409-0.746,0.549c-0.714,0.533-1.415,1.07-2.091,1.604
	c-0.931,0.755-2.028,1.185-3.192,1.253c-0.83,0.366-1.648,0.57-2.34,0.743c-0.757,0.189-1.289,0.33-1.61,0.536
	c-0.104,0.131-0.219,0.255-0.347,0.37c-1.315,1.188-2.835,1.562-3.945,1.834c-0.565,0.139-1.151,0.283-1.352,0.457
	c-0.114,0.099-0.235,0.188-0.362,0.269c-0.957,0.606-1.999,0.913-3.096,0.913c-0.07,0-0.14-0.001-0.21-0.004
	c-2.632,1.093-5.202,1.23-6.972,1.23c-1.297,0-2.576-0.083-3.812-0.163c-1.194-0.078-2.322-0.151-3.424-0.151
	c-2.291,0-3.919,0.329-5.351,1.093c-0.065,0.169-0.143,0.415-0.199,0.595c-0.313,0.999-0.809,2.572-2.307,3.655
	c-0.677,1.084-1.496,2.04-2.442,2.849c-0.356,0.413-0.732,0.808-1.11,1.2c-0.332,0.347-0.65,0.677-0.926,1.001
	c-0.111,0.167-0.241,0.326-0.39,0.473l-0.087,0.086c-0.129,0.128-0.268,0.242-0.412,0.341c-0.624,0.524-1.11,1.011-1.498,1.5
	c-0.127,0.227-0.285,0.441-0.476,0.636l-0.116,0.119c-0.207,0.211-0.438,0.386-0.686,0.523c-0.486,0.387-0.915,0.816-1.298,1.302
	c-0.126,0.224-0.283,0.435-0.472,0.627l-0.116,0.119c-0.208,0.213-0.441,0.388-0.69,0.526c-0.554,0.444-1.078,0.995-1.635,1.609
	c-0.085,0.109-0.178,0.214-0.279,0.313c-0.913,0.893-1.838,1.671-2.824,2.375c-1.01,0.831-2.215,1.269-3.498,1.269
	c-0.032,0-0.065,0-0.099-0.001c-2.532,0.702-5.027,1.302-7.596,1.302c-2.775,0-5.235-0.69-7.588-2.154l-0.218-0.145
	c-1.08-0.751-2.031-1.669-2.833-2.732l-2.457-2.226c-0.917-0.55-2.015-0.787-3.617-0.787c-0.734,0-1.499,0.046-2.31,0.095
	c-0.862,0.052-1.755,0.106-2.67,0.106c-1.618,0-4.004-0.153-6.342-1.435c-0.191-0.086-0.377-0.194-0.552-0.323l-0.108-0.08
	c-0.403-0.298-0.709-0.677-0.91-1.098c-0.292-0.38-0.592-0.684-0.915-0.925c-0.38-0.146-0.735-0.373-1.039-0.677l-0.156-0.156
	c-0.304-0.304-0.53-0.659-0.678-1.039c-0.236-0.317-0.529-0.604-0.883-0.866c-0.214-0.105-0.417-0.238-0.605-0.397l-0.166-0.14
	c-0.347-0.293-0.612-0.65-0.791-1.039c-0.241-0.284-0.502-0.496-0.795-0.648c-0.78,0.324-1.541,0.511-2.232,0.681
	c-0.812,0.2-1.377,0.348-1.716,0.582c-0.13,0.164-0.278,0.316-0.445,0.454c-2.047,1.685-4.353,1.901-6.133,1.901
	c-0.386,0-0.773-0.01-1.161-0.021c-0.334-0.009-0.667-0.019-0.999-0.019c-1.145,0-1.768,0.128-2.222,0.458
	c-0.056,0.041-0.113,0.08-0.173,0.117c-0.979,0.613-2.052,0.923-3.187,0.923c-0.001,0-0.003,0-0.004,0
	c-2.504,1.049-4.928,1.194-6.808,1.194c-1.082,0-2.148-0.056-3.18-0.111c-0.997-0.052-1.939-0.102-2.863-0.102
	c-2.027,0-3.506,0.263-4.768,0.85c-2.666,1.911-4.924,4.19-6.664,6.703c0,0-0.113,0.173-0.14,0.21
	c-0.435,0.61-0.905,1.12-1.321,1.569c-0.257,0.278-0.503,0.544-0.702,0.794c-0.11,0.206-0.247,0.401-0.41,0.583l-0.125,0.139
	c-0.239,0.266-0.516,0.48-0.815,0.641c-0.508,0.429-0.716,0.79-0.818,1.101c-0.086,1.219-0.582,2.324-1.432,3.195
	c-0.668,1.062-1.538,1.907-2.597,2.524c-1.159,1.588-2.834,2.059-3.89,2.355c-0.231,0.065-0.562,0.158-0.734,0.229
	c-0.061,0.07-0.125,0.137-0.192,0.202c-1.996,1.914-4.345,2.159-6.169,2.159c-0.385,0-0.772-0.011-1.161-0.023
	c-0.327-0.01-0.655-0.02-0.98-0.02c-1.082,0-1.552,0.132-1.867,0.365c-1.321,1.386-2.925,1.818-4.097,2.133
	c-0.52,0.14-1.109,0.299-1.295,0.463c-0.057,0.05-0.114,0.097-0.174,0.142c-4.854,4.934-10.543,7.435-16.917,7.435
	c-2.636,0-5.421-0.436-8.288-1.295c-0.707-0.049-1.399-0.347-1.935-0.893c0,0-0.193-0.2-0.229-0.239
	c-0.039-0.039-0.075-0.072-0.108-0.1c-0.072,0.064-0.166,0.152-0.279,0.273c-0.223,0.241-0.477,0.437-0.749,0.587
	c-0.726,0.562-1.464,1.116-2.202,1.651c-0.91,0.713-1.968,1.129-3.088,1.217c-1.669,0.908-3.419,0.998-4.757,1.067
	c-1.198,0.062-1.955,0.117-2.377,0.468c-0.067,0.056-0.138,0.109-0.209,0.158c-0.926,0.641-1.991,0.979-3.081,0.979
	c-0.017,0-0.033,0-0.05,0c-0.873,0.375-1.731,0.576-2.46,0.748c-0.817,0.192-1.524,0.359-1.89,0.667
	c-0.311,0.263-0.671,0.459-1.06,0.578c-3.586,1.097-7.417,2.167-11.361,2.167c-3.197,0-6.092-0.688-8.88-2.119
	c-1.596-0.842-2.943-1.252-4.12-1.252c-1.047,0-1.997,0.336-2.94,1.049c-0.574,3.327,1.062,5.773,3.676,9.325
	c1.718,2.333,3.493,4.747,4.39,7.749c0.026,0.088,0.048,0.177,0.066,0.267c2.267,11.278,9.475,17.159,22.683,18.507
	c0.925,0.095,1.887,0.162,2.862,0.231c5.28,0.374,11.267,0.798,14.781,5.327c2.729,3.516,5.199,5.375,7.141,5.374
	c2.829,0,5.974-4.049,8.396-7.577c0.053-0.076,0.108-0.15,0.168-0.222c2.835-3.403,6.204-5.355,9.242-5.355
	c1.417,0,6.132,0.549,7.289,7.614c1.359,8.304,4.806,9.973,9.926,9.973C532.266,219.912,534.585,219.617,537.412,219.17z"/>
<path id="agrigento"  fill="purple" d="M388.973,400.354c0.962-0.74,2.012-1.09,2.813-1.355
	c0.246-0.082,0.577-0.193,0.795-0.279l0.002-3.234c0-0.047,0.043-0.992,0.061-1.418c-0.571-1.547-1.382-3.049-2.237-4.631
	c-2.403-4.449-5.127-9.49-2.958-16.758c2.655-8.893,3.703-13.072,2.593-15.783c-1.156-2.822-5.315-5.428-12.866-10.158l-0.443-0.279
	c-0.594-0.371-1.039-0.939-1.258-1.605c-2.54-7.74-9.213-11.062-16.278-14.582c-1.05-0.523-2.1-1.045-3.137-1.582
	c-0.251-0.131-0.482-0.295-0.688-0.49c-0.967-0.918-1.727-1.568-2.457-2.102c-2.719-1.967-5.755-2.885-9.557-2.885
	c-2.2,0-4.599,0.297-7.777,0.963c-1.088,0.23-2.16,0.346-3.184,0.346c-3.68,0-6.841-1.518-8.672-4.162
	c-1.655-2.393-2.017-5.482-0.969-8.27c1.296-3.439,1.815-7.334,2.364-11.456c1.371-10.289,2.924-21.951,17.89-27.297
	c2.633-0.942,5.908-2.734,6.555-5.921c0.652-3.214-1.389-7.331-5.61-11.352c-1.726-0.646-3.811-1.307-5.614-1.307
	c-1.302,0-2.323,0.329-3.214,1.034c-10.684,8.458-22.26,9.543-31.151,9.543c-4.771,0-9.663-0.362-14.393-0.712l-0.248-0.019
	c-1.423-0.106-2.748-0.16-3.937-0.16c-4.837,0-7.92,0.852-9.703,2.68c-2.081,2.134-2.97,6.26-2.798,12.989
	c0.005,0.214,0.014,0.428,0.023,0.642c0.028,0.671,0.059,1.433-0.011,2.239c-0.602,7.019-4.515,8.833-7.689,9.119
	c-0.244,0.022-0.479,0.032-0.706,0.032c-4.269,0-6.059-3.478-7.128-5.555c-0.132-0.258-0.264-0.514-0.399-0.764
	c-2.534-4.686-2.072-9.56-1.663-13.859l0.046-0.491c0.397-4.188,0.166-5.045-1.411-5.507c-3.109,0.939-6.665,1.825-10.136,1.825
	c-6.038,0-10.902-2.625-14.869-8.022c-2.148-2.921-6.948-3.338-11.819-3.354c-7.636-0.031-14.288-2.143-19.771-6.276
	c-2.43-1.831-4.709-2.721-6.969-2.721c-3.797,0-7.424,2.487-11.263,5.12c-1.568,1.076-3.19,2.188-4.857,3.142
	c-4.927,2.821-4.242,6.059-1.355,13.321l0.405,1.023c0.041,0.105,0.076,0.212,0.105,0.321c0.243,0.907,0.64,1.702,1.214,2.43
	c0.032,0.041,0.062,0.082,0.092,0.124c0.526,0.743,0.819,1.579,0.87,2.435c0.293,0.161,0.728,0.232,1.494,0.232
	c0.39,0,0.784-0.019,1.179-0.036c0.483-0.021,0.967-0.042,1.444-0.042c1.194,0,2.856,0.119,4.44,1.006c0,0,0.111-0.001,0.127-0.001
	c0.488,0,0.968,0.119,1.4,0.347l0.896,0.473c0.204,0.107,0.394,0.238,0.568,0.389c0.744,0.647,1.494,1.271,2.233,1.857
	c0.169,0.105,0.331,0.229,0.48,0.372l0.136,0.129c0.25,0.238,0.451,0.509,0.601,0.8c0.287,0.364,0.57,0.65,0.864,0.868
	c0.424,0.149,0.819,0.396,1.151,0.735l0.152,0.156c0.311,0.318,0.537,0.691,0.678,1.088c0.208,0.282,0.476,0.553,0.816,0.823
	c0.504,0.233,0.95,0.61,1.27,1.113l0.078,0.123c0.057,0.09,0.109,0.182,0.155,0.276c1.389,2.397,2.866,4.8,4.507,7.335
	c0.514,0.652,0.838,1.395,0.962,2.176c0.032-0.016,0.064-0.033,0.099-0.051c0.903-0.721,1.973-1.099,3.118-1.099
	c0.002,0,0.004,0,0.005,0c1.585-0.511,3.35-1.032,5.216-1.032c2.081,0,3.981,0.653,5.648,1.942c0.252,0.195,0.463,0.421,0.633,0.669
	c0.385,0.429,0.756,0.763,1.13,1.015c0.103-0.011,0.206-0.016,0.309-0.016c0.041,0,0.082,0.001,0.122,0.002
	c0.876-0.454,1.689-0.573,2.301-0.573c0.898,0,1.77,0.241,2.604,0.718c0,0,0.23-0.006,0.257-0.006c0.418,0,0.832,0.087,1.214,0.257
	l1.057,0.468c0.239,0.105,0.463,0.242,0.667,0.406l0.411,0.334c0.575,0.469,1.088,0.887,1.595,1.195l4.002,0.287
	c0.357,0.025,0.708,0.115,1.033,0.266c2.45,1.124,4.073,2.95,5.506,4.561c0.228,0.256,0.456,0.514,0.688,0.768
	c0.495,0.348,1.228,0.639,1.998,0.945c1.851,0.736,4.577,1.82,5.911,4.852c1.631,1.76,1.724,3.916,1.788,5.396
	c0.024,0.566,0.051,1.197,0.161,1.484c0.129,0.1,0.252,0.211,0.366,0.332c1.164,1.252,1.573,2.715,1.872,3.783
	c0.137,0.486,0.289,1.031,0.445,1.258c0.076,0.07,0.149,0.143,0.218,0.221c0.491,0.551,0.989,1.021,1.507,1.424
	c0.104-0.01,0.208-0.016,0.311-0.016c0.237,0,0.474,0.027,0.705,0.084l1.066,0.258c0.538,0.129,1.028,0.406,1.418,0.797l0.295,0.299
	c0.443,0.449,0.84,0.852,1.211,1.109c0.418,0.121,0.815,0.338,1.157,0.643l0.149,0.135c0.416,0.373,0.706,0.838,0.862,1.342
	c0.153,0.205,0.337,0.389,0.561,0.559c0.291,0.117,0.567,0.281,0.818,0.494l0.228,0.193c0.192,0.162,0.359,0.344,0.5,0.541
	c0.192,0.104,0.534,0.18,1.26,0.18c0.335,0,0.673-0.016,1.012-0.029c0.418-0.016,0.837-0.031,1.251-0.031
	c1.603,0,3.894,0.23,5.735,2.133c0.763,0.516,1.375,1.096,1.92,1.613c0.219,0.207,0.437,0.416,0.665,0.613
	c0.132,0.094,0.258,0.199,0.377,0.316l0.076,0.074c0.123,0.123,0.234,0.252,0.332,0.389c0.557,0.646,1.167,1.256,1.817,1.816
	c0.114,0.082,0.224,0.176,0.329,0.277l0.077,0.074c0.13,0.129,0.247,0.264,0.349,0.408c0.556,0.643,1.165,1.25,1.814,1.809
	c0.115,0.084,0.224,0.176,0.329,0.277l0.077,0.076c0.13,0.127,0.247,0.264,0.349,0.406c0.545,0.631,1.14,1.227,1.773,1.775
	c0.159,0.113,0.309,0.242,0.448,0.387l0.077,0.082c0.092,0.096,0.176,0.197,0.252,0.301c0.554,0.648,1.157,1.25,1.833,1.832
	c0.114,0.084,0.224,0.176,0.328,0.277l0.077,0.074c0.128,0.125,0.243,0.26,0.344,0.4c0.601,0.695,1.117,1.205,1.62,1.602
	c0.062,0.037,0.124,0.08,0.185,0.123c0.987,0.713,2.125,1.004,3.929,1.004c0.739,0,1.51-0.047,2.326-0.098
	c0.871-0.053,1.771-0.107,2.694-0.107c1.456,0,3.525,0.125,5.622,1.08c0.124-0.016,0.25-0.023,0.375-0.023
	c0.089,0,0.179,0.004,0.268,0.012c0.726-0.336,1.499-0.512,2.288-0.512c0.838,0,1.686,0.195,2.53,0.582c0,0,0.333-0.016,0.382-0.016
	c0.453,0,0.901,0.104,1.31,0.301l0.952,0.463c0.24,0.115,0.463,0.264,0.664,0.439c0.783,0.684,1.572,1.357,2.373,2.018
	c0.08,0.057,0.157,0.119,0.232,0.184l0.127,0.113c0.259,0.229,0.47,0.492,0.631,0.777c0.571,0.67,1.004,0.848,1.36,0.924
	c0.56,0.123,1.073,0.402,1.479,0.807l1.871,1.852c0.412,0.406,0.697,0.924,0.822,1.488c0.092,0.418,0.264,0.73,0.559,0.99
	c0.539,0.188,1.028,0.529,1.397,1.012l0.143,0.186c0.186,0.244,0.329,0.508,0.431,0.783c0.13,0.188,0.281,0.354,0.456,0.498
	c0.542,0.166,1.042,0.486,1.43,0.949l0.183,0.221c0.074,0.088,0.141,0.18,0.203,0.273c0.207,0.096,0.597,0.217,0.873,0.301
	c1.056,0.324,2.497,0.766,3.657,2.061c0.848,0.855,1.642,1.75,2.361,2.664c0.871,1.039,1.293,2.277,1.231,3.574
	c0.622,1.441,1.561,2.336,2.963,2.828c0,0,0.558-0.016,0.586-0.016c0.43,0,0.855,0.092,1.247,0.271l0.909,0.414
	c0.305,0.139,0.584,0.328,0.827,0.561c0.69,0.66,1.224,1.107,1.751,1.318c1.235,0.023,2.365,0.508,3.241,1.377
	c1.5,1.094,1.991,2.672,2.295,3.648c0.051,0.162,0.118,0.381,0.178,0.545c0.104,0.07,0.204,0.15,0.3,0.238l0.243,0.219
	c0.189,0.172,0.352,0.361,0.488,0.564c0.22,0.092,0.565,0.197,0.816,0.273c1,0.307,2.345,0.717,3.475,1.852
	c0.573,0.389,1.126,0.57,1.722,0.57c0.697,0,1.534-0.248,2.486-0.738c0.348-0.18,0.729-0.289,1.119-0.322
	c1.317-0.111,2.636-0.219,3.99-0.328c0.86-0.51,1.756-0.766,2.675-0.766c0.892,0,2.214,0.254,3.517,1.451
	c2.025,1.5,3.634,3.279,5.192,5.004l0.348,0.383c0.297,0.328,0.508,0.703,0.634,1.098c2.666,4.879,5.953,7.252,10.035,7.252
	C385.01,401.551,386.915,401.148,388.973,400.354z"/>
<path id="caltanissetta"  fill="blue" d="M467.636,425.189c8.966-0.082,13.26-3.936,13.922-12.496
	c0.223-2.883,0.608-5.936,2.617-8.771c1.099-1.551,2.269-3.814,1.599-5.775c-0.54-1.586-2.301-2.939-4.831-3.715
	c-13.27-4.07-13.551-12.938-12.639-22.441c0.582-6.064-1.538-12.09-5.971-16.969c-4.874-5.365-11.889-8.566-18.766-8.566
	c-2.324,0-4.601,0.363-6.767,1.078c-3.564,1.178-6.652,1.75-9.441,1.75c-5.06,0-9.327-1.91-12.685-5.68
	c-3.854-4.326-6.935-11.77,0.268-22.666c6.914-10.463,9.538-22.516,8.016-36.839c-4.289-9.478-8.251-10.706-11.235-10.706
	c-2.528,0-5.523,0.995-9.154,3.04c-4.796,2.704-9.915,3.963-16.113,3.963c-3.86,0-7.653-0.483-11.857-1.068
	c-4.171-0.582-7.462-2.516-9.028-5.306c-0.973-1.733-1.767-4.645-0.021-8.671c1.856-4.278,0.136-7.23-2.824-11.692
	c-0.419-0.632-0.838-1.263-1.24-1.9c-0.624-0.988-1.102-2.08-1.564-3.136c-1.102-2.516-1.703-3.567-2.571-3.567
	c-0.251,0-0.554,0.05-0.899,0.149c-1.928,0.555-3.261,1.504-3.962,2.821c-0.877,1.647-0.872,3.973,0.004,6.688
	c4.959,14.703,3.041,19.509-10.262,25.712c-0.439,0.205-0.883,0.407-1.328,0.608c-4.521,2.052-7.085,3.382-7.229,6.845
	c-0.224,5.406-1.927,10.118-3.574,14.673c-0.519,1.436-1.055,2.92-1.526,4.383c-1.24,3.844-1.235,6.707,0.013,8.51
	c1.662,2.4,5.708,3.082,8.811,3.23c0.409,0.02,0.819,0.027,1.231,0.027c0.952-0.002,1.912-0.041,2.873-0.082
	c1.046-0.043,2.093-0.084,3.133-0.084c3.435,0,7.866,0.443,11.72,3.9c0.735,0.594,1.511,1.008,2.355,1.258
	c1.574,0.455,3.225,0.721,4.973,1.002c0.732,0.117,1.465,0.234,2.195,0.367c0.124,0.021,0.246,0.053,0.366,0.09
	c6.208,1.951,9.734,5.686,10.481,11.102c0.666,4.812,3.177,8.111,7.902,10.381c10.311,4.951,13.239,13.525,8.248,24.145
	c-3.999,8.5-2.81,14.76,3.857,20.297c0.166,0.137,0.316,0.293,0.449,0.463c0.701,0.9,1.438,1.742,2.191,2.504
	c0.178,0.18,0.332,0.381,0.459,0.6c0.603,1.033,0.838,2.17,0.698,3.299c0.755,1.383,1.888,1.543,5.04,1.555
	c0.891,0.002,1.812,0.006,2.753,0.088c0.582,0.049,1.201,0.074,1.894,0.074c1.17,0,2.354-0.068,3.608-0.141
	c1.283-0.074,2.61-0.15,3.952-0.15c2.43,0,5.641,0.211,8.936,1.855c0.03,0.016,0.13,0.068,0.16,0.084
	c0.137,0.076,0.269,0.16,0.392,0.256c0.473,0.361,0.876,0.738,1.232,1.072c0.239,0.225,0.471,0.441,0.684,0.613
	c0.384,0.141,0.743,0.363,1.054,0.666l0.198,0.193c0.113,0.111,0.217,0.229,0.31,0.354c0.277,0.172,0.793,0.229,1.873,0.281
	c1.251,0.061,2.867,0.141,4.402,0.969c0.098-0.01,0.196-0.014,0.295-0.014c0.34,0,0.678,0.057,1,0.172l1.017,0.359
	c0.419,0.146,0.799,0.387,1.114,0.699c0.189,0.189,0.804,0.342,1.396,0.49c1.103,0.273,2.474,0.615,3.738,1.656
	c0.209,0.174,0.389,0.369,0.539,0.58c0.2,0.084,0.532,0.186,0.771,0.26c1.033,0.318,2.547,0.785,3.695,2.166
	c0.919,0.744,1.823,1.574,2.691,2.467c0.217,0.209,0.429,0.424,0.642,0.639c0.428,0.434,0.838,0.848,1.238,1.166
	c0.285,0.143,0.552,0.332,0.788,0.57l0.134,0.135c0.212,0.213,0.385,0.451,0.521,0.705c0.264,0.336,0.525,0.611,0.796,0.83
	c0.525,0.176,1.007,0.496,1.38,0.953l0.175,0.215c0.055,0.068,0.106,0.139,0.155,0.209c0.204,0.1,0.625,0.229,0.918,0.318
	c1.067,0.324,2.528,0.77,3.703,2.082c0.037,0.041,0.072,0.082,0.105,0.125l0.196,0.207c0.377,0.4,0.722,0.766,1.055,1.049
	c0.581,0.188,1.11,0.553,1.497,1.08c0.264,0.357,0.423,0.375,0.66,0.375C467.292,425.207,467.558,425.189,467.636,425.189z"/>
<path id="siracusa"  fill="green" d="M628.539,508.236c0.081-0.119,0.717-1.24-0.73-5.094
	c-1.414-2.234-0.836-4.494-0.382-5.781c-0.364-0.818-0.569-1.621-0.744-2.307c-0.176-0.689-0.331-1.297-0.568-1.631
	c-0.023-0.021-0.047-0.043-0.07-0.064c-1.256-1.193-1.689-2.645-2.007-3.703c-0.096-0.32-0.232-0.779-0.33-0.979
	c-0.167-0.113-0.325-0.246-0.471-0.396l-0.125-0.129c-0.404-0.416-0.665-0.924-0.779-1.457c-1.609-3.875-1.611-7.838-0.004-11.799
	c0.089-0.381,0.254-0.748,0.496-1.08l0.118-0.162c0.184-0.252,0.399-0.465,0.638-0.641c0.295-0.424,0.325-1.094,0.273-2.619
	c-0.069-2.059-0.166-4.879,2.125-7.189c0.11-0.111,0.228-0.213,0.35-0.303c0.613-0.553,1.135-1.047,1.546-1.562
	c0.14-0.262,0.321-0.508,0.544-0.727l0.125-0.123c0.19-0.189,0.401-0.346,0.625-0.473c0.364-0.289,0.652-0.562,0.88-0.84
	c0.18-0.553,0.522-1.059,1.015-1.439l0.221-0.172c0.047-0.035,0.095-0.07,0.143-0.104c0.123-0.203,0.29-0.795,0.386-1.135
	c0.276-0.984,0.622-2.209,1.537-3.338c0.187-0.23,0.4-0.426,0.633-0.586c0.11-0.238,0.242-0.684,0.328-0.975
	c0.312-1.051,0.741-2.492,1.963-3.693c0.062-0.061,0.125-0.117,0.191-0.172c0.106-0.209,0.241-0.67,0.334-0.992
	c0.325-1.119,0.766-2.635,2.133-3.859c0.004-0.004,0.009-0.008,0.013-0.012c0.114-0.131,0.284-0.74,0.386-1.105
	c0.297-1.068,0.735-2.648,2.086-3.9c0.331-0.387,0.682-0.754,1.034-1.121c0.33-0.344,0.646-0.672,0.907-0.99
	c0.134-0.232,0.3-0.451,0.5-0.646l0.114-0.113c0.182-0.178,0.381-0.328,0.592-0.453c0.496-0.396,0.985-0.885,1.483-1.473
	c0.139-0.215,0.308-0.416,0.506-0.596c0,0,0.14-0.127,0.163-0.146c0.831-0.742,1.721-1.484,2.646-2.207
	c0.429-0.336,0.94-0.547,1.48-0.613c0,0,1.952-0.24,2.62-0.326c0.128-0.018,0.257-0.025,0.386-0.025
	c0.479,0,0.951,0.115,1.378,0.336c0.084-0.129,0.169-0.262,0.239-0.373c0.337-0.531,0.719-1.135,1.242-1.695
	c0.203-0.219,0.431-0.398,0.677-0.543c0.61-0.547,0.824-0.936,0.918-1.262c0.104-1.141,0.552-2.178,1.294-3.016
	c0.192-0.742,0.001-1.076-0.213-1.344c-0.052-0.059-0.102-0.117-0.148-0.178c-3.798-4.91-0.893-8.967,0.668-11.146
	c0.446-0.623,0.872-1.217,1.144-1.746c0.082-0.283,0.208-0.561,0.38-0.822c1.111-1.682,1.103-2.275,1.073-2.416
	c-0.018-0.088-0.126-0.268-0.402-0.512c-1.18-0.145-2.357-0.289-3.535-0.43c-0.546-0.066-1.063-0.279-1.496-0.619
	c-0.646-0.508-1.26-0.961-1.859-1.373c-0.348-0.125-0.678-0.316-0.97-0.572l-0.807-0.707c-2.59-2.264-5.267-4.604-7.276-7.785
	c-0.924-1.117-1.29-2.369-1.562-3.303c-0.085-0.293-0.228-0.779-0.346-1.027c-0.22-0.156-0.422-0.344-0.599-0.562
	c-0.972-1.197-1.331-2.498-1.62-3.543c-0.138-0.498-0.279-1.012-0.439-1.277c-0.204-0.168-0.389-0.367-0.548-0.594
	c-2.965-4.244-1.593-8.578-0.73-10.652c0.005-1.006,0.274-1.963,0.798-2.828c0.714-2.379,1.645-4.955,3.416-7.211
	c-0.152-0.01-0.324-0.018-0.517-0.025c-1.322-0.057-3.054-0.129-4.64-1.119c-1.031-0.176-1.981-0.613-2.804-1.289
	c-1.092-0.615-2.06-1.404-2.883-2.348c-0.154-0.113-0.734-0.275-1.086-0.375c-0.969-0.271-2.359-0.66-3.54-1.746
	c-4.787-2.109-6.538-6.359-7.956-9.801c-0.24-0.586-0.474-1.15-0.714-1.693c-2.11-0.486-4.315-0.748-6.627-1.021
	c-5.804-0.689-11.805-1.402-17.275-5.758c-3.875-3.082-9.554-4.85-15.581-4.85c-6.078,0-11.942,1.764-16.09,4.84
	c-3.102,2.301-3.118,3.23-2.869,3.986c0.253,0.768,2.525,0.908,3.879,0.994c0.659,0.039,1.319,0.059,1.979,0.08
	c1.509,0.047,3.068,0.096,4.682,0.354c4.817,0.762,10.654,3.766,11.108,13.766c0.313,6.998-3.706,11.504-11.025,12.359
	c-0.642,0.076-1.312,0.123-1.988,0.17c-4.074,0.281-4.28,0.664-4.425,2.088c-0.359,3.516,2.677,5.178,5.283,5.951
	c5.522,1.631,9.292,4.885,10.344,8.928c0.902,3.469-0.291,7.105-3.358,10.24c-8.091,8.277-4.961,15.518-0.999,24.684l0.461,1.068
	c3.204,7.443,6.777,15.32,11.185,22.494c3.498,5.697,4.56,10.535,3.244,14.793c-1.187,3.838-4.191,6.906-9.171,9.354
	c-0.87,2.375-1.466,5.26-0.338,7.24c0.947,1.664,3.146,2.746,6.533,3.213c9.633,1.332,13.078,8.051,14.833,12.99
	c0.083,0.234,0.137,0.479,0.16,0.727c0.344,3.697,2.144,4.451,7.199,5.666c0.479,0.115,0.958,0.23,1.433,0.352
	c0.663,0.027,1.32,0.273,1.853,0.738l0.122,0.105c0.176,0.154,0.329,0.322,0.459,0.506c0.199,0.09,0.574,0.205,0.839,0.285
	c1.026,0.316,2.537,0.779,3.699,2.135c0.975,0.771,1.782,1.693,2.408,2.744c0.757,0.91,1.19,1.969,1.279,3.123
	c0.233,0.367,0.527,0.73,0.861,1.111c0.478,0.043,0.925,0.064,1.337,0.064C627.49,508.906,628.32,508.561,628.539,508.236z"/>
<path id="enna"  fill="brown" d="M476.51,351.857c-0.097-0.656-0.349-1.404-0.625-2.229
	c-0.738-2.201-1.749-5.213,0.052-8.416c0.533-0.947,1.534-1.529,2.615-1.529c0.036,0,0.073,0,0.11,0.002
	c3.83,0.141,6.602,2.088,8.828,3.652c1.32,0.928,2.339,1.621,3.315,1.986c0.015-0.045,0.029-0.09,0.044-0.133
	c2.19-6.471,2.852-8.424,8.606-10.373c5.324-1.805,9.294-5.357,13.497-9.121c1.272-1.139,2.571-2.303,3.929-3.432
	c-2.191-1.508-4.736-2.119-7.562-2.797c-2.336-0.561-4.752-1.139-7.05-2.299c-4.698-2.367-7.61-5.586-8.424-9.307
	c-0.488-2.23-0.422-5.703,2.665-9.571c7.657-9.595,18.822-12.84,29.602-15.343c1.306-0.303,2.621-0.457,3.911-0.457
	c7.276,0,12.856,4.833,16.904,9.043c0.914,0.95,1.69,1.718,2.509,2.38l0.267,0.216c1.448,1.173,2.945,2.385,4.125,2.385
	c0.219,0,0.437-0.042,0.672-0.127c1.056-0.386,1.304-1.307,1.261-4.695l-0.002-0.126c-0.021-1.604-0.015-3.213-0.009-4.822
	c0.017-4.425,0.032-8.604-0.495-12.737c-0.247-1.932-0.64-3.846-1.055-5.872c-0.681-3.316-1.378-6.717-1.423-10.291
	c-0.342,0.01-0.683,0.016-1.024,0.016c-0.351,0-0.701-0.006-1.054-0.021c-12.902-0.539-16.982-4.334-18.193-16.92
	c-0.155-1.609-0.141-3.18-0.126-4.7c0.006-0.652,0.013-1.303,0.004-1.955c-0.045-3.627-1.084-3.627-2.656-3.627
	c-0.766,0-1.619,0.083-2.522,0.172c-0.979,0.095-1.99,0.194-2.994,0.194c-0.35,0-0.691-0.012-1.022-0.038
	c-0.126-0.01-0.251-0.014-0.378-0.014c-0.773,0-1.667,0.161-2.613,0.332c-1.104,0.199-2.356,0.424-3.655,0.424
	c-2.858,0-5.188-1.084-7.123-3.315c-1.462-1.686-3.041-2.438-5.12-2.438c-1.5,0-3.304,0.403-5.514,1.232
	c-2.476,0.928-4.754,1.398-6.77,1.398c-3.426,0-9.194-1.402-10.769-10.428c-7.409-3.499-15.236-3.991-21.988-3.991
	c-1.138,0-2.325,0.016-3.693,0.048c-0.595,1.347-1.491,2.485-2.271,3.475c-2.001,2.539-2.283,3.015-0.535,4.952
	c7.418,8.209,6.583,17.139-2.479,26.54c-0.495,0.513-1.155,0.833-1.864,0.903c-10.03,0.995-13.36,8.044-17.297,18.686
	c-0.158,0.428-0.412,0.814-0.742,1.129c-1.738,1.66-2.537,3.76-2.478,6.552c2.164,2.529,2.409,5.54,2.61,8.013
	c1.38,16.867-5.886,30.327-12.37,40.167c-2.09,3.174-2.53,6.426-1.238,9.16c1.396,2.957,4.605,4.906,8.801,5.352l0.305,0.031
	c1.08,0.115,2.195,0.232,3.212,0.232c1.451,0,2.46-0.24,3.177-0.754c4.363-3.135,8.561-4.658,12.83-4.658
	c5.917,0,11.599,2.938,17.883,9.242c0.521,0.525,1.049,1.039,1.573,1.549c1.925,1.875,3.915,3.812,5.623,6.25
	c0.536,0.766,2.057,1.301,3.697,1.301C475.109,352.338,475.961,352.113,476.51,351.857z"/>
<path id="palermo"  fill="#ff6600" d="M292.421,251.857c4.436,0,8.133,0.398,11.579,1.251
	c1.434-0.139,2.896-0.233,4.316-0.324c5.865-0.377,11.404-0.734,15.081-3.958c5.068-4.445,10.004-5.015,13.738-5.015
	c1.949,0,3.915,0.183,5.816,0.359l0.281,0.026c0.337-0.201,0.624-0.452,0.874-0.762c1.312-3.459,3.504-6.427,6.695-9.062
	c1.77-1.458,4.18-2.4,6.141-2.4c1.825,0,2.949,0.755,3.57,1.389c0.608,0.62,1.327,1.726,1.293,3.471
	c-0.048,2.477,1.774,4.726,3.884,7.33c3.559,4.391,8.432,10.404,2.321,19.077c-0.173,0.247-0.342,0.615-0.103,1.28
	c0.358,0.999,1.594,2.307,3.464,2.822c3.948,1.092,7.519,1.997,11.231,1.997c1.279,0,2.493-0.106,3.707-0.325
	c3.938-0.712,7.77-1.928,11.827-3.217c6.358-2.019,12.934-4.106,19.985-4.106c1.817,0,3.619,0.142,5.375,0.423
	c2.325-2.119,4.181-4.863,6.131-7.749c3.438-5.087,7.309-10.812,14.47-13.262c0.726-1.497,1.645-2.936,2.539-4.338
	c1.696-2.659,3.45-5.408,2.909-7.276c-0.388-1.34-2.031-2.756-4.765-4.112c-5.244-0.332-7.904-2.71-9.222-4.692
	c-2.091-3.147-2.318-7.67-0.606-12.1c2.382-6.165,0.118-10.847-2.503-16.267c-0.639-1.322-1.3-2.689-1.895-4.092
	c-0.911-2.143-2.189-4.183-3.544-6.343c-1.141-1.82-2.32-3.702-3.311-5.717c-1.904-3.867-3.805-4.644-6.255-4.644
	c-0.258,0-0.522,0.01-0.799,0.031l-0.812,0.063c-1.113,0.088-2.264,0.18-3.456,0.18c-2.621,0-6.42-0.397-9.142-3.832
	c-2.032-2.557-3.826-2.885-5.161-2.885c-2.198,0-4.692,1.029-7.381,2.139c-5.266,2.179-9.986,5.38-14.758,8.745
	c-8.325,5.872-16.061,8.727-23.65,8.727c-5.53,0-10.936-1.578-16.069-4.691c-3.946-2.399-7.804-3.776-11.792-4.21
	c-16.769-1.812-24.016-13.921-28.457-24.267c-1.026-2.39-1.652-2.709-1.627-2.71c-0.014,0-0.41,0.016-1.326,0.647
	c-2.425,1.671-5.094,2.449-8.4,2.449c-1.54,0-3.027-0.164-4.465-0.322c-1.326-0.146-2.579-0.284-3.771-0.284
	c-1,0-1.855,0.101-2.616,0.308c-0.263,0.071-0.527,0.105-0.788,0.105c-1.156,0-2.242-0.672-2.736-1.771
	c-0.804-1.789-2.537-3.322-4.372-4.945c-3.709-3.282-8.789-7.776-6.492-16.476c0.476-1.804,0.163-2.606,0.065-2.704
	c-0.02-0.012-0.117-0.044-0.304-0.044c-0.312,0-1.188,0.097-2.593,1c-5.36,3.446-10.773,5.121-16.551,5.121
	c-2.767,0-5.604-0.372-8.676-1.136c-0.738-0.184-1.484-0.276-2.218-0.276c-3.189,0-6.426,1.831-6.442,5.331
	c-0.041,8.828-5.256,13.042-9.858,16.758c-0.621,0.501-1.248,1.008-1.871,1.531c-3.044,2.559-6.357,4.343-9.561,6.068
	c-0.593,0.32-1.187,0.64-1.779,0.964c-3.721,2.042-5.672,3.371-5.8,3.95c-0.186,0.843,2.584,4.605,3.496,5.843
	c0.343,0.466,0.708,0.922,1.072,1.379c1.005,1.26,2.144,2.688,2.917,4.375c2.809,6.108,5.768,15.277-0.934,24.345
	c-0.475,0.642-1.186,1.068-1.976,1.185c-0.146,0.021-0.292,0.032-0.437,0.032c-0.644,0-1.274-0.207-1.796-0.597
	c-0.708-0.528-1.492-0.744-2.708-0.744c-0.702,0-1.464,0.073-2.27,0.149c-0.91,0.086-1.851,0.176-2.837,0.176
	c-1.66,0-3.093-0.271-4.382-0.827c-0.098-0.042-0.194-0.09-0.287-0.142c-2.938-1.66-4.479-1.907-5.136-1.907
	c-0.5,0-0.621,0.128-0.679,0.19c-0.16,0.168-0.944,1.202-0.734,5.05c0.068,1.259-0.004,2.469-0.073,3.64
	c-0.155,2.609-0.205,4.312,0.694,5.833c1.987,2.409,4.27,3.533,7.169,3.533c2.995,0,6.182-1.208,8.624-2.258
	c2.339-1.008,4.432-1.498,6.399-1.498c5.141,0,8.388,3.397,10.902,6.741c4.373,5.925,0.653,11.163-1.133,13.679
	c-2.664,3.757-2.537,6.596,0.461,9.528c1.971,1.996,4.675,2.235,7.806,2.511c1.128,0.1,2.296,0.203,3.469,0.394
	c0.487,0.078,0.982,0.151,1.482,0.224c4.491,0.66,10.081,1.482,12.863,6.724c2.424,4.567,4.628,4.567,5.458,4.567
	c2.188,0,4.898-1.416,6.932-2.601c1.156-0.724,2.072-1.337,2.88-1.928c0.129-0.095,0.267-0.179,0.409-0.251
	c0.381-0.194,0.77-0.434,1.164-0.674c1.335-0.813,2.996-1.824,4.942-1.877c0.027,0,0.054-0.001,0.081-0.001
	c1.032,0,1.995,0.532,2.544,1.411c1.403,2.245-1.457,8.601-1.829,13.57c-0.069,0.925,0.292,6.649,0.201,7.642
	c-0.337,3.651,0.795,10.046,1.609,12.065c0.165,0.409,2.413,1.207,4.424,1.207c0.146-0.464,4.035-3.583,3.62-8.327l-0.805-5.548
	c-0.973-6.45,0.095-7.865,0.604-8.446c0.19-0.245,4.719-1.699,4.958-2.212C273.504,260.05,278.937,253.945,292.421,251.857"/>
<path id="ragusa"  fill="#eee" d="M601.888,501.85c-0.248-1.039-0.479-2.129-0.713-3.238
	c-1.686-7.975-3.099-12.826-8.489-12.961c-6.842-0.174-11.114-1.746-13.447-4.951c-2.721-3.737-2.014-8.533-0.521-13.965
	c0.701-1.698,1.438-3.364,2.011-4.377c1.548-2.738,3.413-14.732,3.413-14.732l-0.185-0.532c-0.045-0.187-0.338-1.375-0.877-2.524
	c-1.324-2.818-2.626-5.662-3.909-8.512c-2.612-5.802-5.145-11.63-7.62-17.328c-1.708-3.934-3.417-7.865-5.151-11.791
	c-1.695,2.689-3.849,5.443-6.87,7.539c-2.263,1.562-4.305,2.322-6.241,2.322c-1.834,0-4.488-0.699-6.721-4.031
	c-2.398-3.58-5.398-7.688-7.326-7.688c-1.953,0-5.418,3.602-7.853,6.312c-0.633,0.703-1.37,1.352-2.248,1.973
	c-1.115,1.146-2.529,1.814-3.79,2.408c-0.232,0.109-0.465,0.219-0.693,0.332c-0.848,0.582-1.374,1.113-1.742,1.754
	c-0.548,0.957-1.555,1.508-2.603,1.508c-0.36,0-0.726-0.064-1.078-0.201c-1.381-0.533-2.168-1.992-1.852-3.439
	c0.295-1.352,0.988-2.363,1.766-3.119c-5.098,2.389-10.508,3.793-16.147,4.193c-0.152,1.656-1.274,2.971-2.94,3.393
	c-1.171,0.422-2.365,0.814-3.56,1.207c-8.142,2.68-13.2,4.717-14.304,12.398c-0.016,0.326,0.055,0.449,0.35,0.664
	c0.517,0.377,0.879,0.889,1.071,1.453c0.257,0.307,0.573,0.613,0.96,0.93c0.251,0.146,0.484,0.332,0.69,0.555l0.109,0.117
	c0.151,0.164,0.28,0.34,0.388,0.523c0.254,0.316,0.567,0.645,0.895,0.99c0.356,0.375,0.712,0.75,1.045,1.146
	c1.33,1.209,1.776,2.742,2.079,3.783c0.088,0.303,0.214,0.734,0.301,0.93c0.06,0.049,0.118,0.098,0.175,0.152
	c2.008,1.895,2.119,4.32,2.192,5.926c0.044,0.969,0.09,1.621,0.341,1.855l0.077,0.078l0.286,0.295
	c0.607,0.631,1.186,1.23,1.781,1.732c0.207,0.133,0.4,0.293,0.576,0.479c0,0,0.172,0.188,0.212,0.236
	c0.711,0.797,1.404,1.646,2.117,2.59c0.788,0.965,1.205,2.088,1.229,3.287c0.176,0.316,0.446,0.674,0.746,1.07
	c0.222,0.293,0.442,0.586,0.65,0.889c0.662,0.906,1.043,1.93,1.13,3.014c1.188,2.076,1.135,4.266,1.091,6.072
	c-0.04,1.686-0.012,2.529,0.416,3.123c0.109,0.1,0.214,0.209,0.31,0.328l0.152,0.188c0.14,0.17,0.257,0.354,0.353,0.543
	c0.224,0.287,0.513,0.592,0.835,0.93c0.309,0.326,0.616,0.652,0.906,0.992c0.922,0.793,1.723,1.717,2.386,2.754
	c0.992,0.625,1.888,1.381,2.672,2.252c0.279,0.209,0.48,0.285,0.574,0.285c0.103,0,0.339-0.088,0.666-0.336
	c0.523-0.398,1.162-0.613,1.817-0.613c0.045,0,0.091,0,0.137,0.002c0.908,0.043,1.819,0.086,2.728,0.135
	c0.534,0.027,1.051,0.199,1.497,0.494c0.532,0.352,1.215,0.482,2.519,0.482c0.304,0,0.608-0.006,0.914-0.012
	c0.345-0.006,0.689-0.014,1.032-0.014c1.634,0,3.498,0.152,5.29,1.15c0,0,0.29-0.008,0.323-0.008c0.377,0,0.75,0.07,1.101,0.209
	l1.077,0.424c0.354,0.141,0.633,0.311,0.909,0.57c0.133,0.08,0.603,0.193,0.914,0.268c1.053,0.254,2.73,0.658,3.992,2.133
	c0.561,0.387,1.022,0.799,1.438,1.17c0.202,0.182,0.397,0.357,0.58,0.506c0.37,0.16,0.714,0.396,1.004,0.709l0.156,0.168
	c0.074,0.08,0.143,0.162,0.207,0.248c0.168,0.064,0.418,0.143,0.602,0.201c1.006,0.314,2.592,0.812,3.67,2.334
	c1.079,0.654,2.012,1.469,2.781,2.43c0.51,0.395,0.953,0.807,1.352,1.176c0.271,0.252,0.533,0.496,0.783,0.701
	c0.202,0.119,0.393,0.264,0.568,0.434c0,0,0.164,0.16,0.182,0.178c0.106,0.098,0.189,0.162,0.25,0.201
	c0.086-0.055,0.223-0.158,0.411-0.342c0.11-0.109,0.227-0.207,0.349-0.295c0.789-0.68,1.572-1.363,2.354-2.045
	c0.55-0.48,1.252-0.742,1.975-0.742c0.104,0,0.207,0.006,0.312,0.018l2.614,0.273c0.414,0.045,0.813,0.174,1.175,0.379
	c1.953,1.117,2.499,2.979,2.824,4.088c0.057,0.191,0.134,0.455,0.198,0.627c0.092,0.074,0.181,0.152,0.265,0.238
	c0,0,0.227,0.23,0.259,0.268c0.123,0.113,0.196,0.158,0.201,0.168c0.054-0.01,0.277-0.066,0.685-0.355
	c0.049-0.035,0.1-0.068,0.151-0.102c0.918-0.57,1.916-0.871,2.969-0.895c0.843-0.393,1.674-0.605,2.381-0.787
	c0.714-0.184,1.216-0.322,1.509-0.506c0.069-0.086,0.145-0.17,0.225-0.248c1.925-1.908,4.235-2.016,5.923-2.094
	c1.047-0.049,1.702-0.096,1.969-0.352c0.118-0.115,0.256-0.223,0.402-0.32c1.703-1.324,3.556-1.996,5.506-1.996
	c1.757,0,3.563,0.559,5.373,1.66c0.062,0.035,0.124,0.072,0.185,0.113l0.092,0.061c0.27,0.178,0.5,0.391,0.689,0.629
	c0.198,0.09,0.581,0.203,0.851,0.283c1.042,0.309,2.561,0.756,3.735,2.115c0.58,0.424,1.069,0.873,1.508,1.277
	c0.266,0.246,0.521,0.48,0.762,0.676c0.158,0.096,0.311,0.209,0.453,0.338l0.119,0.107c0.234,0.211,0.427,0.451,0.579,0.709
	c0.398,0.467,0.738,0.713,1.025,0.854l0.217-0.021c0.104-0.012,0.208-0.018,0.312-0.018c0.407,0,0.812,0.084,1.188,0.246l0.418,0.18
	C602.062,503.236,602.091,502.791,601.888,501.85z"/>
<path id="trapani"  fill="#ACA49A" d="M200.558,221.247c-0.862-2.411-2.135-3.225-5.046-3.225
	c-1.207,0-2.527,0.143-3.925,0.293l-0.604,0.065c-0.966,0.104-1.96,0.269-3.012,0.444c-1.892,0.314-3.848,0.64-5.878,0.64
	c-3.576,0-6.554-1.058-9.104-3.236c-0.13-0.111-0.25-0.232-0.359-0.364c-0.857-1.032-1.55-2.098-2.186-3.103
	c-0.233-0.369-0.384-0.784-0.44-1.217c-1.18-9.048-1.718-13.177,0.593-15.81c1.686-1.919,4.136-1.919,4.941-1.919
	c1.798,0,3.968,0.391,7.298,1.036c0.512,0.039,1.003,0.059,1.462,0.059c0.519,0,0.994-0.028,1.438-0.077l0,0.001
	c0,0,8.829,0.89,9.973-1.027c2.604-3.561,2.602-7.309,0.899-11.776c-0.021-0.061-0.04-0.132-0.063-0.186
	c-0.004-0.01-0.013-0.019-0.017-0.028c-0.864-2.209-2.132-4.592-3.712-7.22c-2.033-3.38-3.733-6.961-2.989-10.545
	c-1.255-1.306-2.543-2.62-3.853-3.928c-0.552,0.646-1.104,1.291-1.657,1.932c-0.169,0.196-0.362,0.37-0.576,0.516
	c-1.971,1.353-4.15,2.038-6.479,2.039c-2.333,0-4.55-0.677-6.62-1.475c-0.11,0.006-0.219,0.009-0.328,0.009
	c-1.176,0-2.282-0.344-3.287-1.022c-0.066-0.044-0.13-0.092-0.192-0.141c-0.67-0.534-1.379-1.078-2.114-1.621
	c-0.27-0.14-0.522-0.322-0.747-0.547l-0.171-0.171c-0.107-0.108-0.205-0.222-0.293-0.341c-0.202-0.11-0.673-0.254-0.999-0.354
	c-1.068-0.326-2.53-0.773-3.72-2.064c-0.082-0.088-0.156-0.181-0.225-0.276c-0.556-0.597-1.004-0.958-1.451-1.162
	c-1.178-0.107-2.248-0.571-3.138-1.361c-1.017-0.628-1.921-1.406-2.694-2.319c-0.537-0.458-1.019-0.925-1.485-1.378
	c-0.341-0.331-0.681-0.663-1.037-0.977c-0.065-0.056-0.129-0.116-0.19-0.179c-0.833-0.854-1.614-1.77-2.324-2.723
	c-0.811-0.935-1.251-2.071-1.282-3.28c-0.228-0.464-0.621-0.967-1.062-1.529l-0.345-0.444c-0.699-0.947-1.084-2.022-1.138-3.159
	c-0.449-0.938-0.669-1.867-0.854-2.652c-0.18-0.762-0.336-1.42-0.607-1.725c-0.091-0.103-0.176-0.211-0.252-0.325
	c-0.628-0.935-0.945-1.993-0.933-3.074c-0.08-0.176-0.152-0.353-0.218-0.53c-0.163,1.471-0.637,3.125-2.13,4.372
	c-0.036,0.03-0.071,0.059-0.108,0.086c-0.093,0.209-0.208,0.592-0.289,0.864c-0.306,1.023-0.754,2.523-2.065,3.699
	c-0.337,0.417-0.685,0.787-0.996,1.118c-0.3,0.32-0.572,0.61-0.782,0.88c-0.132,0.288-0.312,0.559-0.539,0.801
	c-1.753,1.871-4.061,1.983-5.588,2.057c-0.38,0.018-0.958,0.046-1.286,0.105c-0.088,0.989-0.501,1.923-1.208,2.689
	c-1.14,1.524-2.717,2.004-3.78,2.329c-0.23,0.07-0.557,0.17-0.738,0.247c-0.08,0.106-0.168,0.208-0.264,0.304l-0.16,0.161
	c-0.203,0.204-0.428,0.373-0.667,0.506c-0.765,0.584-1.475,1.146-2.159,1.706c-0.042,0.035-0.085,0.068-0.129,0.1
	c-0.961,0.703-2.076,1.083-3.228,1.101c-1.938,0.978-3.879,1.119-5.416,1.119c-0.649,0-1.304-0.029-1.959-0.059
	c-0.563-0.026-1.126-0.053-1.685-0.053c-1.43,0-2.304,0.187-3.031,0.659l-0.325,0.326c-0.65,0.657-1.32,1.333-2.082,1.982
	c-0.408,0.477-0.819,0.906-1.219,1.322c-0.327,0.341-0.656,0.681-0.964,1.04c-0.039,0.049-0.188,0.222-0.188,0.222
	c-0.151,0.171-0.317,0.32-0.495,0.448c-0.614,0.543-1.12,1.036-1.517,1.55c-0.099,0.174-0.216,0.341-0.353,0.498l-0.141,0.161
	c-0.105,0.12-0.217,0.23-0.336,0.33c-0.188,0.281-0.247,0.797-0.305,1.917c-0.066,1.27-0.151,2.908-1.011,4.461
	c0.001,1.025-0.276,2.025-0.826,2.953c-0.091,0.152-0.194,0.297-0.311,0.431c-0.266,0.307-0.42,0.958-0.599,1.711
	c-0.191,0.805-0.417,1.758-0.89,2.717c-0.074,1.152-0.48,2.231-1.183,3.143c-0.553,0.751-1.11,1.499-1.668,2.243
	c-0.126,0.23-0.285,0.446-0.476,0.643l-0.163,0.167c-0.113,0.116-0.233,0.221-0.359,0.315c-0.107,0.202-0.247,0.657-0.343,0.973
	c-0.333,1.088-0.789,2.578-2.139,3.771l-0.375,0.369c-0.501,0.49-0.98,0.958-1.349,1.426c-0.138,0.257-0.314,0.499-0.531,0.714
	l-0.125,0.124c-0.213,0.212-0.45,0.385-0.702,0.521c-0.437,0.343-0.877,0.788-1.34,1.254c-0.21,0.211-0.42,0.423-0.634,0.631
	c-0.01,0.009-0.585,0.587-0.585,0.587c-0.452,0.452-0.886,0.886-1.285,1.322c0.383,0.776,0.557,1.614,0.514,2.463
	c0.204,0.338,0.485,0.704,0.795,1.106c0.184,0.238,0.367,0.477,0.543,0.719c1.334,1.092,1.815,2.573,2.119,3.506
	c0.073,0.223,0.175,0.539,0.253,0.714c0.043,0.027,0.265,0.183,0.265,0.183c0.716,0.507,1.147,1.275,1.246,2.089
	c1.513,4.165,1.417,8.14-0.289,11.837c-0.159,0.541-0.471,1.042-0.929,1.433c-0.063,0.054-0.155,0.123-0.243,0.185
	c-0.826,0.63-1.696,0.977-2.477,1.227c0.841,0.296,1.789,0.737,2.624,1.56c0.007,0.006,0.013,0.012,0.02,0.018
	c2.082,1.953,2.169,4.434,2.227,6.076c0.029,0.821,0.056,1.597,0.287,1.863c0.14,0.161,0.261,0.336,0.364,0.522
	c0.501,0.913,0.765,1.899,0.785,2.909c1.226,2.057,1.16,4.29,1.11,5.994c-0.046,1.59-0.025,2.376,0.371,2.893
	c0.108,0.094,0.211,0.197,0.307,0.309l0.181,0.21c0.188,0.218,0.338,0.456,0.453,0.705c0.283,0.376,0.641,0.733,1.092,1.093
	c0.235,0.134,0.455,0.303,0.653,0.505l0.121,0.124c0.193,0.196,0.354,0.414,0.481,0.644c0.416,0.527,0.957,1.048,1.525,1.594
	l0.204,0.196c0.076,0.066,0.149,0.137,0.219,0.211c0.34,0.362,0.688,0.716,1.037,1.07c0.412,0.418,0.824,0.837,1.224,1.266
	c0.957,0.507,2.242,0.615,3.959,0.615l1.802-0.011c2.67,0,7.641,0,10.698,5.165c0.105,0.177,0.19,0.362,0.255,0.551
	c0.223,0.285,0.507,0.559,0.862,0.831c0.262,0.137,0.507,0.314,0.726,0.533l0.135,0.134c0.239,0.238,0.43,0.508,0.572,0.796
	c0.247,0.315,0.563,0.644,0.915,1.009c0.315,0.328,0.63,0.657,0.928,1c2.288,2.272,2.191,5.169,2.126,7.102
	c-0.052,1.554-0.018,2.19,0.297,2.577c0.08,0.067,0.157,0.14,0.231,0.217l0.2,0.209c0.232,0.242,0.416,0.514,0.551,0.803
	c0.318,0.379,0.619,0.552,0.894,0.643c1.25,0.053,2.392,0.553,3.277,1.431c0.933,0.652,1.804,1.401,2.595,2.233
	c0.279,0.22,0.443,0.269,0.475,0.269c0.001,0,0.164-0.013,0.503-0.266c1.146-1.228,2.541-1.662,3.578-1.986
	c0.316-0.098,0.78-0.243,0.933-0.319c0.068-0.092,0.143-0.182,0.223-0.267l0.167-0.178c0.301-0.321,0.657-0.562,1.041-0.721
	c0.207-0.167,0.431-0.372,0.675-0.595c0.412-0.377,0.88-0.805,1.439-1.205c0.099-0.07,0.202-0.135,0.308-0.193
	c0,0,0.217-0.116,0.278-0.144c3.629-1.672,7.29-1.866,9.728-1.866c1.595,0,3.182,0.093,4.716,0.183
	c1.515,0.089,2.945,0.172,4.364,0.172c0,0,0.001,0,0.001,0c2.559,0,4.523-0.287,6.267-0.924l1.93-2.04c0,0,0.173-0.179,0.229-0.229
	c0.137-0.125,0.24-0.25,0.302-0.425c-2.195-5.131-2.549-9.769-1.052-13.795c1.791-4.814,5.979-8.588,13.18-11.876
	c4.438-2.033,9.698-4.366,15.11-6.278c2.086-0.93,4.081-2.068,5.929-3.384l0.655-0.464
	C200.166,226.17,201.77,224.636,200.558,221.247z"/>
</svg>
