<svg version="1.1" id="toscana" width="100%" height="100%" viewBox="0 0 800 600" preserveAspectRatio="none">
<path id="grosseto"  fill="red" d="M410.482,550.658c-0.016-1.342-0.03-2.683-0.046-4.026
	c-1.167-1.298-0.813-3.224-1.889-4.558c-0.358-0.48-0.496-1.018-0.409-1.61c-0.371-1.153-1.166-2.013-1.991-2.851l-0.007-0.007
	c-0.749-0.657-1.387-1.411-1.93-2.245l-0.209-0.22c-0.838-0.542-1.602-1.174-2.276-1.909l0.017,0.014
	c-1.45-1.259-2.916-1.245-4.39-0.041l-0.019,0.014c-0.685,0.768-1.411,1.493-2.182,2.171l-0.019,0.029
	c-1.608,3.657-1.571,7.319-0.023,10.985l0.035,0.048c0.705,0.549,1.263,1.225,1.693,2.01c0.448,0.446,0.689,0.988,0.724,1.622
	c0.37,1.227,1.139,2.137,2.235,2.779l-0.138-0.167c1.045,1.642,3.225,1.169,4.488,2.404l0.926-0.103l0.924,0.131
	C407.928,554.076,409.414,552.579,410.482,550.658z M453.793,537.323c-0.125-1.318,0.25-2.599,1.087-3.669
	c0.365-0.467,0.859-0.815,1.422-1.001c3.033-1.002,6.176-1.488,9.608-1.488c2.835,0,5.901,0.343,9.358,1.048l0.24-0.036
	c0.151-0.023,0.304-0.035,0.455-0.035c0.405,0,0.808,0.082,1.183,0.243l0.722,0.31c0.252,0.107,0.488,0.25,0.701,0.422
	c0.378,0.306,0.87,0.509,2.045,0.509c0.475,0,0.954-0.029,1.435-0.057c0.595-0.034,1.188-0.066,1.776-0.066
	c1.434,0,3.529,0.17,5.481,1.586c1.429,0.672,2.143,0.747,2.393,0.747c0.019,0,0.035,0,0.05-0.001
	c0.335-0.467,0.637-2.013,0.82-2.956c0.206-1.056,0.419-2.145,0.781-3.187c1.21-5.277,4.7-8.18,9.85-8.18
	c0.756,0,1.559,0.064,2.386,0.193c1.462,0.228,2.874,0.56,4.24,0.881c1.475,0.347,2.867,0.675,4.25,0.86
	c0.323,0.044,0.631,0.065,0.912,0.065c1.603,0,1.779-0.628,1.935-1.184c0.73-2.602,0.504-3.367-0.238-4.012
	c-0.304-0.263-0.762-0.532-1.247-0.817c-0.416-0.244-0.831-0.491-1.222-0.757c-6.443-4.363-5.539-10.953-4.879-15.764
	c0.517-3.779,2.888-8.498,11.251-9.518c5.77-0.707,10.546-3.74,15.603-6.951c1.859-1.181,3.781-2.4,5.768-3.507
	c1.018-0.566,1.457-1.093,1.529-1.396c0.075-0.316-0.139-0.887-0.572-1.525c-3.376-4.974-3.744-9.345-1.184-14.867
	c-0.354-0.326-0.83-0.72-1.191-1.019c-2.211-1.827-5.84-4.826-5.451-9.521c-8.315-2.545-12.436-7.972-12.253-16.159l0.006-0.266
	c0.074-3.209,0.151-6.526,0.725-9.911c1.384-8.155,0.639-14.002-2.213-17.379c-2.242-2.654-6.068-4-11.372-4
	c-2.305,0-4.916,0.255-7.765,0.757c-0.276,0.119-0.549,0.242-0.821,0.366c-0.643,0.291-1.307,0.593-2.037,0.852
	c-4.055,1.442-6.847,2.277-9.119,2.277c-6.593,0-7.381-6.437-8.143-12.661c-0.364-2.962-2.077-5.247-4.094-7.872
	c-1.812-1.774-2.624-3.958-3.344-5.892c-0.771-2.074-1.32-3.417-2.524-4.174c-2.269-0.757-4.685-1.125-7.377-1.125
	c-3.827,0-7.664,0.723-11.728,1.487c-1.005,0.189-2.01,0.379-2.94,0.542c-1.71,0.349-3.34,0.524-4.846,0.524
	c-11.044,0-14.506-9.086-17.288-16.388c-0.347-0.911-0.693-1.822-1.054-2.719c-0.673-0.865-1.444-1.485-2.349-1.887
	c-0.879-0.283-1.781-0.421-2.753-0.421c-0.815,0-1.693,0.102-2.608,0.303c-0.087,0.019-0.174,0.034-0.262,0.045
	c-2.258,0.289-4.52,0.562-6.78,0.833c-10.446,1.258-21.247,2.558-31.432,5.595c-8.216,2.448-11.166,5.642-10.79,11.738l0.071,0.302
	c0.065,0.282,0.164,0.714,0.266,1.065c4.485,0.759,7.462,2.39,9.084,4.971c2.523,4.015,0.926,8.931-0.482,13.268
	c-0.25,0.771-0.501,1.543-0.729,2.307c-0.294,0.989-0.625,1.969-0.958,2.948c-0.668,1.973-1.302,3.841-1.585,5.724
	c0.462,0.34,0.827,0.812,1.035,1.369c0.06,0.161,0.215,0.4,0.89,0.831c0.5,0.318,0.887,0.773,1.124,1.302
	c0.275,0.267,0.525,0.507,0.76,0.696c0.256,0.134,0.498,0.307,0.714,0.518l0.115,0.112c0.222,0.218,0.403,0.462,0.544,0.723
	c0.208,0.262,0.415,0.473,0.63,0.643c0.387,0.156,0.746,0.396,1.049,0.715l0.129,0.136c0.26,0.274,0.46,0.587,0.597,0.92
	c0.155,0.202,0.341,0.383,0.563,0.548c0.382,0.174,0.732,0.43,1.022,0.763l0.078,0.09c0.434,0.498,0.676,1.105,0.727,1.725
	c1.373,5.229,1.396,10.701,0.067,16.289c0.187,1.154-0.082,2.321-0.788,3.331c-0.137,0.196-0.298,0.375-0.478,0.533
	c-0.061,0.151-0.144,0.46-0.201,0.675c-0.256,0.953-0.631,2.347-1.858,3.471c-0.098,0.151-0.11,0.227-0.11,0.227
	c0,0.001,0.006,0.08,0.094,0.245c0.739,0.598,1.44,1.248,2.09,1.939c0.292,0.213,0.888,0.36,1.516,0.517
	c0.56,0.139,1.213,0.3,1.89,0.564c0.914-0.099,1.929-0.18,2.981-0.18c2.257,0,4.228,0.383,6.025,1.168
	c0.111,0.049,0.219,0.104,0.324,0.166c1.012,0.597,1.906,1.361,2.662,2.273l0.181,0.157c0.454,0.394,0.862,0.748,1.255,1.013
	l5.457,0.288c0.662,0.035,1.313,0.305,1.816,0.737c0.506,0.436,0.955,0.822,1.323,0.988c1.167,0.007,2.263,0.458,3.114,1.279
	c0,0,2.073,1.672,2.131,1.72l0.117,0.1c0.281,0.239,0.508,0.52,0.678,0.824c0.281,0.321,0.503,0.454,0.664,0.517
	c1.117,0.082,2.133,0.537,2.936,1.31c0.849,0.551,1.577,1.253,2.174,2.096c0.857,0.606,1.587,1.354,2.175,2.229
	c0.692,0.752,1.117,1.663,1.246,2.656c0.904,1.858,0.882,3.748,0.864,5.304c-0.02,1.605,0.02,2.388,0.469,2.936
	c0.158,0.087,0.589,0.21,0.881,0.294c0.933,0.266,2.21,0.631,3.329,1.671c0.09,0.084,0.174,0.172,0.251,0.264
	c0.182,0.076,0.516,0.173,0.751,0.241c0.976,0.283,2.312,0.67,3.444,1.842c0.094,0.098,0.181,0.2,0.259,0.307
	c0.503,0.558,0.982,1.035,1.455,1.447c0.15,0.104,0.294,0.222,0.428,0.354c1.124,1.121,1.506,2.431,1.784,3.388
	c0.067,0.232,0.163,0.562,0.24,0.746c0.119,0.099,0.232,0.206,0.338,0.325c1.065,1.194,1.397,2.537,1.641,3.518
	c0.083,0.337,0.209,0.846,0.293,0.966c0.067,0.074,0.131,0.151,0.189,0.231c0.628,0.85,0.967,1.834,0.993,2.854
	c0.265,0.649,0.421,1.275,0.554,1.812c0.087,0.347,0.222,0.893,0.336,1.108c0.06,0.048,0.117,0.098,0.174,0.15l0.206,0.192
	c0.1,0.094,0.191,0.191,0.275,0.294c0.258,0.059,0.771,0.081,1.131,0.098c1.369,0.061,3.438,0.152,5.124,1.804
	c0.266,0.26,0.474,0.559,0.622,0.879c0.192,0.237,0.443,0.496,0.721,0.781c0.236,0.243,0.473,0.488,0.699,0.74
	c1.191,1.099,1.595,2.457,1.868,3.376c0.059,0.196,0.14,0.469,0.205,0.639c0.111,0.092,0.218,0.193,0.316,0.304
	c0.999,1.107,1.356,2.362,1.618,3.278c0.076,0.267,0.185,0.649,0.246,0.812c0.214,0.175,0.405,0.382,0.568,0.62l0.064,0.094
	c0.192,0.278,0.33,0.579,0.415,0.889c1.767,4.388,1.703,8.788-0.19,13.088c-0.082,0.197-0.186,0.389-0.311,0.568
	c-0.149,0.215-0.321,0.403-0.511,0.564c-0.065,0.164-0.147,0.443-0.206,0.643c-0.274,0.929-0.678,2.293-1.89,3.392
	c-0.279,0.332-0.577,0.65-0.877,0.966c-0.25,0.265-0.49,0.518-0.684,0.754c-0.124,0.217-0.277,0.42-0.459,0.605l-0.097,0.099
	c-0.198,0.202-0.419,0.371-0.654,0.506c-0.491,0.398-0.949,0.899-1.375,1.396c-0.185,0.229-0.406,0.435-0.661,0.607
	c-0.074,0.051-0.149,0.097-0.227,0.14c-1.684,1.021-3.257,1.519-4.804,1.519c-1.4,0-2.717-0.403-3.929-1.201
	c0.208,0.783,0.322,1.547,0.424,2.232c0.331,2.221,0.516,2.509,1.27,2.791c0.263,0.087,0.517,0.211,0.754,0.372
	c0.211,0.144,0.398,0.311,0.561,0.494c0.179,0.082,0.549,0.188,0.806,0.262c0.853,0.245,1.982,0.569,3.017,1.419
	c1.564,0.767,2.536,0.934,3.087,0.934C451.433,542.653,452.779,542.653,453.793,537.323z"/>
<path id="siena"  fill="green" d="M530.465,446.195c2.066,0,6.054-2.027,7.941-3.028l0.158-0.198
	c3.162-3.954,7.097-8.876,13.662-8.876c0,0,0.605,0.009,0.742,0.009c5.312,0,9.571-2.702,14.079-5.562
	c1.586-1.006,3.225-2.046,4.926-2.974c3.646-1.988,5.048-6.691,4.298-10.089c-1.799-8.142,0.568-14.938,3.371-21.756
	c1.257-3.067,0.957-4.044-0.581-5.421c-8.388-7.509-8.378-17.333-8.369-26.001c0.003-2.158,0.005-4.197-0.104-6.218
	c-0.094-1.718,0.48-4.053,3.348-6.213c-0.197-0.051-0.396-0.099-0.565-0.14c-0.813-0.195-1.735-0.416-2.631-0.852
	c-2.166-1.055-4.802-1.569-7.593-2.114c-4.587-0.895-9.33-1.82-12.497-5.397c-3.458-3.901-7.628-6.829-12.044-9.929
	c-4.487-3.149-9.125-6.405-12.957-10.777c-0.646-0.519-1.248-0.939-1.834-1.283c-0.509-0.264-1.022-0.522-1.535-0.782
	c-4.267-2.155-9.103-4.598-11.737-10.102c-1.177-2.647-1.825-5.382-2.452-8.027c-0.817-3.447-1.592-6.711-3.449-9.419
	c-2.256-1.746-3.876-3.975-5.446-6.134c-2.682-3.688-4.559-6.039-8.058-6.533c-0.392,0.17-0.746,0.379-1.07,0.634
	c-1.443,1.472-3.662,3.336-6.597,3.336c-1.228,0-2.445-0.329-3.62-0.976c-3.051-1.682-6.118-2.465-9.651-2.465
	c-2.716,0-5.679,0.437-9.905,1.46c-2.771,0.672-5.669,1.012-8.61,1.012c-7.466,0-14.241-2.182-19.078-6.144l-1.22-1.001
	c-3.393-2.789-6.072-4.991-7.231-4.991c-1.221,0-4.308,3.714-6.397,6.242c-0.429,0.632-0.909,1.375-1.335,2.216
	c-0.78,1.45-1.354,2.658-1.803,3.789c-0.327,0.835-0.551,1.608-0.674,2.288c-0.445,2.919-0.417,5.553,0.088,8.048
	c0.203,0.734,0.449,1.385,0.747,1.979c5.248,7.085,5.813,14.335,1.729,22.156c-2.879,5.517-2.654,10.098,0.688,14.004
	c2.689,3.146,2.51,7.111,2.396,9.283c-0.056,4.388-3.146,6.414-5.193,7.757c-1.072,0.703-2.006,1.315-2.324,2.006
	c-0.966,4.015-0.253,5.196-0.098,5.395c0.337,0.432,1.291,0.496,1.829,0.496c0.906,0,2.026-0.168,3.328-0.499
	c2.127-0.655,4.012-0.975,5.762-0.975c4.499,0,10.139,2.178,11.46,12.553c0.683,5.354,3.512,8.114,8.637,8.438
	c0.771,0.046,1.551,0.068,2.387,0.068c3.13,0,6.245-0.313,9.543-0.646c3.302-0.333,6.716-0.677,10.15-0.677
	c3.768,0,7.097,0.423,10.179,1.292c1.25,0.354,2.132,1.471,2.184,2.769c0.026,0.662,0.028,1.335,0.03,2.007
	c0.009,2.909,0.128,4.478,1.134,5.513c0.432-0.388,0.847-0.783,1.218-1.179c0.018-1.636,0.203-3.156,0.562-4.597
	c-0.306-0.381-0.687-0.782-1.142-1.204c-1.179-1.113-1.115-2.718-0.703-3.753c0.498-1.251,1.664-2.06,2.97-2.06
	c0.747,0,1.74,0.251,2.605,1.31c1.022,0.614,1.902,1.553,2.384,2.587c0.382,0.82,0.5,1.682,0.351,2.486
	c0.663,1.901,0.788,4.399-0.96,7.182c0.116,1.496,0.36,3.025,0.616,4.627c0.563,3.533,1.146,7.187,0.429,11.045
	c-0.197,1.06-0.133,1.881,0.175,2.253c0.409,0.495,1.569,0.797,3.16,0.807c2.745,0,5.364-1.22,8.138-2.511l0.761-0.354
	c0.046-0.021,0.092-0.041,0.14-0.06c2.765-1.111,5.41-1.652,8.087-1.652c0.15,0,0.302,0.002,0.452,0.006
	c8.55,0.195,13.88,1.967,17.281,5.742c3.377,3.747,4.579,9.141,3.9,17.487c-0.119,1.468-0.281,2.932-0.444,4.395
	c-0.354,3.19-0.689,6.204-0.577,9.241c0.36,9.63,1.882,9.651,2.46,9.651C530.462,446.195,530.464,446.195,530.465,446.195z"/>
<path id="firenze"  fill="purple" d="M406.063,286.458c0.623-0.197,1.188-0.484,1.718-0.874
	c0.429-0.387,0.645-1.112,0.956-2.244c0.368-1.336,0.825-3,2.079-4.449c0.044-0.052,0.09-0.101,0.137-0.149
	c0.087-0.193,0.195-0.565,0.271-0.828c0.272-0.937,0.675-2.323,1.825-3.473c0.607-0.865,1.131-1.863,1.682-2.912
	c0.74-1.411,1.505-2.87,2.589-4.248c2.363-3.004,5.285-4.658,8.228-4.658c3.082,0,5.783,1.858,7.412,5.099
	c3.242,6.457,8.367,6.804,14.854,7.243c3.595,0.243,7.311,0.495,10.799,1.932c0.069,0.028,0.221,0.061,0.423,0.061
	c0.572,0,0.989-0.235,1.065-0.331c2.333-3.19,5.116-4.808,8.272-4.808c2.98,0,5.697,1.458,8.094,2.743
	c0.548,0.293,1.095,0.587,1.641,0.861c2.143,1.072,4.197,2.035,5.787,2.035c0.88,0,1.942-0.269,3.214-2.178
	c0.144-0.307,0.341-0.595,0.594-0.849l0.082-0.083c0.098-0.098,0.2-0.188,0.308-0.271c1.431-1.205,3.055-1.714,4.255-2.09
	c0.143-0.045,0.289-0.079,0.438-0.102c0.75-0.117,1.505-0.21,2.26-0.303c1.819-0.225,3.54-0.437,5.076-0.989
	c0.809-0.343,1.472-0.683,2.024-1.037c0.094-0.06,0.19-0.115,0.291-0.164l0.115-0.057c7.072-3.489,9.787-5.606,8.292-9.687
	c-4.403-12.005,2.068-17.64,9.717-21.94c1.721-0.968,3.847-2.518,4.201-4.404c0.342-1.821-0.993-3.918-2.175-5.358
	c-3.694-4.507-4.648-9.529-2.907-15.33c-2.388-13.467,0.743-24.083,9.559-32.423c1.815-2.911,0.816-5.264-1.215-9.407
	c-0.267-0.545-0.534-1.091-0.792-1.641c-4.447-9.512-2.52-19.091,4.586-22.78c5.028-2.608,5.954-5.971,6.024-11.207
	c-3.77,0.346-7.41,1.231-11.673,2.806c-1.401,0.518-2.85,0.781-4.303,0.781c-5.255,0-9.259-3.379-9.313-7.862
	c-0.062-5.466-1.586-5.706-8.035-5.843c-1.642-0.036-3.13-0.515-4.442-0.938c-0.823-0.265-1.601-0.516-2.29-0.617
	c-3.802-0.562-5.756-3.799-7.183-6.163c-0.48-0.797-1.268-2.102-1.717-2.431c-0.081,0.023-0.228,0.077-0.447,0.2
	c-5.023,2.804-9.942,4.213-16.448,4.714c-1.317,0.101-2.798,0.701-4.366,1.335c-0.692,0.281-1.385,0.56-2.076,0.807
	c-1.901,0.679-2.469,1.153-2.619,1.315c0.032,0.222,0.234,1.004,1.472,2.644c5.02,6.644,6.06,8.914-3.079,16.87l-0.117,0.102
	c-0.182,0.159-0.383,0.294-0.598,0.405c-7.816,4.021-13.179,14.535-11.434,22.263c5.762,10.357,1.206,18.934-2.818,26.513
	c-0.853,1.606-1.658,3.124-2.385,4.668c-0.088,0.189-0.196,0.368-0.322,0.534c-0.597,0.789-1.04,1.464-1.432,2.19
	c-3.057,5.358-5.845,10.906-8.285,16.49c-0.305,0.697-0.863,1.252-1.562,1.553c-1.408,0.607-2.792,0.915-4.111,0.915h-0.001
	c-4.002,0-6.522-2.674-8.548-4.822c-0.588-0.623-1.143-1.212-1.696-1.706c-0.141-0.125-0.27-0.264-0.384-0.414
	c-0.462-0.603-1.015-1.305-1.602-1.928c-0.555-0.579-1.077-1.039-1.592-1.401c-0.547-0.297-1.082-0.501-1.631-0.621
	c-0.372-0.055-0.748-0.082-1.147-0.082c-0.949,0-1.979,0.152-3.22,0.471c-2.225,0.592-4.421,0.728-6.464,0.786
	c-0.028,0-0.182,0-0.229-0.002c-0.796-0.039-1.667-0.057-2.665-0.057c-1.01,0-2.022,0.019-3.034,0.037
	c-1.048,0.019-2.097,0.038-3.145,0.038c-3.23,0-7.044-0.164-10.868-1.372c-0.985-0.257-1.859-0.413-2.665-0.475
	c-0.261-0.002-0.522-0.005-0.784-0.005c-5.026,0-5.605,0.949-5.798,3.278c-0.093,1.128-0.376,4.56,5.046,7.434
	c1.712,0.909,3.596,1.351,5.759,1.351c0.31,0,0.621-0.009,0.934-0.027c3.31-0.534,6.02-0.939,8.185-0.939
	c8.075,0,8.888,5.913,10.105,14.773c0.249,1.481,0.767,2.798,1.581,4.022c0.127,0.165,0.25,0.331,0.372,0.496
	c0.125,0.17,0.25,0.34,0.369,0.492l0.602,0.766c0.334,0.427,0.666,0.853,1.015,1.274c0.092,0.11,0.176,0.228,0.251,0.35
	c0.535,0.874,0.934,1.733,1.328,2.61c0.084,0.185,0.148,0.378,0.192,0.577c0.591,2.644,0.013,5.158-1.671,7.27
	c-0.072,0.091-0.15,0.177-0.232,0.259c-0.744,0.739-1.548,1.399-2.307,2.013c-0.128,0.104-0.265,0.196-0.408,0.277
	c-1.756,0.994-3.502,1.498-5.191,1.498c-0.206,0-0.412-0.008-0.619-0.023c-0.432-0.033-0.844-0.049-1.24-0.049
	c-5.958,0-7.206,3.597-8.898,9.954c-0.532,1.998-1.082,4.064-1.912,5.922c-1.334,2.986-1.39,6.5,7.167,11.95
	c3.374,2.151,6.992,4.25,10.871,4.25C404.739,286.633,405.404,286.574,406.063,286.458z"/>
<path id="arezzo"  fill="brown" d="M582.287,344.11c0.241-0.061,0.489-0.092,0.737-0.092
	c0.062,0,0.126,0.002,0.188,0.006c0.312,0.02,0.617,0.029,0.917,0.029c4.142,0,7.203-1.883,9.927-6.104
	c3.117-4.83,6.745-7.279,10.782-7.279c2.351,0,4.758,0.853,7.157,2.533c0.562,0.396,0.957,0.449,1.269,0.449
	c0.77,0,1.757-0.401,2.802-0.825l0.302-0.122c3.319-1.339,6.479-3.007,9.73-4.994c-3.916-0.488-7.652-2.107-9.319-7.474
	c-1.533-4.937-5.177-7.707-10.159-11.083c-10.513-7.13-11.314-10.578-5.045-21.7c1.343-2.384,3.181-5.648,5.897-7.829
	c0.832-0.667,1.693-1.217,2.525-1.749c1.079-0.689,2.556-1.633,2.675-2.218c0.026-0.128,0.095-0.859-1.137-2.659
	c-2.329-3.403,0.561-6.395,1.794-7.672c0.387-0.4,0.787-0.814,0.978-1.099c1.001-1.496,2.129-2.936,3.22-4.328
	c3.365-4.294,6.271-8.003,5.627-12.733c-1.637-12.02,5.703-17.106,13.099-20.496c1.636-0.75,2.985-1.423,3.967-2.425
	c-3.074,1.117-6.342,1.666-9.862,1.666c-4.205,0-8.34-0.792-11.473-1.483c-0.103-0.022-0.208-0.034-0.32-0.034
	c-0.643,0-1.516,0.36-2.44,0.741c-0.625,0.257-1.271,0.524-1.98,0.744c-2.395,0.743-4.572,1.104-6.658,1.104
	c-3.679,0-7.07-1.122-10.369-3.43c-1.847-1.293-3.888-2.384-6.05-3.539c-2.36-1.262-4.802-2.567-7.1-4.213
	c-2.434-1.743-4.104-2.455-5.767-2.455c-0.35,0-0.707,0.035-1.062,0.103c-1.53,0.293-3.053,0.442-4.523,0.442
	c-8.65,0-14.886-4.971-20.334-10.343c-1.402-1.382-2.726-2.851-4.004-4.271c-3.474-3.858-6.766-7.514-11.383-9.273
	c-0.694,0.172-1.3,0.254-1.858,0.254c-1.521,0-2.802-0.665-3.515-1.823c-0.628-1.019-0.662-2.115-0.479-3.08
	c-0.581,0.1-1.035,0.246-1.207,0.461c-0.018,0.022-0.414,0.551,0.025,2.627c0.012,0.054,0.978,5.386-2.49,6.36
	c-3.197,0.906-3.936,1.886-4.104,2.265c-0.412,0.924,0.348,2.781,1.229,4.634c0.559-0.878,1.522-1.388,2.529-1.388
	c0.311,0,0.624,0.048,0.932,0.149c1.365,0.446,2.223,1.796,2.046,3.221c-0.124,0.997-0.121,2.068-0.116,3.202
	c0.246,1.494,0.507,3.416-0.355,5.215c-0.336,1.652-0.936,3.111-1.825,4.449c-1.087,1.633-1.94,3.913,1.136,7.078
	c3.863,3.976,5.409,7.592,4.726,11.053c-0.69,3.492-3.549,6.286-8.741,8.542c-6.85,2.974-7.408,6.42-7.13,9.089l0.056,0.528
	c1.534,14.652,0.849,15.998-12.339,21.874c-0.406,0.314-0.808,0.571-1.172,0.805c-0.357,0.229-0.752,0.482-0.945,0.675
	c-0.33,2.633,1.085,3.894,3.912,6.141c1.58,1.256,3.364,2.675,4.613,4.613c3.032,3.75,3.614,8.154,4.129,12.047
	c0.41,3.102,0.797,6.035,2.329,8.357c1.562,1.992,3.817,3.357,6.203,4.802c1.76,1.064,3.577,2.164,5.256,3.591
	c5.391,3.188,10.105,7.297,14.666,11.271c7.66,6.675,14.895,12.979,25.046,15.216c1.257,0.276,2.458,0.61,3.62,0.933
	c2.324,0.646,4.52,1.255,6.663,1.255C580.622,344.423,581.458,344.321,582.287,344.11z"/>
<path id="pisa"  fill="orange" d="M368.157,366.194c7.707-6.533,16.811-7.566,25.615-8.565
	c1.216-0.139,2.429-0.275,3.635-0.429c6.936-0.878,9.378-3.242,9.333-9.033c-0.003-0.381,0.066-0.759,0.205-1.113
	c1.199-3.073,3.968-4.055,5.989-4.771c2.489-0.882,2.494-1.098,2.516-2.002c0.002-0.086,0.008-0.172,0.017-0.257
	c0.345-3.13-0.258-3.748-0.284-3.773c-10.033-9.619-6.021-19.402-1.406-26.85c2.031-3.279,1.393-6.589-2.214-11.383
	c-0.769-0.729-1.425-1.503-2.062-2.253c-1.703-2.008-2.674-3.056-4.435-3.062c-0.138,0-0.276-0.01-0.413-0.03
	c-5.091-0.724-9.23-3.157-13.233-5.509l-0.799-0.469c-10.321-6.042-9.977-10.52-8.216-20.073c0.171-0.929,0.354-1.922,0.538-2.991
	c2.272-13.167,10.101-13.484,17.009-13.763c0.562-0.023,1.133-0.046,1.713-0.075c0.417-0.021,1.556-0.905,2.167-1.38
	c0.091-0.07,0.182-0.141,0.271-0.21c0.781-1.724,0.762-3.293-0.059-4.979c-0.538-0.518-1.081-1.061-1.62-1.621
	c-3.453-2.096-5.336-5.292-7.004-8.123c-1.116-1.893-2.169-3.68-3.642-5.056l-0.217-0.216c-1.414-1.412-2.876-2.872-4.221-2.982
	c-7.54-0.618-16.789-2.749-21.428-13.838c-0.562-1.344-1.103-1.344-1.579-1.344c-1.35,0-3.383,0.923-4.58,1.482
	c-0.594,0.377-1.182,0.765-1.77,1.152c-2.905,1.912-5.907,3.889-9.666,4.823c-2.337,0.762-4.794,1.132-7.509,1.132
	c-3.258,0-6.422-0.533-9.483-1.048c-2.229-0.375-4.335-0.73-6.444-0.887c-0.45-0.033-0.886-0.167-1.276-0.393
	c-3.715-2.141-4.503-5.733-5.136-8.62c-0.515-2.347-0.878-3.767-2.06-4.575c-2.739-0.857-5.519-1.274-8.484-1.274
	c-2.799,0-5.669,0.372-8.766,1.136c-0.503,0.269-0.891,0.886-1.499,1.899c-0.107,0.18-0.215,0.359-0.325,0.537
	c0.073,0.245,0.114,0.499,0.123,0.758l0.242,7.583c0.885,1.903,0.932,3.909,0.97,5.559c0.059,2.54,0.176,3.422,1.344,4.161
	c0.456,0.289,0.826,0.695,1.071,1.176c1.095,2.154,1.174,4.539,0.229,6.896c-0.173,0.431-0.443,0.816-0.79,1.125
	c-1.831,1.63-1.915,1.972-1.617,2.559c0.643,0.858,1,1.864,1.042,2.919c1.329,3.688,1.358,7.19,0.09,10.435
	c0.033,0.284,0.038,0.57,0.014,0.854c0.294,0.578,0.566,1.069,0.873,1.339c0.614,0.257,1.228,0.377,1.913,0.377
	c1.372,0,2.891-0.498,4.499-1.024c0.841-0.276,1.71-0.561,2.617-0.795c0.859-0.31,1.541-0.601,2.134-0.914
	c0.031-0.016,0.062-0.032,0.093-0.047c0.81-0.391,1.609-0.809,2.408-1.226c3.062-1.597,6.229-3.249,10.084-3.701
	c0.034-0.004,0.073-0.008,0.106-0.011c1.325-0.11,2.695-0.225,4.104-0.225c2.229,0,4.086,0.287,5.845,0.904
	c0.496,0.174,0.938,0.475,1.281,0.873c4.627,5.372,0.93,9.817-1.057,12.206c-0.279,0.335-0.557,0.669-0.817,1.003l-0.328,0.421
	c-2.399,3.085-4.668,6.002-5.611,9.475c-1.326,13.163-2.517,25.593,6.773,36.1c2.135,2.416,3.341,5.685,3.583,9.718
	c0.416,3.676,2.108,6.91,4.501,10.601c0.604,0.905,1.138,1.595,1.649,2.133c0.695,0.707,1.355,1.267,1.942,1.659
	c0.854,0.531,1.64,0.932,2.315,1.19c0.251,0.087,0.506,0.181,0.762,0.274c0.647,0.239,1.38,0.51,1.846,0.51c0.003,0,0.006,0,0.009,0
	c1.57-0.341,2.952-0.507,4.226-0.507c9.324,0,9.363,8.677,9.386,13.86l0.006,1.053c0.025,3.098-1.196,5.553-2.274,7.718
	c-0.698,1.404-1.358,2.729-1.562,4.027c-0.644,4.122,0.211,6.921,2.775,9.075c1.024,0.861,1.934,1.315,2.631,1.315
	C367.048,366.816,367.498,366.752,368.157,366.194z"/>
<path id="lucca"  fill="yellow" d="M346.473,213.229c0.033-0.008,0.067-0.016,0.1-0.023
	c3.397-0.703,6.188-2.886,9.142-5.197l0.905-0.706c2.204-1.778,4.821-2.23,7.129-2.63c3.078-0.532,4.435-0.906,5.244-2.46
	c-0.092-0.374-0.229-0.722-0.411-1.051c-1.129-1.57-2.443-3.024-3.833-4.562c-2.04-2.256-4.15-4.59-5.792-7.459
	c-3.785-6.617-4.703-17.141-2.183-25.024c1.444-4.519,3.885-7.682,7.058-9.146c6.448-2.977,6.548-5.917,4.3-11.794
	c-0.354-0.919-0.631-1.828-0.898-2.707c-0.481-1.582-0.903-2.969-1.652-4.097c-1.131-0.665-2.335-0.964-3.837-0.964
	c-1.54,0-3.192,0.317-4.941,0.652c-0.869,0.167-1.738,0.333-2.649,0.472c-0.778,0.107-1.557,0.162-2.315,0.162
	c-6.833,0-11.484-4.222-15.308-8.18c-6.069-6.286-12.104-12.791-17.941-19.081c-1.94-2.091-3.88-4.183-5.825-6.269
	c-5.346-5.736-9.485-8.183-13.839-8.183c-2.256,0-4.581,0.667-7.103,2.039c-9.972,6.5-12.839,15.475-8.521,26.676
	c3,7.785,4.84,16.951-4.262,25.901c-2.022,1.99-2.093,5.481-2.167,9.177l-0.028,1.231c-0.008,0.222-0.02,0.444-0.031,0.667
	c-0.024,0.461-0.062,1.159-0.028,1.306l0.122,0.093c0.466,0.354,0.801,0.817,0.994,1.327c0.197,0.226,0.45,0.472,0.725,0.739
	c0.15,0.146,0.3,0.292,0.447,0.439c0.8,0.761,1.525,1.604,2.131,2.47c1.282,1.004,1.721,2.374,2,3.242
	c0.042,0.128,0.092,0.285,0.136,0.409c0.028,0.021,0.259,0.212,0.259,0.212c0.415,0.343,0.716,0.777,0.895,1.251
	c0.17,0.202,0.384,0.407,0.651,0.625c0.246,0.144,0.476,0.325,0.68,0.544l0.097,0.104c0.093,0.1,0.179,0.205,0.255,0.313
	c0.533,0.644,1.062,1.291,1.59,1.938c0.812,0.858,1.249,1.948,1.255,3.1c0.174,0.368,0.544,0.794,0.996,1.292
	c0.081,0.089,0.156,0.184,0.225,0.282c0.633,0.895,0.956,1.922,0.951,2.978c0.518,1.277,0.693,2.57,0.851,3.737
	c0.326,2.406,0.535,2.867,1.492,3.285c0.275,0.12,0.529,0.281,0.755,0.476c2.026,1.698,2.126,4.014,2.187,5.403
	c0.014,0.334,0.035,0.813,0.086,1.056c0.064,0.055,0.126,0.113,0.186,0.175c0.24,0.246,0.408,0.292,0.633,0.292
	c0.047,0,0.095-0.002,0.144-0.007c0.091-0.008,0.183-0.013,0.274-0.013c0.007,0,0.015,0,0.022,0
	c1.584,0.012,3.167,0.016,4.751,0.016l7.656-0.009c2.326,0,4.652,0.008,6.978,0.038c0.592,0.007,1.169,0.19,1.658,0.525
	c3.396,2.328,4.158,6.027,4.77,9c0.701,3.408,1.185,4.912,3.076,5.68c0.682-0.046,1.382-0.069,2.124-0.069
	c2.275,0,4.513,0.218,6.677,0.429c2.116,0.207,4.114,0.401,6.1,0.401C343.433,213.752,345.022,213.582,346.473,213.229z"/>
<path id="massa"  fill="pink" d="M270.856,155.962c0.219-0.052,0.41-0.137,0.586-0.261
	c0.297-0.595,0.511-1.185,0.65-1.792c0.022-0.096,0.049-0.191,0.081-0.285c0.2-0.594,0.355-1.273,0.52-1.992
	c0.534-2.33,1.199-5.229,3.934-7.303c5.339-4.046,6.004-8.109,2.738-16.724c-1.826-4.811-7.382-19.452,4.469-30.587
	c0.072-0.068,0.092-0.106,0.092-0.106l0,0c0.014-0.06-0.016-0.422-0.41-0.996c-0.032-0.046-0.062-0.094-0.092-0.142
	c-3.181-5.236-7.939-9.419-14.972-13.164c-6.479-3.449-13.4-7.19-20.122-11.169c-4.925-2.915-8.049-6.816-9.831-12.279
	c-3.245-9.949-7.237-11.291-10.715-11.291c-2.562,0-5.711,0.827-9.627,2.527c-0.64,0.278-1.271,0.576-1.903,0.873
	c-0.684,0.321-1.367,0.642-2.062,0.944c-8.544,3.705-10.164,11.315-11.395,20.878c-0.229,1.787,0.6,2.939,3.55,4.93
	c1.145,0.772,2.349,1.481,3.624,2.231c3.625,2.132,7.374,4.337,10.107,8.244c2.399,3.416,2.572,7.219,0.516,11.312
	c-0.113,0.388-0.252,0.764-0.396,1.121c0.53-0.422,1.188-0.653,1.868-0.653c0.007,0,4.496,0.037,4.496,0.037
	c0.282,0.002,0.562,0.045,0.833,0.125c4.597,1.373,5.088,5.326,5.352,7.45c0.077,0.618,0.161,1.296,0.306,1.74l3.599,1.839
	c0.286,0.146,0.547,0.337,0.772,0.566c0.147,0.068,0.519,0.164,0.771,0.229c0.994,0.256,2.485,0.64,3.676,1.966
	c0.192,0.188,0.383,0.377,0.573,0.567c0.485,0.483,0.944,0.94,1.409,1.341c0.114,0.094,0.222,0.198,0.323,0.311
	c0.037,0.041,0.073,0.083,0.107,0.126c0.319,0.366,0.659,0.712,0.998,1.059c0.287,0.294,0.573,0.588,0.893,0.937
	c0.743,0.696,1.444,1.423,2.088,2.163c0.25,0.147,0.936,0.182,1.546,0.212c1.186,0.06,2.721,0.137,4.197,0.976
	c0.984,0.064,1.912,0.386,2.762,0.958c0.031,0.021,0.061,0.042,0.091,0.063c0.857,0.624,1.695,1.327,2.492,2.091l0,0
	c0.087,0.081,0.17,0.168,0.248,0.261c0.256,0.304,0.441,0.644,0.556,1c1.922,4.455,1.866,8.901-0.169,13.223
	c-0.067,0.147-0.146,0.291-0.238,0.428c-0.18,0.27-0.396,0.501-0.639,0.691c-0.4,0.376-0.687,0.698-0.889,1.002
	c-0.028,0.676-0.186,1.335-0.469,1.957c0.078,0.056,0.156,0.111,0.223,0.158c0.424,0.299,0.905,0.639,1.369,1.088
	c0.062,0.06,0.12,0.121,0.175,0.185l0.262,0.266c0.461,0.471,0.901,0.919,1.34,1.284c0.145,0.096,0.283,0.206,0.413,0.33
	l0.083,0.079c0.171,0.163,0.317,0.34,0.44,0.529c0.37,0.442,0.733,0.806,1.099,1.1c0.231,0.131,0.449,0.295,0.646,0.491l0.104,0.104
	c0.194,0.194,0.355,0.408,0.484,0.635c0.266,0.336,0.543,0.618,0.837,0.85c0.299,0.148,0.578,0.348,0.823,0.6l0.117,0.121
	c0.207,0.212,0.375,0.449,0.507,0.7c0.212,0.271,0.441,0.503,0.689,0.699c0.331,0.151,0.64,0.365,0.907,0.64l0.128,0.132
	c0.241,0.249,0.432,0.53,0.57,0.83c0.109,0.141,0.224,0.267,0.348,0.38c0.587,0.195,1.118,0.573,1.501,1.114
	C270.832,155.932,270.845,155.948,270.856,155.962z"/>
<path id="pistoia"  fill="violet" d="M402.807,204.135c3.642-1.254,7.273-2.529,10.901-3.802
	c4.463-1.567,7.089-3.369,8.027-5.507c0.823-1.875,0.55-4.355-0.837-7.581c-3.527-8.206,0.956-14.848,4.635-19.13l0.226-0.262
	c0.892-1.035,3.258-3.784,3.187-4.695c0,0-0.035-0.052-0.149-0.139c-8.368-6.417-5.071-13.002-2.89-17.36
	c0.413-0.827,0.813-1.625,1.141-2.396c-0.776-0.792-1.678-1.533-2.614-2.302c-2.14-1.758-4.565-3.751-6.149-6.917
	c-0.255-0.51-0.473-0.821-0.627-1.003c-0.273,0.252-0.701,0.757-1.198,1.655c-0.315,0.57-0.599,1.157-0.88,1.737
	c-1.505,3.102-3.566,7.351-9.656,7.493c-0.57,0.014-1.139,0.022-1.704,0.022c-3.938,0-8.519-0.398-12.638-3.351
	c-4.351-3.118-8.85-6.341-13.241-9.834c-2.536-2.017-4.826-2.997-7-2.997c-1.296,0-2.597,0.346-3.941,1.051
	c9.813,15.739,9.484,18.968-3.088,31.258c-0.377,0.368-0.717,0.93-1.043,1.725c-4.904,11.9-4.493,20.145,1.374,27.567
	c1.026,1.297,2.199,2.504,3.441,3.781c2.058,2.117,4.186,4.305,5.802,7.097c0.024,0.04,0.14,0.246,0.14,0.246
	c0.102,0.183,0.182,0.373,0.242,0.565c0.387,0.806,0.896,0.971,3.359,1.032c1.702,0.042,3.758,0.093,5.633,1.172
	c2.856,0.063,5.708,0.253,8.475,0.437c3.292,0.219,6.697,0.446,10.007,0.446C402.095,204.144,402.451,204.141,402.807,204.135z"/>
<path id="prato"  fill="black" d="M430.632,213.266c0.006-0.013,0.022-0.07,0.028-0.175
	c0.296-5.761,3.328-9.979,6.003-13.701c0.787-1.095,1.534-2.135,2.212-3.198c0.042-0.08,0.087-0.159,0.137-0.237
	c4.492-7.052,8.851-15.566,7.438-25.485c-2.95-3.184-4.366-6.301-4.325-9.505c0.045-3.415,1.725-6.655,5.135-9.907
	c2.417-2.308,3.468-5.558,3.996-9.663l-1.286-0.001c-6.059,0-11.053,0.254-15.477,3.433c-3.347,2.983-6.479,5.784-6.529,6.772
	c-0.044,0.877,2.55,3.711,4.837,6.21c1.596,1.742,2.341,3.574,2.215,5.444c-0.202,2.986-2.563,4.953-3.976,6.129
	c-6.553,5.455-7.922,11.956-4.185,19.875c1.582,3.355,1.848,6.102,0.812,8.396c-1.387,3.073-4.658,4.363-7.354,5.145
	c-0.287,0.083-0.588,0.164-0.896,0.246c-0.579,0.155-1.565,0.419-2.086,0.67c0.056,0.162,0.153,0.394,0.321,0.703
	c0.604,0.582,1.202,1.182,1.787,1.792c0.075,0.07,0.147,0.144,0.217,0.223l0.092,0.104c0.188,0.214,0.34,0.447,0.456,0.692
	c1.909,2.898,4.779,4.905,9.199,6.43C430.23,213.549,430.582,213.324,430.632,213.266z"/>
<path id="livorno"  fill="#84869B" d="M254.264,432.35l-0.838-0.014
	c-1.192,0.381-2.077,1.167-2.825,2.136l0.083-0.082c-0.854,0.67-1.626,1.419-2.258,2.306l0.097-0.104
	c-1.013,0.742-1.812,1.643-2.143,2.888l0.018,0.836c0.85,1.59,0.694,3.574,1.955,5.001l0.004,0.007
	c1.36,1.135,0.912,3.253,2.359,4.337l-0.113-0.119c1.353,1.415,2.798,1.417,4.312,0.275l0.988-0.275l1.022,0.083
	c3.395-2.453,7.709,0.284,11.139-1.971c1.3-0.115,2.601-0.226,3.901-0.341c3.427-2.499,7.704-2.768,11.476-4.369l-0.117,0.064
	c1.569-1.189,3.145-1.15,4.73-0.027l-0.094-0.092c0.551,0.698,1.264,1.135,2.139,1.3c0.857,0.207,1.691,0.136,2.5-0.225
	c1.08-1.372,2.761-1.921,4.043-3.01l0.721-0.262l0.763,0.097c4.024-2.761-0.126-7.758,2.947-10.778l0.028-0.048
	c1.215-1.418,0.967-3.411,1.937-4.925l0.018-0.917c-1.02-2.205-2.545-1.923-4.229-0.854l-0.071,0.073
	c-0.657,0.779-1.36,1.514-2.111,2.205l-0.011,0.012c-0.699,0.772-1.452,1.488-2.16,2.254l0.035-0.037
	c-0.774,0.742-1.578,1.452-2.166,2.366l0.126-0.138c-2.251,1.688-0.365,4.84-2.343,6.625l0.034-0.028
	c-2.196,1.369-4.369,1.812-6.482-0.16l-0.147-0.085c-0.811-0.572-1.507-1.262-2.102-2.052l-0.071-0.114
	c-1.291-1.08-2.013-3.147-4.31-2.502c-0.434,0.452-0.965,0.68-1.592,0.678c-1.259,0.333-2.167,1.121-2.867,2.187l0.126-0.114
	c-0.937,0.567-1.649,1.378-2.38,2.168l0.042-0.029c-2.251,1.61-4.514,1.481-6.788,0.06l0.097,0.062
	c-1.252-1.49-3.329-1.171-4.799-2.182c-0.666,0.068-1.275-0.093-1.824-0.482C256.168,433.403,255.374,432.616,254.264,432.35z
	 M373.158,391.575c-0.429-0.728-4.605-1.613-8.29-2.396c-0.752-0.159-1.414-0.602-1.849-1.234c-1.497-2.175-1.634-4.612-1.744-6.569
	c-0.126-2.242-0.264-3.225-1.134-3.93c-11.063-8.981-6.902-18.411-2.81-24.721c2.384-3.68,1.723-9.536,0.058-13.624
	c-0.589,0.084-1.476,0.371-2.271,0.631c-1.453,0.472-3.1,1.007-4.761,1.008c0,0-0.001,0-0.001,0c-0.125,0-0.249-0.004-0.369-0.01
	c-0.189-0.009-0.364-0.04-0.548-0.057c-0.405-1.316-1.143-3.46-1.722-3.691c-0.842-0.337-4.379-3.368-6.232-4.548
	s-3.537-3.873-4.739-6.399s-1.661-4.885-2.167-6.569s-1.179-4.716-1.516-5.727s-1.853-3.873-3.2-4.547s-1.516-3.032-2.527-4.379
	s-2.358-4.042-2.695-4.813s-4.105-10.177-4.105-10.177c-0.002-1.457,0.03-2.896,0.061-4.307c0.038-1.721,0.078-3.5,0.054-5.3
	c-0.037-2.89-0.075-5.878,0.083-8.864c0.015-0.288,0.072-0.573,0.168-0.845c1.534-4.323,4.337-7.471,7.047-10.515
	c0.767-0.861,1.535-1.723,2.27-2.612c1.261-1.526,1.285-2.234,1.306-2.234c-0.118-0.172-0.883-0.719-2.867-1.046
	c-1.013-0.167-2.052-0.251-3.09-0.251c-5.077,0-9.961,2.004-14.932,4.24c-1.598,0.851-3.224,1.464-4.799,2.058
	c-1.235,0.465-2.411,0.909-3.505,1.439c-0.05,0.232-0.086,0.627-0.112,0.909c-0.07,0.758-0.159,1.734-0.561,2.737
	c-0.062,0.862-0.313,1.689-0.744,2.444c-0.93,3.136-0.901,5.774,0.091,8.26c0.402,0.746,0.616,1.548,0.637,2.372
	c0.154,0.229,0.346,0.479,0.553,0.749c0.191,0.249,0.381,0.498,0.563,0.753c1.224,1.031,1.65,2.384,1.92,3.242
	c0.053,0.168,0.121,0.383,0.174,0.521c0.051,0.043,0.102,0.089,0.151,0.137l0.138,0.133c0.241,0.233,0.435,0.499,0.581,0.783
	c0.223,0.276,0.467,0.519,0.738,0.731c0.297,0.149,0.575,0.35,0.818,0.601l0.122,0.126c0.209,0.217,0.38,0.459,0.512,0.716
	c0.18,0.235,0.366,0.427,0.565,0.583c0.403,0.16,0.776,0.41,1.088,0.746l0.128,0.138c0.25,0.27,0.442,0.574,0.576,0.898
	c0.105,0.14,0.221,0.258,0.352,0.358c0.398,0.145,0.771,0.375,1.087,0.69l0.129,0.128c0.323,0.321,0.56,0.7,0.707,1.105
	c0.109,0.142,0.241,0.27,0.4,0.388c0.309,0.134,0.6,0.322,0.858,0.564l0.133,0.125c0.333,0.312,0.581,0.686,0.739,1.087
	c0.183,0.228,0.44,0.486,0.708,0.755c0.166,0.166,0.332,0.333,0.493,0.502c1.213,1.101,1.63,2.475,1.91,3.395
	c0.067,0.221,0.163,0.536,0.234,0.699c0.083,0.071,0.163,0.146,0.239,0.227l0.119,0.126c0.181,0.191,0.333,0.401,0.454,0.623
	c0.124,0.152,0.274,0.32,0.429,0.494c0.329,0.367,0.723,0.807,1.083,1.336c1.902,2.353,5.728,16.279,6.387,18.715
	c0.008,0.044,0.011,0.103,0.02,0.143c0.026,0.115,0.052,0.182,0.08,0.227l10.91,17.743c0.029,0.12,0.08,0.243,0.206,0.392
	c0.062,0.072,0.12,0.148,0.175,0.227c0.579,0.832,0.885,1.775,0.904,2.747c0.661,1.429,0.742,2.872,0.805,3.986
	c0.048,0.858,0.09,1.601,0.343,1.944c0.335,0.457,0.535,1.001,0.574,1.567l0.28,4.032c1.624,10.14,1.671,20.491,0.144,31.624
	c0.242,1.207,0.014,2.428-0.67,3.515c-0.146,0.232-0.323,0.443-0.526,0.627c-0.054,0.22-0.069,0.726-0.08,1.07
	c-0.043,1.369-0.113,3.606-2.01,5.297c-0.071,0.122-0.181,0.529-0.253,0.799c-0.265,0.979-0.654,2.415-1.921,3.574l-0.146,0.166
	c-0.391,0.443-0.741,0.841-0.926,1.177c0.021,1.163-0.402,2.267-1.201,3.106c-0.069,0.119-0.173,0.536-0.242,0.812
	c-0.235,0.945-0.581,2.333-1.73,3.501c-0.516,0.828-0.639,1.656,0.129,2.958c0.557,0.819,0.841,1.751,0.833,2.711
	c0.075,0.119,0.165,0.227,0.273,0.326c0.11,0.052,0.219,0.11,0.325,0.177c1.29,0.808,1.983,0.991,2.249,1.032
	c0.319-0.454,0.707-1.689,0.948-2.456c0.348-1.107,0.708-2.252,1.279-3.31c0.112-0.206,0.247-0.398,0.403-0.573
	c0.935-1.044,2.197-1.627,3.562-1.646c2.648-0.752,5.117-1.118,7.532-1.118c2.484,0,4.908,0.405,7.215,1.207
	c0,0,0.521-0.022,0.566-0.022c0.326,0,0.65,0.053,0.96,0.158l0.974,0.329c0.304,0.103,0.59,0.253,0.846,0.446
	c0.27,0.203,0.857,0.342,1.478,0.488c0.666,0.157,1.451,0.343,2.258,0.694c0,0,0.191-0.003,0.21-0.003
	c0.417,0,0.83,0.087,1.212,0.256l0.822,0.363c0.133,0.059,0.262,0.127,0.385,0.205c0.433,0.271,0.647,0.302,0.648,0.309
	c0.039-0.017,0.391-0.187,1.019-1.127c1.405-2.58,2.267-5.432,3.179-8.449l0.304-1.001
	C372.27,396.797,373.622,392.36,373.158,391.575z"/>
</svg>
