<svg version="1.1" id="trentino" width="100%" height="100%" viewBox="0 0 800 600" preserveAspectRatio="none">
<path id="bolzano" fill="red" d="M363.159,337.148c-2.347,0-4.494-0.893-6.564-2.729
	c-5.505-4.885-6.111-10.103-1.802-15.51c3.363-4.221,5.177-8.711,5.391-13.348c0.292-7.615,0.277-14.636-0.042-21.486
	c-0.004-0.091-0.012-0.18-0.023-0.266c-0.929-7.271-3.625-17.094-16.27-18.448c-2.265-0.242-4.264-1.874-6.29-5.136
	c-2.719-4.371-6.426-6.587-11.019-6.587c-1.761,0-3.602,0.325-5.629,0.993c-0.82,0.271-1.502,0.849-1.902,1.614
	c-2.698,5.161,0.815,8.087,2.315,9.336c0.33,0.274,0.671,0.559,0.836,0.752c0.284,0.331,0.581,0.663,0.879,0.997
	c2.759,3.085,2.527,3.347,1.667,4.32c-0.639,0.722-1.367,1.058-2.296,1.058c-1.129,0-2.495-0.522-3.654-1.396
	c-4.3-3.246-8.218-4.824-11.975-4.824c-6.74,0-11.594,5.122-14.659,8.977c-1.699,2.137-3.947,3.313-6.33,3.313
	c-2.89,0-5.632-1.74-7.337-4.656c-2.066-3.529-5.023-7.578-9.604-7.578c-2.729,0-5.437,1.4-8.781,4.539l-0.625,0.592
	c-1.38,1.317-2.944,2.81-4.15,2.81c-0.518,0-1.143-0.269-1.858-0.799c-0.435-0.322-0.941-0.534-1.477-0.615l-0.716-0.106
	c-2.266-0.335-4.407-0.651-5.625-1.801c-6.893-6.499-15.261-9.312-23.355-12.033c-3.374-1.135-6.564-2.207-9.668-3.533
	c-0.544-0.316-0.895-0.576-1.115-0.767c0.232-0.226,0.621-0.546,1.254-0.948c0.025-0.016,0.05-0.032,0.074-0.048
	c2.742-1.746,4.693-3.818,5.959-6.331c0.16-0.319,0.269-0.661,0.32-1.014c0.858-5.869,0.881-11.98,0.069-18.682
	c-0.089-0.743-0.428-1.432-0.957-1.957c-0.056-0.156-0.128-0.448-0.185-0.67c-0.256-1.021-0.704-2.809-2.312-4.089
	c-0.708-0.989-1.499-1.949-2.355-2.856c-0.148-0.157-0.308-0.297-0.476-0.418c-0.426-0.37-0.803-0.711-1.069-1.038
	c-0.194-0.535-0.528-1.025-0.993-1.413l-0.16-0.133c-0.287-0.24-0.604-0.423-0.939-0.552c-0.326-0.234-0.685-0.577-1.084-0.959
	c-0.178-0.17-0.356-0.34-0.537-0.507c-0.564-0.52-1.29-0.828-2.056-0.872l-2.519-0.146c2.077-2.418,1.962-5.265,1.885-7.197
	c-0.053-1.312-0.063-2.141,0.247-2.554c0.376-0.499,0.603-1.094,0.655-1.717l0.54-6.481c0.076-0.24,0.22-0.501,0.56-0.8
	c0.445-0.207,0.851-0.517,1.178-0.923c1.06-1.312,1.417-2.765,1.678-3.825c0.109-0.442,0.273-1.11,0.401-1.245
	c0.557-0.587,0.88-1.357,0.908-2.166l0.22-6.246c1.515-2.494,1.296-5.235,1.131-7.307c-0.156-1.955-0.138-2.814,0.217-3.374
	c0.709-0.116,1.382-0.383,1.994-0.793c1.364-0.507,2.525-0.753,3.54-0.753c1.121,0,2.1,0.295,3.082,0.927
	c0.161,0.104,0.327,0.191,0.496,0.264c2.211,1.12,4.299,1.665,6.375,1.665c2.375,0,4.645-0.737,6.745-2.19l0.156-0.107
	c1.14-0.804,2.142-1.733,3.011-2.786c0.836-0.708,1.653-1.467,2.433-2.261c0.636-0.41,1.506-0.492,2.837-0.492l1.301,0.008
	c1.688,0,3.464-0.121,5.194-0.883c0.679,0.26,1.333,0.421,1.899,0.561c0.514,0.127,1.138,0.281,1.378,0.438
	c0.039,0.051,0.307,0.363,0.307,0.363c0.346,0.4,0.768,0.698,1.226,0.89c0.193,0.186,0.31,0.371,0.389,0.554l0.283,11.327
	c0.013,0.537,0.156,1.065,0.419,1.536c1.375,2.466,3.385,4.529,6.144,6.306c0.813,0.557,1.825,0.875,2.854,0.875
	c0.061,0,0.122-0.001,0.183-0.003c1.552,0.637,3.088,0.732,4.376,0.814c1.049,0.065,1.961,0.123,2.503,0.446
	c0.904,0.675,1.946,1.063,3.04,1.138c1.637,0.786,3.279,0.88,4.645,0.957c1.203,0.069,1.962,0.134,2.369,0.45
	c0.561,0.438,1.247,0.683,1.958,0.7l13.962,0.345c2.338,1.035,4.627,1.178,6.407,1.178c0.833,0,1.669-0.036,2.507-0.073
	c0.738-0.034,1.475-0.067,2.209-0.067c1.735,0,2.904,0.208,3.906,0.697c0.152,0.074,0.311,0.138,0.473,0.188
	c1.575,0.487,3.138,0.735,4.647,0.735c1.879,0,3.718-0.382,5.466-1.132c0.102-0.044,0.202-0.093,0.3-0.146
	c1.228-0.682,2.271-1.587,3.107-2.699c2.223-1.892,2.301-4.462,2.349-6.035c0.012-0.405,0.031-1,0.096-1.25
	c0.287-0.247,0.55-0.556,0.738-0.882c0.559-0.972,0.808-2.038,0.738-3.108c1.158-2.476,2.339-4.481,4.034-6.082
	c0.411-0.389,0.702-0.859,0.869-1.362c0.269-0.342,0.629-0.705,1.025-1.104l0.31-0.313c0.563-0.573,0.898-1.331,0.945-2.132
	l0.221-3.774c0.475-0.988,0.705-1.963,0.899-2.781c0.167-0.703,0.323-1.367,0.556-1.658c0.036-0.045,0.071-0.092,0.105-0.139
	c0.682-0.949,1.051-2.014,1.097-3.133c1.024-2.194,1.012-4.418,1.001-6.252c-0.007-1.265-0.013-2.382,0.302-3.222
	c0.898-0.665,1.707-1.412,2.413-2.231c0.255-0.161,0.828-0.313,1.338-0.448c1.091-0.289,2.448-0.647,3.732-1.635
	c0.464-0.355,0.808-0.812,1.025-1.313c0.294-0.384,0.667-0.781,1.081-1.222l0.511-0.547c0.507-0.554,0.811-1.261,0.864-2.01
	l0.211-2.992c0.43-0.323,0.831-0.401,1.302-0.401c0.927,0,2.117,0.35,3.377,0.72c0.359,0.105,0.719,0.211,1.078,0.311
	c0.289,0.08,0.588,0.122,0.888,0.122c0.011,0,5.262-0.05,5.262-0.05c0.771-0.006,1.517-0.282,2.107-0.779
	c0.094-0.047,0.57-0.161,0.885-0.237c1.152-0.275,2.851-0.683,4.211-2.19l0.097-0.087c0.558-0.506,1.057-0.958,1.508-1.207
	c0.983-0.01,1.927-0.283,2.769-0.799c2.025-0.619,3.644-0.909,5.062-0.909c1.476,0,2.804,0.321,4.051,0.981
	c0.8,0.68,1.649,1.311,2.532,1.878c0.955,0.706,2.05,1.131,3.208,1.247c1.56,0.784,3.244,1.182,5.013,1.182
	c1.931,0,3.745-0.479,5.122-0.941c0.07,0.003,0.141,0.004,0.21,0.004c1.208,0,2.348-0.428,3.299-1.239
	c0.059-0.049,0.115-0.101,0.169-0.154l0.28-0.274c0.479-0.473,0.908-0.896,1.321-1.203c0.381-0.154,0.735-0.382,1.047-0.681
	l0.153-0.147c0.33-0.317,0.582-0.688,0.75-1.088c0.188-0.24,0.395-0.447,0.632-0.628c0.374-0.158,0.727-0.388,1.032-0.688
	l0.154-0.151c0.326-0.32,0.576-0.693,0.741-1.094c0.196-0.253,0.435-0.493,0.723-0.729c0.369-0.183,0.71-0.438,1-0.766
	c0.036-0.039,0.069-0.074,0.098-0.104c0.053,0.035,0.111,0.078,0.18,0.132l0.476,0.475c0.635,0.635,1.269,1.269,1.918,1.887
	c0.861,0.938,1.844,1.796,2.922,2.55c0.213,0.149,0.444,0.273,0.688,0.369c1.634,0.641,3.309,0.966,4.98,0.966
	c1.763,0,3.541-0.362,5.286-1.075c0.191-0.079,0.377-0.176,0.55-0.288c1.124-0.729,2.154-1.564,3.062-2.48
	c0.096-0.098,0.185-0.2,0.268-0.306c0.63-0.688,1.273-1.327,1.92-1.907c0.093-0.074,0.183-0.154,0.269-0.24
	c0.074-0.073,0.144-0.148,0.209-0.228c0.441-0.512,0.888-0.935,1.351-1.276l2.232,0.076c0.231,0.096,0.424,0.232,0.596,0.423
	c0.198,0.479,0.511,0.919,0.934,1.272l0.172,0.145c0.277,0.235,0.587,0.416,0.912,0.545c0.288,0.221,0.589,0.538,0.927,0.946
	c0.235,0.396,0.561,0.75,0.973,1.028c1.773,1.201,3.719,1.811,5.778,1.811c1.565,0,3.202-0.351,4.983-1.071
	c0.223,0.102,0.473,0.276,0.758,0.601c0.189,0.372,0.451,0.713,0.783,1.001c1.309,1.135,2.783,1.512,3.861,1.786
	c0.402,0.103,1.01,0.257,1.154,0.37c0.63,0.686,1.508,1.067,2.434,1.067c0.059,0,0.117-0.001,0.175-0.004l5.122-0.267
	c0.721-0.038,1.409-0.311,1.963-0.775c0.707-0.595,1.429-1.161,2.146-1.687c0.148-0.087,0.289-0.187,0.425-0.298l0.165-0.136
	c0.4-0.331,0.705-0.738,0.907-1.183c0.247-0.28,0.475-0.413,0.69-0.486l8.855-0.378c0.806-0.034,1.572-0.361,2.153-0.92
	c0.138-0.1,0.725-0.247,1.114-0.345c1.138-0.286,2.697-0.677,4.054-1.957c0.232-0.219,0.427-0.465,0.581-0.728
	c0.404-0.481,0.805-0.878,1.211-1.201c0.256-0.141,0.495-0.317,0.714-0.53l0.127-0.125c0.231-0.224,0.423-0.475,0.574-0.741
	c0.266-0.331,0.525-0.601,0.791-0.817c0.438-0.176,0.847-0.448,1.188-0.814l0.187-0.198c0.083-0.091,0.162-0.185,0.234-0.28
	c0.244-0.135,0.844-0.286,1.263-0.392c0.658-0.167,1.431-0.361,2.225-0.713c1.172-0.067,2.288-0.485,3.247-1.218
	c0.031-0.023,0.06-0.046,0.089-0.071c0.127-0.077,0.648-0.204,0.993-0.287c1.18-0.286,2.955-0.717,4.358-2.303
	c0.62-0.622,1.07-1.017,1.477-1.184c1.27-0.076,2.438-0.588,3.363-1.467c0.869-0.59,1.663-1.284,2.367-2.072
	c0.854-0.403,1.881-0.579,3.326-0.579c0.746,0,1.499,0.043,2.252,0.084c0.872,0.047,1.745,0.093,2.609,0.093
	c1.667,0,3.787-0.141,5.966-1.123c0.066,0.002,0.133,0.003,0.198,0.003c1.035,0,2.032-0.266,2.967-0.789
	c0.228-0.128,0.44-0.282,0.632-0.46c0.177-0.163,0.351-0.33,0.526-0.496c0.382-0.366,0.728-0.697,1.05-0.941
	c0.34-0.133,0.663-0.325,0.954-0.576l0.207-0.179c0.17-0.146,0.321-0.305,0.454-0.476c0.273-0.111,0.849-0.149,1.592-0.187
	c1.308-0.063,3.004-0.148,4.617-1.068c1.075-0.118,2.099-0.518,2.999-1.172c0.354-0.233,0.695-0.484,1.037-0.738
	c0.336-0.249,0.659-0.489,0.938-0.654l3.849-0.228c0.441-0.025,0.874-0.14,1.269-0.334c0.391-0.191,1.151-0.566,1.798-0.767
	c-0.134,0.146-0.273,0.286-0.417,0.421c-0.043,0.037-0.084,0.075-0.126,0.115c-0.033,0.034-0.067,0.068-0.101,0.104
	c-0.601,0.633-1.071,1.051-1.506,1.328c-1.126,0.072-2.201,0.462-3.135,1.138c-0.27,0.16-0.832,0.291-1.377,0.418
	c-0.85,0.198-1.93,0.45-3.006,1.035c0,0-0.209-0.002-0.217-0.002c-0.437,0-0.868,0.086-1.271,0.254l-1.1,0.456
	c-0.298,0.124-0.576,0.29-0.825,0.494c-0.147,0.051-0.445,0.117-0.671,0.168c-1.075,0.24-2.963,0.663-4.276,2.408
	c-1.787,1.279-2.26,3.174-2.525,4.241c-0.054,0.216-0.125,0.497-0.18,0.653c-0.69,0.684-1.051,1.641-0.975,2.617l0.207,2.653
	c0.043,0.548,0.222,1.077,0.52,1.539c0.301,0.468,0.475,1.202,0.676,2.053c0.178,0.753,0.374,1.58,0.705,2.436
	c0.025,1.227,0.458,2.397,1.264,3.382c0.044,0.054,0.089,0.106,0.136,0.156c0.046,0.092,0.169,0.584,0.25,0.909
	c0.279,1.132,0.696,2.811,2.162,4.164c0.172,0.228,0.333,0.846,0.475,1.394c0.206,0.794,0.448,1.727,0.937,2.671
	c-0.026,1.488-0.086,4.903-0.086,4.903c-1.431,3.381,0.011,5.288,1.399,6.273c0.74,0.913,1.56,1.735,2.442,2.451
	c0.771,0.942,1.625,1.79,2.549,2.526c0.742,0.923,1.573,1.789,2.473,2.581c0.849,0.962,1.787,1.862,2.793,2.679
	c0.042,0.033,0.287,0.214,0.326,0.24l0.012,0.021c0.44,0.379,1.358,1.168,2.778,1.201c5.857,0.152,10.918,0.282,11.836,1.368
	c1.051,1.241,0.227,7.081-0.818,14.477c-0.032,0.231-0.04,0.467-0.023,0.7l0.196,2.69c0.048,0.667,0.295,1.305,0.712,1.828
	c0.023,0.066,0.123,0.498,0.188,0.784c0.268,1.167,0.705,3.073,2.496,4.449c2.053,2.11,4.533,2.359,6.241,2.359
	c0.443,0,0.89-0.018,1.338-0.036c0.354-0.016,0.709-0.031,1.061-0.031c0.86,0,1.174,0.108,1.35,0.233
	c0.771,0.702,1.683,1.126,2.672,1.248c0.03,0.279,0.049,0.639,0.063,0.91c0.081,1.609,0.207,4.042,2.338,5.829
	c0.011,0.008,0.02,0.016,0.028,0.023c0.118,0.241,0.263,0.765,0.354,1.101c0.262,0.944,0.587,2.12,1.389,3.253
	c0.067,0.099,0.138,0.192,0.212,0.285c0.185,0.236,0.398,0.441,0.628,0.612c0.073,0.19,0.16,0.475,0.225,0.683
	c0.317,1.031,0.783,2.549,2.135,3.753c0.293,0.35,0.604,0.684,0.918,1.016c0.281,0.3,0.537,0.571,0.734,0.819
	c0.134,0.269,0.307,0.524,0.519,0.757l0.135,0.149c0.276,0.305,0.6,0.546,0.949,0.724c0.297,0.256,0.463,0.489,0.562,0.702
	c0.037,1.188,0.46,2.304,1.23,3.233c0.231,0.417,0.147,0.516-0.146,0.862c-0.072,0.086-0.142,0.175-0.205,0.268
	c-4.636,6.751-11.469,7.711-19.381,8.822c-3.896,0.548-7.927,1.113-11.763,2.462c-0.181,0.063-0.347,0.097-0.489,0.097
	c-0.712,0-1.712-0.998-2.607-2.604c-2.817-5.055-7.161-7.884-11.362-10.621c-2.011-1.309-3.909-2.546-5.573-3.985
	c-2.838-2.454-6.657-3.647-11.673-3.65c-4.017,0-7.055,1.062-9.052,3.156c-1.789,1.876-2.622,4.413-2.476,7.543
	c0.259,5.441-1.648,9.839-6.188,14.26c-3.687,3.591-4.979,8.15-6.076,12.899c-1.722,7.407-2.765,7.737-6.117,7.737
	c-0.847,0-1.834-0.065-3.018-0.199c-0.562-0.063-1.129-0.095-1.685-0.095c-4.204,0-7.386,1.771-10.195,3.333
	c-2.145,1.193-4.001,2.227-5.995,2.326c-0.501-0.031-1.003-0.045-1.505-0.045c-2.91,0-5.714,0.479-8.426,0.941
	c-2.576,0.44-5.009,0.856-7.405,0.856c-2.592,0-4.774-0.496-6.866-1.562c-1.012-0.515-2.075-0.776-3.16-0.776
	c-3.584,0-6.78,2.67-9.772,8.162c-2.125,3.897-2.879,8.048-3.606,12.062c-0.132,0.726-0.264,1.451-0.404,2.176
	c-2.458,12.717-6.739,20.974-20.469,22.853c-8.2,1.122-13.871,6.535-19.356,11.772c-3.083,2.944-5.994,5.723-9.271,7.71
	c-0.412,0.249-0.764,0.585-1.033,0.984c-1.521,2.263-3.811,3.793-7.423,4.966c-0.229,0.074-0.45,0.174-0.658,0.296
	c-2.792,1.642-4.711,4.005-6.403,6.091c-1.199,1.476-2.331,2.87-3.645,3.888C369.394,335.755,366.101,337.148,363.159,337.148z"/>
<path id="trento" fill="#ACA49A" d="M303.385,501.657c3.855-3.156,7.512-4.627,11.505-4.627
	c2.149,0,4.358,0.424,6.753,1.291c2.167,0.787,4.107,1.187,5.766,1.187c1.712,0,6.921,0,7.21-10.346
	c0.273-9.811,2.788-16.89,8.154-22.955c3.344-3.78,4.922-8.628,4.565-14.025c-0.392-5.929,1.879-10.706,4.391-14.986
	c2.993-5.098,5.909-9.32,11.314-9.32c2.862,0,6.015,1.198,10.173,3.134c0.058,0.026,0.115,0.054,0.172,0.083
	c0.244-0.457,0.502-0.93,0.766-1.417c1.09-2.006,2.325-4.277,3.242-6.57c2.148-5.375,6.097-12.519,15.545-12.519
	c1.004,0,2.062,0.083,3.148,0.248c0.343,0.054,0.686,0.079,1.02,0.079c1.798,0,3.579-0.742,5.78-2.408
	c5.44-4.116,8.973-6.64,12.866-6.64c4.436,0,7.709,3.181,13.113,8.802l0.324,0.337c1.445,1.5,2.939,3.052,4.172,4.929
	c1.561,2.386,2.74,2.395,3.191,2.395c0.002,0,0.003,0,0.005,0c0.425,0,0.911-0.099,1.442-0.294c4.53-1.663,5.024-4.115,4.949-6.065
	c-0.038-0.97-0.345-2.09-0.67-3.276c-0.207-0.758-0.412-1.515-0.573-2.275c-2.084-9.916-1.202-17.251,2.696-22.425
	c3.817-5.064,10.352-7.863,19.979-8.558c6.039-0.437,12.067-1.957,18.428-4.652c10.267-4.354,9.137-8.258,8.711-9.728
	c-0.642-2.208-0.889-4.575-1.126-6.864c-0.713-6.843-1.43-10.783-7.844-12.188c-3.104-0.681-12.551-2.751-13.554-11.91
	c-0.459-4.225-1.951-7.863-3.35-10.866c-1.182-2.539-2.483-6.373-0.144-10.333c1.576-2.67,2.578-5.744,3.64-8.998
	c1.818-5.578,3.84-11.778,9.27-16.089c-0.604-0.502-1.258-0.999-1.926-1.508c-4.037-3.069-10.119-7.697-4.626-16.861
	c-2.059,0.578-4.109,0.87-6.104,0.87c-3.053,0-6.021-0.652-9.076-1.996c-1.362-0.601-2.582-0.904-3.626-0.904
	c-1.722,0-4.022,0.748-6.554,6.586c-0.789,1.815-0.952,4.063-1.125,6.441c-0.124,1.704-0.251,3.467-0.617,5.232
	c-1.999,9.739-5.022,24.459-18.631,25.873c-10.851,1.128-17.645,7.386-24.838,14.012c-1.844,1.697-3.739,3.442-5.723,5.117
	c0.272,3.256-0.307,5.684-1.75,7.387c-0.918,1.084-2.643,2.375-5.637,2.375c-1.566,0-3.364-0.342-5.595-1.066
	c-1.92,0.815-3.36,2.5-4.995,4.41c-1.489,1.742-3.178,3.716-5.442,5.159c-4.643,2.965-8.707,4.405-12.426,4.405
	c-3.903,0-7.263-1.57-9.984-4.665c-3.463-3.938-12.661-14.394-1.625-24.28c3.29-2.947,3.775-6.921,4.337-11.521
	c0.244-2.004,0.497-4.07,1.002-6.129c-0.023-1.378,0.003-2.747,0.028-4.074c0.058-2.982,0.112-5.8-0.365-8.479
	c-2.178-11.321-7.645-12.772-12.164-12.772c-1.189,0-2.489,0.123-3.968,0.386c-1.869,0.273-3.619,1.017-5.336,2.271
	c-2.692,3.388-5.879,5.103-9.479,5.103c-4.244,0-8.07-2.424-11.323-4.696c-3.337-2.327-5.767-3.412-7.646-3.412
	c-1.432,0-3.702,0.613-6.873,5.909c-3.132,5.229-7.85,8.229-12.941,8.229c-4.719,0-9.194-2.643-12.277-7.246
	c-2.122-3.166-4.002-4.771-5.59-4.771c-1.37,0-3.176,1.09-5.37,3.236c-2.013,1.971-4.283,2.884-6.287,3.689
	c-0.924,0.37-1.803,0.725-2.566,1.15c-1.242,1.618-1.237,3.694-1.081,6.807c0.371,7.268-3.009,13.152-10.042,17.486
	c-3.102,1.915-5.744,3.297-8.317,4.352c-1.814,0.742-2.917,1.499-3.19,2.189c-0.288,0.729,0.028,2.166,0.89,4.045
	c5.044,11.011,4.663,22.806,3.772,34.931c-1.416,19.274-7.81,35.41-19.002,47.956c-1.456,1.637-2.701,3.58-3.504,5.467
	c-3.499,8.252-0.694,10.77,0.228,11.596c8.95,8.034,5.602,16.41,2.913,23.143c-2.627,6.577-2.271,7.662,3.819,11.601
	c0.581,0.375,1.364,0.709,2.192,1.063c2.507,1.07,5.94,2.536,7.008,6.794c0.567,2.261,1.142,2.98,1.321,3.158
	c0.495-0.049,1.637-0.562,4.267-2.603c10.697-8.287,23.607-12.146,40.628-12.146c2.99,0,6.172,0.111,9.727,0.339
	c6.407,0.413,10.337,1.955,12.745,4.998c2.423,3.065,3.017,7.301,1.924,13.735c-1.306,7.681-3.365,14.274-6.297,20.16
	c-1.88,3.773-0.669,5.696,4.186,9.934c1.318,1.15,2.436,1.709,3.417,1.709C300.028,503.979,301.452,503.241,303.385,501.657z"/>
</svg>
