<svg version="1.1" id="umbria" width="100%" height="100%" viewBox="0 0 800 600" preserveAspectRatio="none">
<path id="perugia" fill="red" d="M454.372,437.39c-0.425,0-0.841-0.045-1.275-0.138
	c-12.127-2.603-36.515-33.774-36.753-46.974c-0.027-1.52-1.266-2.733-2.78-2.733c-0.011,0-0.021,0-0.032,0
	c-3.144,0.036-6.258,0.507-9.27,0.964c-3.098,0.469-6.024,0.913-8.944,0.913c-3.637,0-6.642-0.712-9.455-2.239
	c-1.828-0.991-3.679-1.492-5.504-1.492c-5.497,0-9.44,4.368-12.92,8.222l-0.763,0.842c-11.032,12.131-15.594,16.167-20.872,16.167
	c-3.829,0-8.784-2.074-16.285-5.217c-2.041-0.854-4.272-1.788-6.733-2.788c-26.323-10.684-30.409-27.813-28.47-51.988
	c1.123-13.975,2.395-29.812-4.494-44.334c-0.217-0.457-0.553-0.845-0.973-1.125c-5.245-3.489-11.1-5.184-17.898-5.184
	c-5.708,0-11.428,1.169-16.959,2.3l-1.579,0.32c-0.576,0.118-1.099,0.413-1.496,0.845l-0.932,1.005
	c-0.827,0.89-1.682,1.808-2.506,2.771c-0.046,0.053-0.089,0.108-0.13,0.165c-1.961,2.677-3.68,5.586-5.342,8.4
	c-5.326,9.02-9.929,16.815-21.305,17.791c-0.659-0.03-1.318-0.07-1.977-0.115c-1.262-1.667-1.512-3.623,0.542-6.934
	c0.283-0.457,0.428-0.986,0.417-1.523c-0.406-20.143,2.28-35.076,8.709-48.42c5.364-11.146,3.084-20.052-6.775-26.473
	c-5.792-3.77-7.138-10.485-8.564-17.595c-0.765-3.814-1.556-7.758-3.07-11.388c-0.992-2.375,5.416-6.67,7.521-8.082
	c2.272-1.521,4.717-2.951,7.081-4.333c6.381-3.732,12.98-7.592,17.909-14.061c0.84-1.104,2.023-1.816,3.016-1.816
	c0.501,0,0.967,0.177,1.427,0.542c3.576,2.836,7.207,4.215,11.103,4.215c5.299,0,9.95-2.566,14.446-5.048
	c1.212-0.669,2.357-1.3,3.515-1.885c1.544-0.778,3.092-1.551,4.64-2.323c10.266-5.124,20.881-10.422,30.379-17.548
	c6.817-5.113,14.04-12.478,9.326-24.13c-2.743-6.774-8.962-10.982-16.23-10.982c-2.743,0-5.548,0.601-8.34,1.784
	c-3.072,1.303-5.524,1.936-7.499,1.936c-3.166,0-5.708-1.496-8.59-8.943c-2.285-5.901-7.44-8.958-11.989-11.654
	c-1.642-0.973-3.192-1.892-4.602-2.915c-0.394-0.286-0.798-0.573-1.207-0.862c-4.058-2.878-6.669-4.98-6.019-7.87
	c1.355-6.021,4.609-9.732,9.947-11.346c21.863-6.608,22.74-8.069,18.75-31.272c-0.966-5.615,0.566-10.849,5.107-17.585
	c1.772-2.626,3.369-2.98,4.697-2.98c1.775,0,3.839,0.749,6.024,1.541c1.02,0.369,2.074,0.752,3.144,1.072
	c2.988,0.892,6.021,1.325,9.273,1.325c5.824,0,11.644-1.467,16.925-3.139c-0.5,2.407-2.205,3.825-4.333,5.597
	c-1.215,1.011-2.472,2.057-3.506,3.36c-2.865,3.615-5.678,7.913-4.824,12.376c0.681,3.561,3.38,6.465,9.024,9.714
	c9.173,5.279,19.872,8.325,30.126,8.577c10.322,0.254,15.566,4.992,20.683,12.553c0.84,1.241,1.613,2.514,2.432,3.861
	c0.832,1.37,1.693,2.788,2.628,4.164c6.128,9.026,11.988,15.04,20.661,15.04c4.302,0,9.234-1.435,15.994-4.652
	c3.938-1.874,7.274-3.322,11.355-3.513l0.471-0.022c2.861-0.134,5.123-0.241,7.003-0.241c6.65,0,6.776,0,9.505,13.614l0.057,0.284
	c0.158,0.792,0.308,1.606,0.458,2.43c0.814,4.47,1.738,9.536,4.697,13.068c7.28,8.689,10.779,18.867,14.483,29.642
	c1.619,4.709,3.293,9.578,5.302,14.269c4.764,11.112,9.688,22.602,4.513,35.948c-4.044,10.426,0.713,21.286,5.308,29.581
	c8.948,16.15,14.555,32.111,17.138,48.797c1.215,7.824,4.228,18.914,16.332,24.879c2.002,0.988,3.193,3.53,4.455,6.22
	c2.031,4.331,4.813,10.264,12.678,10.264l0.311-0.004c7.081-0.136,10.723-4.854,13.935-9.018c1.569-2.032,3.051-3.952,4.824-5.251
	c1.216-0.893,2.337-1.344,3.327-1.344c1.074,0,2.184,0.521,3.395,1.594l0.811,0.714c1.592,1.398,3.096,2.719,4.251,4.206
	c8.354,10.756,17.997,15.985,29.479,15.985c1.926,0,3.928-0.152,5.951-0.455c0.805-0.119,1.657-0.229,2.455-0.229
	c1.987,0,2.445,0.678,2.773,1.431c1.146,2.641,0.498,4.941-1.925,6.84c-11.373,8.919-17.436,21.3-23.299,33.272
	c-0.562,1.152-1.127,2.303-1.696,3.453c-6.264,12.657-16.389,19.968-30.097,21.73c-8.084,1.038-15.585,3.877-22.838,6.622
	c-5.014,1.898-10.199,3.862-15.411,5.143c-0.199,0.048-0.393,0.118-0.575,0.211c-2.012,0.999-4.043,1.55-5.721,1.55
	c-2.145,0-2.89-0.905-3.135-1.204c-5.332-6.478-10.479-9.628-15.734-9.628c-7.965,0-14.072,7.251-19.17,14.048
	c-0.887,1.233-1.916,2.384-3.271,3.656C458.971,435.868,456.751,437.39,454.372,437.39z"/>
<path id="terni" fill="#ACA49A" d="M385.344,555.725c4.559,0,11.771-8.521,12.206-16.174
	c0.145-2.547,0.105-5.202,0.069-7.771c-0.055-3.706-0.111-7.541,0.357-11.345c0.815-6.662,5.021-10.968,10.712-10.968
	c2.289,0,4.647,0.688,7.014,2.047c1.958,1.126,3.452,2.698,4.896,4.219c0.824,0.867,1.602,1.687,2.417,2.367
	c1.876,1.576,4.251,2.478,6.516,2.478c1.101,0,4.696-0.271,4.754-3.778c0.368-22.779,10.656-30.094,20.102-33.613
	c3.995-12.482,12.916-20.883,21.553-29.017c3.297-3.103,6.702-6.311,9.722-9.661c3.714-5.228,1.719-8.302-4.443-13.589
	c-1.036-0.89-1.952-1.341-2.723-1.341c-1.274,0-2.757,1.218-4.327,2.505c-1.409,1.156-2.867,2.352-4.626,3.095
	c-3.876,1.637-6.568,4.656-9.354,8.69c-3.494,6.347-7.346,9.432-11.774,9.432c-3.604,0-7.379-2.09-11.534-6.391
	c-1.758-1.814-3.498-3.695-5.181-5.512c-6.893-7.442-13.4-14.471-22.231-19.039c-3.503-1.815-5.486-4.136-5.894-6.895
	c-0.447-3.022,1.007-6.118,4.446-9.462c1.12-1.091,1.718-2.206,1.682-3.145c-0.031-0.819-0.561-1.663-1.569-2.505
	c-0.846-0.705-1.456-0.787-1.842-0.787c-0.871,0-1.975,0.499-3.276,1.477c-3.05,2.293-7.229,5.433-11.602,5.433
	c-2.083,0-3.963-0.701-5.583-2.079c-4.221-3.585-7.741-5.326-10.761-5.326c-5.08,0-8.941,4.929-14.698,13.049
	c-7.515,10.603-13.436,14.926-20.434,14.926c-5.523,0-11.447-2.693-20.448-9.299c-1.61-1.185-3.704-2.594-5.619-2.991
	c-23.149-4.836-32.564-19.772-27.986-44.391c0.561-3.025,0.406-6.259,0.242-9.682c-0.077-1.616-0.157-3.284-0.157-4.945
	c-0.002-15.967-0.499-25.033-3.21-30.27c-2.049-3.958-5.567-6.41-16.756-6.41c-5.443,0-12.333,0.574-19.008,1.206
	c-1.208,0.502-2.324,1.051-3.383,1.668c-6.929,15.464-15.731,25.604-27.702,31.898c-1.492,0.739-2.981,1.483-4.471,2.228
	c-3.545,1.775-7.211,3.608-10.866,5.331c-3.466,1.643-4.867,3.324-4.999,5.998c-0.125,2.552,0.906,3.247,5.102,4.917
	c4.191,1.659,8.602,3.502,12.413,6.139c5.864,4.062,8.799,8.183,8.972,12.601c0.169,4.314-2.286,8.482-7.507,12.737
	c-2.562,2.088-3.93,3.896-3.956,5.229c-0.026,1.304,1.216,3.02,3.908,5.399c1.244,1.098,2.473,2.214,3.702,3.329
	c2.905,2.636,5.908,5.361,9.019,7.744c4.222,3.234,7.341,5.524,9.024,5.524c1.663,0,4.148-2.88,8.043-7.624
	c7.417-9.035,11.781-13.067,18.04-13.067c3.354,0,6.957,1.277,10.351,2.657c7.534,3.066,13.887,8.021,18.882,14.723
	c8.016,10.762,13.763,22.722,17.571,36.562c5.734,20.87,7.09,23.868,15.158,23.868c4.239,0,10.285-1.039,18.685-2.485
	c1.467-0.251,2.92-0.378,4.319-0.378c6.036,0,11.091,2.384,13.868,6.539c2.766,4.139,2.999,9.533,0.656,15.188
	c-3.183,7.683-1.666,12.304,2.246,18.14c2.937,4.376,4.109,9.508,3.688,16.126c0.121,3.324,13.323,14.273,17.443,14.468
	L385.344,555.725z"/>
</svg>
