<svg version="1.1" id="veneto"  width="100%" height="100%" viewBox="0 0 800 600" preserveAspectRatio="none">
<path id="belluno"  fill="red" d="M409.719,257.948c-0.588-0.284-1.85-1.095-4.062-3.395
	c-1.555-1.615-3.167-1.954-4.246-1.954c-1.27,0-2.509,0.446-3.686,1.328c-1.972,1.475-3.683,2.255-4.943,2.256
	c-1.189,0-3.051-0.702-5.484-6.77c-0.808-2.015-2.148-3.584-3.331-4.968c-1.57-1.838-2.539-3.046-2.66-4.656
	c-0.008-0.118-0.024-0.235-0.047-0.351c-0.561-2.874-1.391-5.664-2.191-8.362c-1.332-4.481-2.591-8.715-2.646-13.138
	c-0.074-5.983-0.074-5.983,5.253-6.184c4.833-0.182,9.339-1.28,13.697-2.342c1.168-0.284,2.336-0.569,3.507-0.835
	c9.046-2.053,15.538-6.228,19.295-12.409c3.791-6.234,4.507-14.02,2.128-23.139c-0.105-0.4-0.242-0.805-0.382-1.209
	c-0.113-0.327-0.284-0.822-0.296-0.999c1.661-12.538-7.025-16.449-13.704-18.292c-2.587-0.714-4.084-2.572-4.884-4.005
	c-1.582-2.83-1.957-6.678-0.979-10.04c2.01-6.904,3.846-12.113,9.201-16.275c5.375-4.181,5.762-12.184,0.899-18.616
	c-0.18-0.237-0.32-0.442-0.432-0.617c0.3-0.048,0.693-0.092,1.202-0.116c15.326-0.739,18.512-3.037,22.725-16.388
	c1.596-5.07,3.362-9.097,6.798-12.273c2.789-2.581,4.725-5.873,5.962-10.197c5.367,2.677,8.892,6.045,11.479,10.859
	c1.788,3.332,4.476,7.156,9.428,7.156c2.151,0,4.536-0.716,7.73-2.319c3.359-1.686,6.833-3.429,10.13-3.429
	c0.631,0,1.229,0.061,1.83,0.185c1.568,0.325,3.088,0.49,4.516,0.49c6.524,0,11.604-3.303,15.527-10.097
	c0.616-1.069,1.278-2.107,1.979-3.207c0.26-0.408,0.52-0.816,0.777-1.226c1.604-1.638,3.309-2.371,5.493-2.371
	c2.11,0,4.5,0.693,6.788,1.431c0.244,0.185,0.511,0.427,0.804,0.693c0.257,0.233,0.515,0.466,0.78,0.687
	c0.951,0.751,1.996,1.128,3.089,1.141c1.24,0.51,2.359,0.749,3.472,0.749c1.219,0,2.375-0.299,3.448-0.89l4.481,0.021
	c1.764,0.735,3.627,1.106,5.546,1.106c1.856,0,3.764-0.334,5.816-1.021l2.081-0.008c0.154,0.061,0.301,0.152,0.446,0.301
	c0.18,0.435,0.465,0.832,0.85,1.152l0.192,0.16c0.048,0.039,0.096,0.077,0.145,0.112c0.036,0.132,0.147,0.532,0.225,0.809
	c0.166,0.597,0.371,1.334,0.765,2.081c0.018,1.003,0.309,1.977,0.862,2.871c0.037,0.06,0.076,0.118,0.118,0.176
	c0.223,0.309,0.368,0.924,0.522,1.576c0.161,0.685,0.353,1.493,0.713,2.321c0.041,1.023,0.379,1.993,1,2.854
	c0.104,0.165,0.156,0.283,0.184,0.355c-0.033,0.04-0.084,0.097-0.16,0.168c-0.081,0.075-0.157,0.153-0.228,0.235
	c-0.213,0.117-0.751,0.259-1.093,0.349c-0.71,0.188-1.552,0.409-2.4,0.867l-3.524,0.355c-0.469,0.047-0.92,0.203-1.316,0.457
	c-0.438,0.28-1.114,0.439-1.897,0.624c-0.649,0.153-1.362,0.32-2.1,0.595l-0.088-0.008c-0.087-0.008-0.174-0.012-0.261-0.012
	c-0.396,0-0.789,0.079-1.156,0.232l-0.767,0.32c-0.399,0.166-0.758,0.418-1.051,0.735c-0.113,0.079-0.633,0.212-0.977,0.3
	c-0.989,0.254-2.344,0.602-3.534,1.683c-0.254,0.23-0.459,0.495-0.615,0.781c-0.51,0.634-1.08,1.213-1.544,1.667
	c-0.155,0.152-0.294,0.322-0.413,0.505c-0.572,0.878-0.853,1.864-0.828,2.868c-0.642,1.591-0.579,3.186,0.179,4.591
	c0.095,0.979,0.435,1.911,1.005,2.745c0.23,0.362,0.483,0.71,0.739,1.057c0.124,0.169,0.246,0.334,0.354,0.49
	c-0.002,0.07-0.002,0.142,0,0.213c-0.121,0.155-0.254,0.318-0.393,0.49c-0.204,0.251-0.406,0.502-0.602,0.759
	c-0.279,0.213-0.552,0.435-0.824,0.657c-0.24,0.196-0.465,0.38-0.677,0.539l-4.435-0.088c-1.344-0.482-2.867-1.03-4.557-1.03
	c-1.878,0-3.552,0.676-4.979,2.009c-1.041,0.646-1.973,1.535-2.729,2.619c-1.34,1.078-1.775,2.536-2.051,3.455
	c-0.051,0.171-0.115,0.386-0.169,0.534c-0.093,0.077-0.182,0.162-0.267,0.252c-1.059,1.13-1.433,2.43-1.705,3.379
	c-0.08,0.278-0.194,0.677-0.285,0.869c-0.12,0.102-0.234,0.213-0.341,0.335c0,0-0.194,0.227-0.234,0.279
	c-0.551,0.665-1.096,1.357-1.658,2.108c-0.782,0.851-1.223,1.904-1.276,3.041c-0.06,0.136-0.141,0.265-0.262,0.389
	c-0.5,0.195-0.953,0.527-1.299,0.984c0,0-0.156,0.208-0.158,0.21c-0.173,0.076-0.509,0.177-0.744,0.247
	c-0.956,0.286-2.265,0.679-3.366,1.824c-0.117,0.122-0.222,0.251-0.314,0.386c-0.344,0.392-0.659,0.736-0.963,0.975
	c-0.349,0.141-0.676,0.35-0.961,0.625l-0.132,0.128c-0.313,0.303-0.548,0.659-0.701,1.043c-0.236,0.296-0.578,0.616-0.957,0.972
	l-0.17,0.16c-0.052,0.042-0.102,0.085-0.151,0.131c-1.23,1.134-1.637,2.501-1.935,3.499c-0.07,0.238-0.171,0.575-0.249,0.758
	c-0.104,0.083-0.203,0.175-0.298,0.274l-0.131,0.138c-0.145,0.153-0.27,0.317-0.377,0.49c-0.491,0.629-0.985,1.255-1.484,1.88
	c-0.799,0.87-1.229,1.94-1.254,3.088c-0.068,0.146-0.165,0.282-0.312,0.416c-0.447,0.185-0.856,0.479-1.182,0.877l-0.131,0.16
	c-0.183,0.224-0.328,0.468-0.438,0.723c-0.172,0.233-0.383,0.445-0.644,0.646c-0.34,0.155-0.655,0.377-0.928,0.663
	c-1.631,1.719-1.724,3.816-1.786,5.204c-0.017,0.384-0.044,0.993-0.119,1.262c-0.149,0.118-0.29,0.252-0.419,0.401l-0.152,0.177
	c-0.202,0.234-0.362,0.492-0.479,0.764c-0.215,0.282-0.496,0.585-0.808,0.92c-0.188,0.202-0.376,0.405-0.559,0.611
	c-0.479,0.541-0.746,1.236-0.754,1.958l-0.109,11.379c-0.008,0.861,0.354,1.684,0.992,2.258c0.049,0.225,0.062,0.717,0.07,1.055
	c0.033,1.325,0.095,3.709,2.107,5.409c0.686,0.94,1.473,1.762,2.359,2.471c1.197,1.397,2.771,1.784,3.745,2.023
	c0.236,0.059,0.583,0.144,0.726,0.204c0.473,0.434,1.072,0.705,1.711,0.772l3.408,0.361c0.751,0.326,1.485,0.505,2.102,0.653
	c0.467,0.113,0.984,0.238,1.225,0.375c0.085,0.115,0.179,0.225,0.282,0.329l0.176,0.178c0.306,0.311,0.664,0.54,1.048,0.688
	c0.119,0.098,0.228,0.205,0.327,0.323c0.168,0.45,0.446,0.865,0.829,1.202l0.183,0.161c0.063,0.056,0.13,0.109,0.197,0.159
	c0.065,0.166,0.145,0.423,0.202,0.609c0.282,0.907,0.697,2.246,1.88,3.315c0.135,0.204,0.274,0.739,0.388,1.177
	c0.181,0.693,0.408,1.57,0.879,2.449l-0.027,1.934c-0.187,0.204-0.401,0.389-0.646,0.558c-1.153,0.54-2.259,1.133-3.33,1.707
	c-2.881,1.545-5.602,3.004-8.494,3.004c-1.232,0-2.464-0.255-3.765-0.778c-1.062-0.428-2.101-0.645-3.085-0.645
	c-5.283,0-6.975,5.552-7.875,8.705c-7.682,17.304-23.373,24.119-39.982,31.332c-1.24,0.539-2.479,1.077-3.716,1.62
	c-0.691,0.304-1.47,0.451-2.38,0.451c-1.416,0-2.971-0.346-4.572-0.731c-1.91-0.46-3.736-0.693-5.426-0.693
	c-7.58,0-12.675,4.55-14.347,12.812c-0.18,0.888-0.333,1.818-0.484,2.741C410.522,254.716,410.156,256.95,409.719,257.948z"/>
<path id="verona"  fill="yellow" d="M316.193,480.607c2.303-2.568,1.988-5.486,1.199-9.952
	c-0.949-5.374-2.269-10.804-3.546-16.055c-0.87-3.58-1.77-7.281-2.555-10.971c-1.286-4.183-2.341-8.577-0.294-12.425
	c1.468-2.759,4.27-4.731,8.566-6.029c2.402-0.728,3.896-1.718,4.207-2.789c0.387-1.334-0.679-3.591-2.923-6.189
	c-2.313-2.676-5.052-5.585-8.292-6.247c-5.211-1.066-8.624-3.159-10.434-6.399c-2.56-4.583-1.057-10.18,0.538-14.543
	c2.545-6.966,2.041-11.979-1.636-16.255c-4.083-4.75-7.769-9.894-11.333-14.867c-7.373-10.288-14.337-20.005-24.703-26.895
	c-0.178-0.118-0.343-0.255-0.492-0.408c-0.248-0.256-0.458-0.388-0.565-0.446c-4.37,2.507-8.935,2.855-13.221,2.855
	c-1.026,0-2.057-0.021-3.088-0.043c-0.99-0.021-1.981-0.043-2.969-0.043c-4.463,0-8.105,0.461-11.374,2.707
	c-1.133,0.779-2.469,1.174-3.971,1.174c-3.541,0-6.782-2.205-8.011-3.153c-1.083-0.836-2.193-1.623-3.368-2.457
	c-1.306-0.927-2.657-1.886-3.965-2.915c-10.201-8.027-10.875-10.76-5.553-22.491c0.275-0.606,0.558-1.211,0.841-1.816
	c1.178-2.521,2.266-4.849,2.82-7.211c-0.142,0.244-0.293,0.49-0.461,0.737c-5.249,7.73-9.27,16.424-13.159,24.83
	c-3.528,7.626-7.175,15.511-11.775,22.812c-6.379,10.127-7.423,20.148-3.284,31.538c1.396,3.843,2.16,5.595,5.642,6.838
	c5.836,2.082,8.232,5.619,9.214,8.221c1.499,3.97,0.887,8.604-1.769,13.397c-0.664,1.201-1.523,2.191-2.281,3.064
	c-0.489,0.563-0.952,1.096-1.303,1.613c-1.153,1.7-1.173,2.607-1.083,2.813c0.085,0.196,0.732,0.773,2.675,1.078
	c0.756,0.119,1.546,0.185,2.383,0.253c2.701,0.222,5.763,0.473,8.661,2.677c2.853,2.172,5.795,4.351,8.64,6.457
	c15.08,11.168,30.651,22.699,41.368,39.324c4.729-2.041,8.425-2.966,11.761-2.966c5.962,0,10.553,2.931,16.877,7.401
	c0.197,0.14,0.377,0.302,0.536,0.485c0.836,0.965,2.063,1.346,3.996,1.889c0.88,0.246,1.791,0.502,2.691,0.857l0.193,0.075
	c0.838,0.322,1.63,0.627,2.387,0.864c3.898,1.181,7.101,3.359,10.197,5.467c3.192,2.172,6.211,4.227,9.709,4.98
	C314.808,481.414,315.549,481.144,316.193,480.607z"/>
<path id="vicenza"  fill="green" d="M359.817,417.653c1.014-0.88,1.237-2.147,1.544-4.311
	c0.05-0.353,0.1-0.706,0.156-1.062c3.073-19.46,7.25-35.044,13.142-49.043c2.688-6.39,2.545-7.818-0.953-9.558
	c-8.556-4.252-5.504-11.705-4.503-14.151c0.912-2.233,1.829-4.782,1.168-6.756c-4.21-12.598,5.908-17.318,10.227-19.334
	c7.823-3.651,11.247-9.718,11.452-20.281c0.1-5.225-1.645-9.871-3.49-14.792c-1.266-3.369-2.572-6.853-3.281-10.595
	c-2.2-9.384-4.711-17.538-12.829-22.104c-1.922,0.29-3.703,1.273-5.727,2.392c-0.878,0.484-1.785,0.986-2.737,1.442
	c-2.927,1.402-5.838,2.114-8.654,2.114c-4.669,0-9.148-1.94-13.315-5.767c-0.615-0.564-1.209-1.152-1.803-1.739l-0.699-0.689
	c-1.77-1.729-3.598-3.514-4.31-3.798c-0.706,0.254-2.559,1.924-4.201,3.403c-2.057,1.853-4.528,3.6-8.655,3.837
	c-2.885,0.165-5.868,0.335-6.618,0.999c-0.723,0.641-1.3,3.141-2.098,6.601l-0.058,0.252c-1.676,7.258-3.409,14.763-9.872,14.763
	c-2.829,0-5.996-1.473-10.828-4.38c-1.549,7.409-3.545,15.479-8.792,21.828c-3.33,4.029-3.631,8.733-3.949,13.713
	c-0.201,3.134-0.408,6.373-1.359,9.587c-0.561,1.901-1.735,3.878-3.491,5.876c-0.628,0.714-0.673,1.478-0.636,3.321
	c0.009,0.471,0.02,0.979,0.004,1.51c3.856,6.455,8.803,11.995,14.029,17.848c3.947,4.421,8.029,8.992,11.598,13.998
	c7.564,10.611,15.386,21.584,8.18,37.444c-0.866,1.904-1.123,3.462-0.705,4.273c0.369,0.717,1.52,1.297,3.237,1.632
	c11.697,2.274,17.952,10.886,21.639,17.164c1.979,3.369,10.704,6.323,18.672,6.323C355.218,419.615,358.401,418.882,359.817,417.653
	z"/>
<path id="treviso"  fill="blue" d="M482.029,342.739c4.086-3.465,8.339-5.149,13-5.149
	c4.834,0,9.439,1.832,13.697,3.812c0.541,0.251,1.152,0.379,1.817,0.379c1.142,0,2.396-0.375,3.574-1.063
	c0.188-0.26,0.314-0.524,0.388-0.81c-0.032-1.006-0.216-1.724-0.559-2.188c-3.261-4.419-4.442-7.891-3.831-11.258
	c0.83-4.569,5.009-7.826,8.988-10.408c9.824-6.374,20.263-9.347,30.399-12.118c0.931-1.286,1.952-2.503,2.946-3.687
	c4.062-4.835,6.384-7.971,4.536-12.846c-0.654-0.082-1.379-0.122-2.206-0.122c-0.879,0-1.762,0.041-2.644,0.081
	c-0.974,0.044-1.946,0.087-2.915,0.087c-1.884,0-4.331-0.138-6.858-1.163l-3.646-0.179c-0.731-0.036-1.426-0.339-1.949-0.852
	c-0.142-0.139-0.942-0.17-1.473-0.19c-1.464-0.057-3.676-0.144-5.477-1.94c-0.068-0.068-0.133-0.139-0.193-0.212
	c-0.192-0.086-0.564-0.194-0.825-0.27c-0.988-0.287-2.341-0.679-3.49-1.842c-0.122-0.123-0.231-0.254-0.327-0.392
	c-0.357-0.403-0.684-0.759-0.999-1.007c-0.342-0.141-0.662-0.347-0.94-0.616l-0.133-0.129c-0.31-0.299-0.542-0.649-0.694-1.027
	c-0.233-0.29-0.565-0.604-0.934-0.953l-0.214-0.205c-0.044-0.035-0.086-0.072-0.128-0.11c-1.345-1.229-1.738-2.77-1.998-3.789
	c-0.078-0.304-0.195-0.764-0.238-0.848c-0.135-0.131-0.257-0.274-0.364-0.429c-0.57-0.816-0.88-1.742-0.913-2.696
	c-0.66-1.379-0.729-2.788-0.782-3.881c-0.039-0.808-0.079-1.257-0.175-1.506c-0.202-0.155-0.388-0.34-0.55-0.551
	c0,0-0.191-0.25-0.192-0.251c-0.153-0.059-0.38-0.131-0.545-0.184c-0.911-0.289-2.238-0.711-3.275-1.922
	c-0.559-0.424-1.028-0.871-1.451-1.273c-0.253-0.241-0.505-0.483-0.774-0.707h0.001c-0.046-0.036-0.09-0.073-0.134-0.112
	c-0.159-0.141-0.299-0.295-0.42-0.459c-0.331-0.376-0.635-0.713-0.924-0.957c-0.462-0.171-0.888-0.458-1.23-0.854l-0.149-0.174
	c-0.042-0.049-0.082-0.099-0.12-0.148c-0.145-0.055-0.347-0.119-0.508-0.17c-0.877-0.278-2.271-0.722-3.314-1.992
	c-0.882-0.664-1.688-1.426-2.403-2.269c-0.854-0.732-1.661-1.559-2.402-2.461c-0.01-0.013-0.035-0.044-0.059-0.074
	c-3.115-3.674-1.806-7.617-0.918-9.58c0.018-1.089,0.35-2.133,0.982-3.066c0.03-0.044,0.062-0.088,0.094-0.131
	c0.101-0.132,0.233-0.675,0.32-1.034c0.262-1.072,0.619-2.541,1.859-3.808c0.034-0.035,0.069-0.068,0.104-0.102
	c0.214-0.318,0.354-0.856,0.544-1.644c0.123-0.515,0.258-1.073,0.456-1.654c-0.058-1.045,0.247-2.079,0.893-2.964
	c0.1-0.137,0.211-0.265,0.333-0.382c0.203-0.198,0.246-0.808,0.288-1.715c0.057-1.209,0.13-2.781,0.98-4.288l0.012-4.353
	c-0.244-0.459-0.458-0.909-0.668-1.352c-0.291-0.611-0.568-1.194-0.877-1.684c-1.786-1.277-3.481-1.925-5.044-1.925
	c-2.61,0-5.229,1.808-7.783,5.373c-10.975,15.312-26.603,23.41-43.002,31.02c-2.088,0.968-4.89,2.078-8.051,2.078
	c-1.725,0-3.453-0.333-5.139-0.988c-2.224-0.866-4.16-1.305-5.757-1.305c-1.636,0-5.979,0-6.438,10.392
	c-0.273,6.245-4.39,11.325-9.176,11.325c-1.828,0-3.547-0.733-4.971-2.123c-2.808-2.743-4.329-3.152-4.986-3.152
	c-1.369,0-2.843,2.325-4.269,4.574c-0.465,0.734-0.94,1.483-1.445,2.212c5.004,10.142,10.583,21.616,6.284,33.746
	c-2.814,7.941-0.173,13.205,4.176,20.33c3.113,5.097,6.719,7.682,10.715,7.682c2.876,0,5.988-1.324,9.25-3.937
	c3.468-2.777,6.792-4.127,10.164-4.127c3.56,0,7.063,1.523,10.713,4.657c4.489,3.856,9.525,7.446,15.94,7.655
	c0.797-0.104,1.521-0.267,2.201-0.492c1.312-0.644,2.532-0.957,3.722-0.957c3.652,0,5.523,2.892,6.762,4.804
	c0.271,0.418,0.54,0.839,0.828,1.228c2.321,3.131,3.98,3.958,4.534,3.958C481.701,342.929,481.807,342.929,482.029,342.739z"/>
<path id="rovigo"  fill="brown" d="M497.212,537.935c-0.002-0.005-0.004-0.009-0.005-0.014
	c-2.047-4.294-1.856-8.204,0.565-11.627l0.101-0.154c0.042-0.062,0.085-0.123,0.131-0.183c0.05-0.132,0.115-0.433,0.165-0.657
	c0.25-1.139,0.668-3.043,2.668-4.265c0.066-0.04,0.135-0.078,0.204-0.113c1.143-0.581,2.343-0.876,3.569-0.876
	c1.191,0,2.4,0.28,3.591,0.833c0.168,0.078,0.329,0.172,0.479,0.279c2.413,1.722,2.453,4.311,2.474,5.701
	c0.005,0.32,0.012,0.785,0.055,1.002c0.514,0.516,0.822,1.203,0.866,1.933l0.056,0.936c0.108-0.527,0.272-1.074,0.53-1.615
	c-0.01-0.196-0.005-0.394,0.014-0.59c-0.936-2.489-1.564-5.863,0.728-9.298l0.001,0.001c0.035-0.056,0.071-0.109,0.109-0.163
	c0.145-0.201,0.31-0.378,0.489-0.53c0.059-0.156,0.132-0.402,0.185-0.58c0.267-0.896,0.687-2.311,1.945-3.395
	c0.368-0.552,0.771-1.004,1.105-1.38c0.148-0.166,0.292-0.327,0.411-0.474c0.125-0.249,0.287-0.484,0.485-0.697l0.133-0.143
	c0.101-0.108,0.208-0.207,0.32-0.298c0.098-0.204,0.217-0.644,0.3-0.949c0.17-0.627,0.384-1.413,0.801-2.207l-0.053-2.032
	c-0.058-0.125-0.125-0.217-0.218-0.29c-0.077,0.004-0.155,0.007-0.232,0.007c-1.004,0-1.964-0.347-2.777-1.001
	c-0.096-0.076-0.187-0.159-0.271-0.247c-0.056-0.058-0.172-0.177-0.953-0.177c-0.315,0-0.635,0.017-0.954,0.032
	c-0.419,0.021-0.837,0.041-1.25,0.041c-0.894,0-3.543,0-5.522-2.286c-1.564-0.996-2.07-2.571-2.359-3.47
	c-0.037-0.116-0.082-0.256-0.123-0.37c-0.027-0.021-0.261-0.214-0.261-0.214c-0.412-0.339-0.711-0.769-0.892-1.237
	c-0.161-0.193-0.353-0.381-0.579-0.566c-0.318-0.161-0.612-0.383-0.866-0.663c-0.02-0.022-0.039-0.043-0.058-0.062
	c-0.045,0.035-0.341,0.292-0.341,0.292c-0.405,0.37-0.772,0.703-1.029,1.018c-0.177,0.464-0.472,0.889-0.877,1.227l-0.143,0.119
	c-0.24,0.201-0.505,0.358-0.782,0.473c-0.408,0.278-0.82,0.663-1.295,1.206c-0.571,0.652-1.396,1.024-2.258,1.024
	c-0.05,0-0.1-0.001-0.15-0.004l-2.271-0.119c-0.87-0.044-1.678-0.464-2.214-1.151c-2.55-3.269-2.545-7.037,0.013-10.339
	c0.021-0.027,0.044-0.055,0.066-0.082c0.433-0.568,0.953-0.99,1.415-1.323c-0.025-0.057-0.049-0.115-0.071-0.174
	c-0.801-1.459-0.874-2.973-0.93-4.137c-0.037-0.772-0.074-1.318-0.211-1.553c-0.088-0.083-0.173-0.173-0.252-0.268
	c-0.21-0.251-0.438-0.486-0.665-0.724c-0.414-0.433-0.872-0.911-1.302-1.49c-0.541-0.405-0.993-0.833-1.402-1.219
	c-0.203-0.191-0.404-0.385-0.617-0.566c-0.106-0.076-0.209-0.16-0.307-0.251l-0.073-0.068c-0.157-0.147-0.295-0.307-0.412-0.476
	c-0.437-0.506-0.87-0.942-1.314-1.321c-1.214-0.715-1.803-1.806-2.127-2.819c-3.085,3.776-7.285,4.366-11.143,4.366
	c-0.745,0-1.498-0.021-2.25-0.042c-0.696-0.019-1.394-0.039-2.083-0.039c-0.599,0-1.12,0.016-1.591,0.048
	c-5.297,4.287-9.219,7.061-13.773,7.061c-4.87,0-9.616-3.238-16.767-8.59c-0.337-0.184-0.642-0.434-0.895-0.745l-0.079-0.098
	c-0.447-0.553-0.661-1.214-0.652-1.874c-0.893-4.964-1.513-8.253-2.544-9.598c-0.605-0.789-1.799-1.245-6.106-1.245
	c-1.594,0-3.513,0.058-5.733,0.125l-0.415,0.013c-8.139,0.245-16.067,2.539-23.735,4.758c-3.626,1.049-7.375,2.133-11.132,3.002
	c-7.968,1.842-16.18,2.775-24.406,2.775c-9.836,0-19.434-1.332-28.527-3.96c-0.037-0.011-0.073-0.021-0.109-0.033
	c-1.9-0.629-3.729-1.233-4.985-1.551c0.137,1.247,0.459,3.075,0.755,4.752c0.587,3.304,1.317,7.415-0.442,11.615
	c-0.038,0.09-0.08,0.179-0.126,0.264c-1.639,3.042-4.323,4.649-7.76,4.649c-0.656,0-1.354-0.06-2.072-0.177
	c-0.292-0.048-0.575-0.139-0.841-0.27c-3.953-1.948-7.638-4.319-11.202-6.613c-2.014-1.296-3.959-2.548-5.927-3.716
	c1.683,1.528,3.015,3.625,4.014,6.304c2.042,5.49,6.191,9.215,12.685,11.386c0.429,0.144,0.869,0.282,1.312,0.422
	c3.082,0.974,6.917,2.185,9.091,5.581l0.539,0.846c3.624,5.694,6.118,9.185,11.5,9.185c0.523,0,1.076-0.033,1.643-0.099
	c0.212-0.024,0.421-0.036,0.626-0.036c3.815,0,5.663,3.721,6.886,6.184c0.183,0.368,0.359,0.725,0.535,1.055
	c1.595,2.987,3.539,4.263,6.5,4.263c1.271,0,2.727-0.23,4.452-0.703c3.73-1.021,6.843-3.077,9.967-5.274
	c1.036-0.729,2.035-1.592,3.093-2.505c2.583-2.231,5.489-4.741,9.561-5.632c0.944-0.669,1.938-0.948,2.714-1.166
	c0.239-0.067,0.575-0.162,0.767-0.24c0.111-0.14,0.237-0.271,0.376-0.392c1.146-0.996,2.438-1.356,3.381-1.619
	c0.362-0.101,0.908-0.252,1.04-0.355c0.178-0.197,0.384-0.373,0.614-0.521c0.494-0.317,1.049-0.471,1.599-0.471
	c0.017,0,0.033,0,0.05,0.001c8.091-0.9,16.389-1.338,25.353-1.338c8.18,0,16.819,0.37,26.382,1.13
	c0.202-0.041,0.405-0.062,0.608-0.062c0.957,0,1.896,0.458,2.475,1.302l0.059,0.084c0.151,0.061,0.39,0.136,0.562,0.19
	c0.854,0.271,2.212,0.703,3.257,1.906c0.478,0.353,0.879,0.72,1.24,1.051c0.188,0.172,0.362,0.33,0.524,0.467
	c0.043,0.021,0.085,0.045,0.127,0.068c1.727-0.438,3.168-0.644,4.53-0.644c1.396,0,2.739,0.224,4.028,0.679
	c1.936,0.709,3.879,1.068,5.774,1.068c1.9,0,3.83-0.361,5.736-1.075c0.336-0.126,0.692-0.19,1.052-0.19
	c0.028,0,4.67,0.132,4.67,0.132c0.708,0.021,1.387,0.29,1.915,0.762c0.585,0.523,1.213,1.046,1.868,1.556
	c0.207,0.123,0.402,0.273,0.58,0.449l0.117,0.116c0.247,0.246,0.443,0.523,0.587,0.821c0.165,0.204,0.375,0.43,0.594,0.664
	c0.331,0.355,0.707,0.758,1.066,1.233c0.063,0.083,0.14,0.203,0.205,0.312c2.21,3.466,1.9,7.122,1.628,10.35
	c-0.23,2.73-0.335,4.65,0.493,6.244l2.376,0.143c0.682,0.04,1.328,0.312,1.834,0.769c0.184,0.165,0.364,0.336,0.545,0.506
	c0.309,0.293,0.605,0.574,0.867,0.767c0.376,0.133,0.729,0.342,1.037,0.626l0.129,0.119c0.377,0.349,0.646,0.774,0.803,1.232
	c0.171,0.225,0.405,0.479,0.647,0.742c0.212,0.23,0.424,0.461,0.651,0.729c0.687,0.829,1.06,1.793,1.101,2.806
	C496.659,539.267,496.865,538.587,497.212,537.935z"/>
<path id="padova"  fill="purple" d="M370.008,462.396c6.722,0,11.94-0.176,16.822-0.567
	c7.848-3.587,15.963-7.296,25.211-7.635c4.826-0.176,8.44-1.444,11.017-3.872c1.743-6.646,5.169-8.8,7.885-9.396
	c2.682-1.006,6.088-1.517,10.131-1.517c1.247,0,2.54,0.05,3.844,0.147c0.046,0.003,0.23,0.017,0.277,0.021
	c1.283,0.098,2.272,0.223,2.783,0.295c0.647-0.049,2.046-0.145,3.197-0.145c0.935,0,1.566,0.059,2.09,0.201
	c0.237-0.031,0.589-0.138,0.771-0.234c0.33-0.411,1.166-1.312,3.643-2.985c0.214-0.236,0.472-0.452,0.778-0.639l2.921-3.129
	c0.095-0.121,0.19-0.241,0.29-0.356c0.058-0.065,0.121-0.133,0.184-0.193c0.194-0.211,0.396-0.416,0.607-0.612l1.068-1.218
	c-1.271-2.124-2.136-4.37-2.978-6.556c-1.275-3.308-2.481-6.438-4.951-8.605c-0.798-0.421-1.747-0.603-3.114-0.603
	c-0.773,0-1.595,0.058-2.465,0.118c-0.956,0.066-1.944,0.135-2.972,0.135c-3.084,0-7.613-0.603-11.336-5.812
	c-7.772-10.881-3.132-19.037,0.964-26.232l0.287-0.506c-0.046-1.108-0.438-2.221-1.209-3.488c-1.149-1.788-2.967-2.898-5.526-4.109
	c-0.053-0.025-0.104-0.051-0.154-0.079c-1.559-0.851-4.801-2.621-4.216-6.764c0.022-0.157,0.058-0.312,0.104-0.465
	c1.133-3.674,3.405-6.302,5.602-8.844c0.891-1.031,1.732-2.004,2.471-3.019c4.857-6.674,9.192-13.366,8.982-21.729
	c-2.188-2.807-4.342-4.229-6.41-4.229c-1.714,0-3.608,0.966-5.632,2.871c-5.172,4.872-9.877,7.24-14.382,7.241
	c-5.81,0-10.695-3.794-14.937-11.6c-3.093-5.689-4.959-9.124-6.379-9.124c-1.52,0-4.633,1.603-8.941,3.819l-0.729,0.374
	c-5.584,2.875-6.013,5.683-4.938,9.012c2.037,6.298,0.433,11.209-1.406,15.185c-1.162,2.509-1.319,4.31-0.974,4.921
	c0.245,0.434,1.229,0.585,1.643,0.63c3.292,0.359,7.845,1.232,9.377,4.651c1.563,3.49-0.903,6.948-3.079,9.999
	c-0.299,0.42-0.598,0.838-0.883,1.252c-4.292,6.25-7.011,11.871-6.326,18.986c0.511,5.313-1.879,9.997-3.987,14.13
	c-0.236,0.463-0.472,0.925-0.703,1.387c-0.201,0.4-0.407,0.8-0.613,1.199c-1.07,2.071-2.081,4.028-2.2,6.081
	c-0.842,14.391-1.961,16.952-14.081,16.952c-1.062,0-2.231-0.014-3.521-0.029c-5.678-0.07-10.821-0.242-16.282-1.63
	c-1.173-0.299-2.339-0.45-3.467-0.45c-3.411,0-6.458,1.405-8.361,3.855c-1.796,2.312-2.38,5.256-1.652,8.307
	c0.971,2.468,1.363,4.979,1.743,7.411c0.526,3.372,0.982,6.296,2.817,8.681c0.708,0.611,1.369,1.112,2.023,1.536
	c0.251,0.165,0.494,0.336,0.734,0.508c0.185,0.131,0.368,0.263,0.558,0.386c0.049,0.032,0.097,0.065,0.145,0.101
	c0.692,0.509,1.515,1.099,2.373,1.618c0.817,0.498,1.566,0.87,2.256,1.127c0.655,0.235,1.308,0.479,1.96,0.722
	c1.881,0.7,3.657,1.362,5.417,1.812c1.367,0.325,2.892,0.504,4.574,0.546l1.757-0.004c3.26,0,6.521,0.04,9.782,0.079
	c3.237,0.04,6.475,0.079,9.712,0.079C370.007,462.396,370.008,462.396,370.008,462.396z"/>
<path id="venezia"  fill="pink" d="M617.797,325.943c-0.043-0.055-0.084-0.11-0.123-0.167
	c-0.612-0.896-0.946-1.896-0.988-2.94c-0.88-1.887-0.949-3.89-1.007-5.546c-0.097-2.823-0.295-3.625-1.593-4.312
	c-0.141-0.074-0.275-0.16-0.403-0.256l-0.033-0.025c-0.718-0.473-1.279-1.001-1.778-1.469c-0.199-0.188-0.396-0.376-0.605-0.553
	c-0.103-0.073-0.201-0.154-0.295-0.243l-0.075-0.069c-0.123-0.115-0.234-0.238-0.334-0.369c-0.636-0.708-1.264-1.42-1.887-2.136
	c-0.438-0.504-0.697-1.141-0.733-1.808l-0.296-5.577c-0.831-1.545-0.915-3.143-0.979-4.362c-0.053-1.011-0.103-1.647-0.349-1.954
	c-0.36-0.452-0.584-0.999-0.642-1.574l-0.331-3.336c-0.409-0.869-0.637-1.794-0.843-2.632c-0.041-0.167-0.089-0.361-0.14-0.556
	c-0.266,0.566-0.64,1.085-1.115,1.536c-0.166,0.158-0.351,0.297-0.548,0.412c-2.031,1.191-4.276,1.795-6.674,1.795
	c-2.327,0-4.553-0.556-6.477-1.152c-0.05,0.002-0.101,0.002-0.151,0.002c-1.076,0-2.091-0.308-3.016-0.914
	c-0.083-0.055-0.164-0.114-0.242-0.177c-0.182-0.147-0.744-0.281-1.241-0.398c-0.714-0.17-1.62-0.385-2.531-0.856
	c-0.992-0.066-1.936-0.382-2.842-0.961c-0.267-0.177-0.81-0.305-1.385-0.439c-0.738-0.174-1.605-0.377-2.49-0.804
	c-0.891-0.013-1.755-0.229-2.57-0.644c-0.166-0.085-0.323-0.184-0.47-0.297c-0.143-0.11-0.248-0.173-0.309-0.207
	c-0.045,0.033-0.106,0.083-0.184,0.157c-0.082,0.079-0.168,0.152-0.258,0.222c-0.272,0.209-0.567,0.485-0.879,0.777
	c-0.293,0.274-0.609,0.571-0.964,0.866c-1.288,3.164-1.583,6.593-1.695,9.563c-0.009,0.232-0.045,0.463-0.106,0.687
	c-1.791,6.471-5.818,11.296-9.712,15.963l-0.904,1.085c-0.04,0.049-0.082,0.097-0.125,0.143c-2.711,2.876-5.941,3.272-9.028,3.272
	c-0.353,0-1.713-0.017-2.039-0.017c-0.591,0-1.055,0.015-1.458,0.048c-4.486,0.364-9.055,1.188-12.087,4.729
	c-2.674,3.121-5.77,6.254-11.568,7.275c-1.547,0.273-2.542,0.835-2.958,1.669c-0.578,1.16-0.264,3.151,0.842,5.327
	c0.627,1.232,1.55,2.403,2.526,3.644c1.254,1.592,2.666,3.385,3.606,5.575c1.353,1.764,3.312,2.077,6.566,2.463
	c0.423,0.05,0.845,0.101,1.264,0.155c6.603,0.872,9.192,4.237,10.044,7.693v0.001c-0.308,8.196-25.014,7.297-25.45,7.292
	l0.018,0.007c-0.171-0.002-0.327-0.011-0.5-0.011c-0.869,0-1.74,0.017-2.611,0.044c-0.032,0.002-0.063,0.002-0.096,0.002
	c-1.35,0-2.539-0.904-2.895-2.215c-0.363-1.342,0.241-2.757,1.463-3.421c1.379-0.75,2.027-1.749,2.011-3.154
	c-1.52-0.681-3.138-1.233-4.828-1.812c-3.186-1.09-6.479-2.216-9.509-4.342c-0.894-0.627-1.724-0.944-2.468-0.944
	c-1.378,0-2.529,1.152-3.252,2.118c-3.026,4.05-6.074,6.019-9.32,6.019c-4.783,0.001-8.186-4.328-11.001-8.388
	c-0.463-0.669-0.846-1.361-1.185-1.974c-0.271-0.492-0.66-1.194-0.931-1.525c-0.162,0.053-0.435,0.166-0.838,0.405
	c-0.03,0.021-0.061,0.041-0.092,0.06c-1.843,1.156-3.797,1.743-5.807,1.743h-0.001c-3.115,0-5.833-1.388-8.23-2.612
	c-1.971-1.006-3.832-1.956-5.505-1.956c-0.011,0-0.021,0-0.031,0c-2.154,8.862-6.552,16.818-13.09,23.674
	c-1.935,2.029-2.879,3.865-2.658,5.169c0.251,1.484,2.088,2.711,3.588,3.48c2.36,1.215,4.29,2.963,5.896,5.345
	c4.142,5.186,0.41,9.692-1.19,11.625c-0.369,0.446-0.75,0.892-1.133,1.339c-3.748,4.38-5.061,6.508-2.909,9.964
	c0.629,1.008,1.221,2.06,1.793,3.076c2.706,4.805,4.545,7.749,8.082,7.749c1.275,0,2.79-0.373,4.505-1.11
	c0.767-0.328,1.618-0.495,2.532-0.495c1.194,0,2.335,0.278,3.401,0.563c1.354,0.362,2.276,1.613,2.223,3.014
	c-0.047,1.209-0.253,2.366-0.453,3.485c-0.189,1.061-0.368,2.062-0.376,2.94c-0.017,1.704,0.483,3.108,0.985,3.615
	c0.139,0.14,0.213,0.156,0.36,0.156c0.011,0,0.022,0,0.035-0.001c0.489-0.033,0.956-0.05,1.399-0.05
	c5.848,0,9.193,2.804,10.227,8.57c0.165,0.924-0.111,1.872-0.747,2.562c-2.604,2.827-4.804,4.617-6.707,5.457
	c-0.318,0.192-0.661,0.328-1.017,0.401c-4.995,1.93-9.308,3.965-9.353,3.986c-0.401,0.189-0.841,0.288-1.283,0.288
	c-0.077,0-0.154-0.003-0.231-0.009l-1.647-0.128c-0.05,0.003-0.101,0.004-0.151,0.004c-0.152,0-0.308-0.012-0.463-0.035
	l-0.235-0.034l-4.853-0.375l-0.2-0.004l-7.599,0.829c-0.933,0.266-1.748,0.59-2.438,0.969c-0.381,0.963-0.807,1.871-1.273,2.717
	c0.284,0.408,0.567,0.873,0.812,1.398c0.063,0.03,0.131,0.059,0.2,0.085c7.553,2.768,8.773,8.911,9.754,13.848
	c0.087,0.44,0.175,0.882,0.268,1.324c0.271,0.62,0.619,1.148,1.059,1.607c4.631,4.333,8.989,6.439,13.322,6.439
	c3.673,0,7.333-1.508,11.189-4.607c0.386-0.31,0.841-0.52,1.326-0.61c1.546-0.29,3.093-0.444,4.59-0.595
	c4.174-0.416,7.779-0.776,10.289-3.777c0.44-0.554,0.777-1.118,1.024-1.718c0.034-0.327,0.044-0.704,0.055-1.098
	c0.025-0.955,0.056-2.1,0.434-3.307c-0.02-1.009,0.267-1.987,0.838-2.849c0.37-0.707,0.809-1.325,1.199-1.876
	c0.788-1.111,0.978-1.488,0.95-1.771c-0.801-1.011-1.118-2.105-1.361-2.943c-0.09-0.31-0.225-0.775-0.27-0.857
	c-0.148-0.126-0.284-0.267-0.405-0.42c-0.147-0.187-0.308-0.367-0.481-0.545c-0.326,0.965-0.89,2.248-2.194,3.132
	c-1.174,1.099-2.396,1.341-3.241,1.341c-0.538,0-1.068-0.095-1.585-0.283c-0.104,0.007-0.207,0.011-0.311,0.011
	c-0.951,0-1.896-0.287-2.731-0.829c-0.328-0.214-0.612-0.489-0.835-0.812c-2.422-3.508-2.528-7.269-2.621-10.586
	c-0.038-1.351-0.074-2.626-0.257-3.823c-0.38-2.495-0.867-3.305-1.06-3.537c-0.442-0.534-0.686-1.205-0.688-1.898l-0.01-2.628
	c-0.002-0.695,0.236-1.369,0.677-1.907c0.347-0.426,0.341-1.219,0.302-2.479c-0.06-1.903-0.141-4.51,1.91-6.759
	c0.057-0.062,0.114-0.12,0.175-0.176c0.147-0.27,0.188-0.82,0.232-1.637c0.063-1.173,0.146-2.694,0.938-4.161
	c0.061-0.957,0.368-1.879,0.912-2.717c0.067-0.102,0.123-0.178,0.201-0.271c0.077-0.127,0.189-0.584,0.263-0.886
	c0.253-1.036,0.63-2.584,1.985-3.828c0.093-0.152,0.226-0.626,0.313-0.943c0.291-1.044,0.69-2.474,1.949-3.676
	c0.016-0.016,0.033-0.031,0.05-0.047c0.09-0.181,0.208-0.599,0.289-0.886c0.29-1.023,0.687-2.426,1.912-3.607
	c0.024-0.023,0.049-0.046,0.074-0.069c0.106-0.204,0.244-0.741,0.323-1.05c0.131-0.512,0.288-1.123,0.553-1.762
	c-0.114-0.033-0.227-0.064-0.325-0.092c-0.593-0.164-1.282-0.354-1.986-0.7c-1.034-0.073-2.018-0.444-2.871-1.084
	c-0.739-0.495-1.405-1.078-1.991-1.74c-0.071,0.272-0.16,0.531-0.269,0.782c-1.283,3.451-4.235,4.501-6.196,5.198l-0.291,0.104
	c-0.33,0.118-0.673,0.176-1.014,0.176c-0.633,0-1.259-0.2-1.782-0.587c-0.805-0.594-1.261-1.551-1.215-2.55l0.062-1.346
	c0.033-0.725,0.327-1.412,0.828-1.936c0.756-0.791,1.577-1.574,2.44-2.327c0.343-0.299,0.749-0.517,1.188-0.635l0.412-0.11
	c0.66-0.175,1.283-0.341,1.756-0.556c0.298-0.135,0.609-0.219,0.925-0.252c0.043-0.256,0.12-0.508,0.23-0.749
	c0.066-0.173,0.081-0.748,0.092-1.128c0.039-1.473,0.104-3.9,2.354-5.606c0.365-0.354,0.747-0.694,1.13-1.035
	c1.028-0.915,1.729-1.562,2.087-2.298c0.02-1.122,0.384-2.177,1.072-3.098c1.167-1.824,3.004-2.241,4.007-2.469l0.249-0.058
	c0.232-0.055,0.465-0.081,0.694-0.081c1.178,0,2.274,0.696,2.755,1.813c0.092,0.192,0.173,0.39,0.237,0.604
	c0.001,0.004,0.002,0.008,0.003,0.012c0.081,0.193,0.154,0.33,0.212,0.425c0.603-0.892,2.251-3.339,2.251-3.339
	c0.32-0.475,0.77-0.848,1.295-1.076c0.824-0.356,1.711-0.538,2.637-0.538c1.062,0,2.017,0.237,2.784,0.428
	c0.52,0.129,1.011,0.251,1.345,0.251c0.004,0,0.009,0,0.014,0c0.376,0,0.748,0.07,1.098,0.208l4.404,1.733
	c1.939-0.229,3.915-0.523,5.832-0.809c2.564-0.382,5.192-0.767,7.85-1.024l5.236,0.417c0.45,0.361,0.804,0.849,0.987,1.429
	c0.412,1.297-0.103,2.709-1.251,3.438c-0.45,0.286-0.899,0.571-1.345,0.864c-0.064,0.042-0.13,0.081-0.196,0.118
	c-0.727,0.402-1.258,0.737-1.707,1.079c-0.31,0.281-0.585,0.594-0.822,0.933c0.006,0,0.012,0,0.018,0
	c0.475-0.02,0.935-0.11,1.405-0.276c0.409-0.175,0.821-0.339,1.233-0.502c0.634-0.251,1.232-0.488,1.775-0.756
	c0.033-0.017,0.066-0.032,0.101-0.048c0.569-0.255,1.069-0.529,1.529-0.84c0.105-0.071,0.216-0.136,0.33-0.192
	c0.339-0.171,0.683-0.333,1.026-0.494c0.614-0.289,1.195-0.562,1.68-0.866c0.054-0.033,0.107-0.065,0.163-0.095
	c0.287-0.156,0.516-0.351,0.698-0.593c0.028-0.037,0.058-0.075,0.088-0.111c1.378-1.66,3.21-1.947,4.305-2.118
	c0.028-0.004,0.057-0.009,0.085-0.013c0.32-0.171,0.608-0.366,0.875-0.594c0.103-0.089,0.212-0.17,0.326-0.243
	c0.142-0.091,0.288-0.167,0.433-0.249l0.002-0.001l0.001-0.001c0.873-0.494,1.804-0.838,2.783-1.004
	c0.105-0.018,0.212-0.03,0.318-0.036c0.837-0.051,1.172-0.194,1.363-0.339c1.219-1.312,2.724-1.675,3.744-1.922
	c0.284-0.068,0.714-0.172,0.797-0.213c0.5-0.428,1.127-0.68,1.784-0.716l7.991-0.439c0.188-0.08,0.378-0.204,0.567-0.426
	c0.167-0.383,0.417-0.736,0.747-1.03l0.149-0.135c0.258-0.23,0.547-0.41,0.853-0.537c0.282-0.212,0.571-0.517,0.898-0.908
	c0.141-0.216,0.312-0.416,0.512-0.596c0,0,0.153-0.137,0.188-0.165c0.742-0.655,1.501-1.267,2.26-1.82
	c0.875-0.748,1.921-1.164,3.05-1.213c0.241-0.136,0.546-0.364,0.843-0.588c0.279-0.21,0.56-0.418,0.848-0.612
	c0.396-0.267,0.851-0.436,1.325-0.491l3.551-0.419c0.285-0.173,0.524-0.372,0.728-0.604c0.185-0.393,0.456-0.751,0.812-1.043
	l0.147-0.121c0.163-0.134,0.336-0.248,0.518-0.343c0.311-0.226,0.579-0.486,0.811-0.787c0.146-0.304,0.344-0.587,0.595-0.837
	l0.129-0.128c0.195-0.193,0.41-0.354,0.64-0.483c0.623-0.467,1.228-0.941,1.804-1.418c0.881-0.818,1.966-1.253,3.146-1.259
	c0.388-0.185,0.818-0.55,1.35-1.053c0.191-0.181,0.406-0.336,0.639-0.462l0.705-0.379c0.438-0.236,0.927-0.359,1.423-0.359
	c0.029,0,0.364,0.01,0.364,0.01c0.298-0.144,0.617-0.41,1.019-0.848c0.094-0.127,0.2-0.248,0.316-0.361
	c0.767-0.745,1.587-1.446,2.501-2.129c1.031-1.292,2.427-1.746,3.307-2.031c0.171-0.056,0.389-0.127,0.532-0.184
	c0.035-0.045,0.267-0.311,0.267-0.311c0.321-0.365,0.713-0.635,1.138-0.805c0.17-0.141,0.318-0.297,0.45-0.471
	c0.147-0.354,0.364-0.684,0.649-0.969l0.138-0.138c0.285-0.286,0.616-0.503,0.971-0.65c0.231-0.175,0.445-0.388,0.647-0.647
	c0.221-0.473,0.567-0.893,1.026-1.207l0.104-0.071c0.237-0.161,0.489-0.284,0.751-0.37c0.719-0.321,1.425-0.562,2.111-0.796
	c1.703-0.581,2.614-0.925,3.113-1.812c0.517-0.92,1.479-1.5,2.533-1.529c0,0,4.647-0.131,4.677-0.131
	c0.724,0,1.424,0.262,1.971,0.737c0.559,0.487,1.019,0.875,1.447,1.117c0.096,0.003,0.191,0.008,0.286,0.017
	C618.66,327.054,618.232,326.495,617.797,325.943z"/>
</svg>
