<?xml version="1.0" encoding="utf-8"?>
<!-- Generator: Adobe Illustrator 16.0.0, SVG Export Plug-In . SVG Version: 6.00 Build 0)  -->
<!DOCTYPE svg PUBLIC "-//W3C//DTD SVG 1.1//EN" "http://www.w3.org/Graphics/SVG/1.1/DTD/svg11.dtd">
<svg version="1.1"
	 id="svg3114" xmlns:rdf="http://www.w3.org/1999/02/22-rdf-syntax-ns#" xmlns:dc="http://purl.org/dc/elements/1.1/" xmlns:svg="http://www.w3.org/2000/svg" xmlns:cc="http://creativecommons.org/ns#"
	 xmlns="http://www.w3.org/2000/svg" xmlns:xlink="http://www.w3.org/1999/xlink" x="0px" y="0px" width="800px" height="600px"
	 viewBox="93.167 -2.36 800 600" enable-background="new 93.167 -2.36 800 600" xml:space="preserve">
<title  id="title4366">Italia</title>
<path fill-rule="evenodd" clip-rule="evenodd" fill="#AEA79D" d="M696.869,466.25c-0.067,1.036,0.241,1.94,0.92,2.721
	c0.889,1.292,1.846,2.535,2.855,3.733l-0.173-0.195c2.427,1.839,1.801,5.245,3.761,7.325l-0.091-0.144
	c2.336,1.65,1.417,5.241,4.009,6.737l0.219,0.207c2.419,3.878,7.876,0.306,10.287,4.198l-0.241-0.264
	c1.801,1.1,2.924,2.724,3.617,4.672l0.016,1.036c-0.98,3.437-5.02,2.676-6.82,4.974l-0.022,0.026
	c-6.414,11.045-10.988,11.994-17.515,3.621l-0.226,0.287c0.972-1.432,0.874-2.826-0.144-4.19l0.083,0.14
	c-1.387-1.014-2.51-2.329-3.874-3.365l-0.12-0.063c-1.719-2.374-5.23-1.571-6.971-3.923l0.181,0.192
	c-4.349-3.81,0.46-10.242-4.017-14.014l-0.181-0.249c-0.95-1.342-2.027-2.569-3.264-3.655l-0.022-0.022
	c-1.138-1.273-2.382-2.449-3.534-3.715l0.067,0.067c-1.273-1.168-2.51-2.389-3.655-3.685l0.075,0.079
	c-1.296-1.157-2.524-2.382-3.677-3.682l0.079,0.079c-1.301-1.149-2.529-2.378-3.682-3.678l0.079,0.079
	c-1.3-1.153-2.521-2.382-3.682-3.67l0.071,0.075c-1.284-1.16-2.502-2.389-3.681-3.655l0.06,0.061
	c-1.266-1.172-2.479-2.396-3.662-3.647l0.049,0.053c-1.247-1.184-2.461-2.404-3.659-3.64l0.046,0.045
	c-1.236-1.194-2.449-2.412-3.647-3.64l0.045,0.037c-1.236-1.206-2.476-2.404-3.617-3.7l0.075,0.083
	c-1.349-1.16-2.555-2.449-3.523-3.949l0.328,0.046c-2.431-1.003-2.404-1.93,0.079-2.785l-0.441,0.049
	c4.612-3.753,9.398-2.818,14.244-0.542l0.015,0.007c1.79,2.254,5.449,1.409,6.926,4.183l-0.241-0.278
	c1.711,0.825,2.977,2.095,3.806,3.806l-0.203-0.207c1.711,0.825,2.977,2.099,3.806,3.806l-0.203-0.207
	c1.703,0.821,2.95,2.117,3.896,3.723l-0.191-0.204c1.556,0.807,2.634,2.216,4.035,3.219l0.144,0.075
	c1.726,2.403,5.109,1.639,7.008,3.685l0.016,0.008c1.861,2.23,5.336,1.492,7.114,3.874l-0.181-0.166
	c1.439,1.04,2.652,2.313,3.798,3.658l-0.098-0.108C694.925,462.926,696.206,464.354,696.869,466.25z"/>
<path fill-rule="evenodd" clip-rule="evenodd" fill="#AEA79D" d="M472.274,454.911c0.703-0.133,0.997-0.426,1.224-0.824
	c0.324-0.573,0.809-0.999,1.366-1.253c0.133-0.278,0.271-0.687,0.45-1.252c0.431-1.353,1.005-3.156,2.653-4.485
	c0.603-0.868,1.282-1.6,1.889-2.253c0.354-0.381,0.693-0.746,0.987-1.104c0.112-0.187,0.246-0.363,0.401-0.526l0.136-0.143
	c0.192-0.202,0.407-0.372,0.637-0.509c0.747-0.607,1.346-1.161,1.796-1.752c0.16-0.621,0.519-1.193,1.059-1.615l0.294-0.229
	c0.112-0.088,0.229-0.166,0.348-0.234c0.184-0.279,0.366-0.87,0.53-1.404c0.458-1.491,1.087-3.533,3.203-4.861
	c0.286-0.18,0.6-0.31,0.929-0.384c3.828-0.872,7.646-1.314,11.35-1.314c3.991,0,7.97,0.514,11.824,1.526
	c0.321,0.084,0.627,0.222,0.903,0.406c1.424,0.951,2.779,2.035,4.029,3.221c0.164,0.156,0.307,0.327,0.428,0.508
	c0.686,0.79,1.357,1.527,2.092,2.067c0.169,0.062,0.334,0.141,0.493,0.236c2.416,1.437,4.795,2.135,7.272,2.134
	c1.974,0,4.042-0.465,6.166-1.385c0.274-0.466,0.673-0.853,1.157-1.114c1.196-0.647,2.499-0.975,3.872-0.975
	c1.486,0,2.814,0.372,3.986,0.7c0.824,0.231,1.603,0.449,2.234,0.473c2.908,0.11,5.826,0.77,8.648,1.406
	c2.923,0.659,5.683,1.282,8.234,1.282c2.934,0,6.347-0.694,9.421-5.841c6.287-10.529,5.693-19.941-1.988-31.474
	c-12.077-18.152-10.614-38.298,4.119-56.726c3.161-3.955,5.512-7.681,7.229-11.479c0.542-1.103,1.025-2.237,1.537-3.438
	c0.552-1.295,1.123-2.634,1.784-3.955c0.3-0.601,0.777-1.06,1.341-1.342c0.544-0.87,0.571-2.077,0.496-4.201
	c-0.094-2.675-0.222-6.333,2.685-9.184c1.229-1.274,2.556-2.444,3.944-3.478c1.375-1.781,3.277-2.358,4.702-2.791
	c0.616-0.187,1.205-0.365,1.527-0.577c0.136-0.204,0.299-0.396,0.489-0.567l0.195-0.178c0.103-0.094,0.211-0.178,0.323-0.255
	c1.109-0.908,2.229-1.782,3.334-2.603c1.143-1.033,2.543-1.578,4.063-1.578c0.004,0,0.009,0,0.013,0
	c0.955-0.379,1.819-1.123,2.9-2.227c1.428-1.666,3.325-2.246,4.714-2.67c0.846-0.259,1.437-0.449,1.771-0.707
	c0.094-0.155,0.203-0.303,0.327-0.442l0.245-0.275c0.382-0.429,0.861-0.723,1.378-0.877c0.684-0.518,1.312-1.213,1.991-1.997
	c0.128-0.186,0.278-0.36,0.452-0.519l0.113-0.104c0.088-0.081,0.18-0.155,0.274-0.223c0.471-0.401,0.939-0.847,1.432-1.316
	c0.614-0.586,1.248-1.19,1.957-1.772c1.09-1.25,2.271-2.437,3.516-3.532c0.498-0.601,1.01-1.14,1.507-1.662
	c0.487-0.512,0.952-1.001,1.346-1.491c0.105-0.183,0.232-0.356,0.38-0.518l0.158-0.173c0.132-0.144,0.273-0.272,0.425-0.384
	c0.356-0.44,0.566-1.155,0.854-2.198c0.313-1.136,0.693-2.515,1.547-3.797c-0.012-0.016-0.023-0.032-0.034-0.048
	c-1.266-0.738-2.763-1.052-4.857-1.052c-1.069,0-2.175,0.079-3.346,0.162c-1.224,0.087-2.489,0.177-3.771,0.177
	c-1.957,0-4.757-0.188-7.511-1.667c-0.245,0.026-0.491,0.039-0.735,0.039c-1.106,0-2.19-0.261-3.253-0.792
	c-2.878-1.482-4.893-3.636-6.841-5.718c-0.531-0.568-1.062-1.136-1.61-1.685c-0.189-0.19-0.35-0.4-0.479-0.624
	c-0.65-0.42-1.59-0.514-3.282-0.599c-1.879-0.095-4.159-0.209-6.228-1.542l-5.626-0.408c-0.484-0.035-0.952-0.187-1.363-0.441
	c-0.106,0.091-0.22,0.175-0.34,0.252c-0.056,0.035-0.111,0.068-0.168,0.1c-2.677,1.583-5.555,2.385-8.556,2.385
	c-2.618,0-5.328-0.591-8.27-1.805c-0.3-0.078-0.591-0.204-0.862-0.378l-0.158-0.102c-0.596-0.382-1.013-0.942-1.224-1.568
	c-0.393-0.554-0.895-1.105-1.419-1.681c-0.352-0.386-0.702-0.773-1.039-1.173c-0.206-0.244-0.371-0.52-0.49-0.817
	c-1.312-3.274-1.609-6.789-0.905-10.71c-0.576-1.231-0.87-2.469-1.138-3.592c-0.276-1.159-0.517-2.168-0.994-2.91
	c-1.037-1.229-1.537-2.736-1.44-4.32c-1.728-7.222-3.144-15.581,0.638-24.062c0.064-0.151,0.143-0.298,0.233-0.44
	c0.157-0.244,0.344-0.458,0.552-0.64l0.377-0.375c0.935-0.931,1.869-1.861,2.78-2.815c0.039-0.05,0.08-0.099,0.123-0.147
	c1.434-1.614,3.237-2.162,4.687-2.602c0.87-0.264,1.477-0.458,1.819-0.729c0.059-0.091,0.122-0.179,0.192-0.264l0.302-0.371
	c0.191-0.236,0.412-0.436,0.652-0.597c0.668-0.891,0.705-2.112,0.624-4.418c-0.098-2.82-0.221-6.331,2.661-9.191
	c0,0,0.1-0.096,0.124-0.118c2.475-2.275,5.397-2.569,7.674-2.569c0.55,0,1.104,0.018,1.66,0.035c0.49,0.016,0.98,0.032,1.467,0.032
	c1.859,0,2.841-0.27,3.559-0.933c0,0,3.697-3.646,3.728-3.674c0.378-0.344,0.585-1.142,0.825-2.065
	c0.382-1.469,0.898-3.459,2.606-5.006c1.548-1.73,3.551-2.253,5.027-2.639c0.928-0.242,1.729-0.452,2.067-0.834
	c0.299-0.337,0.669-0.602,1.084-0.776l1.255-0.527c0.369-0.155,0.764-0.234,1.162-0.234c0.106,0,0.213,0.006,0.319,0.017l0.49,0.052
	c1.063-0.463,2.128-0.727,3.094-0.966c1.413-0.35,2.358-0.606,2.992-1.165c0.076-0.095,0.158-0.187,0.247-0.274l0.211-0.208
	c0.223-0.219,0.471-0.396,0.735-0.532c0.738-0.6,1.307-1.277,1.719-2.05c-0.056-1.385,0.333-2.72,1.146-3.914
	c0.068-0.1,0.143-0.196,0.222-0.287c0.893-1.018,1.763-2.117,2.592-3.27c0.116-0.216,0.26-0.42,0.432-0.607l0.121-0.132
	c0.416-0.452,0.939-0.749,1.497-0.885c3.268-1.482,6.464-1.683,8.931-1.683c1.5,0,2.99,0.088,4.431,0.173
	c1.417,0.084,2.755,0.163,4.077,0.163c2.854,0,4.977-0.407,6.799-1.312c0.318-0.471,0.522-1.205,0.754-2.034
	c0.381-1.366,0.844-3.028,2.093-4.482c-1.151-1.388-1.608-2.964-1.981-4.252c-0.274-0.95-0.481-1.62-0.796-2.038
	c-0.214-0.144-0.412-0.318-0.589-0.521l-0.188-0.217c-0.087-0.099-0.165-0.203-0.236-0.31c-0.913-1.147-1.747-2.239-2.54-3.325
	c-0.951-1.072-1.466-2.346-1.516-3.737c-0.33-0.459-0.926-0.59-2.866-0.691c-2.04-0.106-4.804-0.25-6.86-2.489
	c-1.35-0.84-2.971-1.189-5.43-1.189c-0.784,0-1.573,0.031-2.361,0.061c-0.865,0.033-1.73,0.065-2.59,0.065
	c-2.045,0-4.657-0.165-7.229-1.354c-1.409,0-2.713-0.511-3.786-1.479c-0.766-0.54-1.838-0.794-3.072-1.086
	c-1.066-0.252-2.24-0.53-3.413-1.047c-0.213,0.023-0.427,0.035-0.64,0.035c-1.169,0-2.283-0.343-3.312-1.019
	c-0.056-0.037-0.11-0.075-0.163-0.116c-1.08-0.817-2.159-1.198-3.398-1.198c-1.182,0-2.569,0.351-4.242,1.074
	c-0.053,0.023-0.106,0.044-0.16,0.064c-2.461,0.899-4.943,1.354-7.378,1.354c-1.806,0-3.622-0.25-5.399-0.745
	c-0.51-0.142-0.973-0.416-1.343-0.795c-0.612-0.627-1.554-0.875-3.04-1.226c-1.123-0.265-2.366-0.559-3.594-1.169
	c-1.278-0.037-2.47-0.408-3.552-1.107c-2.014-0.63-4.122-1.181-6.073-1.181c-1.729,0-3.205,0.428-4.605,1.342
	c-2.361,2.244-5.274,2.358-7.41,2.441c-1.771,0.069-2.807,0.14-3.496,0.781c-0.505,0.47-1.156,0.752-1.846,0.798l-5.868,0.39
	c-1.784,0.962-3.545,1.45-5.245,1.45c-1.622,0-3.184-0.432-4.656-1.286c-0.229,0.023-0.459,0.035-0.688,0.035
	c-1.101,0-2.179-0.27-3.202-0.803c-0.28-0.146-0.536-0.335-0.758-0.562c-0.653-0.666-1.685-0.737-3.451-0.805
	c-2.182-0.083-5.169-0.198-7.528-2.622c-0.103-0.105-0.196-0.217-0.28-0.333c-0.461-0.356-1.181-0.573-2.218-0.864
	c-1.384-0.389-3.106-0.873-4.598-2.163c-0.223-0.192-0.41-0.411-0.562-0.646c-0.409-0.297-1.06-0.499-1.975-0.766
	c-1.439-0.42-3.23-0.943-4.715-2.433c-0.111-0.111-0.212-0.229-0.302-0.354c-0.376-0.275-0.996-0.466-1.886-0.724
	c-1.419-0.412-3.342-0.971-4.833-2.613c-0.719-0.603-1.815-0.879-3.077-1.197c-1.133-0.285-2.391-0.602-3.63-1.221l-8.216-0.059
	c-6.854,1.354-13.074,2.013-19.006,2.013c-6.581,0-12.676-0.801-18.633-2.448c-0.409-0.113-0.789-0.312-1.115-0.583l-0.086-0.071
	c-0.293-0.241-0.583-0.485-0.873-0.73c-0.808-0.681-1.579-1.332-2.37-1.84l-4.614,0.018c-3.881,1.296-7.863,1.954-11.845,1.954
	c-3.816,0-7.724-0.604-11.628-1.795c-0.357,0.062-0.715,0.093-1.07,0.093c-1.156,0-2.27-0.32-3.31-0.953
	c-0.215-0.13-0.412-0.287-0.588-0.467c-0.841-0.86-1.833-1.835-2.946-2.704c-0.299-0.155-0.577-0.364-0.818-0.625l-0.151-0.164
	c-0.096-0.104-0.183-0.212-0.261-0.324c-0.909-1.095-1.787-2.205-2.617-3.306c-1.086-1.093-1.654-2.486-1.638-4.003
	c-0.318-0.967-0.873-1.548-1.809-1.89c-0.153,0.013-0.306,0.02-0.458,0.02c-0.674,0-1.323-0.126-1.932-0.371
	c-1.02,0.452-1.99,1.062-2.345,1.828c-0.618,1.337,0.383,3.823,1.352,6.228c0.215,0.535,0.43,1.069,0.633,1.601
	c1.046,1.416,1.475,2.975,1.827,4.253c0.277,1.007,0.518,1.885,0.963,2.398c0.072,0.067,0.142,0.138,0.208,0.213
	c3.23,3.638,3.213,7.729-0.02,11.002c-0.021,0.026-0.042,0.052-0.062,0.078c-1.164,1.4-2.467,2.685-3.875,3.819
	c-1.482,1.76-3.446,2.315-4.909,2.729c-0.804,0.227-1.507,0.426-1.855,0.724c-0.018,0.021-0.036,0.042-0.055,0.063
	c-1.65,1.858-3.788,2.377-5.349,2.756c-0.908,0.221-1.692,0.411-2.122,0.76c-0.089,0.072-0.183,0.14-0.28,0.202
	c-1.199,0.764-2.505,1.156-3.882,1.166c-2.083,1.295-4.353,1.414-6.233,1.513c-1.744,0.092-2.837,0.179-3.598,0.772
	c-0.04,0.047-0.083,0.094-0.126,0.139c-0.783,0.812-1.292,1.587-0.157,3.488l0.023,0.032c5.088,5.532,2.118,11.392,0.836,13.673
	c-0.077,0.176-0.173,0.346-0.287,0.508l-0.091,0.13c-0.29,0.415-0.667,0.734-1.09,0.951c-0.821,0.659-1.596,1.434-2.351,2.349
	c-0.134,0.22-0.299,0.425-0.493,0.611l-0.133,0.126c-0.15,0.142-0.31,0.266-0.478,0.371c-0.57,0.467-1.13,1.007-1.718,1.575
	c-0.489,0.473-0.979,0.945-1.489,1.395c-1.152,1.305-2.468,2.441-3.917,3.381c-1.304,1.864-3.26,2.485-4.603,2.912
	c-0.493,0.156-1.081,0.343-1.366,0.523c-0.133,0.244-0.303,0.473-0.508,0.678l-0.173,0.173c-0.45,0.451-1.011,0.731-1.6,0.836
	c-2.576,1.08-5.226,1.626-7.891,1.626c-2.48,0-5.01-0.475-7.538-1.413c-0.001,0-0.001,0-0.002,0c-0.569,0-1.127-0.162-1.606-0.466
	c-0.312,0.565-0.312,1.399,0.027,3.091c1.989,4.116,2.914,8.494,3.81,12.731c1.216,5.754,2.365,11.193,6.029,15.54
	c1.071,0.919,2.185,1.604,3.396,2.09c7.397,2.138,15.312,4.24,23.631,4.549c0.679,0.025,1.357,0.038,2.037,0.038
	c6.673,0,13.292-1.132,20.3-2.33c6.954-1.188,14.145-2.417,21.341-2.417c8.312,0,15.623,1.687,22.305,5.15
	c0.275-0.06,0.568-0.101,0.881-0.124c1.553-0.259,3.117-0.391,4.653-0.391c8.459,0,16.131,3.901,21.049,10.704
	c5.235,7.242,6.504,16.649,3.479,25.809c-2.26,6.85-4.186,13.992-6.049,20.899c-4.155,15.405-8.451,31.335-16.832,45.784
	c-2.95,5.084-3.965,9.458-3.103,13.369c2.528,11.39,0.381,22.26-1.696,32.772l-0.39,1.981c-0.03,0.973-0.064,1.946-0.099,2.919
	c-0.258,7.225-0.501,14.053,1.195,20.771c3.635,8.15,8.652,12.627,15.774,14.08c0.896,0.183,1.661,0.766,2.075,1.582
	c0.206,0.404,0.314,0.845,0.324,1.287c0.396,0.46,0.824,0.844,1.291,1.156c0.547,0.146,1.056,0.448,1.457,0.896l0.192,0.215
	c0.306,0.342,0.521,0.737,0.644,1.155c0.602,0.952,1.456,1.763,2.306,2.503c0.661,0.576,1.037,1.413,1.029,2.29
	c-0.022,2.388-0.045,4.78-0.075,7.169c-0.005,0.37-0.078,0.736-0.216,1.079c-2.418,6.025-2.481,12.345-0.192,19.312
	c0.521,1.122,0.755,2.314,0.694,3.519c1.321,2.14,1.423,4.451,1.507,6.37c0.079,1.791,0.159,2.93,0.794,3.729
	c0.087,0.11,0.167,0.226,0.238,0.347c0.688,1.173,1.031,2.466,1.016,3.791c0.476,0.781,1.054,1.443,1.747,2.002
	c0.326,0.156,0.629,0.373,0.891,0.651l0.188,0.2c0.203,0.215,0.368,0.454,0.496,0.706c0.504,0.66,1.035,1.209,1.604,1.655
	c0.674,0.174,1.289,0.581,1.715,1.194c0.424,0.609,0.949,0.993,1.652,1.205c0.26,0.079,0.509,0.192,0.738,0.338
	c0.733,0.466,1.369,0.975,1.983,1.468c1.221,0.979,2.012,1.579,2.837,1.579C472.086,454.931,472.211,454.921,472.274,454.911z"/>
<path fill-rule="evenodd" clip-rule="evenodd" fill="#AEA79D" d="M350.326,421.353c0.156-0.311,0.369-0.598,0.637-0.847l0.207-0.192
	c0.12-0.112,0.247-0.212,0.38-0.301c0.147-0.268,0.33-0.887,0.436-1.25c0.419-1.423,1.041-3.537,3.211-4.828
	c1.234-1.013,2.705-1.546,4.274-1.546c0.025,0,0.05,0,0.075,0c3.103-1.282,6.313-1.906,9.789-1.906
	c3.227,0,6.676,0.555,10.526,1.695l0.756-0.07c0.093-0.009,0.186-0.013,0.278-0.013c0.414,0,0.825,0.086,1.207,0.253l1.236,0.543
	c0.364,0.16,0.692,0.391,0.966,0.679c0.583,0.612,1.467,0.706,3.346,0.774c2.218,0.08,5.256,0.19,7.599,2.77
	c0.02,0.021,0.038,0.043,0.057,0.064c0.815,0.645,1.959,0.736,3.794,0.834c1.723,0.091,3.779,0.2,5.733,1.182
	c0.49-0.611,0.972-1.263,1.471-1.936c2.436-3.285,5.179-6.984,10.371-8.109c1.568-1.268,3.42-1.646,4.832-1.936
	c1.472-0.302,2.07-0.476,2.404-0.867c0.672-3.481-1.118-5.322-4.499-8.427c-2.496-2.292-5.318-4.883-6.257-8.786
	c-2.391-6.366-1.454-12.462-0.549-18.358c0.613-3.993,1.193-7.765,0.719-11.443c-0.062-0.471-0.01-0.948,0.15-1.396
	c1.986-5.555,1.398-11.558,0.777-17.914c-0.748-7.634-1.521-15.527,2.443-22.796c7.302-13.386,11.343-28.197,15.25-42.521
	c2.699-9.888,5.488-20.112,9.34-29.906c2.406-6.124,1.422-13.107-2.701-19.16c-4.336-6.362-11.314-10.341-18.258-10.425
	c-4.043,1.612-8.32,3.125-12.549,3.125c-5.835,0-10.487-2.815-14.22-8.607c-0.796-1.236-1.817-1.812-3.215-1.812
	c-1.216,0-2.631,0.433-4.092,1.253c-9.451,5.301-19.352,7.878-30.267,7.878c-10.236,0-21.128-2.21-35.201-7.155
	c-0.462-0.035-0.923-0.177-1.342-0.434c-5.18-3.175-5.922-8.785-6.519-13.293c-0.725-5.479-1.319-8.479-5.598-9.795
	c-0.768,0.093-1.401,0.368-1.954,0.848c-0.142,0.167-0.304,0.321-0.487,0.458l-0.105,0.079c-0.162,0.122-0.332,0.224-0.507,0.308
	c-2.644,1.607-4.533,3.236-5.168,5.745c-0.054,1.622-0.716,3.062-1.902,4.144c-1.299,1.977-3.306,2.564-4.674,2.965
	c-0.328,0.096-0.941,0.276-1.219,0.419c-0.117,0.18-0.255,0.349-0.415,0.505l-0.188,0.185c-0.229,0.224-0.485,0.405-0.758,0.541
	c-0.499,0.394-0.997,0.869-1.517,1.364c-0.478,0.456-0.971,0.925-1.458,1.336c-0.928,1.09-1.914,2.064-2.869,3.009l-0.596,0.589
	c-0.305,0.318-0.618,0.628-0.931,0.938c-0.619,0.612-1.176,1.163-1.612,1.73c-0.158,0.444-0.422,0.855-0.79,1.195l-0.249,0.229
	c-0.134,0.124-0.276,0.233-0.425,0.328c-0.249,0.327-0.44,0.912-0.696,1.75c-0.418,1.369-0.983,3.218-2.59,4.636
	c-0.358,0.406-0.735,0.797-1.113,1.186c-0.503,0.519-0.958,0.988-1.318,1.457c-0.155,0.448-0.419,0.865-0.787,1.208l-0.249,0.232
	c-0.143,0.133-0.295,0.25-0.455,0.35c-0.245,0.326-0.435,0.907-0.688,1.735c-0.421,1.373-0.99,3.229-2.611,4.644
	c-1.101,1.155-1.893,2.036-2.295,3c0.057,1.286-0.284,2.499-1.002,3.573c-1.981,7.552-1.881,13.292,0.324,18.472
	c0.806,0.896,1.553,1.503,2.335,1.896l0.536-0.066c0.122-0.015,0.245-0.022,0.367-0.022c0.354,0,0.706,0.062,1.039,0.186
	l1.255,0.463c0.437,0.162,0.83,0.422,1.148,0.762c0.584,0.622,1.474,0.718,3.365,0.787c2.211,0.082,5.24,0.193,7.579,2.745
	c0.088,0.096,0.168,0.196,0.241,0.299c0.779,0.867,1.531,1.683,2.346,2.287c0.333,0.14,0.645,0.342,0.919,0.605l0.2,0.192
	c0.309,0.298,0.542,0.648,0.696,1.025c0.509,0.687,1.155,1.333,1.982,1.981c0.277,0.147,0.536,0.341,0.764,0.58l0.155,0.162
	c0.188,0.197,0.345,0.414,0.469,0.643c0.317,0.399,0.691,0.804,1.082,1.227c0.551,0.597,1.17,1.267,1.731,2.038
	c1.691,1.424,2.251,3.311,2.67,4.722c0.232,0.783,0.408,1.336,0.626,1.657c0.175,0.119,0.34,0.257,0.492,0.416
	c1.517,1.591,1.993,3.471,2.375,4.981c0.257,1.015,0.479,1.891,0.926,2.339c0.142,0.142,0.269,0.297,0.379,0.464
	c0.848,1.283,1.197,2.698,1.035,4.152c2.067,4.82,1.945,9.284-0.367,13.288c-0.081,0.175-0.18,0.346-0.297,0.507l-0.128,0.177
	c-0.228,0.314-0.505,0.572-0.815,0.77c-0.285,0.389-0.482,1.021-0.745,1.912c-0.433,1.469-0.973,3.297-2.56,4.779
	c-0.108,0.101-0.222,0.191-0.341,0.273c-0.921,0.849-1.61,1.646-1.952,2.565c0.09,1.558-0.439,3.02-1.49,4.138
	c-0.884,1.027-1.666,1.938-2.055,2.899c0.214,1.486-0.206,2.965-1.236,4.206c-1.05,1.219-1.06,2.822-0.988,5.338
	c0.071,2.488,0.157,5.507-1.577,8.261c0.061,1.37-0.251,2.715-0.927,3.953c-0.07,0.129-0.15,0.253-0.238,0.37
	c-0.613,0.812-0.884,1.962-1.197,3.293c-0.251,1.068-0.529,2.248-1.036,3.427c0.099,1.418-0.297,2.777-1.173,3.987
	c-0.061,0.083-0.125,0.163-0.194,0.24c-0.62,0.693-0.879,1.798-1.18,3.076c-0.257,1.094-0.541,2.302-1.104,3.502
	c0.061,1.331-0.288,2.616-1.033,3.78c-1.938,3.646-1.369,5.396,0.178,7.028c0.12,0.126,0.226,0.259,0.319,0.398
	c0.333,0.234,0.898,0.416,1.687,0.656c1.372,0.418,3.216,0.98,4.628,2.593c0.531,0.441,1.006,0.893,1.466,1.33
	c0.51,0.483,0.999,0.947,1.485,1.317c0.321,0.142,0.623,0.343,0.887,0.602l0.188,0.185c0.262,0.257,0.468,0.552,0.616,0.867
	c0.551,0.725,1.14,1.312,1.781,1.776c0.422,0.151,0.815,0.399,1.145,0.741l0.211,0.219c0.294,0.306,0.513,0.659,0.653,1.036
	c0.452,0.638,0.996,1.185,1.645,1.653c0.38,0.146,0.736,0.373,1.041,0.678l0.211,0.211c0.323,0.323,0.559,0.704,0.704,1.111
	c0.548,0.755,1.298,1.442,2.063,2.106c0.181,0.114,0.353,0.25,0.511,0.406c1.49,1.475,2.014,3.259,2.435,4.691
	c0.27,0.92,0.464,1.545,0.75,1.94c0.278,0.171,0.534,0.391,0.752,0.657c1.243,1.516,1.715,3.245,2.095,4.635
	c0.321,1.174,0.55,1.952,0.98,2.452c0.012,0.011,0.024,0.021,0.036,0.032c1.665,1.512,2.211,3.393,2.65,4.904
	c0.279,0.961,0.482,1.616,0.796,2.003c0.132,0.102,0.258,0.216,0.375,0.343l0.132,0.143c0.111,0.12,0.211,0.247,0.299,0.38
	c0.747,0.9,1.645,1.807,2.796,2.819c0.059,0.046,0.115,0.095,0.171,0.146l0.099,0.091c0.161,0.148,0.302,0.311,0.423,0.482
	c0.943,1.062,1.728,1.669,2.57,1.979l0.673-0.059c0.087-0.008,0.175-0.012,0.262-0.012c0.446,0,0.887,0.1,1.292,0.292
	c0,0,1.197,0.572,1.23,0.59c1.975,1.034,4.261,1.495,7.411,1.495c1.329,0,2.671-0.074,4.091-0.153
	c1.44-0.079,2.929-0.162,4.425-0.162c2.392,0,5.447,0.179,8.594,1.443c0.271-0.078,0.55-0.117,0.829-0.117
	c0.292,0,0.584,0.043,0.867,0.128C349.192,422.514,349.773,422.024,350.326,421.353z"/>
<path fill-rule="evenodd" clip-rule="evenodd" fill="#AEA79D" d="M583.758,475.104c0.832,0,2.348-0.273,4.893-1.545
	c1.343-1.119,2.869-1.569,4.117-1.938c0.919-0.271,1.563-0.473,1.941-0.771c0.104-0.181,0.229-0.353,0.375-0.512l0.261-0.286
	c0.388-0.425,0.871-0.715,1.391-0.863c0.512-0.377,0.949-0.825,1.321-1.354c0.145-0.442,0.394-0.856,0.744-1.203l0.226-0.223
	c0.338-0.333,0.737-0.571,1.163-0.712c0.589-0.412,1.084-0.911,1.496-1.505c0.186-0.628,0.576-1.199,1.15-1.604
	c1.505-1.06,3.097-1.442,4.501-1.779c1.333-0.321,2.177-0.544,2.711-1.067c0.299-0.293,0.654-0.52,1.045-0.667l1.263-0.475
	c0.339-0.127,0.696-0.191,1.056-0.191c0.127,0,0.254,0.008,0.381,0.024c0.548-0.581,0.854-1.14,0.911-1.668
	c0.105-0.96-0.55-2.133-1.259-3.092c-0.289-0.25-0.535-0.561-0.717-0.923l-0.121-0.241c-0.068-0.135-0.125-0.272-0.17-0.411
	c-1.271-2.917-3.482-8.511,1.177-13.462l0.044-0.062c1.069-1.531,2.306-2.875,3.679-4c1.073-1.359,2.4-2.51,3.949-3.423
	c0.376-0.222,0.796-0.359,1.23-0.401l7.365-0.724c0.099-0.01,0.196-0.015,0.294-0.015c0.69,0,1.363,0.238,1.901,0.68
	c0.577,0.473,0.946,0.681,1.136,0.771c0.006-0.006,0.012-0.013,0.018-0.021c0.065-0.428,0.181-0.839,0.344-1.229
	c-0.286-0.834-0.477-1.653-0.654-2.413c-0.33-1.419-0.576-2.382-1.115-3.053c-0.254-0.198-0.479-0.441-0.665-0.725l-0.086-0.132
	c-0.27-0.415-0.425-0.874-0.472-1.338c-2.645-9.513-2.686-19.562-0.123-29.893c-0.223-1.577,0.111-3.124,0.984-4.517
	c0.096-0.153,0.205-0.298,0.327-0.431c0.457-0.5,0.68-1.398,0.938-2.438c0.366-1.479,0.822-3.319,2.218-4.916
	c0.169-0.193,0.357-0.36,0.56-0.5c0.475-0.593,0.711-1.456,1.042-2.771c0.256-1.016,0.539-2.139,1.063-3.254
	c0.021-1.449,0.51-2.816,1.449-4.012l0.312-0.389c0.757-0.941,1.427-1.775,1.773-2.637c-0.168-1.468,0.253-2.886,1.225-4.082
	c0.611-0.849,0.784-1.429,0.744-1.672c-0.018-0.109-0.109-0.272-0.299-0.476l-7.534,0.036c-0.563,0.337-1.135,0.769-1.731,1.218
	c-0.445,0.336-0.892,0.672-1.352,0.988c-1.163,1.021-2.573,1.565-4.098,1.577c-2.332,0.991-4.667,1.493-6.95,1.493
	c-2.275,0-4.525-0.496-6.704-1.477c-0.103,0.005-0.205,0.008-0.308,0.008c-1.407,0-2.756-0.486-3.915-1.418
	c-1.255-1.021-2.468-2.099-3.609-3.204c-0.101-0.086-0.197-0.18-0.289-0.281c-0.452-0.504-0.926-0.987-1.397-1.472
	c-0.688-0.704-1.396-1.431-2.029-2.179c-0.983-0.846-1.869-1.791-2.644-2.821c-0.317-0.124-0.615-0.302-0.88-0.532
	c-1.438-1.25-2.439-3.251-3.317-5.069c-2.28,2.582-5.018,4.814-7.686,6.992c-5.951,4.854-11.09,9.047-10.165,15.779l0.371,2.74
	c1.475,10.978,3,22.328,8.845,31.961c11.361,18.724,8.88,32.065-8.553,46.04c-0.84,0.682-1.312,1.485-1.478,2.52
	c0.009,0.892,0.279,1.6,0.863,2.245c0.133,0.111,0.258,0.237,0.373,0.375l0.098,0.117c0.09,0.108,0.171,0.221,0.243,0.337
	c2.397,3.381,2.235,7.088,2.104,10.079c-0.043,0.984-0.083,1.914-0.042,2.783c0.27,5.682,2.056,5.702,2.739,5.702
	C583.753,475.104,583.755,475.104,583.758,475.104z"/>
</svg>
